<?xml version="1.0" encoding="utf-8" standalone="no"?>
<!DOCTYPE svg PUBLIC "-//W3C//DTD SVG 1.1//EN"
  "http://www.w3.org/Graphics/SVG/1.1/DTD/svg11.dtd">
<!-- Created with matplotlib (https://matplotlib.org/) -->
<svg height="641.99952pt" version="1.1" viewBox="0 0 1145.99952 641.99952" width="1145.99952pt" xmlns="http://www.w3.org/2000/svg" xmlns:xlink="http://www.w3.org/1999/xlink">
 <defs>
  <style type="text/css">
*{stroke-linecap:butt;stroke-linejoin:round;}
  </style>
 </defs>
 <g id="figure_1">
  <g id="patch_1">
   <path d="M 0 641.99952 
L 1145.99952 641.99952 
L 1145.99952 0 
L 0 0 
z
" style="fill:#ffffff;"/>
  </g>
  <g id="axes_1">
   <g id="patch_2">
    <path d="M 39.340438 582.212145 
L 1145.99952 582.212145 
L 1145.99952 0 
L 39.340438 0 
z
" style="fill:#eaeaf2;"/>
   </g>
   <g id="matplotlib.axis_1">
    <g id="xtick_1">
     <g id="line2d_1">
      <path clip-path="url(#p8575e1a495)" d="M 82.09443 582.212145 
L 82.09443 0 
" style="fill:none;stroke:#ffffff;stroke-linecap:round;stroke-width:2;"/>
     </g>
     <g id="text_1">
      <!-- 0.4 -->
      <defs>
       <path d="M 23.578125 36.625 
Q 23.578125 39.3125 25.453125 41.265625 
Q 27.34375 43.21875 29.984375 43.21875 
Q 32.71875 43.21875 34.671875 41.265625 
Q 36.625 39.3125 36.625 36.625 
Q 36.625 33.890625 34.6875 31.984375 
Q 32.765625 30.078125 29.984375 30.078125 
Q 27.25 30.078125 25.40625 31.9375 
Q 23.578125 33.796875 23.578125 36.625 
z
M 30.078125 66.40625 
Q 23.1875 66.40625 19.796875 58.984375 
Q 16.40625 51.5625 16.40625 36.375 
Q 16.40625 21.234375 19.796875 13.8125 
Q 23.1875 6.390625 30.078125 6.390625 
Q 37.015625 6.390625 40.40625 13.8125 
Q 43.796875 21.234375 43.796875 36.375 
Q 43.796875 51.5625 40.40625 58.984375 
Q 37.015625 66.40625 30.078125 66.40625 
z
M 30.078125 74.21875 
Q 41.75 74.21875 47.734375 64.640625 
Q 53.71875 55.078125 53.71875 36.375 
Q 53.71875 17.71875 47.734375 8.140625 
Q 41.75 -1.421875 30.078125 -1.421875 
Q 18.40625 -1.421875 12.453125 8.140625 
Q 6.5 17.71875 6.5 36.375 
Q 6.5 55.078125 12.453125 64.640625 
Q 18.40625 74.21875 30.078125 74.21875 
z
" id="DejaVuSansMono-48"/>
       <path d="M 23.875 14.890625 
L 36.1875 14.890625 
L 36.1875 0 
L 23.875 0 
z
" id="DejaVuSansMono-46"/>
       <path d="M 35.890625 63.921875 
L 12.890625 25.390625 
L 35.890625 25.390625 
z
M 34.28125 72.90625 
L 45.703125 72.90625 
L 45.703125 25.390625 
L 55.421875 25.390625 
L 55.421875 17.390625 
L 45.703125 17.390625 
L 45.703125 0 
L 35.890625 0 
L 35.890625 17.390625 
L 4.984375 17.390625 
L 4.984375 26.703125 
z
" id="DejaVuSansMono-52"/>
      </defs>
      <g style="fill:#262626;" transform="translate(64.214102 612.862239)scale(0.198 -0.198)">
       <use xlink:href="#DejaVuSansMono-48"/>
       <use x="60.205078" xlink:href="#DejaVuSansMono-46"/>
       <use x="120.410156" xlink:href="#DejaVuSansMono-52"/>
      </g>
     </g>
    </g>
    <g id="xtick_2">
     <g id="line2d_2">
      <path clip-path="url(#p8575e1a495)" d="M 295.22608 582.212145 
L 295.22608 0 
" style="fill:none;stroke:#ffffff;stroke-linecap:round;stroke-width:2;"/>
     </g>
     <g id="text_2">
      <!-- 0.5 -->
      <defs>
       <path d="M 10.109375 72.90625 
L 47.015625 72.90625 
L 47.015625 64.59375 
L 19.09375 64.59375 
L 19.09375 46.6875 
Q 21.1875 47.46875 23.3125 47.828125 
Q 25.4375 48.1875 27.59375 48.1875 
Q 38.921875 48.1875 45.5625 41.5 
Q 52.203125 34.8125 52.203125 23.390625 
Q 52.203125 11.859375 45.234375 5.21875 
Q 38.28125 -1.421875 26.21875 -1.421875 
Q 20.40625 -1.421875 15.59375 -0.640625 
Q 10.796875 0.140625 6.984375 1.703125 
L 6.984375 11.71875 
Q 11.46875 9.28125 16.015625 8.078125 
Q 20.5625 6.890625 25.296875 6.890625 
Q 33.453125 6.890625 37.859375 11.1875 
Q 42.28125 15.484375 42.28125 23.390625 
Q 42.28125 31.203125 37.71875 35.546875 
Q 33.15625 39.890625 25 39.890625 
Q 21.046875 39.890625 17.28125 38.984375 
Q 13.53125 38.09375 10.109375 36.28125 
z
" id="DejaVuSansMono-53"/>
      </defs>
      <g style="fill:#262626;" transform="translate(277.345752 612.862239)scale(0.198 -0.198)">
       <use xlink:href="#DejaVuSansMono-48"/>
       <use x="60.205078" xlink:href="#DejaVuSansMono-46"/>
       <use x="120.410156" xlink:href="#DejaVuSansMono-53"/>
      </g>
     </g>
    </g>
    <g id="xtick_3">
     <g id="line2d_3">
      <path clip-path="url(#p8575e1a495)" d="M 508.35773 582.212145 
L 508.35773 0 
" style="fill:none;stroke:#ffffff;stroke-linecap:round;stroke-width:2;"/>
     </g>
     <g id="text_3">
      <!-- 0.6 -->
      <defs>
       <path d="M 48.390625 71.296875 
L 48.390625 62.203125 
Q 45.3125 64.015625 41.84375 64.96875 
Q 38.375 65.921875 34.625 65.921875 
Q 25.25 65.921875 20.40625 58.859375 
Q 15.578125 51.8125 15.578125 38.09375 
Q 17.921875 42.96875 22.0625 45.578125 
Q 26.21875 48.1875 31.59375 48.1875 
Q 42.140625 48.1875 47.921875 41.71875 
Q 53.71875 35.25 53.71875 23.390625 
Q 53.71875 11.578125 47.75 5.078125 
Q 41.796875 -1.421875 31 -1.421875 
Q 18.3125 -1.421875 12.40625 7.6875 
Q 6.5 16.796875 6.5 36.375 
Q 6.5 54.828125 13.59375 64.515625 
Q 20.703125 74.21875 34.1875 74.21875 
Q 37.796875 74.21875 41.40625 73.453125 
Q 45.015625 72.703125 48.390625 71.296875 
z
M 30.8125 40.484375 
Q 24.515625 40.484375 20.890625 35.9375 
Q 17.28125 31.390625 17.28125 23.390625 
Q 17.28125 15.375 20.890625 10.828125 
Q 24.515625 6.296875 30.8125 6.296875 
Q 37.359375 6.296875 40.671875 10.609375 
Q 44 14.9375 44 23.390625 
Q 44 31.890625 40.671875 36.1875 
Q 37.359375 40.484375 30.8125 40.484375 
z
" id="DejaVuSansMono-54"/>
      </defs>
      <g style="fill:#262626;" transform="translate(490.477402 612.862239)scale(0.198 -0.198)">
       <use xlink:href="#DejaVuSansMono-48"/>
       <use x="60.205078" xlink:href="#DejaVuSansMono-46"/>
       <use x="120.410156" xlink:href="#DejaVuSansMono-54"/>
      </g>
     </g>
    </g>
    <g id="xtick_4">
     <g id="line2d_4">
      <path clip-path="url(#p8575e1a495)" d="M 721.48938 582.212145 
L 721.48938 0 
" style="fill:none;stroke:#ffffff;stroke-linecap:round;stroke-width:2;"/>
     </g>
     <g id="text_4">
      <!-- 0.7 -->
      <defs>
       <path d="M 6.78125 72.90625 
L 52.6875 72.90625 
L 52.6875 68.703125 
L 26.609375 0 
L 16.3125 0 
L 41.703125 64.59375 
L 6.78125 64.59375 
z
" id="DejaVuSansMono-55"/>
      </defs>
      <g style="fill:#262626;" transform="translate(703.609052 612.862239)scale(0.198 -0.198)">
       <use xlink:href="#DejaVuSansMono-48"/>
       <use x="60.205078" xlink:href="#DejaVuSansMono-46"/>
       <use x="120.410156" xlink:href="#DejaVuSansMono-55"/>
      </g>
     </g>
    </g>
    <g id="xtick_5">
     <g id="line2d_5">
      <path clip-path="url(#p8575e1a495)" d="M 934.62103 582.212145 
L 934.62103 0 
" style="fill:none;stroke:#ffffff;stroke-linecap:round;stroke-width:2;"/>
     </g>
     <g id="text_5">
      <!-- 0.8 -->
      <defs>
       <path d="M 30.078125 34.625 
Q 23.484375 34.625 19.890625 30.9375 
Q 16.3125 27.25 16.3125 20.515625 
Q 16.3125 13.765625 19.9375 10.03125 
Q 23.578125 6.296875 30.078125 6.296875 
Q 36.71875 6.296875 40.296875 9.984375 
Q 43.890625 13.671875 43.890625 20.515625 
Q 43.890625 27.203125 40.25 30.90625 
Q 36.625 34.625 30.078125 34.625 
z
M 21.484375 38.71875 
Q 15.1875 40.328125 11.640625 44.71875 
Q 8.109375 49.125 8.109375 55.328125 
Q 8.109375 64.015625 14.015625 69.109375 
Q 19.921875 74.21875 30.078125 74.21875 
Q 40.28125 74.21875 46.1875 69.109375 
Q 52.09375 64.015625 52.09375 55.328125 
Q 52.09375 49.125 48.546875 44.71875 
Q 45.015625 40.328125 38.71875 38.71875 
Q 46.046875 37.109375 49.921875 32.21875 
Q 53.8125 27.34375 53.8125 19.578125 
Q 53.8125 9.71875 47.515625 4.140625 
Q 41.21875 -1.421875 30.078125 -1.421875 
Q 18.953125 -1.421875 12.671875 4.125 
Q 6.390625 9.671875 6.390625 19.484375 
Q 6.390625 27.296875 10.265625 32.203125 
Q 14.15625 37.109375 21.484375 38.71875 
z
M 17.921875 54.390625 
Q 17.921875 48.53125 21.046875 45.453125 
Q 24.171875 42.390625 30.078125 42.390625 
Q 36.03125 42.390625 39.15625 45.453125 
Q 42.28125 48.53125 42.28125 54.390625 
Q 42.28125 60.359375 39.171875 63.484375 
Q 36.078125 66.609375 30.078125 66.609375 
Q 24.171875 66.609375 21.046875 63.453125 
Q 17.921875 60.296875 17.921875 54.390625 
z
" id="DejaVuSansMono-56"/>
      </defs>
      <g style="fill:#262626;" transform="translate(916.740702 612.862239)scale(0.198 -0.198)">
       <use xlink:href="#DejaVuSansMono-48"/>
       <use x="60.205078" xlink:href="#DejaVuSansMono-46"/>
       <use x="120.410156" xlink:href="#DejaVuSansMono-56"/>
      </g>
     </g>
    </g>
    <g id="text_6">
     <!-- AUROC score -->
     <defs>
      <path d="M 30.078125 64.203125 
L 19.671875 26.90625 
L 40.484375 26.90625 
z
M 24.125 72.90625 
L 36.078125 72.90625 
L 58.40625 0 
L 48.1875 0 
L 42.828125 19 
L 17.28125 19 
L 12.015625 0 
L 1.8125 0 
z
" id="DejaVuSansMono-65"/>
      <path d="M 7.171875 27.984375 
L 7.171875 72.90625 
L 17.09375 72.90625 
L 17.09375 23.484375 
Q 17.09375 18.171875 17.375 15.890625 
Q 17.671875 13.625 18.40625 12.40625 
Q 19.96875 9.515625 22.921875 8.046875 
Q 25.875 6.59375 30.078125 6.59375 
Q 34.328125 6.59375 37.25 8.046875 
Q 40.1875 9.515625 41.796875 12.40625 
Q 42.53125 13.625 42.8125 15.859375 
Q 43.109375 18.109375 43.109375 23.390625 
L 43.109375 72.90625 
L 52.984375 72.90625 
L 52.984375 27.984375 
Q 52.984375 16.796875 51.59375 12.078125 
Q 50.203125 7.375 46.78125 4.296875 
Q 43.5625 1.421875 39.40625 0 
Q 35.25 -1.421875 30.078125 -1.421875 
Q 24.953125 -1.421875 20.796875 0 
Q 16.65625 1.421875 13.375 4.296875 
Q 10.015625 7.328125 8.59375 12.125 
Q 7.171875 16.9375 7.171875 27.984375 
z
" id="DejaVuSansMono-85"/>
      <path d="M 37.109375 34.421875 
Q 40.921875 33.453125 43.609375 30.734375 
Q 46.296875 28.03125 50.296875 19.921875 
L 60.203125 0 
L 49.609375 0 
L 40.921875 18.40625 
Q 37.15625 26.265625 34.15625 28.53125 
Q 31.15625 30.8125 26.3125 30.8125 
L 16.890625 30.8125 
L 16.890625 0 
L 6.984375 0 
L 6.984375 72.90625 
L 27.296875 72.90625 
Q 39.3125 72.90625 45.703125 67.484375 
Q 52.09375 62.0625 52.09375 51.8125 
Q 52.09375 44.578125 48.15625 40.015625 
Q 44.234375 35.453125 37.109375 34.421875 
z
M 16.890625 64.796875 
L 16.890625 38.921875 
L 27.6875 38.921875 
Q 34.765625 38.921875 38.234375 42.09375 
Q 41.703125 45.265625 41.703125 51.8125 
Q 41.703125 58.109375 38.015625 61.453125 
Q 34.328125 64.796875 27.296875 64.796875 
z
" id="DejaVuSansMono-82"/>
      <path d="M 44.1875 36.375 
Q 44.1875 52.4375 40.890625 59.328125 
Q 37.59375 66.21875 30.078125 66.21875 
Q 22.609375 66.21875 19.3125 59.328125 
Q 16.015625 52.4375 16.015625 36.375 
Q 16.015625 20.359375 19.3125 13.46875 
Q 22.609375 6.59375 30.078125 6.59375 
Q 37.59375 6.59375 40.890625 13.453125 
Q 44.1875 20.3125 44.1875 36.375 
z
M 54.5 36.375 
Q 54.5 17.328125 48.46875 7.953125 
Q 42.4375 -1.421875 30.078125 -1.421875 
Q 17.71875 -1.421875 11.71875 7.90625 
Q 5.71875 17.234375 5.71875 36.375 
Q 5.71875 55.46875 11.75 64.84375 
Q 17.78125 74.21875 30.078125 74.21875 
Q 42.4375 74.21875 48.46875 64.84375 
Q 54.5 55.46875 54.5 36.375 
z
" id="DejaVuSansMono-79"/>
      <path d="M 52.390625 2.59375 
Q 48.640625 0.59375 44.671875 -0.40625 
Q 40.71875 -1.421875 36.28125 -1.421875 
Q 22.265625 -1.421875 14.515625 8.484375 
Q 6.78125 18.40625 6.78125 36.375 
Q 6.78125 54.25 14.5625 64.234375 
Q 22.359375 74.21875 36.28125 74.21875 
Q 40.71875 74.21875 44.671875 73.21875 
Q 48.640625 72.21875 52.390625 70.21875 
L 52.390625 60.109375 
Q 48.78125 63.09375 44.625 64.65625 
Q 40.484375 66.21875 36.28125 66.21875 
Q 26.65625 66.21875 21.875 58.796875 
Q 17.09375 51.375 17.09375 36.375 
Q 17.09375 21.4375 21.875 14.015625 
Q 26.65625 6.59375 36.28125 6.59375 
Q 40.578125 6.59375 44.703125 8.15625 
Q 48.828125 9.71875 52.390625 12.703125 
z
" id="DejaVuSansMono-67"/>
      <path id="DejaVuSansMono-32"/>
      <path d="M 47.515625 52.78125 
L 47.515625 44 
Q 43.65625 46.234375 39.75 47.359375 
Q 35.84375 48.484375 31.78125 48.484375 
Q 25.6875 48.484375 22.671875 46.5 
Q 19.671875 44.53125 19.671875 40.484375 
Q 19.671875 36.8125 21.921875 35 
Q 24.171875 33.203125 33.109375 31.5 
L 36.71875 30.8125 
Q 43.40625 29.546875 46.84375 25.734375 
Q 50.296875 21.921875 50.296875 15.828125 
Q 50.296875 7.71875 44.53125 3.140625 
Q 38.765625 -1.421875 28.515625 -1.421875 
Q 24.46875 -1.421875 20.015625 -0.5625 
Q 15.578125 0.296875 10.40625 2 
L 10.40625 11.28125 
Q 15.4375 8.6875 20.015625 7.390625 
Q 24.609375 6.109375 28.71875 6.109375 
Q 34.671875 6.109375 37.9375 8.515625 
Q 41.21875 10.9375 41.21875 15.28125 
Q 41.21875 21.53125 29.25 23.921875 
L 28.859375 24.03125 
L 25.484375 24.703125 
Q 17.71875 26.21875 14.15625 29.8125 
Q 10.59375 33.40625 10.59375 39.59375 
Q 10.59375 47.46875 15.90625 51.734375 
Q 21.234375 56 31.109375 56 
Q 35.5 56 39.546875 55.1875 
Q 43.609375 54.390625 47.515625 52.78125 
z
" id="DejaVuSansMono-115"/>
      <path d="M 51.8125 2.78125 
Q 48.1875 0.6875 44.359375 -0.359375 
Q 40.53125 -1.421875 36.53125 -1.421875 
Q 23.828125 -1.421875 16.671875 6.1875 
Q 9.515625 13.8125 9.515625 27.296875 
Q 9.515625 40.765625 16.671875 48.375 
Q 23.828125 56 36.53125 56 
Q 40.484375 56 44.234375 54.96875 
Q 48 53.953125 51.8125 51.8125 
L 51.8125 42.390625 
Q 48.25 45.5625 44.65625 46.96875 
Q 41.0625 48.390625 36.53125 48.390625 
Q 28.078125 48.390625 23.53125 42.921875 
Q 19 37.453125 19 27.296875 
Q 19 17.1875 23.5625 11.6875 
Q 28.125 6.203125 36.53125 6.203125 
Q 41.21875 6.203125 44.921875 7.640625 
Q 48.640625 9.078125 51.8125 12.109375 
z
" id="DejaVuSansMono-99"/>
      <path d="M 30.078125 48.390625 
Q 23.25 48.390625 19.734375 43.0625 
Q 16.21875 37.75 16.21875 27.296875 
Q 16.21875 16.890625 19.734375 11.546875 
Q 23.25 6.203125 30.078125 6.203125 
Q 36.96875 6.203125 40.484375 11.546875 
Q 44 16.890625 44 27.296875 
Q 44 37.75 40.484375 43.0625 
Q 36.96875 48.390625 30.078125 48.390625 
z
M 30.078125 56 
Q 41.453125 56 47.484375 48.625 
Q 53.515625 41.265625 53.515625 27.296875 
Q 53.515625 13.28125 47.5 5.921875 
Q 41.5 -1.421875 30.078125 -1.421875 
Q 18.703125 -1.421875 12.6875 5.921875 
Q 6.6875 13.28125 6.6875 27.296875 
Q 6.6875 41.265625 12.6875 48.625 
Q 18.703125 56 30.078125 56 
z
" id="DejaVuSansMono-111"/>
      <path d="M 56.390625 43.40625 
Q 53.515625 45.65625 50.53125 46.671875 
Q 47.5625 47.703125 44 47.703125 
Q 35.59375 47.703125 31.140625 42.421875 
Q 26.703125 37.15625 26.703125 27.203125 
L 26.703125 0 
L 17.671875 0 
L 17.671875 54.6875 
L 26.703125 54.6875 
L 26.703125 44 
Q 28.953125 49.8125 33.609375 52.90625 
Q 38.28125 56 44.671875 56 
Q 48 56 50.875 55.171875 
Q 53.765625 54.34375 56.390625 52.59375 
z
" id="DejaVuSansMono-114"/>
      <path d="M 54.296875 29.59375 
L 54.296875 25.203125 
L 15.375 25.203125 
L 15.375 24.90625 
Q 15.375 15.96875 20.03125 11.078125 
Q 24.703125 6.203125 33.203125 6.203125 
Q 37.5 6.203125 42.1875 7.5625 
Q 46.875 8.9375 52.203125 11.71875 
L 52.203125 2.78125 
Q 47.078125 0.6875 42.3125 -0.359375 
Q 37.546875 -1.421875 33.109375 -1.421875 
Q 20.359375 -1.421875 13.171875 6.21875 
Q 6 13.875 6 27.296875 
Q 6 40.375 13.03125 48.1875 
Q 20.0625 56 31.78125 56 
Q 42.234375 56 48.265625 48.921875 
Q 54.296875 41.84375 54.296875 29.59375 
z
M 45.3125 32.234375 
Q 45.125 40.140625 41.578125 44.265625 
Q 38.03125 48.390625 31.390625 48.390625 
Q 24.90625 48.390625 20.703125 44.09375 
Q 16.5 39.796875 15.71875 32.171875 
z
" id="DejaVuSansMono-101"/>
     </defs>
     <g style="fill:#262626;" transform="translate(521.148666 637.507395)scale(0.216 -0.216)">
      <use xlink:href="#DejaVuSansMono-65"/>
      <use x="60.205078" xlink:href="#DejaVuSansMono-85"/>
      <use x="120.410156" xlink:href="#DejaVuSansMono-82"/>
      <use x="180.615234" xlink:href="#DejaVuSansMono-79"/>
      <use x="240.820312" xlink:href="#DejaVuSansMono-67"/>
      <use x="301.025391" xlink:href="#DejaVuSansMono-32"/>
      <use x="361.230469" xlink:href="#DejaVuSansMono-115"/>
      <use x="421.435547" xlink:href="#DejaVuSansMono-99"/>
      <use x="481.640625" xlink:href="#DejaVuSansMono-111"/>
      <use x="541.845703" xlink:href="#DejaVuSansMono-114"/>
      <use x="602.050781" xlink:href="#DejaVuSansMono-101"/>
     </g>
    </g>
   </g>
   <g id="matplotlib.axis_2">
    <g id="ytick_1">
     <g id="line2d_6">
      <path clip-path="url(#p8575e1a495)" d="M 39.340438 582.212145 
L 1145.99952 582.212145 
" style="fill:none;stroke:#ffffff;stroke-linecap:round;stroke-width:2;"/>
     </g>
     <g id="text_7">
      <!-- 0 -->
      <g style="fill:#262626;" transform="translate(11.920219 589.787192)scale(0.198 -0.198)">
       <use xlink:href="#DejaVuSansMono-48"/>
      </g>
     </g>
    </g>
    <g id="ytick_2">
     <g id="line2d_7">
      <path clip-path="url(#p8575e1a495)" d="M 39.340438 504.583859 
L 1145.99952 504.583859 
" style="fill:none;stroke:#ffffff;stroke-linecap:round;stroke-width:2;"/>
     </g>
     <g id="text_8">
      <!-- 2 -->
      <defs>
       <path d="M 18.21875 8.296875 
L 51.703125 8.296875 
L 51.703125 0 
L 7.421875 0 
L 7.421875 8.296875 
Q 16.546875 17.921875 23.375 25.296875 
Q 30.21875 32.671875 32.8125 35.6875 
Q 37.703125 41.65625 39.40625 45.34375 
Q 41.109375 49.03125 41.109375 52.875 
Q 41.109375 58.984375 37.515625 62.453125 
Q 33.9375 65.921875 27.6875 65.921875 
Q 23.25 65.921875 18.359375 64.3125 
Q 13.484375 62.703125 8.015625 59.421875 
L 8.015625 69.390625 
Q 13.03125 71.78125 17.890625 73 
Q 22.75 74.21875 27.484375 74.21875 
Q 38.1875 74.21875 44.703125 68.53125 
Q 51.21875 62.84375 51.21875 53.609375 
Q 51.21875 48.921875 49.046875 44.234375 
Q 46.875 39.546875 42 33.890625 
Q 39.265625 30.71875 34.0625 25.09375 
Q 28.859375 19.484375 18.21875 8.296875 
z
" id="DejaVuSansMono-50"/>
      </defs>
      <g style="fill:#262626;" transform="translate(11.920219 512.158906)scale(0.198 -0.198)">
       <use xlink:href="#DejaVuSansMono-50"/>
      </g>
     </g>
    </g>
    <g id="ytick_3">
     <g id="line2d_8">
      <path clip-path="url(#p8575e1a495)" d="M 39.340438 426.955573 
L 1145.99952 426.955573 
" style="fill:none;stroke:#ffffff;stroke-linecap:round;stroke-width:2;"/>
     </g>
     <g id="text_9">
      <!-- 4 -->
      <g style="fill:#262626;" transform="translate(11.920219 434.53062)scale(0.198 -0.198)">
       <use xlink:href="#DejaVuSansMono-52"/>
      </g>
     </g>
    </g>
    <g id="ytick_4">
     <g id="line2d_9">
      <path clip-path="url(#p8575e1a495)" d="M 39.340438 349.327287 
L 1145.99952 349.327287 
" style="fill:none;stroke:#ffffff;stroke-linecap:round;stroke-width:2;"/>
     </g>
     <g id="text_10">
      <!-- 6 -->
      <g style="fill:#262626;" transform="translate(11.920219 356.902334)scale(0.198 -0.198)">
       <use xlink:href="#DejaVuSansMono-54"/>
      </g>
     </g>
    </g>
    <g id="ytick_5">
     <g id="line2d_10">
      <path clip-path="url(#p8575e1a495)" d="M 39.340438 271.699001 
L 1145.99952 271.699001 
" style="fill:none;stroke:#ffffff;stroke-linecap:round;stroke-width:2;"/>
     </g>
     <g id="text_11">
      <!-- 8 -->
      <g style="fill:#262626;" transform="translate(11.920219 279.274048)scale(0.198 -0.198)">
       <use xlink:href="#DejaVuSansMono-56"/>
      </g>
     </g>
    </g>
    <g id="ytick_6">
     <g id="line2d_11">
      <path clip-path="url(#p8575e1a495)" d="M 39.340438 194.070715 
L 1145.99952 194.070715 
" style="fill:none;stroke:#ffffff;stroke-linecap:round;stroke-width:2;"/>
     </g>
     <g id="text_12">
      <!-- 10 -->
      <defs>
       <path d="M 13.1875 8.296875 
L 28.515625 8.296875 
L 28.515625 64.015625 
L 12.015625 60.296875 
L 12.015625 69.28125 
L 28.421875 72.90625 
L 38.28125 72.90625 
L 38.28125 8.296875 
L 53.421875 8.296875 
L 53.421875 0 
L 13.1875 0 
z
" id="DejaVuSansMono-49"/>
      </defs>
      <g style="fill:#262626;" transform="translate(0 201.645762)scale(0.198 -0.198)">
       <use xlink:href="#DejaVuSansMono-49"/>
       <use x="60.205078" xlink:href="#DejaVuSansMono-48"/>
      </g>
     </g>
    </g>
    <g id="ytick_7">
     <g id="line2d_12">
      <path clip-path="url(#p8575e1a495)" d="M 39.340438 116.442429 
L 1145.99952 116.442429 
" style="fill:none;stroke:#ffffff;stroke-linecap:round;stroke-width:2;"/>
     </g>
     <g id="text_13">
      <!-- 12 -->
      <g style="fill:#262626;" transform="translate(0 124.017476)scale(0.198 -0.198)">
       <use xlink:href="#DejaVuSansMono-49"/>
       <use x="60.205078" xlink:href="#DejaVuSansMono-50"/>
      </g>
     </g>
    </g>
    <g id="ytick_8">
     <g id="line2d_13">
      <path clip-path="url(#p8575e1a495)" d="M 39.340438 38.814143 
L 1145.99952 38.814143 
" style="fill:none;stroke:#ffffff;stroke-linecap:round;stroke-width:2;"/>
     </g>
     <g id="text_14">
      <!-- 14 -->
      <g style="fill:#262626;" transform="translate(0 46.38919)scale(0.198 -0.198)">
       <use xlink:href="#DejaVuSansMono-49"/>
       <use x="60.205078" xlink:href="#DejaVuSansMono-52"/>
      </g>
     </g>
    </g>
   </g>
   <g id="line2d_14">
    <path clip-path="url(#p8575e1a495)" d="M 89.643123 581.867157 
L 96.327008 581.612197 
L 99.668951 581.353036 
L 103.010893 580.972809 
L 106.352836 580.436231 
L 109.694779 579.699211 
L 113.036721 578.708681 
L 116.378664 577.402766 
L 119.720606 575.711393 
L 123.062549 573.557353 
L 126.404492 570.857847 
L 129.746434 567.526496 
L 133.088377 563.475773 
L 136.430319 558.619859 
L 139.772262 552.877878 
L 143.114205 546.177551 
L 146.456147 538.459271 
L 149.79809 529.680576 
L 153.140032 519.820931 
L 156.481975 508.886576 
L 159.823918 496.915053 
L 163.16586 483.978851 
L 166.507803 470.187484 
L 169.849745 455.687314 
L 176.533631 425.308978 
L 183.217516 394.558905 
L 186.559458 379.616836 
L 189.901401 365.243552 
L 193.243344 351.610364 
L 196.585286 338.844724 
L 199.927229 327.02353 
L 203.269171 316.170673 
L 206.611114 306.258921 
L 209.953057 297.215706 
L 213.294999 288.931899 
L 216.636942 281.272359 
L 219.978884 274.086899 
L 226.66277 260.520964 
L 233.346655 247.062291 
L 236.688597 240.050871 
L 240.03054 232.699744 
L 243.372483 224.902957 
L 246.714425 216.556833 
L 250.056368 207.558274 
L 253.39831 197.805996 
L 256.740253 187.205765 
L 260.082196 175.680158 
L 263.424138 163.182649 
L 266.766081 149.714946 
L 270.108023 135.345613 
L 276.791909 104.609416 
L 283.475794 73.377353 
L 286.817736 58.740184 
L 290.159679 45.513104 
L 293.501622 34.292496 
L 296.843564 25.646443 
L 300.185507 20.070184 
L 303.527449 17.945944 
L 306.869392 19.512401 
L 310.211334 24.847947 
L 313.553277 33.869992 
L 316.89522 46.350201 
L 320.237162 61.94312 
L 323.579105 80.223612 
L 326.921047 100.727284 
L 330.26299 122.987921 
L 333.604933 146.566787 
L 340.288818 196.156655 
L 350.314646 272.086465 
L 356.998531 320.752755 
L 360.340473 343.747541 
L 363.682416 365.512929 
L 367.024359 385.816171 
L 370.366301 404.463472 
L 373.708244 421.319654 
L 377.050186 436.323789 
L 380.392129 449.497527 
L 383.734072 460.944201 
L 387.076014 470.838419 
L 390.417957 479.407492 
L 393.759899 486.90738 
L 397.101842 493.596651 
L 400.443785 499.712133 
L 403.785727 505.449482 
L 410.469612 516.301368 
L 417.153498 526.630945 
L 420.49544 531.557178 
L 423.837383 536.256549 
L 427.179325 540.676155 
L 430.521268 544.775654 
L 433.863211 548.534116 
L 437.205153 551.9521 
L 440.547096 555.049508 
L 443.889038 557.860351 
L 447.230981 560.4259 
L 450.572924 562.78773 
L 453.914866 564.981891 
L 460.598751 568.962748 
L 467.282637 572.454124 
L 470.624579 574.00617 
L 473.966522 575.416142 
L 477.308464 576.675129 
L 480.650407 577.777777 
L 483.99235 578.723591 
L 487.334292 579.51726 
L 490.676235 580.168144 
L 494.018177 580.689165 
L 500.702063 581.402375 
L 507.385948 581.775573 
L 514.069833 581.894091 
L 514.069833 581.894091 
" style="fill:none;stroke:#1a1a1a;stroke-linecap:round;stroke-width:3;"/>
   </g>
   <g id="line2d_15">
    <path clip-path="url(#p8575e1a495)" d="M 1053.30265 582.212145 
L 1053.30265 0 
" style="fill:none;stroke:#4c72b0;stroke-dasharray:11.1,4.8;stroke-dashoffset:0;stroke-width:3;"/>
   </g>
   <g id="line2d_16">
    <path clip-path="url(#p8575e1a495)" d="M 1095.696834 582.212145 
L 1095.696834 0 
" style="fill:none;stroke:#8172b3;stroke-dasharray:11.1,4.8;stroke-dashoffset:0;stroke-width:3;"/>
   </g>
   <g id="line2d_17">
    <path clip-path="url(#p8575e1a495)" d="M 769.663449 582.212145 
L 769.663449 0 
" style="fill:none;stroke:#55a868;stroke-dasharray:11.1,4.8;stroke-dashoffset:0;stroke-width:3;"/>
   </g>
   <g id="line2d_18">
    <path clip-path="url(#p8575e1a495)" d="M 295.22608 582.212145 
L 295.22608 0 
" style="fill:none;stroke:#1a1a1a;stroke-dasharray:11.1,4.8;stroke-dashoffset:0;stroke-width:3;"/>
   </g>
   <g id="patch_3">
    <path d="M 39.340438 582.212145 
L 39.340438 0 
" style="fill:none;stroke:#ffffff;stroke-linecap:square;stroke-linejoin:miter;stroke-width:2.5;"/>
   </g>
   <g id="patch_4">
    <path d="M 1145.99952 582.212145 
L 1145.99952 0 
" style="fill:none;stroke:#ffffff;stroke-linecap:square;stroke-linejoin:miter;stroke-width:2.5;"/>
   </g>
   <g id="patch_5">
    <path d="M 39.340438 582.212145 
L 1145.99952 582.212145 
" style="fill:none;stroke:#ffffff;stroke-linecap:square;stroke-linejoin:miter;stroke-width:2.5;"/>
   </g>
   <g id="patch_6">
    <path d="M 39.340438 0 
L 1145.99952 0 
" style="fill:none;stroke:#ffffff;stroke-linecap:square;stroke-linejoin:miter;stroke-width:2.5;"/>
   </g>
   <g id="legend_1">
    <g id="patch_7">
     <path d="M 351.99839 161.951625 
L 737.204296 161.951625 
Q 741.164296 161.951625 741.164296 157.991625 
L 741.164296 13.86 
Q 741.164296 9.9 737.204296 9.9 
L 351.99839 9.9 
Q 348.03839 9.9 348.03839 13.86 
L 348.03839 157.991625 
Q 348.03839 161.951625 351.99839 161.951625 
z
" style="fill:#eaeaf2;opacity:0.8;stroke:#cccccc;stroke-linejoin:miter;stroke-width:2;"/>
    </g>
    <g id="line2d_19">
     <path d="M 355.95839 26.040094 
L 395.55839 26.040094 
" style="fill:none;stroke:#1a1a1a;stroke-linecap:round;stroke-width:3;"/>
    </g>
    <g id="line2d_20"/>
    <g id="text_15">
     <!-- Permutation Scores -->
     <defs>
      <path d="M 19.484375 64.796875 
L 19.484375 37.40625 
L 30.90625 37.40625 
Q 37.75 37.40625 41.578125 41.015625 
Q 45.40625 44.625 45.40625 51.125 
Q 45.40625 57.625 41.59375 61.203125 
Q 37.796875 64.796875 30.90625 64.796875 
z
M 9.625 72.90625 
L 30.90625 72.90625 
Q 43.109375 72.90625 49.40625 67.359375 
Q 55.71875 61.8125 55.71875 51.125 
Q 55.71875 40.328125 49.4375 34.8125 
Q 43.171875 29.296875 30.90625 29.296875 
L 19.484375 29.296875 
L 19.484375 0 
L 9.625 0 
z
" id="DejaVuSansMono-80"/>
      <path d="M 33.015625 49.125 
Q 34.671875 52.640625 37.234375 54.3125 
Q 39.796875 56 43.40625 56 
Q 50 56 52.703125 50.890625 
Q 55.421875 45.796875 55.421875 31.6875 
L 55.421875 0 
L 47.21875 0 
L 47.21875 31.296875 
Q 47.21875 42.875 45.921875 45.671875 
Q 44.625 48.484375 41.21875 48.484375 
Q 37.3125 48.484375 35.859375 45.484375 
Q 34.421875 42.484375 34.421875 31.296875 
L 34.421875 0 
L 26.21875 0 
L 26.21875 31.296875 
Q 26.21875 43.015625 24.828125 45.75 
Q 23.4375 48.484375 19.828125 48.484375 
Q 16.265625 48.484375 14.875 45.484375 
Q 13.484375 42.484375 13.484375 31.296875 
L 13.484375 0 
L 5.328125 0 
L 5.328125 54.6875 
L 13.484375 54.6875 
L 13.484375 50 
Q 15.09375 52.9375 17.5 54.46875 
Q 19.921875 56 23 56 
Q 26.703125 56 29.171875 54.296875 
Q 31.640625 52.59375 33.015625 49.125 
z
" id="DejaVuSansMono-109"/>
      <path d="M 9.515625 20.703125 
L 9.515625 54.59375 
L 18.5 54.59375 
L 18.5 20.703125 
Q 18.5 13.328125 21.109375 9.859375 
Q 23.734375 6.390625 29.203125 6.390625 
Q 35.546875 6.390625 38.90625 10.859375 
Q 42.28125 15.328125 42.28125 23.6875 
L 42.28125 54.59375 
L 51.3125 54.59375 
L 51.3125 0 
L 42.28125 0 
L 42.28125 8.203125 
Q 39.890625 3.46875 35.765625 1.015625 
Q 31.640625 -1.421875 26.125 -1.421875 
Q 17.71875 -1.421875 13.609375 4.078125 
Q 9.515625 9.578125 9.515625 20.703125 
z
" id="DejaVuSansMono-117"/>
      <path d="M 29.984375 70.21875 
L 29.984375 54.6875 
L 50.390625 54.6875 
L 50.390625 47.703125 
L 29.984375 47.703125 
L 29.984375 18.015625 
Q 29.984375 11.96875 32.28125 9.5625 
Q 34.578125 7.171875 40.28125 7.171875 
L 50.390625 7.171875 
L 50.390625 0 
L 39.40625 0 
Q 29.296875 0 25.140625 4.046875 
Q 21 8.109375 21 18.015625 
L 21 47.703125 
L 6.390625 47.703125 
L 6.390625 54.6875 
L 21 54.6875 
L 21 70.21875 
z
" id="DejaVuSansMono-116"/>
      <path d="M 34.28125 27.484375 
L 31.296875 27.484375 
Q 23.4375 27.484375 19.453125 24.71875 
Q 15.484375 21.96875 15.484375 16.5 
Q 15.484375 11.578125 18.453125 8.84375 
Q 21.4375 6.109375 26.703125 6.109375 
Q 34.125 6.109375 38.375 11.25 
Q 42.625 16.40625 42.671875 25.484375 
L 42.671875 27.484375 
z
M 51.703125 31.203125 
L 51.703125 0 
L 42.671875 0 
L 42.671875 8.109375 
Q 39.796875 3.21875 35.421875 0.890625 
Q 31.0625 -1.421875 24.8125 -1.421875 
Q 16.453125 -1.421875 11.46875 3.296875 
Q 6.5 8.015625 6.5 15.921875 
Q 6.5 25.046875 12.625 29.78125 
Q 18.75 34.515625 30.609375 34.515625 
L 42.671875 34.515625 
L 42.671875 35.9375 
Q 42.625 42.484375 39.34375 45.4375 
Q 36.078125 48.390625 28.90625 48.390625 
Q 24.3125 48.390625 19.625 47.0625 
Q 14.9375 45.75 10.5 43.21875 
L 10.5 52.203125 
Q 15.484375 54.109375 20.046875 55.046875 
Q 24.609375 56 28.90625 56 
Q 35.6875 56 40.5 54 
Q 45.3125 52 48.296875 48 
Q 50.140625 45.5625 50.921875 41.96875 
Q 51.703125 38.375 51.703125 31.203125 
z
" id="DejaVuSansMono-97"/>
      <path d="M 12.5 54.6875 
L 35.5 54.6875 
L 35.5 6.984375 
L 53.328125 6.984375 
L 53.328125 0 
L 8.6875 0 
L 8.6875 6.984375 
L 26.515625 6.984375 
L 26.515625 47.703125 
L 12.5 47.703125 
z
M 26.515625 75.984375 
L 35.5 75.984375 
L 35.5 64.59375 
L 26.515625 64.59375 
z
" id="DejaVuSansMono-105"/>
      <path d="M 51.3125 33.890625 
L 51.3125 0 
L 42.28125 0 
L 42.28125 33.890625 
Q 42.28125 41.265625 39.6875 44.71875 
Q 37.109375 48.1875 31.59375 48.1875 
Q 25.296875 48.1875 21.890625 43.71875 
Q 18.5 39.265625 18.5 30.90625 
L 18.5 0 
L 9.515625 0 
L 9.515625 54.6875 
L 18.5 54.6875 
L 18.5 46.484375 
Q 20.90625 51.171875 25 53.578125 
Q 29.109375 56 34.71875 56 
Q 43.0625 56 47.1875 50.5 
Q 51.3125 45.015625 51.3125 33.890625 
z
" id="DejaVuSansMono-110"/>
      <path d="M 49.421875 70.40625 
L 49.421875 60.40625 
Q 44.921875 63.28125 40.40625 64.75 
Q 35.890625 66.21875 31.296875 66.21875 
Q 24.3125 66.21875 20.265625 62.96875 
Q 16.21875 59.71875 16.21875 54.203125 
Q 16.21875 49.359375 18.875 46.8125 
Q 21.53125 44.28125 28.8125 42.578125 
L 33.984375 41.40625 
Q 44.234375 39.015625 48.921875 33.890625 
Q 53.609375 28.765625 53.609375 19.921875 
Q 53.609375 9.515625 47.15625 4.046875 
Q 40.71875 -1.421875 28.421875 -1.421875 
Q 23.296875 -1.421875 18.109375 -0.3125 
Q 12.9375 0.78125 7.71875 2.984375 
L 7.71875 13.484375 
Q 13.328125 9.90625 18.328125 8.25 
Q 23.34375 6.59375 28.421875 6.59375 
Q 35.890625 6.59375 40.03125 9.9375 
Q 44.1875 13.28125 44.1875 19.28125 
Q 44.1875 24.75 41.328125 27.625 
Q 38.484375 30.515625 31.390625 32.078125 
L 26.125 33.296875 
Q 15.96875 35.59375 11.375 40.234375 
Q 6.78125 44.875 6.78125 52.6875 
Q 6.78125 62.453125 13.34375 68.328125 
Q 19.921875 74.21875 30.8125 74.21875 
Q 35.015625 74.21875 39.640625 73.265625 
Q 44.28125 72.3125 49.421875 70.40625 
z
" id="DejaVuSansMono-83"/>
     </defs>
     <g style="fill:#262626;" transform="translate(411.39839 32.970094)scale(0.198 -0.198)">
      <use xlink:href="#DejaVuSansMono-80"/>
      <use x="60.205078" xlink:href="#DejaVuSansMono-101"/>
      <use x="120.410156" xlink:href="#DejaVuSansMono-114"/>
      <use x="180.615234" xlink:href="#DejaVuSansMono-109"/>
      <use x="240.820312" xlink:href="#DejaVuSansMono-117"/>
      <use x="301.025391" xlink:href="#DejaVuSansMono-116"/>
      <use x="361.230469" xlink:href="#DejaVuSansMono-97"/>
      <use x="421.435547" xlink:href="#DejaVuSansMono-116"/>
      <use x="481.640625" xlink:href="#DejaVuSansMono-105"/>
      <use x="541.845703" xlink:href="#DejaVuSansMono-111"/>
      <use x="602.050781" xlink:href="#DejaVuSansMono-110"/>
      <use x="662.255859" xlink:href="#DejaVuSansMono-32"/>
      <use x="722.460938" xlink:href="#DejaVuSansMono-83"/>
      <use x="782.666016" xlink:href="#DejaVuSansMono-99"/>
      <use x="842.871094" xlink:href="#DejaVuSansMono-111"/>
      <use x="903.076172" xlink:href="#DejaVuSansMono-114"/>
      <use x="963.28125" xlink:href="#DejaVuSansMono-101"/>
      <use x="1023.486328" xlink:href="#DejaVuSansMono-115"/>
     </g>
    </g>
    <g id="line2d_21">
     <path d="M 355.95839 55.207969 
L 395.55839 55.207969 
" style="fill:none;stroke:#4c72b0;stroke-dasharray:11.1,4.8;stroke-dashoffset:0;stroke-width:3;"/>
    </g>
    <g id="line2d_22"/>
    <g id="text_16">
     <!-- eNog score 0.856 (9.90e-03) -->
     <defs>
      <path d="M 6.78125 72.90625 
L 19.28125 72.90625 
L 43.890625 12.890625 
L 43.890625 72.90625 
L 53.421875 72.90625 
L 53.421875 0 
L 40.921875 0 
L 16.3125 60.015625 
L 16.3125 0 
L 6.78125 0 
z
" id="DejaVuSansMono-78"/>
      <path d="M 41.890625 27.78125 
Q 41.890625 37.890625 38.59375 43.140625 
Q 35.296875 48.390625 29 48.390625 
Q 22.40625 48.390625 18.9375 43.140625 
Q 15.484375 37.890625 15.484375 27.78125 
Q 15.484375 17.671875 18.96875 12.375 
Q 22.46875 7.078125 29.109375 7.078125 
Q 35.296875 7.078125 38.59375 12.390625 
Q 41.890625 17.71875 41.890625 27.78125 
z
M 50.875 3.515625 
Q 50.875 -8.796875 45.0625 -15.140625 
Q 39.265625 -21.484375 27.984375 -21.484375 
Q 24.265625 -21.484375 20.203125 -20.796875 
Q 16.15625 -20.125 12.109375 -18.796875 
L 12.109375 -9.90625 
Q 16.890625 -12.15625 20.796875 -13.234375 
Q 24.703125 -14.3125 27.984375 -14.3125 
Q 35.25 -14.3125 38.5625 -10.34375 
Q 41.890625 -6.390625 41.890625 2.203125 
L 41.890625 2.59375 
L 41.890625 8.6875 
Q 39.75 4.109375 36.03125 1.859375 
Q 32.328125 -0.390625 27 -0.390625 
Q 17.4375 -0.390625 11.71875 7.265625 
Q 6 14.9375 6 27.78125 
Q 6 40.671875 11.71875 48.328125 
Q 17.4375 56 27 56 
Q 32.28125 56 35.9375 53.90625 
Q 39.59375 51.8125 41.890625 47.40625 
L 41.890625 54.5 
L 50.875 54.5 
z
" id="DejaVuSansMono-103"/>
      <path d="M 43.21875 75.875 
Q 36.71875 64.75 33.515625 53.6875 
Q 30.328125 42.625 30.328125 31.390625 
Q 30.328125 20.21875 33.515625 9.125 
Q 36.71875 -1.953125 43.21875 -13.1875 
L 35.40625 -13.1875 
Q 28.03125 -1.5625 24.40625 9.4375 
Q 20.796875 20.453125 20.796875 31.390625 
Q 20.796875 42.28125 24.40625 53.3125 
Q 28.03125 64.359375 35.40625 75.875 
z
" id="DejaVuSansMono-40"/>
      <path d="M 29.109375 32.328125 
Q 35.40625 32.328125 38.984375 36.859375 
Q 42.578125 41.40625 42.578125 49.421875 
Q 42.578125 57.421875 38.984375 61.953125 
Q 35.40625 66.5 29.109375 66.5 
Q 22.5625 66.5 19.234375 62.171875 
Q 15.921875 57.859375 15.921875 49.421875 
Q 15.921875 40.921875 19.21875 36.625 
Q 22.515625 32.328125 29.109375 32.328125 
z
M 11.53125 1.515625 
L 11.53125 10.59375 
Q 14.59375 8.796875 18.0625 7.84375 
Q 21.53125 6.890625 25.296875 6.890625 
Q 34.671875 6.890625 39.46875 13.9375 
Q 44.28125 21 44.28125 34.71875 
Q 42 29.828125 37.84375 27.21875 
Q 33.6875 24.609375 28.328125 24.609375 
Q 17.78125 24.609375 11.984375 31.09375 
Q 6.203125 37.59375 6.203125 49.515625 
Q 6.203125 61.28125 12.125 67.75 
Q 18.0625 74.21875 28.90625 74.21875 
Q 41.609375 74.21875 47.515625 65.078125 
Q 53.421875 55.953125 53.421875 36.375 
Q 53.421875 17.96875 46.3125 8.265625 
Q 39.203125 -1.421875 25.6875 -1.421875 
Q 22.125 -1.421875 18.5 -0.65625 
Q 14.890625 0.09375 11.53125 1.515625 
z
" id="DejaVuSansMono-57"/>
      <path d="M 17.390625 31.390625 
L 42.828125 31.390625 
L 42.828125 23.390625 
L 17.390625 23.390625 
z
" id="DejaVuSansMono-45"/>
      <path d="M 37.890625 39.015625 
Q 45.0625 37.109375 48.875 32.25 
Q 52.6875 27.390625 52.6875 20.125 
Q 52.6875 10.0625 45.921875 4.3125 
Q 39.15625 -1.421875 27.203125 -1.421875 
Q 22.171875 -1.421875 16.9375 -0.484375 
Q 11.71875 0.4375 6.6875 2.203125 
L 6.6875 12.015625 
Q 11.671875 9.421875 16.5 8.15625 
Q 21.34375 6.890625 26.125 6.890625 
Q 34.234375 6.890625 38.578125 10.546875 
Q 42.921875 14.203125 42.921875 21.09375 
Q 42.921875 27.4375 38.578125 31.171875 
Q 34.234375 34.90625 26.8125 34.90625 
L 19.28125 34.90625 
L 19.28125 43.015625 
L 26.8125 43.015625 
Q 33.59375 43.015625 37.40625 45.984375 
Q 41.21875 48.96875 41.21875 54.296875 
Q 41.21875 59.90625 37.671875 62.90625 
Q 34.125 65.921875 27.59375 65.921875 
Q 23.25 65.921875 18.609375 64.9375 
Q 13.96875 63.96875 8.890625 62.015625 
L 8.890625 71.09375 
Q 14.796875 72.65625 19.40625 73.4375 
Q 24.03125 74.21875 27.59375 74.21875 
Q 38.234375 74.21875 44.609375 68.875 
Q 50.984375 63.53125 50.984375 54.6875 
Q 50.984375 48.6875 47.625 44.671875 
Q 44.28125 40.671875 37.890625 39.015625 
z
" id="DejaVuSansMono-51"/>
      <path d="M 17 75.875 
L 24.8125 75.875 
Q 32.171875 64.359375 35.78125 53.3125 
Q 39.40625 42.28125 39.40625 31.390625 
Q 39.40625 20.40625 35.78125 9.375 
Q 32.171875 -1.65625 24.8125 -13.1875 
L 17 -13.1875 
Q 23.484375 -1.859375 26.6875 9.21875 
Q 29.890625 20.3125 29.890625 31.390625 
Q 29.890625 42.53125 26.6875 53.609375 
Q 23.484375 64.703125 17 75.875 
z
" id="DejaVuSansMono-41"/>
     </defs>
     <g style="fill:#262626;" transform="translate(411.39839 62.137969)scale(0.198 -0.198)">
      <use xlink:href="#DejaVuSansMono-101"/>
      <use x="60.205078" xlink:href="#DejaVuSansMono-78"/>
      <use x="120.410156" xlink:href="#DejaVuSansMono-111"/>
      <use x="180.615234" xlink:href="#DejaVuSansMono-103"/>
      <use x="240.820312" xlink:href="#DejaVuSansMono-32"/>
      <use x="301.025391" xlink:href="#DejaVuSansMono-115"/>
      <use x="361.230469" xlink:href="#DejaVuSansMono-99"/>
      <use x="421.435547" xlink:href="#DejaVuSansMono-111"/>
      <use x="481.640625" xlink:href="#DejaVuSansMono-114"/>
      <use x="541.845703" xlink:href="#DejaVuSansMono-101"/>
      <use x="602.050781" xlink:href="#DejaVuSansMono-32"/>
      <use x="662.255859" xlink:href="#DejaVuSansMono-48"/>
      <use x="722.460938" xlink:href="#DejaVuSansMono-46"/>
      <use x="782.666016" xlink:href="#DejaVuSansMono-56"/>
      <use x="842.871094" xlink:href="#DejaVuSansMono-53"/>
      <use x="903.076172" xlink:href="#DejaVuSansMono-54"/>
      <use x="963.28125" xlink:href="#DejaVuSansMono-32"/>
      <use x="1023.486328" xlink:href="#DejaVuSansMono-40"/>
      <use x="1083.691406" xlink:href="#DejaVuSansMono-57"/>
      <use x="1143.896484" xlink:href="#DejaVuSansMono-46"/>
      <use x="1204.101562" xlink:href="#DejaVuSansMono-57"/>
      <use x="1264.306641" xlink:href="#DejaVuSansMono-48"/>
      <use x="1324.511719" xlink:href="#DejaVuSansMono-101"/>
      <use x="1384.716797" xlink:href="#DejaVuSansMono-45"/>
      <use x="1444.921875" xlink:href="#DejaVuSansMono-48"/>
      <use x="1505.126953" xlink:href="#DejaVuSansMono-51"/>
      <use x="1565.332031" xlink:href="#DejaVuSansMono-41"/>
     </g>
    </g>
    <g id="line2d_23">
     <path d="M 355.95839 84.511969 
L 395.55839 84.511969 
" style="fill:none;stroke:#8172b3;stroke-dasharray:11.1,4.8;stroke-dashoffset:0;stroke-width:3;"/>
    </g>
    <g id="line2d_24"/>
    <g id="text_17">
     <!-- Taxo score 0.876 (9.90e-03) -->
     <defs>
      <path d="M 2.296875 72.90625 
L 57.90625 72.90625 
L 57.90625 64.59375 
L 35.109375 64.59375 
L 35.109375 0 
L 25.203125 0 
L 25.203125 64.59375 
L 2.296875 64.59375 
z
" id="DejaVuSansMono-84"/>
      <path d="M 54.59375 54.6875 
L 35.015625 28.515625 
L 56.5 0 
L 46.09375 0 
L 30.078125 21.921875 
L 14.109375 0 
L 3.71875 0 
L 25.203125 28.515625 
L 5.609375 54.6875 
L 15.578125 54.6875 
L 30.078125 34.90625 
L 44.484375 54.6875 
z
" id="DejaVuSansMono-120"/>
     </defs>
     <g style="fill:#262626;" transform="translate(411.39839 91.441969)scale(0.198 -0.198)">
      <use xlink:href="#DejaVuSansMono-84"/>
      <use x="60.205078" xlink:href="#DejaVuSansMono-97"/>
      <use x="120.410156" xlink:href="#DejaVuSansMono-120"/>
      <use x="180.615234" xlink:href="#DejaVuSansMono-111"/>
      <use x="240.820312" xlink:href="#DejaVuSansMono-32"/>
      <use x="301.025391" xlink:href="#DejaVuSansMono-115"/>
      <use x="361.230469" xlink:href="#DejaVuSansMono-99"/>
      <use x="421.435547" xlink:href="#DejaVuSansMono-111"/>
      <use x="481.640625" xlink:href="#DejaVuSansMono-114"/>
      <use x="541.845703" xlink:href="#DejaVuSansMono-101"/>
      <use x="602.050781" xlink:href="#DejaVuSansMono-32"/>
      <use x="662.255859" xlink:href="#DejaVuSansMono-48"/>
      <use x="722.460938" xlink:href="#DejaVuSansMono-46"/>
      <use x="782.666016" xlink:href="#DejaVuSansMono-56"/>
      <use x="842.871094" xlink:href="#DejaVuSansMono-55"/>
      <use x="903.076172" xlink:href="#DejaVuSansMono-54"/>
      <use x="963.28125" xlink:href="#DejaVuSansMono-32"/>
      <use x="1023.486328" xlink:href="#DejaVuSansMono-40"/>
      <use x="1083.691406" xlink:href="#DejaVuSansMono-57"/>
      <use x="1143.896484" xlink:href="#DejaVuSansMono-46"/>
      <use x="1204.101562" xlink:href="#DejaVuSansMono-57"/>
      <use x="1264.306641" xlink:href="#DejaVuSansMono-48"/>
      <use x="1324.511719" xlink:href="#DejaVuSansMono-101"/>
      <use x="1384.716797" xlink:href="#DejaVuSansMono-45"/>
      <use x="1444.921875" xlink:href="#DejaVuSansMono-48"/>
      <use x="1505.126953" xlink:href="#DejaVuSansMono-51"/>
      <use x="1565.332031" xlink:href="#DejaVuSansMono-41"/>
     </g>
    </g>
    <g id="line2d_25">
     <path d="M 355.95839 113.679844 
L 395.55839 113.679844 
" style="fill:none;stroke:#55a868;stroke-dasharray:11.1,4.8;stroke-dashoffset:0;stroke-width:3;"/>
    </g>
    <g id="line2d_26"/>
    <g id="text_18">
     <!-- Kegg score 0.723 (9.90e-03) -->
     <defs>
      <path d="M 6.6875 72.90625 
L 16.609375 72.90625 
L 16.609375 40.484375 
L 47.40625 72.90625 
L 58.984375 72.90625 
L 30.609375 43.109375 
L 59.8125 0 
L 47.90625 0 
L 24.125 36.53125 
L 16.609375 28.515625 
L 16.609375 0 
L 6.6875 0 
z
" id="DejaVuSansMono-75"/>
     </defs>
     <g style="fill:#262626;" transform="translate(411.39839 120.609844)scale(0.198 -0.198)">
      <use xlink:href="#DejaVuSansMono-75"/>
      <use x="60.205078" xlink:href="#DejaVuSansMono-101"/>
      <use x="120.410156" xlink:href="#DejaVuSansMono-103"/>
      <use x="180.615234" xlink:href="#DejaVuSansMono-103"/>
      <use x="240.820312" xlink:href="#DejaVuSansMono-32"/>
      <use x="301.025391" xlink:href="#DejaVuSansMono-115"/>
      <use x="361.230469" xlink:href="#DejaVuSansMono-99"/>
      <use x="421.435547" xlink:href="#DejaVuSansMono-111"/>
      <use x="481.640625" xlink:href="#DejaVuSansMono-114"/>
      <use x="541.845703" xlink:href="#DejaVuSansMono-101"/>
      <use x="602.050781" xlink:href="#DejaVuSansMono-32"/>
      <use x="662.255859" xlink:href="#DejaVuSansMono-48"/>
      <use x="722.460938" xlink:href="#DejaVuSansMono-46"/>
      <use x="782.666016" xlink:href="#DejaVuSansMono-55"/>
      <use x="842.871094" xlink:href="#DejaVuSansMono-50"/>
      <use x="903.076172" xlink:href="#DejaVuSansMono-51"/>
      <use x="963.28125" xlink:href="#DejaVuSansMono-32"/>
      <use x="1023.486328" xlink:href="#DejaVuSansMono-40"/>
      <use x="1083.691406" xlink:href="#DejaVuSansMono-57"/>
      <use x="1143.896484" xlink:href="#DejaVuSansMono-46"/>
      <use x="1204.101562" xlink:href="#DejaVuSansMono-57"/>
      <use x="1264.306641" xlink:href="#DejaVuSansMono-48"/>
      <use x="1324.511719" xlink:href="#DejaVuSansMono-101"/>
      <use x="1384.716797" xlink:href="#DejaVuSansMono-45"/>
      <use x="1444.921875" xlink:href="#DejaVuSansMono-48"/>
      <use x="1505.126953" xlink:href="#DejaVuSansMono-51"/>
      <use x="1565.332031" xlink:href="#DejaVuSansMono-41"/>
     </g>
    </g>
    <g id="line2d_27">
     <path d="M 355.95839 142.983844 
L 395.55839 142.983844 
" style="fill:none;stroke:#1a1a1a;stroke-dasharray:11.1,4.8;stroke-dashoffset:0;stroke-width:3;"/>
    </g>
    <g id="line2d_28"/>
    <g id="text_19">
     <!-- Luck -->
     <defs>
      <path d="M 10.5 72.90625 
L 20.40625 72.90625 
L 20.40625 8.296875 
L 55.609375 8.296875 
L 55.609375 0 
L 10.5 0 
z
" id="DejaVuSansMono-76"/>
      <path d="M 11.53125 75.984375 
L 20.796875 75.984375 
L 20.796875 31.984375 
L 44.390625 54.6875 
L 55.328125 54.6875 
L 33.796875 34.078125 
L 58.6875 0 
L 47.703125 0 
L 27.484375 28.21875 
L 20.796875 21.921875 
L 20.796875 0 
L 11.53125 0 
z
" id="DejaVuSansMono-107"/>
     </defs>
     <g style="fill:#262626;" transform="translate(411.39839 149.913844)scale(0.198 -0.198)">
      <use xlink:href="#DejaVuSansMono-76"/>
      <use x="60.205078" xlink:href="#DejaVuSansMono-117"/>
      <use x="120.410156" xlink:href="#DejaVuSansMono-99"/>
      <use x="180.615234" xlink:href="#DejaVuSansMono-107"/>
     </g>
    </g>
   </g>
  </g>
 </g>
 <defs>
  <clipPath id="p8575e1a495">
   <rect height="582.212145" width="1106.659082" x="39.340438" y="0"/>
  </clipPath>
 </defs>
</svg>
