<?xml version="1.0" encoding="utf-8" standalone="no"?>
<!DOCTYPE svg PUBLIC "-//W3C//DTD SVG 1.1//EN"
  "http://www.w3.org/Graphics/SVG/1.1/DTD/svg11.dtd">
<!-- Created with matplotlib (https://matplotlib.org/) -->
<svg height="403.213025pt" version="1.1" viewBox="0 0 373.276139 403.213025" width="373.276139pt" xmlns="http://www.w3.org/2000/svg" xmlns:xlink="http://www.w3.org/1999/xlink">
 <defs>
  <style type="text/css">
*{stroke-linecap:butt;stroke-linejoin:round;}
  </style>
 </defs>
 <g id="figure_1">
  <g id="patch_1">
   <path d="M 0 403.213025 
L 373.276139 403.213025 
L 373.276139 0 
L 0 0 
z
" style="fill:#ffffff;"/>
  </g>
  <g id="axes_1">
   <g id="patch_2">
    <path d="M 338.993946 184.580369 
C 338.993946 164.546715 335.047753 144.707862 327.381205 126.199179 
C 319.714658 107.690496 308.476851 90.871929 294.310918 76.705997 
C 280.144985 62.540064 263.326418 51.302257 244.817735 43.635709 
C 226.309052 35.969162 206.4702 32.022969 186.436546 32.022969 
C 166.402892 32.022969 146.564039 35.969162 128.055356 43.635709 
C 109.546673 51.302257 92.728107 62.540064 78.562174 76.705997 
C 64.396241 90.871929 53.158434 107.690496 45.491886 126.199179 
C 37.825339 144.707862 33.879146 164.546715 33.879146 184.580369 
C 33.879146 204.614023 37.825339 224.452875 45.491886 242.961558 
C 53.158434 261.470241 64.396241 278.288808 78.562174 292.454741 
C 92.728107 306.620674 109.546673 317.858481 128.055356 325.525028 
C 146.564039 333.191576 166.402892 337.137769 186.436546 337.137769 
C 206.4702 337.137769 226.309052 333.191576 244.817735 325.525028 
C 263.326418 317.858481 280.144985 306.620674 294.310918 292.454741 
C 308.476851 278.288808 319.714658 261.470241 327.381205 242.961558 
C 335.047753 224.452875 338.993946 204.614023 338.993946 184.580369 
M 186.436546 184.580369 
C 186.436546 184.580369 186.436546 184.580369 186.436546 184.580369 
C 186.436546 184.580369 186.436546 184.580369 186.436546 184.580369 
C 186.436546 184.580369 186.436546 184.580369 186.436546 184.580369 
C 186.436546 184.580369 186.436546 184.580369 186.436546 184.580369 
C 186.436546 184.580369 186.436546 184.580369 186.436546 184.580369 
C 186.436546 184.580369 186.436546 184.580369 186.436546 184.580369 
C 186.436546 184.580369 186.436546 184.580369 186.436546 184.580369 
C 186.436546 184.580369 186.436546 184.580369 186.436546 184.580369 
C 186.436546 184.580369 186.436546 184.580369 186.436546 184.580369 
C 186.436546 184.580369 186.436546 184.580369 186.436546 184.580369 
C 186.436546 184.580369 186.436546 184.580369 186.436546 184.580369 
C 186.436546 184.580369 186.436546 184.580369 186.436546 184.580369 
C 186.436546 184.580369 186.436546 184.580369 186.436546 184.580369 
C 186.436546 184.580369 186.436546 184.580369 186.436546 184.580369 
C 186.436546 184.580369 186.436546 184.580369 186.436546 184.580369 
C 186.436546 184.580369 186.436546 184.580369 186.436546 184.580369 
M 338.993946 184.580369 
z
" style="fill:#e5e5e5;"/>
   </g>
   <g id="matplotlib.axis_1">
    <g id="xtick_1">
     <g id="line2d_1">
      <path clip-path="url(#p7cb30c8df2)" d="M 186.436546 184.580369 
L 186.436546 32.022969 
" style="fill:none;stroke:#ffffff;stroke-linecap:square;stroke-width:1.5;"/>
     </g>
     <g id="text_1">
      <!-- A &lt; T -->
      <defs>
       <path d="M 34.1875 63.1875 
L 20.796875 26.90625 
L 47.609375 26.90625 
z
M 28.609375 72.90625 
L 39.796875 72.90625 
L 67.578125 0 
L 57.328125 0 
L 50.6875 18.703125 
L 17.828125 18.703125 
L 11.1875 0 
L 0.78125 0 
z
" id="DejaVuSans-65"/>
       <path id="DejaVuSans-32"/>
       <path d="M 73.1875 49.21875 
L 22.796875 31.296875 
L 73.1875 13.484375 
L 73.1875 4.59375 
L 10.59375 27.296875 
L 10.59375 35.40625 
L 73.1875 58.109375 
z
" id="DejaVuSans-60"/>
       <path d="M -0.296875 72.90625 
L 61.375 72.90625 
L 61.375 64.59375 
L 35.5 64.59375 
L 35.5 0 
L 25.59375 0 
L 25.59375 64.59375 
L -0.296875 64.59375 
z
" id="DejaVuSans-84"/>
      </defs>
      <g style="fill:#555555;" transform="translate(171.21014 15.558281)scale(0.11 -0.11)">
       <use xlink:href="#DejaVuSans-65"/>
       <use x="68.408203" xlink:href="#DejaVuSans-32"/>
       <use x="100.195312" xlink:href="#DejaVuSans-60"/>
       <use x="183.984375" xlink:href="#DejaVuSans-32"/>
       <use x="215.771484" xlink:href="#DejaVuSans-84"/>
      </g>
     </g>
    </g>
    <g id="xtick_2">
     <g id="line2d_2">
      <path clip-path="url(#p7cb30c8df2)" d="M 186.436546 184.580369 
L 331.527255 137.43754 
" style="fill:none;stroke:#ffffff;stroke-linecap:square;stroke-width:1.5;"/>
     </g>
     <g id="text_2">
      <!-- H &lt; A -->
      <defs>
       <path d="M 9.8125 72.90625 
L 19.671875 72.90625 
L 19.671875 43.015625 
L 55.515625 43.015625 
L 55.515625 72.90625 
L 65.375 72.90625 
L 65.375 0 
L 55.515625 0 
L 55.515625 34.71875 
L 19.671875 34.71875 
L 19.671875 0 
L 9.8125 0 
z
" id="DejaVuSans-72"/>
      </defs>
      <g style="fill:#555555;" transform="translate(334.069576 134.447021)scale(0.11 -0.11)">
       <use xlink:href="#DejaVuSans-72"/>
       <use x="75.195312" xlink:href="#DejaVuSans-32"/>
       <use x="106.982422" xlink:href="#DejaVuSans-60"/>
       <use x="190.771484" xlink:href="#DejaVuSans-32"/>
       <use x="222.558594" xlink:href="#DejaVuSans-65"/>
      </g>
     </g>
    </g>
    <g id="xtick_3">
     <g id="line2d_3">
      <path clip-path="url(#p7cb30c8df2)" d="M 186.436546 184.580369 
L 276.107536 308.001898 
" style="fill:none;stroke:#ffffff;stroke-linecap:square;stroke-width:1.5;"/>
     </g>
     <g id="text_3">
      <!-- H &lt; S -->
      <defs>
       <path d="M 53.515625 70.515625 
L 53.515625 60.890625 
Q 47.90625 63.578125 42.921875 64.890625 
Q 37.9375 66.21875 33.296875 66.21875 
Q 25.25 66.21875 20.875 63.09375 
Q 16.5 59.96875 16.5 54.203125 
Q 16.5 49.359375 19.40625 46.890625 
Q 22.3125 44.4375 30.421875 42.921875 
L 36.375 41.703125 
Q 47.40625 39.59375 52.65625 34.296875 
Q 57.90625 29 57.90625 20.125 
Q 57.90625 9.515625 50.796875 4.046875 
Q 43.703125 -1.421875 29.984375 -1.421875 
Q 24.8125 -1.421875 18.96875 -0.25 
Q 13.140625 0.921875 6.890625 3.21875 
L 6.890625 13.375 
Q 12.890625 10.015625 18.65625 8.296875 
Q 24.421875 6.59375 29.984375 6.59375 
Q 38.421875 6.59375 43.015625 9.90625 
Q 47.609375 13.234375 47.609375 19.390625 
Q 47.609375 24.75 44.3125 27.78125 
Q 41.015625 30.8125 33.5 32.328125 
L 27.484375 33.5 
Q 16.453125 35.6875 11.515625 40.375 
Q 6.59375 45.0625 6.59375 53.421875 
Q 6.59375 63.09375 13.40625 68.65625 
Q 20.21875 74.21875 32.171875 74.21875 
Q 37.3125 74.21875 42.625 73.28125 
Q 47.953125 72.359375 53.515625 70.515625 
z
" id="DejaVuSans-83"/>
      </defs>
      <g style="fill:#555555;" transform="translate(271.83677 326.813042)scale(0.11 -0.11)">
       <use xlink:href="#DejaVuSans-72"/>
       <use x="75.195312" xlink:href="#DejaVuSans-32"/>
       <use x="106.982422" xlink:href="#DejaVuSans-60"/>
       <use x="190.771484" xlink:href="#DejaVuSans-32"/>
       <use x="222.558594" xlink:href="#DejaVuSans-83"/>
      </g>
     </g>
    </g>
    <g id="xtick_4">
     <g id="line2d_4">
      <path clip-path="url(#p7cb30c8df2)" d="M 186.436546 184.580369 
L 96.765556 308.001898 
" style="fill:none;stroke:#ffffff;stroke-linecap:square;stroke-width:1.5;"/>
     </g>
     <g id="text_4">
      <!-- S &lt; A -->
      <g style="fill:#555555;" transform="translate(69.944994 326.813042)scale(0.11 -0.11)">
       <use xlink:href="#DejaVuSans-83"/>
       <use x="63.476562" xlink:href="#DejaVuSans-32"/>
       <use x="95.263672" xlink:href="#DejaVuSans-60"/>
       <use x="179.052734" xlink:href="#DejaVuSans-32"/>
       <use x="210.839844" xlink:href="#DejaVuSans-65"/>
      </g>
     </g>
    </g>
    <g id="xtick_5">
     <g id="line2d_5">
      <path clip-path="url(#p7cb30c8df2)" d="M 186.436546 184.580369 
L 41.345836 137.43754 
" style="fill:none;stroke:#ffffff;stroke-linecap:square;stroke-width:1.5;"/>
     </g>
     <g id="text_5">
      <!-- H &lt; T -->
      <g style="fill:#555555;" transform="translate(7.2 134.447021)scale(0.11 -0.11)">
       <use xlink:href="#DejaVuSans-72"/>
       <use x="75.195312" xlink:href="#DejaVuSans-32"/>
       <use x="106.982422" xlink:href="#DejaVuSans-60"/>
       <use x="190.771484" xlink:href="#DejaVuSans-32"/>
       <use x="222.558594" xlink:href="#DejaVuSans-84"/>
      </g>
     </g>
    </g>
   </g>
   <g id="matplotlib.axis_2">
    <g id="ytick_1">
     <g id="line2d_6">
      <path clip-path="url(#p7cb30c8df2)" d="M 186.436546 138.813149 
L 189.629106 138.924635 
L 192.806112 139.258552 
L 195.952086 139.813272 
L 199.051701 140.586093 
L 202.089857 141.57325 
L 205.051751 142.769933 
L 207.922954 144.170312 
L 210.689477 145.767565 
L 213.337843 147.55391 
L 215.855148 149.520644 
L 218.229128 151.658186 
L 220.448219 153.956121 
L 222.501607 156.403255 
L 224.379291 158.987664 
L 226.072121 161.696759 
L 227.571851 164.51734 
L 228.871173 167.435666 
L 229.963759 170.43752 
L 230.844284 173.508276 
L 231.508459 176.632974 
L 231.953048 179.796392 
L 232.175886 182.983116 
L 232.175886 186.177622 
L 231.953048 189.364346 
L 231.508459 192.527763 
L 230.844284 195.652461 
L 229.963759 198.723218 
L 228.871173 201.725071 
L 227.571851 204.643397 
L 226.072121 207.463979 
L 224.379291 210.173073 
L 222.501607 212.757483 
L 220.448219 215.204616 
L 218.229128 217.502552 
L 215.855148 219.640093 
L 213.337843 221.606828 
L 210.689477 223.393173 
L 207.922954 224.990425 
L 205.051751 226.390805 
L 202.089857 227.587488 
L 199.051701 228.574644 
L 195.952086 229.347465 
L 192.806112 229.902185 
L 189.629106 230.236102 
L 186.436546 230.347589 
L 183.243986 230.236102 
L 180.06698 229.902185 
L 176.921006 229.347465 
L 173.82139 228.574644 
L 170.783235 227.587488 
L 167.82134 226.390805 
L 164.950138 224.990425 
L 162.183614 223.393173 
L 159.535249 221.606828 
L 157.017944 219.640093 
L 154.643963 217.502552 
L 152.424873 215.204616 
L 150.371484 212.757483 
L 148.493801 210.173073 
L 146.800971 207.463979 
L 145.301241 204.643397 
L 144.001918 201.725071 
L 142.909333 198.723218 
L 142.028808 195.652461 
L 141.364633 192.527763 
L 140.920043 189.364346 
L 140.697206 186.177622 
L 140.697206 182.983116 
L 140.920043 179.796392 
L 141.364633 176.632974 
L 142.028808 173.508276 
L 142.909333 170.43752 
L 144.001918 167.435666 
L 145.301241 164.51734 
L 146.800971 161.696759 
L 148.493801 158.987664 
L 150.371484 156.403255 
L 152.424873 153.956121 
L 154.643963 151.658186 
L 157.017944 149.520644 
L 159.535249 147.55391 
L 162.183614 145.767565 
L 164.950138 144.170312 
L 167.82134 142.769933 
L 170.783235 141.57325 
L 173.82139 140.586093 
L 176.921006 139.813272 
L 180.06698 139.258552 
L 183.243986 138.924635 
L 186.436546 138.813149 
L 186.436546 138.813149 
" style="fill:none;stroke:#ffffff;stroke-linecap:square;stroke-width:1.5;"/>
     </g>
     <g id="text_6">
      <!-- 30 -->
      <defs>
       <path d="M 40.578125 39.3125 
Q 47.65625 37.796875 51.625 33 
Q 55.609375 28.21875 55.609375 21.1875 
Q 55.609375 10.40625 48.1875 4.484375 
Q 40.765625 -1.421875 27.09375 -1.421875 
Q 22.515625 -1.421875 17.65625 -0.515625 
Q 12.796875 0.390625 7.625 2.203125 
L 7.625 11.71875 
Q 11.71875 9.328125 16.59375 8.109375 
Q 21.484375 6.890625 26.8125 6.890625 
Q 36.078125 6.890625 40.9375 10.546875 
Q 45.796875 14.203125 45.796875 21.1875 
Q 45.796875 27.640625 41.28125 31.265625 
Q 36.765625 34.90625 28.71875 34.90625 
L 20.21875 34.90625 
L 20.21875 43.015625 
L 29.109375 43.015625 
Q 36.375 43.015625 40.234375 45.921875 
Q 44.09375 48.828125 44.09375 54.296875 
Q 44.09375 59.90625 40.109375 62.90625 
Q 36.140625 65.921875 28.71875 65.921875 
Q 24.65625 65.921875 20.015625 65.03125 
Q 15.375 64.15625 9.8125 62.3125 
L 9.8125 71.09375 
Q 15.4375 72.65625 20.34375 73.4375 
Q 25.25 74.21875 29.59375 74.21875 
Q 40.828125 74.21875 47.359375 69.109375 
Q 53.90625 64.015625 53.90625 55.328125 
Q 53.90625 49.265625 50.4375 45.09375 
Q 46.96875 40.921875 40.578125 39.3125 
z
" id="DejaVuSans-51"/>
       <path d="M 31.78125 66.40625 
Q 24.171875 66.40625 20.328125 58.90625 
Q 16.5 51.421875 16.5 36.375 
Q 16.5 21.390625 20.328125 13.890625 
Q 24.171875 6.390625 31.78125 6.390625 
Q 39.453125 6.390625 43.28125 13.890625 
Q 47.125 21.390625 47.125 36.375 
Q 47.125 51.421875 43.28125 58.90625 
Q 39.453125 66.40625 31.78125 66.40625 
z
M 31.78125 74.21875 
Q 44.046875 74.21875 50.515625 64.515625 
Q 56.984375 54.828125 56.984375 36.375 
Q 56.984375 17.96875 50.515625 8.265625 
Q 44.046875 -1.421875 31.78125 -1.421875 
Q 19.53125 -1.421875 13.0625 8.265625 
Q 6.59375 17.96875 6.59375 36.375 
Q 6.59375 54.828125 13.0625 64.515625 
Q 19.53125 74.21875 31.78125 74.21875 
z
" id="DejaVuSans-48"/>
      </defs>
      <g style="fill:#808080;" transform="translate(186.436546 136.525492)scale(0.11 -0.11)">
       <use xlink:href="#DejaVuSans-51"/>
       <use x="63.623047" xlink:href="#DejaVuSans-48"/>
      </g>
     </g>
    </g>
    <g id="ytick_2">
     <g id="line2d_7">
      <path clip-path="url(#p7cb30c8df2)" d="M 186.436546 93.045929 
L 189.631052 93.101689 
L 192.821666 93.268902 
L 196.0045 93.547364 
L 199.175678 93.936736 
L 202.331335 94.436543 
L 205.467626 95.046176 
L 208.580731 95.764893 
L 211.666857 96.591818 
L 214.722243 97.525943 
L 217.743168 98.566131 
L 220.725951 99.711114 
L 223.666957 100.959497 
L 226.562603 102.309759 
L 229.409362 103.760255 
L 232.203766 105.309218 
L 234.942409 106.954761 
L 237.621955 108.694879 
L 240.23914 110.527451 
L 242.790774 112.450246 
L 245.27375 114.46092 
L 247.685041 116.557023 
L 250.021711 118.736003 
L 252.280912 120.995204 
L 254.459891 123.331873 
L 256.555995 125.743165 
L 258.566669 128.22614 
L 260.489463 130.777775 
L 262.322036 133.394959 
L 264.062153 136.074506 
L 265.707696 138.813149 
L 267.256659 141.607552 
L 268.707156 144.454311 
L 270.057418 147.349958 
L 271.305801 150.290964 
L 272.450784 153.273746 
L 273.490971 156.294671 
L 274.425097 159.350058 
L 275.252022 162.436184 
L 275.970739 165.549289 
L 276.580372 168.68558 
L 277.080179 171.841237 
L 277.469551 175.012414 
L 277.748013 178.195249 
L 277.915226 181.385863 
L 277.970986 184.580369 
L 277.915226 187.774875 
L 277.748013 190.965489 
L 277.469551 194.148323 
L 277.080179 197.319501 
L 276.580372 200.475157 
L 275.970739 203.611449 
L 275.252022 206.724554 
L 274.425097 209.81068 
L 273.490971 212.866066 
L 272.450784 215.886991 
L 271.305801 218.869773 
L 270.057418 221.81078 
L 268.707156 224.706426 
L 267.256659 227.553185 
L 265.707696 230.347589 
L 264.062153 233.086232 
L 262.322036 235.765778 
L 260.489463 238.382963 
L 258.566669 240.934597 
L 256.555995 243.417573 
L 254.459891 245.828864 
L 252.280912 248.165534 
L 250.021711 250.424735 
L 247.685041 252.603714 
L 245.27375 254.699818 
L 242.790774 256.710492 
L 240.23914 258.633286 
L 237.621955 260.465859 
L 234.942409 262.205976 
L 232.203766 263.851519 
L 229.409362 265.400482 
L 226.562603 266.850978 
L 223.666957 268.201241 
L 220.725951 269.449624 
L 217.743168 270.594607 
L 214.722243 271.634794 
L 211.666857 272.56892 
L 208.580731 273.395845 
L 205.467626 274.114562 
L 202.331335 274.724195 
L 199.175678 275.224002 
L 196.0045 275.613374 
L 192.821666 275.891835 
L 189.631052 276.059048 
L 186.436546 276.114809 
L 183.24204 276.059048 
L 180.051426 275.891835 
L 176.868591 275.613374 
L 173.697414 275.224002 
L 170.541757 274.724195 
L 167.405466 274.114562 
L 164.292361 273.395845 
L 161.206235 272.56892 
L 158.150848 271.634794 
L 155.129924 270.594607 
L 152.147141 269.449624 
L 149.206135 268.201241 
L 146.310488 266.850978 
L 143.463729 265.400482 
L 140.669326 263.851519 
L 137.930683 262.205976 
L 135.251137 260.465859 
L 132.633952 258.633286 
L 130.082317 256.710492 
L 127.599342 254.699818 
L 125.18805 252.603714 
L 122.851381 250.424735 
L 120.59218 248.165534 
L 118.4132 245.828864 
L 116.317097 243.417573 
L 114.306423 240.934597 
L 112.383628 238.382963 
L 110.551056 235.765778 
L 108.810938 233.086232 
L 107.165395 230.347589 
L 105.616432 227.553185 
L 104.165936 224.706426 
L 102.815674 221.81078 
L 101.567291 218.869773 
L 100.422308 215.886991 
L 99.38212 212.866066 
L 98.447995 209.81068 
L 97.62107 206.724554 
L 96.902353 203.611449 
L 96.29272 200.475157 
L 95.792913 197.319501 
L 95.403541 194.148323 
L 95.125079 190.965489 
L 94.957866 187.774875 
L 94.902106 184.580369 
L 94.957866 181.385863 
L 95.125079 178.195249 
L 95.403541 175.012414 
L 95.792913 171.841237 
L 96.29272 168.68558 
L 96.902353 165.549289 
L 97.62107 162.436184 
L 98.447995 159.350058 
L 99.38212 156.294671 
L 100.422308 153.273746 
L 101.567291 150.290964 
L 102.815674 147.349958 
L 104.165936 144.454311 
L 105.616432 141.607552 
L 107.165395 138.813149 
L 108.810938 136.074506 
L 110.551056 133.394959 
L 112.383628 130.777775 
L 114.306423 128.22614 
L 116.317097 125.743165 
L 118.4132 123.331873 
L 120.59218 120.995204 
L 122.851381 118.736003 
L 125.18805 116.557023 
L 127.599342 114.46092 
L 130.082317 112.450246 
L 132.633952 110.527451 
L 135.251137 108.694879 
L 137.930683 106.954761 
L 140.669326 105.309218 
L 143.463729 103.760255 
L 146.310488 102.309759 
L 149.206135 100.959497 
L 152.147141 99.711114 
L 155.129924 98.566131 
L 158.150848 97.525943 
L 161.206235 96.591818 
L 164.292361 95.764893 
L 167.405466 95.046176 
L 170.541757 94.436543 
L 173.697414 93.936736 
L 176.868591 93.547364 
L 180.051426 93.268902 
L 183.24204 93.101689 
L 186.436546 93.045929 
L 186.436546 93.045929 
" style="fill:none;stroke:#ffffff;stroke-linecap:square;stroke-width:1.5;"/>
     </g>
     <g id="text_7">
      <!-- 60 -->
      <defs>
       <path d="M 33.015625 40.375 
Q 26.375 40.375 22.484375 35.828125 
Q 18.609375 31.296875 18.609375 23.390625 
Q 18.609375 15.53125 22.484375 10.953125 
Q 26.375 6.390625 33.015625 6.390625 
Q 39.65625 6.390625 43.53125 10.953125 
Q 47.40625 15.53125 47.40625 23.390625 
Q 47.40625 31.296875 43.53125 35.828125 
Q 39.65625 40.375 33.015625 40.375 
z
M 52.59375 71.296875 
L 52.59375 62.3125 
Q 48.875 64.0625 45.09375 64.984375 
Q 41.3125 65.921875 37.59375 65.921875 
Q 27.828125 65.921875 22.671875 59.328125 
Q 17.53125 52.734375 16.796875 39.40625 
Q 19.671875 43.65625 24.015625 45.921875 
Q 28.375 48.1875 33.59375 48.1875 
Q 44.578125 48.1875 50.953125 41.515625 
Q 57.328125 34.859375 57.328125 23.390625 
Q 57.328125 12.15625 50.6875 5.359375 
Q 44.046875 -1.421875 33.015625 -1.421875 
Q 20.359375 -1.421875 13.671875 8.265625 
Q 6.984375 17.96875 6.984375 36.375 
Q 6.984375 53.65625 15.1875 63.9375 
Q 23.390625 74.21875 37.203125 74.21875 
Q 40.921875 74.21875 44.703125 73.484375 
Q 48.484375 72.75 52.59375 71.296875 
z
" id="DejaVuSans-54"/>
      </defs>
      <g style="fill:#808080;" transform="translate(186.436546 90.758272)scale(0.11 -0.11)">
       <use xlink:href="#DejaVuSans-54"/>
       <use x="63.623047" xlink:href="#DejaVuSans-48"/>
      </g>
     </g>
    </g>
    <g id="ytick_3">
     <g id="line2d_8">
      <path clip-path="url(#p7cb30c8df2)" d="M 186.436546 47.278709 
L 191.228305 47.362349 
L 196.014225 47.613169 
L 200.788477 48.030862 
L 205.545244 48.614919 
L 210.278729 49.364629 
L 214.983166 50.279079 
L 219.652824 51.357155 
L 224.282012 52.597542 
L 228.865092 53.99873 
L 233.396479 55.559012 
L 237.870653 57.276486 
L 242.282162 59.149061 
L 246.625632 61.174454 
L 250.895771 63.350199 
L 255.087376 65.673643 
L 259.19534 68.141957 
L 263.21466 70.752134 
L 267.140437 73.500992 
L 270.967888 76.385184 
L 274.692352 79.401195 
L 278.309289 82.545351 
L 281.814293 85.81382 
L 285.203095 89.202621 
L 288.471564 92.707626 
L 291.615719 96.324563 
L 294.63173 100.049026 
L 297.515922 103.876478 
L 300.264781 107.802255 
L 302.874957 111.821574 
L 305.343271 115.929539 
L 307.666716 120.121144 
L 309.84246 124.391283 
L 311.867854 128.734752 
L 313.740428 133.146262 
L 315.457903 137.620435 
L 317.018184 142.151822 
L 318.419372 146.734902 
L 319.65976 151.364091 
L 320.737835 156.033748 
L 321.652285 160.738186 
L 322.401996 165.471671 
L 322.986053 170.228437 
L 323.403746 175.002689 
L 323.654565 179.78861 
L 323.738206 184.580369 
L 323.654565 189.372128 
L 323.403746 194.158048 
L 322.986053 198.9323 
L 322.401996 203.689067 
L 321.652285 208.422552 
L 320.737835 213.126989 
L 319.65976 217.796647 
L 318.419372 222.425835 
L 317.018184 227.008915 
L 315.457903 231.540302 
L 313.740428 236.014476 
L 311.867854 240.425985 
L 309.84246 244.769455 
L 307.666716 249.039594 
L 305.343271 253.231199 
L 302.874957 257.339163 
L 300.264781 261.358483 
L 297.515922 265.28426 
L 294.63173 269.111711 
L 291.615719 272.836175 
L 288.471564 276.453112 
L 285.203095 279.958116 
L 281.814293 283.346917 
L 278.309289 286.615387 
L 274.692352 289.759542 
L 270.967888 292.775553 
L 267.140437 295.659745 
L 263.21466 298.408604 
L 259.19534 301.01878 
L 255.087376 303.487094 
L 250.895771 305.810539 
L 246.625632 307.986283 
L 242.282162 310.011677 
L 237.870653 311.884251 
L 233.396479 313.601725 
L 228.865092 315.162007 
L 224.282012 316.563195 
L 219.652824 317.803583 
L 214.983166 318.881658 
L 210.278729 319.796108 
L 205.545244 320.545818 
L 200.788477 321.129876 
L 196.014225 321.547569 
L 191.228305 321.798388 
L 186.436546 321.882029 
L 181.644787 321.798388 
L 176.858866 321.547569 
L 172.084614 321.129876 
L 167.327848 320.545818 
L 162.594363 319.796108 
L 157.889926 318.881658 
L 153.220268 317.803583 
L 148.591079 316.563195 
L 144.008 315.162007 
L 139.476612 313.601725 
L 135.002439 311.884251 
L 130.59093 310.011677 
L 126.24746 307.986283 
L 121.977321 305.810539 
L 117.785716 303.487094 
L 113.677751 301.01878 
L 109.658432 298.408604 
L 105.732655 295.659745 
L 101.905203 292.775553 
L 98.18074 289.759542 
L 94.563803 286.615387 
L 91.058798 283.346917 
L 87.669997 279.958116 
L 84.401528 276.453112 
L 81.257372 272.836175 
L 78.241361 269.111711 
L 75.35717 265.28426 
L 72.608311 261.358483 
L 69.998134 257.339163 
L 67.52982 253.231199 
L 65.206376 249.039594 
L 63.030631 244.769455 
L 61.005238 240.425985 
L 59.132663 236.014476 
L 57.415189 231.540302 
L 55.854907 227.008915 
L 54.453719 222.425835 
L 53.213332 217.796647 
L 52.135257 213.126989 
L 51.220807 208.422552 
L 50.471096 203.689067 
L 49.887039 198.9323 
L 49.469346 194.158048 
L 49.218526 189.372128 
L 49.134886 184.580369 
L 49.218526 179.78861 
L 49.469346 175.002689 
L 49.887039 170.228437 
L 50.471096 165.471671 
L 51.220807 160.738186 
L 52.135257 156.033748 
L 53.213332 151.364091 
L 54.453719 146.734902 
L 55.854907 142.151822 
L 57.415189 137.620435 
L 59.132663 133.146262 
L 61.005238 128.734752 
L 63.030631 124.391283 
L 65.206376 120.121144 
L 67.52982 115.929539 
L 69.998134 111.821574 
L 72.608311 107.802255 
L 75.35717 103.876478 
L 78.241361 100.049026 
L 81.257372 96.324563 
L 84.401528 92.707626 
L 87.669997 89.202621 
L 91.058798 85.81382 
L 94.563803 82.545351 
L 98.18074 79.401195 
L 101.905203 76.385184 
L 105.732655 73.500992 
L 109.658432 70.752134 
L 113.677751 68.141957 
L 117.785716 65.673643 
L 121.977321 63.350199 
L 126.24746 61.174454 
L 130.59093 59.149061 
L 135.002439 57.276486 
L 139.476612 55.559012 
L 144.008 53.99873 
L 148.591079 52.597542 
L 153.220268 51.357155 
L 157.889926 50.279079 
L 162.594363 49.364629 
L 167.327848 48.614919 
L 172.084614 48.030862 
L 176.858866 47.613169 
L 181.644787 47.362349 
L 186.436546 47.278709 
L 186.436546 47.278709 
" style="fill:none;stroke:#ffffff;stroke-linecap:square;stroke-width:1.5;"/>
     </g>
     <g id="text_8">
      <!-- 90 -->
      <defs>
       <path d="M 10.984375 1.515625 
L 10.984375 10.5 
Q 14.703125 8.734375 18.5 7.8125 
Q 22.3125 6.890625 25.984375 6.890625 
Q 35.75 6.890625 40.890625 13.453125 
Q 46.046875 20.015625 46.78125 33.40625 
Q 43.953125 29.203125 39.59375 26.953125 
Q 35.25 24.703125 29.984375 24.703125 
Q 19.046875 24.703125 12.671875 31.3125 
Q 6.296875 37.9375 6.296875 49.421875 
Q 6.296875 60.640625 12.9375 67.421875 
Q 19.578125 74.21875 30.609375 74.21875 
Q 43.265625 74.21875 49.921875 64.515625 
Q 56.59375 54.828125 56.59375 36.375 
Q 56.59375 19.140625 48.40625 8.859375 
Q 40.234375 -1.421875 26.421875 -1.421875 
Q 22.703125 -1.421875 18.890625 -0.6875 
Q 15.09375 0.046875 10.984375 1.515625 
z
M 30.609375 32.421875 
Q 37.25 32.421875 41.125 36.953125 
Q 45.015625 41.5 45.015625 49.421875 
Q 45.015625 57.28125 41.125 61.84375 
Q 37.25 66.40625 30.609375 66.40625 
Q 23.96875 66.40625 20.09375 61.84375 
Q 16.21875 57.28125 16.21875 49.421875 
Q 16.21875 41.5 20.09375 36.953125 
Q 23.96875 32.421875 30.609375 32.421875 
z
" id="DejaVuSans-57"/>
      </defs>
      <g style="fill:#808080;" transform="translate(186.436546 44.991052)scale(0.11 -0.11)">
       <use xlink:href="#DejaVuSans-57"/>
       <use x="63.623047" xlink:href="#DejaVuSans-48"/>
      </g>
     </g>
    </g>
   </g>
   <g id="patch_3">
    <path clip-path="url(#p7cb30c8df2)" d="M 186.436546 80.841337 
L 331.527255 137.43754 
L 186.436546 184.580369 
L 110.216204 289.488669 
L 41.345836 137.43754 
z
" style="fill:#1f77b4;opacity:0.1;stroke:#1f77b4;stroke-linejoin:miter;stroke-width:1.5;"/>
   </g>
   <g id="patch_4">
    <path clip-path="url(#p7cb30c8df2)" d="M 186.436546 32.022969 
L 254.629179 162.423239 
L 233.065461 248.759564 
L 186.436546 184.580369 
L 41.345836 137.43754 
z
" style="fill:#2ca02c;opacity:0.1;stroke:#2ca02c;stroke-linejoin:miter;stroke-width:1.5;"/>
   </g>
   <g id="patch_5">
    <path clip-path="url(#p7cb30c8df2)" d="M 186.436546 32.022969 
L 331.527255 137.43754 
L 190.920095 190.751445 
L 96.765556 308.001898 
L 41.345836 137.43754 
z
" style="fill:#ff7f0e;opacity:0.1;stroke:#ff7f0e;stroke-linejoin:miter;stroke-width:1.5;"/>
   </g>
   <g id="line2d_9">
    <path clip-path="url(#p7cb30c8df2)" d="M 186.436546 80.841337 
L 331.527255 137.43754 
L 186.436546 184.580369 
L 110.216204 289.488669 
L 41.345836 137.43754 
L 186.436546 80.841337 
" style="fill:none;stroke:#1f77b4;stroke-linecap:square;"/>
   </g>
   <g id="line2d_10">
    <path clip-path="url(#p7cb30c8df2)" d="M 186.436546 32.022969 
L 254.629179 162.423239 
L 233.065461 248.759564 
L 186.436546 184.580369 
L 41.345836 137.43754 
L 186.436546 32.022969 
" style="fill:none;stroke:#2ca02c;stroke-linecap:square;"/>
   </g>
   <g id="line2d_11">
    <path clip-path="url(#p7cb30c8df2)" d="M 186.436546 32.022969 
L 331.527255 137.43754 
L 190.920095 190.751445 
L 96.765556 308.001898 
L 41.345836 137.43754 
L 186.436546 32.022969 
" style="fill:none;stroke:#ff7f0e;stroke-linecap:square;"/>
   </g>
   <g id="patch_6">
    <path d="M 186.436546 32.022969 
C 166.402892 32.022969 146.564039 35.969162 128.055356 43.635709 
C 109.546673 51.302257 92.728107 62.540064 78.562174 76.705997 
C 64.396241 90.871929 53.158434 107.690496 45.491886 126.199179 
C 37.825339 144.707862 33.879146 164.546715 33.879146 184.580369 
C 33.879146 204.614023 37.825339 224.452875 45.491886 242.961558 
C 53.158434 261.470241 64.396241 278.288808 78.562174 292.454741 
C 92.728107 306.620674 109.546673 317.858481 128.055356 325.525028 
C 146.564039 333.191576 166.402892 337.137769 186.436546 337.137769 
C 206.4702 337.137769 226.309052 333.191576 244.817735 325.525028 
C 263.326418 317.858481 280.144985 306.620674 294.310918 292.454741 
C 308.476851 278.288808 319.714658 261.470241 327.381205 242.961558 
C 335.047753 224.452875 338.993946 204.614023 338.993946 184.580369 
C 338.993946 164.546715 335.047753 144.707862 327.381205 126.199179 
C 319.714658 107.690496 308.476851 90.871929 294.310918 76.705997 
C 280.144985 62.540064 263.326418 51.302257 244.817735 43.635709 
C 226.309052 35.969162 206.4702 32.022969 186.436546 32.022969 
" style="fill:none;stroke:#ffffff;stroke-linecap:square;stroke-linejoin:miter;stroke-width:1.875;"/>
   </g>
   <g id="legend_1">
    <g id="patch_7">
     <path d="M 20.347288 396.013025 
L 352.525804 396.013025 
Q 355.825804 396.013025 355.825804 392.713025 
L 355.825804 370.144118 
Q 355.825804 366.844118 352.525804 366.844118 
L 20.347288 366.844118 
Q 17.047288 366.844118 17.047288 370.144118 
L 17.047288 392.713025 
Q 17.047288 396.013025 20.347288 396.013025 
z
" style="fill:#e5e5e5;opacity:0.8;stroke:#cccccc;stroke-linejoin:miter;stroke-width:1.5;"/>
    </g>
    <g id="line2d_12">
     <path d="M 23.647288 380.20654 
L 56.647288 380.20654 
" style="fill:none;stroke:#1f77b4;stroke-linecap:square;stroke-width:2;"/>
    </g>
    <g id="line2d_13"/>
    <g id="text_9">
     <!-- Kegg -->
     <defs>
      <path d="M 9.8125 72.90625 
L 19.671875 72.90625 
L 19.671875 42.09375 
L 52.390625 72.90625 
L 65.09375 72.90625 
L 28.90625 38.921875 
L 67.671875 0 
L 54.6875 0 
L 19.671875 35.109375 
L 19.671875 0 
L 9.8125 0 
z
" id="DejaVuSans-75"/>
      <path d="M 56.203125 29.59375 
L 56.203125 25.203125 
L 14.890625 25.203125 
Q 15.484375 15.921875 20.484375 11.0625 
Q 25.484375 6.203125 34.421875 6.203125 
Q 39.59375 6.203125 44.453125 7.46875 
Q 49.3125 8.734375 54.109375 11.28125 
L 54.109375 2.78125 
Q 49.265625 0.734375 44.1875 -0.34375 
Q 39.109375 -1.421875 33.890625 -1.421875 
Q 20.796875 -1.421875 13.15625 6.1875 
Q 5.515625 13.8125 5.515625 26.8125 
Q 5.515625 40.234375 12.765625 48.109375 
Q 20.015625 56 32.328125 56 
Q 43.359375 56 49.78125 48.890625 
Q 56.203125 41.796875 56.203125 29.59375 
z
M 47.21875 32.234375 
Q 47.125 39.59375 43.09375 43.984375 
Q 39.0625 48.390625 32.421875 48.390625 
Q 24.90625 48.390625 20.390625 44.140625 
Q 15.875 39.890625 15.1875 32.171875 
z
" id="DejaVuSans-101"/>
      <path d="M 45.40625 27.984375 
Q 45.40625 37.75 41.375 43.109375 
Q 37.359375 48.484375 30.078125 48.484375 
Q 22.859375 48.484375 18.828125 43.109375 
Q 14.796875 37.75 14.796875 27.984375 
Q 14.796875 18.265625 18.828125 12.890625 
Q 22.859375 7.515625 30.078125 7.515625 
Q 37.359375 7.515625 41.375 12.890625 
Q 45.40625 18.265625 45.40625 27.984375 
z
M 54.390625 6.78125 
Q 54.390625 -7.171875 48.1875 -13.984375 
Q 42 -20.796875 29.203125 -20.796875 
Q 24.46875 -20.796875 20.265625 -20.09375 
Q 16.0625 -19.390625 12.109375 -17.921875 
L 12.109375 -9.1875 
Q 16.0625 -11.328125 19.921875 -12.34375 
Q 23.78125 -13.375 27.78125 -13.375 
Q 36.625 -13.375 41.015625 -8.765625 
Q 45.40625 -4.15625 45.40625 5.171875 
L 45.40625 9.625 
Q 42.625 4.78125 38.28125 2.390625 
Q 33.9375 0 27.875 0 
Q 17.828125 0 11.671875 7.65625 
Q 5.515625 15.328125 5.515625 27.984375 
Q 5.515625 40.671875 11.671875 48.328125 
Q 17.828125 56 27.875 56 
Q 33.9375 56 38.28125 53.609375 
Q 42.625 51.21875 45.40625 46.390625 
L 45.40625 54.6875 
L 54.390625 54.6875 
z
" id="DejaVuSans-103"/>
     </defs>
     <g transform="translate(69.847288 385.98154)scale(0.165 -0.165)">
      <use xlink:href="#DejaVuSans-75"/>
      <use x="60.576172" xlink:href="#DejaVuSans-101"/>
      <use x="122.099609" xlink:href="#DejaVuSans-103"/>
      <use x="185.576172" xlink:href="#DejaVuSans-103"/>
     </g>
    </g>
    <g id="line2d_14">
     <path d="M 143.945179 380.20654 
L 176.945179 380.20654 
" style="fill:none;stroke:#2ca02c;stroke-linecap:square;stroke-width:2;"/>
    </g>
    <g id="line2d_15"/>
    <g id="text_10">
     <!-- Taxo -->
     <defs>
      <path d="M 34.28125 27.484375 
Q 23.390625 27.484375 19.1875 25 
Q 14.984375 22.515625 14.984375 16.5 
Q 14.984375 11.71875 18.140625 8.90625 
Q 21.296875 6.109375 26.703125 6.109375 
Q 34.1875 6.109375 38.703125 11.40625 
Q 43.21875 16.703125 43.21875 25.484375 
L 43.21875 27.484375 
z
M 52.203125 31.203125 
L 52.203125 0 
L 43.21875 0 
L 43.21875 8.296875 
Q 40.140625 3.328125 35.546875 0.953125 
Q 30.953125 -1.421875 24.3125 -1.421875 
Q 15.921875 -1.421875 10.953125 3.296875 
Q 6 8.015625 6 15.921875 
Q 6 25.140625 12.171875 29.828125 
Q 18.359375 34.515625 30.609375 34.515625 
L 43.21875 34.515625 
L 43.21875 35.40625 
Q 43.21875 41.609375 39.140625 45 
Q 35.0625 48.390625 27.6875 48.390625 
Q 23 48.390625 18.546875 47.265625 
Q 14.109375 46.140625 10.015625 43.890625 
L 10.015625 52.203125 
Q 14.9375 54.109375 19.578125 55.046875 
Q 24.21875 56 28.609375 56 
Q 40.484375 56 46.34375 49.84375 
Q 52.203125 43.703125 52.203125 31.203125 
z
" id="DejaVuSans-97"/>
      <path d="M 54.890625 54.6875 
L 35.109375 28.078125 
L 55.90625 0 
L 45.3125 0 
L 29.390625 21.484375 
L 13.484375 0 
L 2.875 0 
L 24.125 28.609375 
L 4.6875 54.6875 
L 15.28125 54.6875 
L 29.78125 35.203125 
L 44.28125 54.6875 
z
" id="DejaVuSans-120"/>
      <path d="M 30.609375 48.390625 
Q 23.390625 48.390625 19.1875 42.75 
Q 14.984375 37.109375 14.984375 27.296875 
Q 14.984375 17.484375 19.15625 11.84375 
Q 23.34375 6.203125 30.609375 6.203125 
Q 37.796875 6.203125 41.984375 11.859375 
Q 46.1875 17.53125 46.1875 27.296875 
Q 46.1875 37.015625 41.984375 42.703125 
Q 37.796875 48.390625 30.609375 48.390625 
z
M 30.609375 56 
Q 42.328125 56 49.015625 48.375 
Q 55.71875 40.765625 55.71875 27.296875 
Q 55.71875 13.875 49.015625 6.21875 
Q 42.328125 -1.421875 30.609375 -1.421875 
Q 18.84375 -1.421875 12.171875 6.21875 
Q 5.515625 13.875 5.515625 27.296875 
Q 5.515625 40.765625 12.171875 48.375 
Q 18.84375 56 30.609375 56 
z
" id="DejaVuSans-111"/>
     </defs>
     <g transform="translate(190.145179 385.98154)scale(0.165 -0.165)">
      <use xlink:href="#DejaVuSans-84"/>
      <use x="44.583984" xlink:href="#DejaVuSans-97"/>
      <use x="105.863281" xlink:href="#DejaVuSans-120"/>
      <use x="161.917969" xlink:href="#DejaVuSans-111"/>
     </g>
    </g>
    <g id="line2d_16">
     <path d="M 259.958226 380.20654 
L 292.958226 380.20654 
" style="fill:none;stroke:#ff7f0e;stroke-linecap:square;stroke-width:2;"/>
    </g>
    <g id="line2d_17"/>
    <g id="text_11">
     <!-- eNog -->
     <defs>
      <path d="M 9.8125 72.90625 
L 23.09375 72.90625 
L 55.421875 11.921875 
L 55.421875 72.90625 
L 64.984375 72.90625 
L 64.984375 0 
L 51.703125 0 
L 19.390625 60.984375 
L 19.390625 0 
L 9.8125 0 
z
" id="DejaVuSans-78"/>
     </defs>
     <g transform="translate(306.158226 385.98154)scale(0.165 -0.165)">
      <use xlink:href="#DejaVuSans-101"/>
      <use x="61.523438" xlink:href="#DejaVuSans-78"/>
      <use x="136.328125" xlink:href="#DejaVuSans-111"/>
      <use x="197.509766" xlink:href="#DejaVuSans-103"/>
     </g>
    </g>
   </g>
  </g>
 </g>
 <defs>
  <clipPath id="p7cb30c8df2">
   <path d="M 338.993946 184.580369 
C 338.993946 164.546715 335.047753 144.707862 327.381205 126.199179 
C 319.714658 107.690496 308.476851 90.871929 294.310918 76.705997 
C 280.144985 62.540064 263.326418 51.302257 244.817735 43.635709 
C 226.309052 35.969162 206.4702 32.022969 186.436546 32.022969 
C 166.402892 32.022969 146.564039 35.969162 128.055356 43.635709 
C 109.546673 51.302257 92.728107 62.540064 78.562174 76.705997 
C 64.396241 90.871929 53.158434 107.690496 45.491886 126.199179 
C 37.825339 144.707862 33.879146 164.546715 33.879146 184.580369 
C 33.879146 204.614023 37.825339 224.452875 45.491886 242.961558 
C 53.158434 261.470241 64.396241 278.288808 78.562174 292.454741 
C 92.728107 306.620674 109.546673 317.858481 128.055356 325.525028 
C 146.564039 333.191576 166.402892 337.137769 186.436546 337.137769 
C 206.4702 337.137769 226.309052 333.191576 244.817735 325.525028 
C 263.326418 317.858481 280.144985 306.620674 294.310918 292.454741 
C 308.476851 278.288808 319.714658 261.470241 327.381205 242.961558 
C 335.047753 224.452875 338.993946 204.614023 338.993946 184.580369 
M 186.436546 184.580369 
C 186.436546 184.580369 186.436546 184.580369 186.436546 184.580369 
C 186.436546 184.580369 186.436546 184.580369 186.436546 184.580369 
C 186.436546 184.580369 186.436546 184.580369 186.436546 184.580369 
C 186.436546 184.580369 186.436546 184.580369 186.436546 184.580369 
C 186.436546 184.580369 186.436546 184.580369 186.436546 184.580369 
C 186.436546 184.580369 186.436546 184.580369 186.436546 184.580369 
C 186.436546 184.580369 186.436546 184.580369 186.436546 184.580369 
C 186.436546 184.580369 186.436546 184.580369 186.436546 184.580369 
C 186.436546 184.580369 186.436546 184.580369 186.436546 184.580369 
C 186.436546 184.580369 186.436546 184.580369 186.436546 184.580369 
C 186.436546 184.580369 186.436546 184.580369 186.436546 184.580369 
C 186.436546 184.580369 186.436546 184.580369 186.436546 184.580369 
C 186.436546 184.580369 186.436546 184.580369 186.436546 184.580369 
C 186.436546 184.580369 186.436546 184.580369 186.436546 184.580369 
C 186.436546 184.580369 186.436546 184.580369 186.436546 184.580369 
C 186.436546 184.580369 186.436546 184.580369 186.436546 184.580369 
M 338.993946 184.580369 
z
"/>
  </clipPath>
 </defs>
</svg>
