<?xml version="1.0" encoding="utf-8" standalone="no"?>
<!DOCTYPE svg PUBLIC "-//W3C//DTD SVG 1.1//EN"
  "http://www.w3.org/Graphics/SVG/1.1/DTD/svg11.dtd">
<!-- Created with matplotlib (https://matplotlib.org/) -->
<svg height="388.813025pt" version="1.1" viewBox="0 0 358.876139 388.813025" width="358.876139pt" xmlns="http://www.w3.org/2000/svg" xmlns:xlink="http://www.w3.org/1999/xlink">
 <defs>
  <style type="text/css">
*{stroke-linecap:butt;stroke-linejoin:round;}
  </style>
 </defs>
 <g id="figure_1">
  <g id="patch_1">
   <path d="M 0 388.813025 
L 358.876139 388.813025 
L 358.876139 0 
L 0 0 
z
" style="fill:#ffffff;"/>
  </g>
  <g id="axes_1">
   <g id="patch_2">
    <path d="M 331.793946 177.380369 
C 331.793946 157.346715 327.847753 137.507862 320.181205 118.999179 
C 312.514658 100.490496 301.276851 83.671929 287.110918 69.505997 
C 272.944985 55.340064 256.126418 44.102257 237.617735 36.435709 
C 219.109052 28.769162 199.2702 24.822969 179.236546 24.822969 
C 159.202892 24.822969 139.364039 28.769162 120.855356 36.435709 
C 102.346673 44.102257 85.528107 55.340064 71.362174 69.505997 
C 57.196241 83.671929 45.958434 100.490496 38.291886 118.999179 
C 30.625339 137.507862 26.679146 157.346715 26.679146 177.380369 
C 26.679146 197.414023 30.625339 217.252875 38.291886 235.761558 
C 45.958434 254.270241 57.196241 271.088808 71.362174 285.254741 
C 85.528107 299.420674 102.346673 310.658481 120.855356 318.325028 
C 139.364039 325.991576 159.202892 329.937769 179.236546 329.937769 
C 199.2702 329.937769 219.109052 325.991576 237.617735 318.325028 
C 256.126418 310.658481 272.944985 299.420674 287.110918 285.254741 
C 301.276851 271.088808 312.514658 254.270241 320.181205 235.761558 
C 327.847753 217.252875 331.793946 197.414023 331.793946 177.380369 
M 179.236546 177.380369 
C 179.236546 177.380369 179.236546 177.380369 179.236546 177.380369 
C 179.236546 177.380369 179.236546 177.380369 179.236546 177.380369 
C 179.236546 177.380369 179.236546 177.380369 179.236546 177.380369 
C 179.236546 177.380369 179.236546 177.380369 179.236546 177.380369 
C 179.236546 177.380369 179.236546 177.380369 179.236546 177.380369 
C 179.236546 177.380369 179.236546 177.380369 179.236546 177.380369 
C 179.236546 177.380369 179.236546 177.380369 179.236546 177.380369 
C 179.236546 177.380369 179.236546 177.380369 179.236546 177.380369 
C 179.236546 177.380369 179.236546 177.380369 179.236546 177.380369 
C 179.236546 177.380369 179.236546 177.380369 179.236546 177.380369 
C 179.236546 177.380369 179.236546 177.380369 179.236546 177.380369 
C 179.236546 177.380369 179.236546 177.380369 179.236546 177.380369 
C 179.236546 177.380369 179.236546 177.380369 179.236546 177.380369 
C 179.236546 177.380369 179.236546 177.380369 179.236546 177.380369 
C 179.236546 177.380369 179.236546 177.380369 179.236546 177.380369 
C 179.236546 177.380369 179.236546 177.380369 179.236546 177.380369 
M 331.793946 177.380369 
z
" style="fill:#e5e5e5;"/>
   </g>
   <g id="matplotlib.axis_1">
    <g id="xtick_1">
     <g id="line2d_1">
      <path clip-path="url(#pa77b8bd9a7)" d="M 179.236546 177.380369 
L 179.236546 24.822969 
" style="fill:none;stroke:#ffffff;stroke-linecap:round;stroke-width:1.5;"/>
     </g>
     <g id="text_1">
      <!-- A &lt; T -->
      <defs>
       <path d="M 34.1875 63.1875 
L 20.796875 26.90625 
L 47.609375 26.90625 
z
M 28.609375 72.90625 
L 39.796875 72.90625 
L 67.578125 0 
L 57.328125 0 
L 50.6875 18.703125 
L 17.828125 18.703125 
L 11.1875 0 
L 0.78125 0 
z
" id="DejaVuSans-65"/>
       <path id="DejaVuSans-32"/>
       <path d="M 73.1875 49.21875 
L 22.796875 31.296875 
L 73.1875 13.484375 
L 73.1875 4.59375 
L 10.59375 27.296875 
L 10.59375 35.40625 
L 73.1875 58.109375 
z
" id="DejaVuSans-60"/>
       <path d="M -0.296875 72.90625 
L 61.375 72.90625 
L 61.375 64.59375 
L 35.5 64.59375 
L 35.5 0 
L 25.59375 0 
L 25.59375 64.59375 
L -0.296875 64.59375 
z
" id="DejaVuSans-84"/>
      </defs>
      <g style="fill:#555555;" transform="translate(164.01014 8.358281)scale(0.11 -0.11)">
       <use xlink:href="#DejaVuSans-65"/>
       <use x="68.408203" xlink:href="#DejaVuSans-32"/>
       <use x="100.195312" xlink:href="#DejaVuSans-60"/>
       <use x="183.984375" xlink:href="#DejaVuSans-32"/>
       <use x="215.771484" xlink:href="#DejaVuSans-84"/>
      </g>
     </g>
    </g>
    <g id="xtick_2">
     <g id="line2d_2">
      <path clip-path="url(#pa77b8bd9a7)" d="M 179.236546 177.380369 
L 324.327255 130.23754 
" style="fill:none;stroke:#ffffff;stroke-linecap:round;stroke-width:1.5;"/>
     </g>
     <g id="text_2">
      <!-- H &lt; A -->
      <defs>
       <path d="M 9.8125 72.90625 
L 19.671875 72.90625 
L 19.671875 43.015625 
L 55.515625 43.015625 
L 55.515625 72.90625 
L 65.375 72.90625 
L 65.375 0 
L 55.515625 0 
L 55.515625 34.71875 
L 19.671875 34.71875 
L 19.671875 0 
L 9.8125 0 
z
" id="DejaVuSans-72"/>
      </defs>
      <g style="fill:#555555;" transform="translate(326.869576 127.247021)scale(0.11 -0.11)">
       <use xlink:href="#DejaVuSans-72"/>
       <use x="75.195312" xlink:href="#DejaVuSans-32"/>
       <use x="106.982422" xlink:href="#DejaVuSans-60"/>
       <use x="190.771484" xlink:href="#DejaVuSans-32"/>
       <use x="222.558594" xlink:href="#DejaVuSans-65"/>
      </g>
     </g>
    </g>
    <g id="xtick_3">
     <g id="line2d_3">
      <path clip-path="url(#pa77b8bd9a7)" d="M 179.236546 177.380369 
L 268.907536 300.801898 
" style="fill:none;stroke:#ffffff;stroke-linecap:round;stroke-width:1.5;"/>
     </g>
     <g id="text_3">
      <!-- H &lt; S -->
      <defs>
       <path d="M 53.515625 70.515625 
L 53.515625 60.890625 
Q 47.90625 63.578125 42.921875 64.890625 
Q 37.9375 66.21875 33.296875 66.21875 
Q 25.25 66.21875 20.875 63.09375 
Q 16.5 59.96875 16.5 54.203125 
Q 16.5 49.359375 19.40625 46.890625 
Q 22.3125 44.4375 30.421875 42.921875 
L 36.375 41.703125 
Q 47.40625 39.59375 52.65625 34.296875 
Q 57.90625 29 57.90625 20.125 
Q 57.90625 9.515625 50.796875 4.046875 
Q 43.703125 -1.421875 29.984375 -1.421875 
Q 24.8125 -1.421875 18.96875 -0.25 
Q 13.140625 0.921875 6.890625 3.21875 
L 6.890625 13.375 
Q 12.890625 10.015625 18.65625 8.296875 
Q 24.421875 6.59375 29.984375 6.59375 
Q 38.421875 6.59375 43.015625 9.90625 
Q 47.609375 13.234375 47.609375 19.390625 
Q 47.609375 24.75 44.3125 27.78125 
Q 41.015625 30.8125 33.5 32.328125 
L 27.484375 33.5 
Q 16.453125 35.6875 11.515625 40.375 
Q 6.59375 45.0625 6.59375 53.421875 
Q 6.59375 63.09375 13.40625 68.65625 
Q 20.21875 74.21875 32.171875 74.21875 
Q 37.3125 74.21875 42.625 73.28125 
Q 47.953125 72.359375 53.515625 70.515625 
z
" id="DejaVuSans-83"/>
      </defs>
      <g style="fill:#555555;" transform="translate(264.63677 319.613042)scale(0.11 -0.11)">
       <use xlink:href="#DejaVuSans-72"/>
       <use x="75.195312" xlink:href="#DejaVuSans-32"/>
       <use x="106.982422" xlink:href="#DejaVuSans-60"/>
       <use x="190.771484" xlink:href="#DejaVuSans-32"/>
       <use x="222.558594" xlink:href="#DejaVuSans-83"/>
      </g>
     </g>
    </g>
    <g id="xtick_4">
     <g id="line2d_4">
      <path clip-path="url(#pa77b8bd9a7)" d="M 179.236546 177.380369 
L 89.565556 300.801898 
" style="fill:none;stroke:#ffffff;stroke-linecap:round;stroke-width:1.5;"/>
     </g>
     <g id="text_4">
      <!-- S &lt; A -->
      <g style="fill:#555555;" transform="translate(62.744994 319.613042)scale(0.11 -0.11)">
       <use xlink:href="#DejaVuSans-83"/>
       <use x="63.476562" xlink:href="#DejaVuSans-32"/>
       <use x="95.263672" xlink:href="#DejaVuSans-60"/>
       <use x="179.052734" xlink:href="#DejaVuSans-32"/>
       <use x="210.839844" xlink:href="#DejaVuSans-65"/>
      </g>
     </g>
    </g>
    <g id="xtick_5">
     <g id="line2d_5">
      <path clip-path="url(#pa77b8bd9a7)" d="M 179.236546 177.380369 
L 34.145836 130.23754 
" style="fill:none;stroke:#ffffff;stroke-linecap:round;stroke-width:1.5;"/>
     </g>
     <g id="text_5">
      <!-- H &lt; T -->
      <g style="fill:#555555;" transform="translate(-0 127.247021)scale(0.11 -0.11)">
       <use xlink:href="#DejaVuSans-72"/>
       <use x="75.195312" xlink:href="#DejaVuSans-32"/>
       <use x="106.982422" xlink:href="#DejaVuSans-60"/>
       <use x="190.771484" xlink:href="#DejaVuSans-32"/>
       <use x="222.558594" xlink:href="#DejaVuSans-84"/>
      </g>
     </g>
    </g>
   </g>
   <g id="matplotlib.axis_2">
    <g id="ytick_1">
     <g id="line2d_6">
      <path clip-path="url(#pa77b8bd9a7)" d="M 179.236546 131.613149 
L 182.429106 131.724635 
L 185.606112 132.058552 
L 188.752086 132.613272 
L 191.851701 133.386093 
L 194.889857 134.37325 
L 197.851751 135.569933 
L 200.722954 136.970312 
L 203.489477 138.567565 
L 206.137843 140.35391 
L 208.655148 142.320644 
L 211.029128 144.458186 
L 213.248219 146.756121 
L 215.301607 149.203255 
L 217.179291 151.787664 
L 218.872121 154.496759 
L 220.371851 157.31734 
L 221.671173 160.235666 
L 222.763759 163.23752 
L 223.644284 166.308276 
L 224.308459 169.432974 
L 224.753048 172.596392 
L 224.975886 175.783116 
L 224.975886 178.977622 
L 224.753048 182.164346 
L 224.308459 185.327763 
L 223.644284 188.452461 
L 222.763759 191.523218 
L 221.671173 194.525071 
L 220.371851 197.443397 
L 218.872121 200.263979 
L 217.179291 202.973073 
L 215.301607 205.557483 
L 213.248219 208.004616 
L 211.029128 210.302552 
L 208.655148 212.440093 
L 206.137843 214.406828 
L 203.489477 216.193173 
L 200.722954 217.790425 
L 197.851751 219.190805 
L 194.889857 220.387488 
L 191.851701 221.374644 
L 188.752086 222.147465 
L 185.606112 222.702185 
L 182.429106 223.036102 
L 179.236546 223.147589 
L 176.043986 223.036102 
L 172.86698 222.702185 
L 169.721006 222.147465 
L 166.62139 221.374644 
L 163.583235 220.387488 
L 160.62134 219.190805 
L 157.750138 217.790425 
L 154.983614 216.193173 
L 152.335249 214.406828 
L 149.817944 212.440093 
L 147.443963 210.302552 
L 145.224873 208.004616 
L 143.171484 205.557483 
L 141.293801 202.973073 
L 139.600971 200.263979 
L 138.101241 197.443397 
L 136.801918 194.525071 
L 135.709333 191.523218 
L 134.828808 188.452461 
L 134.164633 185.327763 
L 133.720043 182.164346 
L 133.497206 178.977622 
L 133.497206 175.783116 
L 133.720043 172.596392 
L 134.164633 169.432974 
L 134.828808 166.308276 
L 135.709333 163.23752 
L 136.801918 160.235666 
L 138.101241 157.31734 
L 139.600971 154.496759 
L 141.293801 151.787664 
L 143.171484 149.203255 
L 145.224873 146.756121 
L 147.443963 144.458186 
L 149.817944 142.320644 
L 152.335249 140.35391 
L 154.983614 138.567565 
L 157.750138 136.970312 
L 160.62134 135.569933 
L 163.583235 134.37325 
L 166.62139 133.386093 
L 169.721006 132.613272 
L 172.86698 132.058552 
L 176.043986 131.724635 
L 179.236546 131.613149 
L 179.236546 131.613149 
" style="fill:none;stroke:#ffffff;stroke-linecap:round;stroke-width:1.5;"/>
     </g>
     <g id="text_6">
      <!-- 30 -->
      <defs>
       <path d="M 40.578125 39.3125 
Q 47.65625 37.796875 51.625 33 
Q 55.609375 28.21875 55.609375 21.1875 
Q 55.609375 10.40625 48.1875 4.484375 
Q 40.765625 -1.421875 27.09375 -1.421875 
Q 22.515625 -1.421875 17.65625 -0.515625 
Q 12.796875 0.390625 7.625 2.203125 
L 7.625 11.71875 
Q 11.71875 9.328125 16.59375 8.109375 
Q 21.484375 6.890625 26.8125 6.890625 
Q 36.078125 6.890625 40.9375 10.546875 
Q 45.796875 14.203125 45.796875 21.1875 
Q 45.796875 27.640625 41.28125 31.265625 
Q 36.765625 34.90625 28.71875 34.90625 
L 20.21875 34.90625 
L 20.21875 43.015625 
L 29.109375 43.015625 
Q 36.375 43.015625 40.234375 45.921875 
Q 44.09375 48.828125 44.09375 54.296875 
Q 44.09375 59.90625 40.109375 62.90625 
Q 36.140625 65.921875 28.71875 65.921875 
Q 24.65625 65.921875 20.015625 65.03125 
Q 15.375 64.15625 9.8125 62.3125 
L 9.8125 71.09375 
Q 15.4375 72.65625 20.34375 73.4375 
Q 25.25 74.21875 29.59375 74.21875 
Q 40.828125 74.21875 47.359375 69.109375 
Q 53.90625 64.015625 53.90625 55.328125 
Q 53.90625 49.265625 50.4375 45.09375 
Q 46.96875 40.921875 40.578125 39.3125 
z
" id="DejaVuSans-51"/>
       <path d="M 31.78125 66.40625 
Q 24.171875 66.40625 20.328125 58.90625 
Q 16.5 51.421875 16.5 36.375 
Q 16.5 21.390625 20.328125 13.890625 
Q 24.171875 6.390625 31.78125 6.390625 
Q 39.453125 6.390625 43.28125 13.890625 
Q 47.125 21.390625 47.125 36.375 
Q 47.125 51.421875 43.28125 58.90625 
Q 39.453125 66.40625 31.78125 66.40625 
z
M 31.78125 74.21875 
Q 44.046875 74.21875 50.515625 64.515625 
Q 56.984375 54.828125 56.984375 36.375 
Q 56.984375 17.96875 50.515625 8.265625 
Q 44.046875 -1.421875 31.78125 -1.421875 
Q 19.53125 -1.421875 13.0625 8.265625 
Q 6.59375 17.96875 6.59375 36.375 
Q 6.59375 54.828125 13.0625 64.515625 
Q 19.53125 74.21875 31.78125 74.21875 
z
" id="DejaVuSans-48"/>
      </defs>
      <g style="fill:#808080;" transform="translate(179.236546 129.325492)scale(0.11 -0.11)">
       <use xlink:href="#DejaVuSans-51"/>
       <use x="63.623047" xlink:href="#DejaVuSans-48"/>
      </g>
     </g>
    </g>
    <g id="ytick_2">
     <g id="line2d_7">
      <path clip-path="url(#pa77b8bd9a7)" d="M 179.236546 85.845929 
L 182.431052 85.901689 
L 185.621666 86.068902 
L 188.8045 86.347364 
L 191.975678 86.736736 
L 195.131335 87.236543 
L 198.267626 87.846176 
L 201.380731 88.564893 
L 204.466857 89.391818 
L 207.522243 90.325943 
L 210.543168 91.366131 
L 213.525951 92.511114 
L 216.466957 93.759497 
L 219.362603 95.109759 
L 222.209362 96.560255 
L 225.003766 98.109218 
L 227.742409 99.754761 
L 230.421955 101.494879 
L 233.03914 103.327451 
L 235.590774 105.250246 
L 238.07375 107.26092 
L 240.485041 109.357023 
L 242.821711 111.536003 
L 245.080912 113.795204 
L 247.259891 116.131873 
L 249.355995 118.543165 
L 251.366669 121.02614 
L 253.289463 123.577775 
L 255.122036 126.194959 
L 256.862153 128.874506 
L 258.507696 131.613149 
L 260.056659 134.407552 
L 261.507156 137.254311 
L 262.857418 140.149958 
L 264.105801 143.090964 
L 265.250784 146.073746 
L 266.290971 149.094671 
L 267.225097 152.150058 
L 268.052022 155.236184 
L 268.770739 158.349289 
L 269.380372 161.48558 
L 269.880179 164.641237 
L 270.269551 167.812414 
L 270.548013 170.995249 
L 270.715226 174.185863 
L 270.770986 177.380369 
L 270.715226 180.574875 
L 270.548013 183.765489 
L 270.269551 186.948323 
L 269.880179 190.119501 
L 269.380372 193.275157 
L 268.770739 196.411449 
L 268.052022 199.524554 
L 267.225097 202.61068 
L 266.290971 205.666066 
L 265.250784 208.686991 
L 264.105801 211.669773 
L 262.857418 214.61078 
L 261.507156 217.506426 
L 260.056659 220.353185 
L 258.507696 223.147589 
L 256.862153 225.886232 
L 255.122036 228.565778 
L 253.289463 231.182963 
L 251.366669 233.734597 
L 249.355995 236.217573 
L 247.259891 238.628864 
L 245.080912 240.965534 
L 242.821711 243.224735 
L 240.485041 245.403714 
L 238.07375 247.499818 
L 235.590774 249.510492 
L 233.03914 251.433286 
L 230.421955 253.265859 
L 227.742409 255.005976 
L 225.003766 256.651519 
L 222.209362 258.200482 
L 219.362603 259.650978 
L 216.466957 261.001241 
L 213.525951 262.249624 
L 210.543168 263.394607 
L 207.522243 264.434794 
L 204.466857 265.36892 
L 201.380731 266.195845 
L 198.267626 266.914562 
L 195.131335 267.524195 
L 191.975678 268.024002 
L 188.8045 268.413374 
L 185.621666 268.691835 
L 182.431052 268.859048 
L 179.236546 268.914809 
L 176.04204 268.859048 
L 172.851426 268.691835 
L 169.668591 268.413374 
L 166.497414 268.024002 
L 163.341757 267.524195 
L 160.205466 266.914562 
L 157.092361 266.195845 
L 154.006235 265.36892 
L 150.950848 264.434794 
L 147.929924 263.394607 
L 144.947141 262.249624 
L 142.006135 261.001241 
L 139.110488 259.650978 
L 136.263729 258.200482 
L 133.469326 256.651519 
L 130.730683 255.005976 
L 128.051137 253.265859 
L 125.433952 251.433286 
L 122.882317 249.510492 
L 120.399342 247.499818 
L 117.98805 245.403714 
L 115.651381 243.224735 
L 113.39218 240.965534 
L 111.2132 238.628864 
L 109.117097 236.217573 
L 107.106423 233.734597 
L 105.183628 231.182963 
L 103.351056 228.565778 
L 101.610938 225.886232 
L 99.965395 223.147589 
L 98.416432 220.353185 
L 96.965936 217.506426 
L 95.615674 214.61078 
L 94.367291 211.669773 
L 93.222308 208.686991 
L 92.18212 205.666066 
L 91.247995 202.61068 
L 90.42107 199.524554 
L 89.702353 196.411449 
L 89.09272 193.275157 
L 88.592913 190.119501 
L 88.203541 186.948323 
L 87.925079 183.765489 
L 87.757866 180.574875 
L 87.702106 177.380369 
L 87.757866 174.185863 
L 87.925079 170.995249 
L 88.203541 167.812414 
L 88.592913 164.641237 
L 89.09272 161.48558 
L 89.702353 158.349289 
L 90.42107 155.236184 
L 91.247995 152.150058 
L 92.18212 149.094671 
L 93.222308 146.073746 
L 94.367291 143.090964 
L 95.615674 140.149958 
L 96.965936 137.254311 
L 98.416432 134.407552 
L 99.965395 131.613149 
L 101.610938 128.874506 
L 103.351056 126.194959 
L 105.183628 123.577775 
L 107.106423 121.02614 
L 109.117097 118.543165 
L 111.2132 116.131873 
L 113.39218 113.795204 
L 115.651381 111.536003 
L 117.98805 109.357023 
L 120.399342 107.26092 
L 122.882317 105.250246 
L 125.433952 103.327451 
L 128.051137 101.494879 
L 130.730683 99.754761 
L 133.469326 98.109218 
L 136.263729 96.560255 
L 139.110488 95.109759 
L 142.006135 93.759497 
L 144.947141 92.511114 
L 147.929924 91.366131 
L 150.950848 90.325943 
L 154.006235 89.391818 
L 157.092361 88.564893 
L 160.205466 87.846176 
L 163.341757 87.236543 
L 166.497414 86.736736 
L 169.668591 86.347364 
L 172.851426 86.068902 
L 176.04204 85.901689 
L 179.236546 85.845929 
L 179.236546 85.845929 
" style="fill:none;stroke:#ffffff;stroke-linecap:round;stroke-width:1.5;"/>
     </g>
     <g id="text_7">
      <!-- 60 -->
      <defs>
       <path d="M 33.015625 40.375 
Q 26.375 40.375 22.484375 35.828125 
Q 18.609375 31.296875 18.609375 23.390625 
Q 18.609375 15.53125 22.484375 10.953125 
Q 26.375 6.390625 33.015625 6.390625 
Q 39.65625 6.390625 43.53125 10.953125 
Q 47.40625 15.53125 47.40625 23.390625 
Q 47.40625 31.296875 43.53125 35.828125 
Q 39.65625 40.375 33.015625 40.375 
z
M 52.59375 71.296875 
L 52.59375 62.3125 
Q 48.875 64.0625 45.09375 64.984375 
Q 41.3125 65.921875 37.59375 65.921875 
Q 27.828125 65.921875 22.671875 59.328125 
Q 17.53125 52.734375 16.796875 39.40625 
Q 19.671875 43.65625 24.015625 45.921875 
Q 28.375 48.1875 33.59375 48.1875 
Q 44.578125 48.1875 50.953125 41.515625 
Q 57.328125 34.859375 57.328125 23.390625 
Q 57.328125 12.15625 50.6875 5.359375 
Q 44.046875 -1.421875 33.015625 -1.421875 
Q 20.359375 -1.421875 13.671875 8.265625 
Q 6.984375 17.96875 6.984375 36.375 
Q 6.984375 53.65625 15.1875 63.9375 
Q 23.390625 74.21875 37.203125 74.21875 
Q 40.921875 74.21875 44.703125 73.484375 
Q 48.484375 72.75 52.59375 71.296875 
z
" id="DejaVuSans-54"/>
      </defs>
      <g style="fill:#808080;" transform="translate(179.236546 83.558272)scale(0.11 -0.11)">
       <use xlink:href="#DejaVuSans-54"/>
       <use x="63.623047" xlink:href="#DejaVuSans-48"/>
      </g>
     </g>
    </g>
    <g id="ytick_3">
     <g id="line2d_8">
      <path clip-path="url(#pa77b8bd9a7)" d="M 179.236546 40.078709 
L 184.028305 40.162349 
L 188.814225 40.413169 
L 193.588477 40.830862 
L 198.345244 41.414919 
L 203.078729 42.164629 
L 207.783166 43.079079 
L 212.452824 44.157155 
L 217.082012 45.397542 
L 221.665092 46.79873 
L 226.196479 48.359012 
L 230.670653 50.076486 
L 235.082162 51.949061 
L 239.425632 53.974454 
L 243.695771 56.150199 
L 247.887376 58.473643 
L 251.99534 60.941957 
L 256.01466 63.552134 
L 259.940437 66.300992 
L 263.767888 69.185184 
L 267.492352 72.201195 
L 271.109289 75.345351 
L 274.614293 78.61382 
L 278.003095 82.002621 
L 281.271564 85.507626 
L 284.415719 89.124563 
L 287.43173 92.849026 
L 290.315922 96.676478 
L 293.064781 100.602255 
L 295.674957 104.621574 
L 298.143271 108.729539 
L 300.466716 112.921144 
L 302.64246 117.191283 
L 304.667854 121.534752 
L 306.540428 125.946262 
L 308.257903 130.420435 
L 309.818184 134.951822 
L 311.219372 139.534902 
L 312.45976 144.164091 
L 313.537835 148.833748 
L 314.452285 153.538186 
L 315.201996 158.271671 
L 315.786053 163.028437 
L 316.203746 167.802689 
L 316.454565 172.58861 
L 316.538206 177.380369 
L 316.454565 182.172128 
L 316.203746 186.958048 
L 315.786053 191.7323 
L 315.201996 196.489067 
L 314.452285 201.222552 
L 313.537835 205.926989 
L 312.45976 210.596647 
L 311.219372 215.225835 
L 309.818184 219.808915 
L 308.257903 224.340302 
L 306.540428 228.814476 
L 304.667854 233.225985 
L 302.64246 237.569455 
L 300.466716 241.839594 
L 298.143271 246.031199 
L 295.674957 250.139163 
L 293.064781 254.158483 
L 290.315922 258.08426 
L 287.43173 261.911711 
L 284.415719 265.636175 
L 281.271564 269.253112 
L 278.003095 272.758116 
L 274.614293 276.146917 
L 271.109289 279.415387 
L 267.492352 282.559542 
L 263.767888 285.575553 
L 259.940437 288.459745 
L 256.01466 291.208604 
L 251.99534 293.81878 
L 247.887376 296.287094 
L 243.695771 298.610539 
L 239.425632 300.786283 
L 235.082162 302.811677 
L 230.670653 304.684251 
L 226.196479 306.401725 
L 221.665092 307.962007 
L 217.082012 309.363195 
L 212.452824 310.603583 
L 207.783166 311.681658 
L 203.078729 312.596108 
L 198.345244 313.345818 
L 193.588477 313.929876 
L 188.814225 314.347569 
L 184.028305 314.598388 
L 179.236546 314.682029 
L 174.444787 314.598388 
L 169.658866 314.347569 
L 164.884614 313.929876 
L 160.127848 313.345818 
L 155.394363 312.596108 
L 150.689926 311.681658 
L 146.020268 310.603583 
L 141.391079 309.363195 
L 136.808 307.962007 
L 132.276612 306.401725 
L 127.802439 304.684251 
L 123.39093 302.811677 
L 119.04746 300.786283 
L 114.777321 298.610539 
L 110.585716 296.287094 
L 106.477751 293.81878 
L 102.458432 291.208604 
L 98.532655 288.459745 
L 94.705203 285.575553 
L 90.98074 282.559542 
L 87.363803 279.415387 
L 83.858798 276.146917 
L 80.469997 272.758116 
L 77.201528 269.253112 
L 74.057372 265.636175 
L 71.041361 261.911711 
L 68.15717 258.08426 
L 65.408311 254.158483 
L 62.798134 250.139163 
L 60.32982 246.031199 
L 58.006376 241.839594 
L 55.830631 237.569455 
L 53.805238 233.225985 
L 51.932663 228.814476 
L 50.215189 224.340302 
L 48.654907 219.808915 
L 47.253719 215.225835 
L 46.013332 210.596647 
L 44.935257 205.926989 
L 44.020807 201.222552 
L 43.271096 196.489067 
L 42.687039 191.7323 
L 42.269346 186.958048 
L 42.018526 182.172128 
L 41.934886 177.380369 
L 42.018526 172.58861 
L 42.269346 167.802689 
L 42.687039 163.028437 
L 43.271096 158.271671 
L 44.020807 153.538186 
L 44.935257 148.833748 
L 46.013332 144.164091 
L 47.253719 139.534902 
L 48.654907 134.951822 
L 50.215189 130.420435 
L 51.932663 125.946262 
L 53.805238 121.534752 
L 55.830631 117.191283 
L 58.006376 112.921144 
L 60.32982 108.729539 
L 62.798134 104.621574 
L 65.408311 100.602255 
L 68.15717 96.676478 
L 71.041361 92.849026 
L 74.057372 89.124563 
L 77.201528 85.507626 
L 80.469997 82.002621 
L 83.858798 78.61382 
L 87.363803 75.345351 
L 90.98074 72.201195 
L 94.705203 69.185184 
L 98.532655 66.300992 
L 102.458432 63.552134 
L 106.477751 60.941957 
L 110.585716 58.473643 
L 114.777321 56.150199 
L 119.04746 53.974454 
L 123.39093 51.949061 
L 127.802439 50.076486 
L 132.276612 48.359012 
L 136.808 46.79873 
L 141.391079 45.397542 
L 146.020268 44.157155 
L 150.689926 43.079079 
L 155.394363 42.164629 
L 160.127848 41.414919 
L 164.884614 40.830862 
L 169.658866 40.413169 
L 174.444787 40.162349 
L 179.236546 40.078709 
L 179.236546 40.078709 
" style="fill:none;stroke:#ffffff;stroke-linecap:round;stroke-width:1.5;"/>
     </g>
     <g id="text_8">
      <!-- 90 -->
      <defs>
       <path d="M 10.984375 1.515625 
L 10.984375 10.5 
Q 14.703125 8.734375 18.5 7.8125 
Q 22.3125 6.890625 25.984375 6.890625 
Q 35.75 6.890625 40.890625 13.453125 
Q 46.046875 20.015625 46.78125 33.40625 
Q 43.953125 29.203125 39.59375 26.953125 
Q 35.25 24.703125 29.984375 24.703125 
Q 19.046875 24.703125 12.671875 31.3125 
Q 6.296875 37.9375 6.296875 49.421875 
Q 6.296875 60.640625 12.9375 67.421875 
Q 19.578125 74.21875 30.609375 74.21875 
Q 43.265625 74.21875 49.921875 64.515625 
Q 56.59375 54.828125 56.59375 36.375 
Q 56.59375 19.140625 48.40625 8.859375 
Q 40.234375 -1.421875 26.421875 -1.421875 
Q 22.703125 -1.421875 18.890625 -0.6875 
Q 15.09375 0.046875 10.984375 1.515625 
z
M 30.609375 32.421875 
Q 37.25 32.421875 41.125 36.953125 
Q 45.015625 41.5 45.015625 49.421875 
Q 45.015625 57.28125 41.125 61.84375 
Q 37.25 66.40625 30.609375 66.40625 
Q 23.96875 66.40625 20.09375 61.84375 
Q 16.21875 57.28125 16.21875 49.421875 
Q 16.21875 41.5 20.09375 36.953125 
Q 23.96875 32.421875 30.609375 32.421875 
z
" id="DejaVuSans-57"/>
      </defs>
      <g style="fill:#808080;" transform="translate(179.236546 37.791052)scale(0.11 -0.11)">
       <use xlink:href="#DejaVuSans-57"/>
       <use x="63.623047" xlink:href="#DejaVuSans-48"/>
      </g>
     </g>
    </g>
   </g>
   <g id="patch_3">
    <path clip-path="url(#pa77b8bd9a7)" d="M 179.236546 73.641337 
L 324.327255 130.23754 
L 179.236546 177.380369 
L 103.016204 282.288669 
L 34.145836 130.23754 
z
" style="fill:#1f77b4;opacity:0.1;stroke:#1f77b4;stroke-linejoin:miter;stroke-width:1.5;"/>
   </g>
   <g id="patch_4">
    <path clip-path="url(#pa77b8bd9a7)" d="M 179.236546 24.822969 
L 247.429179 155.223239 
L 225.865461 241.559564 
L 179.236546 177.380369 
L 34.145836 130.23754 
z
" style="fill:#2ca02c;opacity:0.1;stroke:#2ca02c;stroke-linejoin:miter;stroke-width:1.5;"/>
   </g>
   <g id="patch_5">
    <path clip-path="url(#pa77b8bd9a7)" d="M 179.236546 24.822969 
L 324.327255 130.23754 
L 183.720095 183.551445 
L 89.565556 300.801898 
L 34.145836 130.23754 
z
" style="fill:#ff7f0e;opacity:0.1;stroke:#ff7f0e;stroke-linejoin:miter;stroke-width:1.5;"/>
   </g>
   <g id="line2d_9">
    <path clip-path="url(#pa77b8bd9a7)" d="M 179.236546 73.641337 
L 324.327255 130.23754 
L 179.236546 177.380369 
L 103.016204 282.288669 
L 34.145836 130.23754 
L 179.236546 73.641337 
" style="fill:none;stroke:#1f77b4;stroke-linecap:round;"/>
   </g>
   <g id="line2d_10">
    <path clip-path="url(#pa77b8bd9a7)" d="M 179.236546 24.822969 
L 247.429179 155.223239 
L 225.865461 241.559564 
L 179.236546 177.380369 
L 34.145836 130.23754 
L 179.236546 24.822969 
" style="fill:none;stroke:#2ca02c;stroke-linecap:round;"/>
   </g>
   <g id="line2d_11">
    <path clip-path="url(#pa77b8bd9a7)" d="M 179.236546 24.822969 
L 324.327255 130.23754 
L 183.720095 183.551445 
L 89.565556 300.801898 
L 34.145836 130.23754 
L 179.236546 24.822969 
" style="fill:none;stroke:#ff7f0e;stroke-linecap:round;"/>
   </g>
   <g id="patch_6">
    <path d="M 179.236546 24.822969 
C 159.202892 24.822969 139.364039 28.769162 120.855356 36.435709 
C 102.346673 44.102257 85.528107 55.340064 71.362174 69.505997 
C 57.196241 83.671929 45.958434 100.490496 38.291886 118.999179 
C 30.625339 137.507862 26.679146 157.346715 26.679146 177.380369 
C 26.679146 197.414023 30.625339 217.252875 38.291886 235.761558 
C 45.958434 254.270241 57.196241 271.088808 71.362174 285.254741 
C 85.528107 299.420674 102.346673 310.658481 120.855356 318.325028 
C 139.364039 325.991576 159.202892 329.937769 179.236546 329.937769 
C 199.2702 329.937769 219.109052 325.991576 237.617735 318.325028 
C 256.126418 310.658481 272.944985 299.420674 287.110918 285.254741 
C 301.276851 271.088808 312.514658 254.270241 320.181205 235.761558 
C 327.847753 217.252875 331.793946 197.414023 331.793946 177.380369 
C 331.793946 157.346715 327.847753 137.507862 320.181205 118.999179 
C 312.514658 100.490496 301.276851 83.671929 287.110918 69.505997 
C 272.944985 55.340064 256.126418 44.102257 237.617735 36.435709 
C 219.109052 28.769162 199.2702 24.822969 179.236546 24.822969 
" style="fill:none;stroke:#ffffff;stroke-linecap:square;stroke-linejoin:miter;stroke-width:1.875;"/>
   </g>
   <g id="legend_1">
    <g id="patch_7">
     <path d="M 13.147288 388.813025 
L 345.325804 388.813025 
Q 348.625804 388.813025 348.625804 385.513025 
L 348.625804 362.944118 
Q 348.625804 359.644118 345.325804 359.644118 
L 13.147288 359.644118 
Q 9.847288 359.644118 9.847288 362.944118 
L 9.847288 385.513025 
Q 9.847288 388.813025 13.147288 388.813025 
z
" style="fill:#e5e5e5;opacity:0.8;stroke:#cccccc;stroke-linejoin:miter;stroke-width:1.5;"/>
    </g>
    <g id="line2d_12">
     <path d="M 16.447288 373.00654 
L 49.447288 373.00654 
" style="fill:none;stroke:#1f77b4;stroke-linecap:round;stroke-width:2;"/>
    </g>
    <g id="line2d_13"/>
    <g id="text_9">
     <!-- Kegg -->
     <defs>
      <path d="M 9.8125 72.90625 
L 19.671875 72.90625 
L 19.671875 42.09375 
L 52.390625 72.90625 
L 65.09375 72.90625 
L 28.90625 38.921875 
L 67.671875 0 
L 54.6875 0 
L 19.671875 35.109375 
L 19.671875 0 
L 9.8125 0 
z
" id="DejaVuSans-75"/>
      <path d="M 56.203125 29.59375 
L 56.203125 25.203125 
L 14.890625 25.203125 
Q 15.484375 15.921875 20.484375 11.0625 
Q 25.484375 6.203125 34.421875 6.203125 
Q 39.59375 6.203125 44.453125 7.46875 
Q 49.3125 8.734375 54.109375 11.28125 
L 54.109375 2.78125 
Q 49.265625 0.734375 44.1875 -0.34375 
Q 39.109375 -1.421875 33.890625 -1.421875 
Q 20.796875 -1.421875 13.15625 6.1875 
Q 5.515625 13.8125 5.515625 26.8125 
Q 5.515625 40.234375 12.765625 48.109375 
Q 20.015625 56 32.328125 56 
Q 43.359375 56 49.78125 48.890625 
Q 56.203125 41.796875 56.203125 29.59375 
z
M 47.21875 32.234375 
Q 47.125 39.59375 43.09375 43.984375 
Q 39.0625 48.390625 32.421875 48.390625 
Q 24.90625 48.390625 20.390625 44.140625 
Q 15.875 39.890625 15.1875 32.171875 
z
" id="DejaVuSans-101"/>
      <path d="M 45.40625 27.984375 
Q 45.40625 37.75 41.375 43.109375 
Q 37.359375 48.484375 30.078125 48.484375 
Q 22.859375 48.484375 18.828125 43.109375 
Q 14.796875 37.75 14.796875 27.984375 
Q 14.796875 18.265625 18.828125 12.890625 
Q 22.859375 7.515625 30.078125 7.515625 
Q 37.359375 7.515625 41.375 12.890625 
Q 45.40625 18.265625 45.40625 27.984375 
z
M 54.390625 6.78125 
Q 54.390625 -7.171875 48.1875 -13.984375 
Q 42 -20.796875 29.203125 -20.796875 
Q 24.46875 -20.796875 20.265625 -20.09375 
Q 16.0625 -19.390625 12.109375 -17.921875 
L 12.109375 -9.1875 
Q 16.0625 -11.328125 19.921875 -12.34375 
Q 23.78125 -13.375 27.78125 -13.375 
Q 36.625 -13.375 41.015625 -8.765625 
Q 45.40625 -4.15625 45.40625 5.171875 
L 45.40625 9.625 
Q 42.625 4.78125 38.28125 2.390625 
Q 33.9375 0 27.875 0 
Q 17.828125 0 11.671875 7.65625 
Q 5.515625 15.328125 5.515625 27.984375 
Q 5.515625 40.671875 11.671875 48.328125 
Q 17.828125 56 27.875 56 
Q 33.9375 56 38.28125 53.609375 
Q 42.625 51.21875 45.40625 46.390625 
L 45.40625 54.6875 
L 54.390625 54.6875 
z
" id="DejaVuSans-103"/>
     </defs>
     <g style="fill:#262626;" transform="translate(62.647288 378.78154)scale(0.165 -0.165)">
      <use xlink:href="#DejaVuSans-75"/>
      <use x="60.576172" xlink:href="#DejaVuSans-101"/>
      <use x="122.099609" xlink:href="#DejaVuSans-103"/>
      <use x="185.576172" xlink:href="#DejaVuSans-103"/>
     </g>
    </g>
    <g id="line2d_14">
     <path d="M 136.745179 373.00654 
L 169.745179 373.00654 
" style="fill:none;stroke:#2ca02c;stroke-linecap:round;stroke-width:2;"/>
    </g>
    <g id="line2d_15"/>
    <g id="text_10">
     <!-- Taxo -->
     <defs>
      <path d="M 34.28125 27.484375 
Q 23.390625 27.484375 19.1875 25 
Q 14.984375 22.515625 14.984375 16.5 
Q 14.984375 11.71875 18.140625 8.90625 
Q 21.296875 6.109375 26.703125 6.109375 
Q 34.1875 6.109375 38.703125 11.40625 
Q 43.21875 16.703125 43.21875 25.484375 
L 43.21875 27.484375 
z
M 52.203125 31.203125 
L 52.203125 0 
L 43.21875 0 
L 43.21875 8.296875 
Q 40.140625 3.328125 35.546875 0.953125 
Q 30.953125 -1.421875 24.3125 -1.421875 
Q 15.921875 -1.421875 10.953125 3.296875 
Q 6 8.015625 6 15.921875 
Q 6 25.140625 12.171875 29.828125 
Q 18.359375 34.515625 30.609375 34.515625 
L 43.21875 34.515625 
L 43.21875 35.40625 
Q 43.21875 41.609375 39.140625 45 
Q 35.0625 48.390625 27.6875 48.390625 
Q 23 48.390625 18.546875 47.265625 
Q 14.109375 46.140625 10.015625 43.890625 
L 10.015625 52.203125 
Q 14.9375 54.109375 19.578125 55.046875 
Q 24.21875 56 28.609375 56 
Q 40.484375 56 46.34375 49.84375 
Q 52.203125 43.703125 52.203125 31.203125 
z
" id="DejaVuSans-97"/>
      <path d="M 54.890625 54.6875 
L 35.109375 28.078125 
L 55.90625 0 
L 45.3125 0 
L 29.390625 21.484375 
L 13.484375 0 
L 2.875 0 
L 24.125 28.609375 
L 4.6875 54.6875 
L 15.28125 54.6875 
L 29.78125 35.203125 
L 44.28125 54.6875 
z
" id="DejaVuSans-120"/>
      <path d="M 30.609375 48.390625 
Q 23.390625 48.390625 19.1875 42.75 
Q 14.984375 37.109375 14.984375 27.296875 
Q 14.984375 17.484375 19.15625 11.84375 
Q 23.34375 6.203125 30.609375 6.203125 
Q 37.796875 6.203125 41.984375 11.859375 
Q 46.1875 17.53125 46.1875 27.296875 
Q 46.1875 37.015625 41.984375 42.703125 
Q 37.796875 48.390625 30.609375 48.390625 
z
M 30.609375 56 
Q 42.328125 56 49.015625 48.375 
Q 55.71875 40.765625 55.71875 27.296875 
Q 55.71875 13.875 49.015625 6.21875 
Q 42.328125 -1.421875 30.609375 -1.421875 
Q 18.84375 -1.421875 12.171875 6.21875 
Q 5.515625 13.875 5.515625 27.296875 
Q 5.515625 40.765625 12.171875 48.375 
Q 18.84375 56 30.609375 56 
z
" id="DejaVuSans-111"/>
     </defs>
     <g style="fill:#262626;" transform="translate(182.945179 378.78154)scale(0.165 -0.165)">
      <use xlink:href="#DejaVuSans-84"/>
      <use x="44.583984" xlink:href="#DejaVuSans-97"/>
      <use x="105.863281" xlink:href="#DejaVuSans-120"/>
      <use x="161.917969" xlink:href="#DejaVuSans-111"/>
     </g>
    </g>
    <g id="line2d_16">
     <path d="M 252.758226 373.00654 
L 285.758226 373.00654 
" style="fill:none;stroke:#ff7f0e;stroke-linecap:round;stroke-width:2;"/>
    </g>
    <g id="line2d_17"/>
    <g id="text_11">
     <!-- eNog -->
     <defs>
      <path d="M 9.8125 72.90625 
L 23.09375 72.90625 
L 55.421875 11.921875 
L 55.421875 72.90625 
L 64.984375 72.90625 
L 64.984375 0 
L 51.703125 0 
L 19.390625 60.984375 
L 19.390625 0 
L 9.8125 0 
z
" id="DejaVuSans-78"/>
     </defs>
     <g style="fill:#262626;" transform="translate(298.958226 378.78154)scale(0.165 -0.165)">
      <use xlink:href="#DejaVuSans-101"/>
      <use x="61.523438" xlink:href="#DejaVuSans-78"/>
      <use x="136.328125" xlink:href="#DejaVuSans-111"/>
      <use x="197.509766" xlink:href="#DejaVuSans-103"/>
     </g>
    </g>
   </g>
  </g>
 </g>
 <defs>
  <clipPath id="pa77b8bd9a7">
   <path d="M 331.793946 177.380369 
C 331.793946 157.346715 327.847753 137.507862 320.181205 118.999179 
C 312.514658 100.490496 301.276851 83.671929 287.110918 69.505997 
C 272.944985 55.340064 256.126418 44.102257 237.617735 36.435709 
C 219.109052 28.769162 199.2702 24.822969 179.236546 24.822969 
C 159.202892 24.822969 139.364039 28.769162 120.855356 36.435709 
C 102.346673 44.102257 85.528107 55.340064 71.362174 69.505997 
C 57.196241 83.671929 45.958434 100.490496 38.291886 118.999179 
C 30.625339 137.507862 26.679146 157.346715 26.679146 177.380369 
C 26.679146 197.414023 30.625339 217.252875 38.291886 235.761558 
C 45.958434 254.270241 57.196241 271.088808 71.362174 285.254741 
C 85.528107 299.420674 102.346673 310.658481 120.855356 318.325028 
C 139.364039 325.991576 159.202892 329.937769 179.236546 329.937769 
C 199.2702 329.937769 219.109052 325.991576 237.617735 318.325028 
C 256.126418 310.658481 272.944985 299.420674 287.110918 285.254741 
C 301.276851 271.088808 312.514658 254.270241 320.181205 235.761558 
C 327.847753 217.252875 331.793946 197.414023 331.793946 177.380369 
M 179.236546 177.380369 
C 179.236546 177.380369 179.236546 177.380369 179.236546 177.380369 
C 179.236546 177.380369 179.236546 177.380369 179.236546 177.380369 
C 179.236546 177.380369 179.236546 177.380369 179.236546 177.380369 
C 179.236546 177.380369 179.236546 177.380369 179.236546 177.380369 
C 179.236546 177.380369 179.236546 177.380369 179.236546 177.380369 
C 179.236546 177.380369 179.236546 177.380369 179.236546 177.380369 
C 179.236546 177.380369 179.236546 177.380369 179.236546 177.380369 
C 179.236546 177.380369 179.236546 177.380369 179.236546 177.380369 
C 179.236546 177.380369 179.236546 177.380369 179.236546 177.380369 
C 179.236546 177.380369 179.236546 177.380369 179.236546 177.380369 
C 179.236546 177.380369 179.236546 177.380369 179.236546 177.380369 
C 179.236546 177.380369 179.236546 177.380369 179.236546 177.380369 
C 179.236546 177.380369 179.236546 177.380369 179.236546 177.380369 
C 179.236546 177.380369 179.236546 177.380369 179.236546 177.380369 
C 179.236546 177.380369 179.236546 177.380369 179.236546 177.380369 
C 179.236546 177.380369 179.236546 177.380369 179.236546 177.380369 
M 331.793946 177.380369 
z
"/>
  </clipPath>
 </defs>
</svg>
