<?xml version="1.0" encoding="utf-8" standalone="no"?>
<!DOCTYPE svg PUBLIC "-//W3C//DTD SVG 1.1//EN"
  "http://www.w3.org/Graphics/SVG/1.1/DTD/svg11.dtd">
<!-- Created with matplotlib (https://matplotlib.org/) -->
<svg height="354.581002pt" version="1.1" viewBox="0 0 436.393187 354.581002" width="436.393187pt" xmlns="http://www.w3.org/2000/svg" xmlns:xlink="http://www.w3.org/1999/xlink">
 <defs>
  <style type="text/css">
*{stroke-linecap:butt;stroke-linejoin:round;}
  </style>
 </defs>
 <g id="figure_1">
  <g id="patch_1">
   <path d="M -0 354.581002 
L 436.393187 354.581002 
L 436.393187 -0 
L -0 -0 
z
" style="fill:#ffffff;stroke:#ffffff;stroke-linejoin:miter;"/>
  </g>
  <g id="axes_1">
   <g id="patch_2">
    <path d="M 72.073188 311.052 
L 187.753187 311.052 
L 187.753187 44.94 
L 72.073188 44.94 
z
" style="fill:#ebebeb;"/>
   </g>
   <g id="matplotlib.axis_1">
    <g id="xtick_1">
     <g id="line2d_1">
      <path clip-path="url(#p1291a7fb71)" d="M 105.816367 311.052 
L 105.816367 44.94 
" style="fill:none;stroke:#ffffff;"/>
     </g>
     <g id="line2d_2">
      <path d="M 105.816367 311.052 
" style="fill:none;stroke:#333333;stroke-width:1.2;"/>
      <defs>
       <path d="M 0 0 
L 0 2.75 
" id="m659760a856" style="stroke:#333333;"/>
      </defs>
      <g>
       <use style="fill:#333333;stroke:#333333;" x="105.816367" xlink:href="#m659760a856" y="311.052"/>
      </g>
     </g>
     <g id="text_1">
      <!-- 0.5 -->
      <defs>
       <path d="M 31.78125 66.40625 
Q 24.171875 66.40625 20.328125 58.90625 
Q 16.5 51.421875 16.5 36.375 
Q 16.5 21.390625 20.328125 13.890625 
Q 24.171875 6.390625 31.78125 6.390625 
Q 39.453125 6.390625 43.28125 13.890625 
Q 47.125 21.390625 47.125 36.375 
Q 47.125 51.421875 43.28125 58.90625 
Q 39.453125 66.40625 31.78125 66.40625 
z
M 31.78125 74.21875 
Q 44.046875 74.21875 50.515625 64.515625 
Q 56.984375 54.828125 56.984375 36.375 
Q 56.984375 17.96875 50.515625 8.265625 
Q 44.046875 -1.421875 31.78125 -1.421875 
Q 19.53125 -1.421875 13.0625 8.265625 
Q 6.59375 17.96875 6.59375 36.375 
Q 6.59375 54.828125 13.0625 64.515625 
Q 19.53125 74.21875 31.78125 74.21875 
z
" id="DejaVuSans-48"/>
       <path d="M 10.6875 12.40625 
L 21 12.40625 
L 21 0 
L 10.6875 0 
z
" id="DejaVuSans-46"/>
       <path d="M 10.796875 72.90625 
L 49.515625 72.90625 
L 49.515625 64.59375 
L 19.828125 64.59375 
L 19.828125 46.734375 
Q 21.96875 47.46875 24.109375 47.828125 
Q 26.265625 48.1875 28.421875 48.1875 
Q 40.625 48.1875 47.75 41.5 
Q 54.890625 34.8125 54.890625 23.390625 
Q 54.890625 11.625 47.5625 5.09375 
Q 40.234375 -1.421875 26.90625 -1.421875 
Q 22.3125 -1.421875 17.546875 -0.640625 
Q 12.796875 0.140625 7.71875 1.703125 
L 7.71875 11.625 
Q 12.109375 9.234375 16.796875 8.0625 
Q 21.484375 6.890625 26.703125 6.890625 
Q 35.15625 6.890625 40.078125 11.328125 
Q 45.015625 15.765625 45.015625 23.390625 
Q 45.015625 31 40.078125 35.4375 
Q 35.15625 39.890625 26.703125 39.890625 
Q 22.75 39.890625 18.8125 39.015625 
Q 14.890625 38.140625 10.796875 36.28125 
z
" id="DejaVuSans-53"/>
      </defs>
      <g style="fill:#4d4d4d;" transform="translate(100.3098 330.534002)rotate(-30)scale(0.1 -0.1)">
       <use xlink:href="#DejaVuSans-48"/>
       <use x="63.623047" xlink:href="#DejaVuSans-46"/>
       <use x="95.410156" xlink:href="#DejaVuSans-53"/>
      </g>
     </g>
    </g>
    <g id="xtick_2">
     <g id="line2d_3">
      <path clip-path="url(#p1291a7fb71)" d="M 138.958234 311.052 
L 138.958234 44.94 
" style="fill:none;stroke:#ffffff;"/>
     </g>
     <g id="line2d_4">
      <path d="M 138.958234 311.052 
" style="fill:none;stroke:#333333;stroke-width:1.2;"/>
      <g>
       <use style="fill:#333333;stroke:#333333;" x="138.958234" xlink:href="#m659760a856" y="311.052"/>
      </g>
     </g>
     <g id="text_2">
      <!-- 0.7 -->
      <defs>
       <path d="M 8.203125 72.90625 
L 55.078125 72.90625 
L 55.078125 68.703125 
L 28.609375 0 
L 18.3125 0 
L 43.21875 64.59375 
L 8.203125 64.59375 
z
" id="DejaVuSans-55"/>
      </defs>
      <g style="fill:#4d4d4d;" transform="translate(133.451666 330.534002)rotate(-30)scale(0.1 -0.1)">
       <use xlink:href="#DejaVuSans-48"/>
       <use x="63.623047" xlink:href="#DejaVuSans-46"/>
       <use x="95.410156" xlink:href="#DejaVuSans-55"/>
      </g>
     </g>
    </g>
    <g id="xtick_3">
     <g id="line2d_5">
      <path clip-path="url(#p1291a7fb71)" d="M 172.1001 311.052 
L 172.1001 44.94 
" style="fill:none;stroke:#ffffff;"/>
     </g>
     <g id="line2d_6">
      <path d="M 172.1001 311.052 
" style="fill:none;stroke:#333333;stroke-width:1.2;"/>
      <g>
       <use style="fill:#333333;stroke:#333333;" x="172.1001" xlink:href="#m659760a856" y="311.052"/>
      </g>
     </g>
     <g id="text_3">
      <!-- 0.9 -->
      <defs>
       <path d="M 10.984375 1.515625 
L 10.984375 10.5 
Q 14.703125 8.734375 18.5 7.8125 
Q 22.3125 6.890625 25.984375 6.890625 
Q 35.75 6.890625 40.890625 13.453125 
Q 46.046875 20.015625 46.78125 33.40625 
Q 43.953125 29.203125 39.59375 26.953125 
Q 35.25 24.703125 29.984375 24.703125 
Q 19.046875 24.703125 12.671875 31.3125 
Q 6.296875 37.9375 6.296875 49.421875 
Q 6.296875 60.640625 12.9375 67.421875 
Q 19.578125 74.21875 30.609375 74.21875 
Q 43.265625 74.21875 49.921875 64.515625 
Q 56.59375 54.828125 56.59375 36.375 
Q 56.59375 19.140625 48.40625 8.859375 
Q 40.234375 -1.421875 26.421875 -1.421875 
Q 22.703125 -1.421875 18.890625 -0.6875 
Q 15.09375 0.046875 10.984375 1.515625 
z
M 30.609375 32.421875 
Q 37.25 32.421875 41.125 36.953125 
Q 45.015625 41.5 45.015625 49.421875 
Q 45.015625 57.28125 41.125 61.84375 
Q 37.25 66.40625 30.609375 66.40625 
Q 23.96875 66.40625 20.09375 61.84375 
Q 16.21875 57.28125 16.21875 49.421875 
Q 16.21875 41.5 20.09375 36.953125 
Q 23.96875 32.421875 30.609375 32.421875 
z
" id="DejaVuSans-57"/>
      </defs>
      <g style="fill:#4d4d4d;" transform="translate(166.593533 330.534002)rotate(-30)scale(0.1 -0.1)">
       <use xlink:href="#DejaVuSans-48"/>
       <use x="63.623047" xlink:href="#DejaVuSans-46"/>
       <use x="95.410156" xlink:href="#DejaVuSans-57"/>
      </g>
     </g>
    </g>
    <g id="xtick_4">
     <g id="line2d_7">
      <path clip-path="url(#p1291a7fb71)" d="M 122.387301 311.052 
L 122.387301 44.94 
" style="fill:none;stroke:#ffffff;stroke-width:0.5;"/>
     </g>
    </g>
    <g id="xtick_5">
     <g id="line2d_8">
      <path clip-path="url(#p1291a7fb71)" d="M 155.529167 311.052 
L 155.529167 44.94 
" style="fill:none;stroke:#ffffff;stroke-width:0.5;"/>
     </g>
    </g>
   </g>
   <g id="matplotlib.axis_2">
    <g id="ytick_1">
     <g id="line2d_9">
      <path clip-path="url(#p1291a7fb71)" d="M 72.073188 288.876 
L 187.753187 288.876 
" style="fill:none;stroke:#ffffff;"/>
     </g>
     <g id="line2d_10">
      <path d="M 72.073188 288.876 
" style="fill:none;stroke:#333333;stroke-width:1.2;"/>
      <defs>
       <path d="M 0 0 
L -2.75 0 
" id="m36be24c07f" style="stroke:#333333;"/>
      </defs>
      <g>
       <use style="fill:#333333;stroke:#333333;" x="72.073188" xlink:href="#m36be24c07f" y="288.876"/>
      </g>
     </g>
     <g id="text_4">
      <!-- Feng -->
      <defs>
       <path d="M 9.8125 72.90625 
L 51.703125 72.90625 
L 51.703125 64.59375 
L 19.671875 64.59375 
L 19.671875 43.109375 
L 48.578125 43.109375 
L 48.578125 34.8125 
L 19.671875 34.8125 
L 19.671875 0 
L 9.8125 0 
z
" id="DejaVuSans-70"/>
       <path d="M 56.203125 29.59375 
L 56.203125 25.203125 
L 14.890625 25.203125 
Q 15.484375 15.921875 20.484375 11.0625 
Q 25.484375 6.203125 34.421875 6.203125 
Q 39.59375 6.203125 44.453125 7.46875 
Q 49.3125 8.734375 54.109375 11.28125 
L 54.109375 2.78125 
Q 49.265625 0.734375 44.1875 -0.34375 
Q 39.109375 -1.421875 33.890625 -1.421875 
Q 20.796875 -1.421875 13.15625 6.1875 
Q 5.515625 13.8125 5.515625 26.8125 
Q 5.515625 40.234375 12.765625 48.109375 
Q 20.015625 56 32.328125 56 
Q 43.359375 56 49.78125 48.890625 
Q 56.203125 41.796875 56.203125 29.59375 
z
M 47.21875 32.234375 
Q 47.125 39.59375 43.09375 43.984375 
Q 39.0625 48.390625 32.421875 48.390625 
Q 24.90625 48.390625 20.390625 44.140625 
Q 15.875 39.890625 15.1875 32.171875 
z
" id="DejaVuSans-101"/>
       <path d="M 54.890625 33.015625 
L 54.890625 0 
L 45.90625 0 
L 45.90625 32.71875 
Q 45.90625 40.484375 42.875 44.328125 
Q 39.84375 48.1875 33.796875 48.1875 
Q 26.515625 48.1875 22.3125 43.546875 
Q 18.109375 38.921875 18.109375 30.90625 
L 18.109375 0 
L 9.078125 0 
L 9.078125 54.6875 
L 18.109375 54.6875 
L 18.109375 46.1875 
Q 21.34375 51.125 25.703125 53.5625 
Q 30.078125 56 35.796875 56 
Q 45.21875 56 50.046875 50.171875 
Q 54.890625 44.34375 54.890625 33.015625 
z
" id="DejaVuSans-110"/>
       <path d="M 45.40625 27.984375 
Q 45.40625 37.75 41.375 43.109375 
Q 37.359375 48.484375 30.078125 48.484375 
Q 22.859375 48.484375 18.828125 43.109375 
Q 14.796875 37.75 14.796875 27.984375 
Q 14.796875 18.265625 18.828125 12.890625 
Q 22.859375 7.515625 30.078125 7.515625 
Q 37.359375 7.515625 41.375 12.890625 
Q 45.40625 18.265625 45.40625 27.984375 
z
M 54.390625 6.78125 
Q 54.390625 -7.171875 48.1875 -13.984375 
Q 42 -20.796875 29.203125 -20.796875 
Q 24.46875 -20.796875 20.265625 -20.09375 
Q 16.0625 -19.390625 12.109375 -17.921875 
L 12.109375 -9.1875 
Q 16.0625 -11.328125 19.921875 -12.34375 
Q 23.78125 -13.375 27.78125 -13.375 
Q 36.625 -13.375 41.015625 -8.765625 
Q 45.40625 -4.15625 45.40625 5.171875 
L 45.40625 9.625 
Q 42.625 4.78125 38.28125 2.390625 
Q 33.9375 0 27.875 0 
Q 17.828125 0 11.671875 7.65625 
Q 5.515625 15.328125 5.515625 27.984375 
Q 5.515625 40.671875 11.671875 48.328125 
Q 17.828125 56 27.875 56 
Q 33.9375 56 38.28125 53.609375 
Q 42.625 51.21875 45.40625 46.390625 
L 45.40625 54.6875 
L 54.390625 54.6875 
z
" id="DejaVuSans-103"/>
      </defs>
      <g style="fill:#4d4d4d;" transform="translate(45.967438 291.30425)scale(0.088 -0.088)">
       <use xlink:href="#DejaVuSans-70"/>
       <use x="52.019531" xlink:href="#DejaVuSans-101"/>
       <use x="113.542969" xlink:href="#DejaVuSans-110"/>
       <use x="176.921875" xlink:href="#DejaVuSans-103"/>
      </g>
     </g>
    </g>
    <g id="ytick_2">
     <g id="line2d_11">
      <path clip-path="url(#p1291a7fb71)" d="M 72.073188 251.916 
L 187.753187 251.916 
" style="fill:none;stroke:#ffffff;"/>
     </g>
     <g id="line2d_12">
      <path d="M 72.073188 251.916 
" style="fill:none;stroke:#333333;stroke-width:1.2;"/>
      <g>
       <use style="fill:#333333;stroke:#333333;" x="72.073188" xlink:href="#m36be24c07f" y="251.916"/>
      </g>
     </g>
     <g id="text_5">
      <!-- Hannigan -->
      <defs>
       <path d="M 9.8125 72.90625 
L 19.671875 72.90625 
L 19.671875 43.015625 
L 55.515625 43.015625 
L 55.515625 72.90625 
L 65.375 72.90625 
L 65.375 0 
L 55.515625 0 
L 55.515625 34.71875 
L 19.671875 34.71875 
L 19.671875 0 
L 9.8125 0 
z
" id="DejaVuSans-72"/>
       <path d="M 34.28125 27.484375 
Q 23.390625 27.484375 19.1875 25 
Q 14.984375 22.515625 14.984375 16.5 
Q 14.984375 11.71875 18.140625 8.90625 
Q 21.296875 6.109375 26.703125 6.109375 
Q 34.1875 6.109375 38.703125 11.40625 
Q 43.21875 16.703125 43.21875 25.484375 
L 43.21875 27.484375 
z
M 52.203125 31.203125 
L 52.203125 0 
L 43.21875 0 
L 43.21875 8.296875 
Q 40.140625 3.328125 35.546875 0.953125 
Q 30.953125 -1.421875 24.3125 -1.421875 
Q 15.921875 -1.421875 10.953125 3.296875 
Q 6 8.015625 6 15.921875 
Q 6 25.140625 12.171875 29.828125 
Q 18.359375 34.515625 30.609375 34.515625 
L 43.21875 34.515625 
L 43.21875 35.40625 
Q 43.21875 41.609375 39.140625 45 
Q 35.0625 48.390625 27.6875 48.390625 
Q 23 48.390625 18.546875 47.265625 
Q 14.109375 46.140625 10.015625 43.890625 
L 10.015625 52.203125 
Q 14.9375 54.109375 19.578125 55.046875 
Q 24.21875 56 28.609375 56 
Q 40.484375 56 46.34375 49.84375 
Q 52.203125 43.703125 52.203125 31.203125 
z
" id="DejaVuSans-97"/>
       <path d="M 9.421875 54.6875 
L 18.40625 54.6875 
L 18.40625 0 
L 9.421875 0 
z
M 9.421875 75.984375 
L 18.40625 75.984375 
L 18.40625 64.59375 
L 9.421875 64.59375 
z
" id="DejaVuSans-105"/>
      </defs>
      <g style="fill:#4d4d4d;" transform="translate(24.957437 254.34425)scale(0.088 -0.088)">
       <use xlink:href="#DejaVuSans-72"/>
       <use x="75.195312" xlink:href="#DejaVuSans-97"/>
       <use x="136.474609" xlink:href="#DejaVuSans-110"/>
       <use x="199.853516" xlink:href="#DejaVuSans-110"/>
       <use x="263.232422" xlink:href="#DejaVuSans-105"/>
       <use x="291.015625" xlink:href="#DejaVuSans-103"/>
       <use x="354.492188" xlink:href="#DejaVuSans-97"/>
       <use x="415.771484" xlink:href="#DejaVuSans-110"/>
      </g>
     </g>
    </g>
    <g id="ytick_3">
     <g id="line2d_13">
      <path clip-path="url(#p1291a7fb71)" d="M 72.073188 214.956 
L 187.753187 214.956 
" style="fill:none;stroke:#ffffff;"/>
     </g>
     <g id="line2d_14">
      <path d="M 72.073188 214.956 
" style="fill:none;stroke:#333333;stroke-width:1.2;"/>
      <g>
       <use style="fill:#333333;stroke:#333333;" x="72.073188" xlink:href="#m36be24c07f" y="214.956"/>
      </g>
     </g>
     <g id="text_6">
      <!-- Thomas0 -->
      <defs>
       <path d="M -0.296875 72.90625 
L 61.375 72.90625 
L 61.375 64.59375 
L 35.5 64.59375 
L 35.5 0 
L 25.59375 0 
L 25.59375 64.59375 
L -0.296875 64.59375 
z
" id="DejaVuSans-84"/>
       <path d="M 54.890625 33.015625 
L 54.890625 0 
L 45.90625 0 
L 45.90625 32.71875 
Q 45.90625 40.484375 42.875 44.328125 
Q 39.84375 48.1875 33.796875 48.1875 
Q 26.515625 48.1875 22.3125 43.546875 
Q 18.109375 38.921875 18.109375 30.90625 
L 18.109375 0 
L 9.078125 0 
L 9.078125 75.984375 
L 18.109375 75.984375 
L 18.109375 46.1875 
Q 21.34375 51.125 25.703125 53.5625 
Q 30.078125 56 35.796875 56 
Q 45.21875 56 50.046875 50.171875 
Q 54.890625 44.34375 54.890625 33.015625 
z
" id="DejaVuSans-104"/>
       <path d="M 30.609375 48.390625 
Q 23.390625 48.390625 19.1875 42.75 
Q 14.984375 37.109375 14.984375 27.296875 
Q 14.984375 17.484375 19.15625 11.84375 
Q 23.34375 6.203125 30.609375 6.203125 
Q 37.796875 6.203125 41.984375 11.859375 
Q 46.1875 17.53125 46.1875 27.296875 
Q 46.1875 37.015625 41.984375 42.703125 
Q 37.796875 48.390625 30.609375 48.390625 
z
M 30.609375 56 
Q 42.328125 56 49.015625 48.375 
Q 55.71875 40.765625 55.71875 27.296875 
Q 55.71875 13.875 49.015625 6.21875 
Q 42.328125 -1.421875 30.609375 -1.421875 
Q 18.84375 -1.421875 12.171875 6.21875 
Q 5.515625 13.875 5.515625 27.296875 
Q 5.515625 40.765625 12.171875 48.375 
Q 18.84375 56 30.609375 56 
z
" id="DejaVuSans-111"/>
       <path d="M 52 44.1875 
Q 55.375 50.25 60.0625 53.125 
Q 64.75 56 71.09375 56 
Q 79.640625 56 84.28125 50.015625 
Q 88.921875 44.046875 88.921875 33.015625 
L 88.921875 0 
L 79.890625 0 
L 79.890625 32.71875 
Q 79.890625 40.578125 77.09375 44.375 
Q 74.3125 48.1875 68.609375 48.1875 
Q 61.625 48.1875 57.5625 43.546875 
Q 53.515625 38.921875 53.515625 30.90625 
L 53.515625 0 
L 44.484375 0 
L 44.484375 32.71875 
Q 44.484375 40.625 41.703125 44.40625 
Q 38.921875 48.1875 33.109375 48.1875 
Q 26.21875 48.1875 22.15625 43.53125 
Q 18.109375 38.875 18.109375 30.90625 
L 18.109375 0 
L 9.078125 0 
L 9.078125 54.6875 
L 18.109375 54.6875 
L 18.109375 46.1875 
Q 21.1875 51.21875 25.484375 53.609375 
Q 29.78125 56 35.6875 56 
Q 41.65625 56 45.828125 52.96875 
Q 50 49.953125 52 44.1875 
z
" id="DejaVuSans-109"/>
       <path d="M 44.28125 53.078125 
L 44.28125 44.578125 
Q 40.484375 46.53125 36.375 47.5 
Q 32.28125 48.484375 27.875 48.484375 
Q 21.1875 48.484375 17.84375 46.4375 
Q 14.5 44.390625 14.5 40.28125 
Q 14.5 37.15625 16.890625 35.375 
Q 19.28125 33.59375 26.515625 31.984375 
L 29.59375 31.296875 
Q 39.15625 29.25 43.1875 25.515625 
Q 47.21875 21.78125 47.21875 15.09375 
Q 47.21875 7.46875 41.1875 3.015625 
Q 35.15625 -1.421875 24.609375 -1.421875 
Q 20.21875 -1.421875 15.453125 -0.5625 
Q 10.6875 0.296875 5.421875 2 
L 5.421875 11.28125 
Q 10.40625 8.6875 15.234375 7.390625 
Q 20.0625 6.109375 24.8125 6.109375 
Q 31.15625 6.109375 34.5625 8.28125 
Q 37.984375 10.453125 37.984375 14.40625 
Q 37.984375 18.0625 35.515625 20.015625 
Q 33.0625 21.96875 24.703125 23.78125 
L 21.578125 24.515625 
Q 13.234375 26.265625 9.515625 29.90625 
Q 5.8125 33.546875 5.8125 39.890625 
Q 5.8125 47.609375 11.28125 51.796875 
Q 16.75 56 26.8125 56 
Q 31.78125 56 36.171875 55.265625 
Q 40.578125 54.546875 44.28125 53.078125 
z
" id="DejaVuSans-115"/>
      </defs>
      <g style="fill:#4d4d4d;" transform="translate(26.639062 217.38425)scale(0.088 -0.088)">
       <use xlink:href="#DejaVuSans-84"/>
       <use x="61.083984" xlink:href="#DejaVuSans-104"/>
       <use x="124.462891" xlink:href="#DejaVuSans-111"/>
       <use x="185.644531" xlink:href="#DejaVuSans-109"/>
       <use x="283.056641" xlink:href="#DejaVuSans-97"/>
       <use x="344.335938" xlink:href="#DejaVuSans-115"/>
       <use x="396.435547" xlink:href="#DejaVuSans-48"/>
      </g>
     </g>
    </g>
    <g id="ytick_4">
     <g id="line2d_15">
      <path clip-path="url(#p1291a7fb71)" d="M 72.073188 177.996 
L 187.753187 177.996 
" style="fill:none;stroke:#ffffff;"/>
     </g>
     <g id="line2d_16">
      <path d="M 72.073188 177.996 
" style="fill:none;stroke:#333333;stroke-width:1.2;"/>
      <g>
       <use style="fill:#333333;stroke:#333333;" x="72.073188" xlink:href="#m36be24c07f" y="177.996"/>
      </g>
     </g>
     <g id="text_7">
      <!-- Thomas1 -->
      <defs>
       <path d="M 12.40625 8.296875 
L 28.515625 8.296875 
L 28.515625 63.921875 
L 10.984375 60.40625 
L 10.984375 69.390625 
L 28.421875 72.90625 
L 38.28125 72.90625 
L 38.28125 8.296875 
L 54.390625 8.296875 
L 54.390625 0 
L 12.40625 0 
z
" id="DejaVuSans-49"/>
      </defs>
      <g style="fill:#4d4d4d;" transform="translate(26.639062 180.42425)scale(0.088 -0.088)">
       <use xlink:href="#DejaVuSans-84"/>
       <use x="61.083984" xlink:href="#DejaVuSans-104"/>
       <use x="124.462891" xlink:href="#DejaVuSans-111"/>
       <use x="185.644531" xlink:href="#DejaVuSans-109"/>
       <use x="283.056641" xlink:href="#DejaVuSans-97"/>
       <use x="344.335938" xlink:href="#DejaVuSans-115"/>
       <use x="396.435547" xlink:href="#DejaVuSans-49"/>
      </g>
     </g>
    </g>
    <g id="ytick_5">
     <g id="line2d_17">
      <path clip-path="url(#p1291a7fb71)" d="M 72.073188 141.036 
L 187.753187 141.036 
" style="fill:none;stroke:#ffffff;"/>
     </g>
     <g id="line2d_18">
      <path d="M 72.073188 141.036 
" style="fill:none;stroke:#333333;stroke-width:1.2;"/>
      <g>
       <use style="fill:#333333;stroke:#333333;" x="72.073188" xlink:href="#m36be24c07f" y="141.036"/>
      </g>
     </g>
     <g id="text_8">
      <!-- Vogtmann -->
      <defs>
       <path d="M 28.609375 0 
L 0.78125 72.90625 
L 11.078125 72.90625 
L 34.1875 11.53125 
L 57.328125 72.90625 
L 67.578125 72.90625 
L 39.796875 0 
z
" id="DejaVuSans-86"/>
       <path d="M 18.3125 70.21875 
L 18.3125 54.6875 
L 36.8125 54.6875 
L 36.8125 47.703125 
L 18.3125 47.703125 
L 18.3125 18.015625 
Q 18.3125 11.328125 20.140625 9.421875 
Q 21.96875 7.515625 27.59375 7.515625 
L 36.8125 7.515625 
L 36.8125 0 
L 27.59375 0 
Q 17.1875 0 13.234375 3.875 
Q 9.28125 7.765625 9.28125 18.015625 
L 9.28125 47.703125 
L 2.6875 47.703125 
L 2.6875 54.6875 
L 9.28125 54.6875 
L 9.28125 70.21875 
z
" id="DejaVuSans-116"/>
      </defs>
      <g style="fill:#4d4d4d;" transform="translate(22.245937 143.46425)scale(0.088 -0.088)">
       <use xlink:href="#DejaVuSans-86"/>
       <use x="60.658203" xlink:href="#DejaVuSans-111"/>
       <use x="121.839844" xlink:href="#DejaVuSans-103"/>
       <use x="185.316406" xlink:href="#DejaVuSans-116"/>
       <use x="224.525391" xlink:href="#DejaVuSans-109"/>
       <use x="321.9375" xlink:href="#DejaVuSans-97"/>
       <use x="383.216797" xlink:href="#DejaVuSans-110"/>
       <use x="446.595703" xlink:href="#DejaVuSans-110"/>
      </g>
     </g>
    </g>
    <g id="ytick_6">
     <g id="line2d_19">
      <path clip-path="url(#p1291a7fb71)" d="M 72.073188 104.076 
L 187.753187 104.076 
" style="fill:none;stroke:#ffffff;"/>
     </g>
     <g id="line2d_20">
      <path d="M 72.073188 104.076 
" style="fill:none;stroke:#333333;stroke-width:1.2;"/>
      <g>
       <use style="fill:#333333;stroke:#333333;" x="72.073188" xlink:href="#m36be24c07f" y="104.076"/>
      </g>
     </g>
     <g id="text_9">
      <!-- Yu -->
      <defs>
       <path d="M -0.203125 72.90625 
L 10.40625 72.90625 
L 30.609375 42.921875 
L 50.6875 72.90625 
L 61.28125 72.90625 
L 35.5 34.71875 
L 35.5 0 
L 25.59375 0 
L 25.59375 34.71875 
z
" id="DejaVuSans-89"/>
       <path d="M 8.5 21.578125 
L 8.5 54.6875 
L 17.484375 54.6875 
L 17.484375 21.921875 
Q 17.484375 14.15625 20.5 10.265625 
Q 23.53125 6.390625 29.59375 6.390625 
Q 36.859375 6.390625 41.078125 11.03125 
Q 45.3125 15.671875 45.3125 23.6875 
L 45.3125 54.6875 
L 54.296875 54.6875 
L 54.296875 0 
L 45.3125 0 
L 45.3125 8.40625 
Q 42.046875 3.421875 37.71875 1 
Q 33.40625 -1.421875 27.6875 -1.421875 
Q 18.265625 -1.421875 13.375 4.4375 
Q 8.5 10.296875 8.5 21.578125 
z
M 31.109375 56 
z
" id="DejaVuSans-117"/>
      </defs>
      <g style="fill:#4d4d4d;" transform="translate(57.183312 106.50425)scale(0.088 -0.088)">
       <use xlink:href="#DejaVuSans-89"/>
       <use x="49.583984" xlink:href="#DejaVuSans-117"/>
      </g>
     </g>
    </g>
    <g id="ytick_7">
     <g id="line2d_21">
      <path clip-path="url(#p1291a7fb71)" d="M 72.073188 67.116 
L 187.753187 67.116 
" style="fill:none;stroke:#ffffff;"/>
     </g>
     <g id="line2d_22">
      <path d="M 72.073188 67.116 
" style="fill:none;stroke:#333333;stroke-width:1.2;"/>
      <g>
       <use style="fill:#333333;stroke:#333333;" x="72.073188" xlink:href="#m36be24c07f" y="67.116"/>
      </g>
     </g>
     <g id="text_10">
      <!-- Zeller -->
      <defs>
       <path d="M 5.609375 72.90625 
L 62.890625 72.90625 
L 62.890625 65.375 
L 16.796875 8.296875 
L 64.015625 8.296875 
L 64.015625 0 
L 4.5 0 
L 4.5 7.515625 
L 50.59375 64.59375 
L 5.609375 64.59375 
z
" id="DejaVuSans-90"/>
       <path d="M 9.421875 75.984375 
L 18.40625 75.984375 
L 18.40625 0 
L 9.421875 0 
z
" id="DejaVuSans-108"/>
       <path d="M 41.109375 46.296875 
Q 39.59375 47.171875 37.8125 47.578125 
Q 36.03125 48 33.890625 48 
Q 26.265625 48 22.1875 43.046875 
Q 18.109375 38.09375 18.109375 28.8125 
L 18.109375 0 
L 9.078125 0 
L 9.078125 54.6875 
L 18.109375 54.6875 
L 18.109375 46.1875 
Q 20.953125 51.171875 25.484375 53.578125 
Q 30.03125 56 36.53125 56 
Q 37.453125 56 38.578125 55.875 
Q 39.703125 55.765625 41.0625 55.515625 
z
" id="DejaVuSans-114"/>
      </defs>
      <g style="fill:#4d4d4d;" transform="translate(41.758562 69.54425)scale(0.088 -0.088)">
       <use xlink:href="#DejaVuSans-90"/>
       <use x="68.505859" xlink:href="#DejaVuSans-101"/>
       <use x="130.029297" xlink:href="#DejaVuSans-108"/>
       <use x="157.8125" xlink:href="#DejaVuSans-108"/>
       <use x="185.595703" xlink:href="#DejaVuSans-101"/>
       <use x="247.119141" xlink:href="#DejaVuSans-114"/>
      </g>
     </g>
    </g>
    <g id="text_11">
     <!-- Project -->
     <defs>
      <path d="M 19.671875 64.796875 
L 19.671875 37.40625 
L 32.078125 37.40625 
Q 38.96875 37.40625 42.71875 40.96875 
Q 46.484375 44.53125 46.484375 51.125 
Q 46.484375 57.671875 42.71875 61.234375 
Q 38.96875 64.796875 32.078125 64.796875 
z
M 9.8125 72.90625 
L 32.078125 72.90625 
Q 44.34375 72.90625 50.609375 67.359375 
Q 56.890625 61.8125 56.890625 51.125 
Q 56.890625 40.328125 50.609375 34.8125 
Q 44.34375 29.296875 32.078125 29.296875 
L 19.671875 29.296875 
L 19.671875 0 
L 9.8125 0 
z
" id="DejaVuSans-80"/>
      <path d="M 9.421875 54.6875 
L 18.40625 54.6875 
L 18.40625 -0.984375 
Q 18.40625 -11.421875 14.421875 -16.109375 
Q 10.453125 -20.796875 1.609375 -20.796875 
L -1.8125 -20.796875 
L -1.8125 -13.1875 
L 0.59375 -13.1875 
Q 5.71875 -13.1875 7.5625 -10.8125 
Q 9.421875 -8.453125 9.421875 -0.984375 
z
M 9.421875 75.984375 
L 18.40625 75.984375 
L 18.40625 64.59375 
L 9.421875 64.59375 
z
" id="DejaVuSans-106"/>
      <path d="M 48.78125 52.59375 
L 48.78125 44.1875 
Q 44.96875 46.296875 41.140625 47.34375 
Q 37.3125 48.390625 33.40625 48.390625 
Q 24.65625 48.390625 19.8125 42.84375 
Q 14.984375 37.3125 14.984375 27.296875 
Q 14.984375 17.28125 19.8125 11.734375 
Q 24.65625 6.203125 33.40625 6.203125 
Q 37.3125 6.203125 41.140625 7.25 
Q 44.96875 8.296875 48.78125 10.40625 
L 48.78125 2.09375 
Q 45.015625 0.34375 40.984375 -0.53125 
Q 36.96875 -1.421875 32.421875 -1.421875 
Q 20.0625 -1.421875 12.78125 6.34375 
Q 5.515625 14.109375 5.515625 27.296875 
Q 5.515625 40.671875 12.859375 48.328125 
Q 20.21875 56 33.015625 56 
Q 37.15625 56 41.109375 55.140625 
Q 45.0625 54.296875 48.78125 52.59375 
z
" id="DejaVuSans-99"/>
     </defs>
     <g transform="translate(15.558281 195.083156)rotate(-90)scale(0.11 -0.11)">
      <use xlink:href="#DejaVuSans-80"/>
      <use x="58.552734" xlink:href="#DejaVuSans-114"/>
      <use x="97.416016" xlink:href="#DejaVuSans-111"/>
      <use x="158.597656" xlink:href="#DejaVuSans-106"/>
      <use x="186.380859" xlink:href="#DejaVuSans-101"/>
      <use x="247.904297" xlink:href="#DejaVuSans-99"/>
      <use x="302.884766" xlink:href="#DejaVuSans-116"/>
     </g>
    </g>
   </g>
   <g id="PathCollection_1">
    <path clip-path="url(#p1291a7fb71)" d="M 147.011707 142.188095 
C 147.317247 142.188095 147.610313 142.066703 147.826362 141.850654 
C 148.04241 141.634605 148.163802 141.341539 148.163802 141.036 
C 148.163802 140.730461 148.04241 140.437395 147.826362 140.221346 
C 147.610313 140.005297 147.317247 139.883905 147.011707 139.883905 
C 146.706168 139.883905 146.413102 140.005297 146.197053 140.221346 
C 145.981004 140.437395 145.859612 140.730461 145.859612 141.036 
C 145.859612 141.341539 145.981004 141.634605 146.197053 141.850654 
C 146.413102 142.066703 146.706168 142.188095 147.011707 142.188095 
z
" style="stroke:#000000;stroke-width:0.886227;"/>
    <path clip-path="url(#p1291a7fb71)" d="M 172.261207 179.148095 
C 172.566746 179.148095 172.859812 179.026703 173.075861 178.810654 
C 173.29191 178.594605 173.413302 178.301539 173.413302 177.996 
C 173.413302 177.690461 173.29191 177.397395 173.075861 177.181346 
C 172.859812 176.965297 172.566746 176.843905 172.261207 176.843905 
C 171.955667 176.843905 171.662601 176.965297 171.446552 177.181346 
C 171.230504 177.397395 171.109112 177.690461 171.109112 177.996 
C 171.109112 178.301539 171.230504 178.594605 171.446552 178.810654 
C 171.662601 179.026703 171.955667 179.148095 172.261207 179.148095 
z
" style="stroke:#000000;stroke-width:0.886227;"/>
    <path clip-path="url(#p1291a7fb71)" d="M 168.419315 68.268095 
C 168.724854 68.268095 169.01792 68.146703 169.233969 67.930654 
C 169.450018 67.714605 169.57141 67.421539 169.57141 67.116 
C 169.57141 66.810461 169.450018 66.517395 169.233969 66.301346 
C 169.01792 66.085297 168.724854 65.963905 168.419315 65.963905 
C 168.113776 65.963905 167.820709 66.085297 167.60466 66.301346 
C 167.388612 66.517395 167.26722 66.810461 167.26722 67.116 
C 167.26722 67.421539 167.388612 67.714605 167.60466 67.930654 
C 167.820709 68.146703 168.113776 68.268095 168.419315 68.268095 
z
" style="stroke:#000000;stroke-width:0.886227;"/>
    <path clip-path="url(#p1291a7fb71)" d="M 172.514374 290.028095 
C 172.819913 290.028095 173.112979 289.906703 173.329028 289.690654 
C 173.545077 289.474605 173.666469 289.181539 173.666469 288.876 
C 173.666469 288.570461 173.545077 288.277395 173.329028 288.061346 
C 173.112979 287.845297 172.819913 287.723905 172.514374 287.723905 
C 172.208835 287.723905 171.915768 287.845297 171.699719 288.061346 
C 171.483671 288.277395 171.362279 288.570461 171.362279 288.876 
C 171.362279 289.181539 171.483671 289.474605 171.699719 289.690654 
C 171.915768 289.906703 172.208835 290.028095 172.514374 290.028095 
z
" style="stroke:#000000;stroke-width:0.886227;"/>
    <path clip-path="url(#p1291a7fb71)" d="M 157.035347 105.228095 
C 157.340886 105.228095 157.633952 105.106703 157.850001 104.890654 
C 158.06605 104.674605 158.187442 104.381539 158.187442 104.076 
C 158.187442 103.770461 158.06605 103.477395 157.850001 103.261346 
C 157.633952 103.045297 157.340886 102.923905 157.035347 102.923905 
C 156.729807 102.923905 156.436741 103.045297 156.220692 103.261346 
C 156.004644 103.477395 155.883252 103.770461 155.883252 104.076 
C 155.883252 104.381539 156.004644 104.674605 156.220692 104.890654 
C 156.436741 105.106703 156.729807 105.228095 157.035347 105.228095 
z
" style="stroke:#000000;stroke-width:0.886227;"/>
    <path clip-path="url(#p1291a7fb71)" d="M 82.847213 253.068095 
C 83.152752 253.068095 83.445818 252.946703 83.661867 252.730654 
C 83.877916 252.514605 83.999308 252.221539 83.999308 251.916 
C 83.999308 251.610461 83.877916 251.317395 83.661867 251.101346 
C 83.445818 250.885297 83.152752 250.763905 82.847213 250.763905 
C 82.541673 250.763905 82.248607 250.885297 82.032558 251.101346 
C 81.81651 251.317395 81.695118 251.610461 81.695118 251.916 
C 81.695118 252.221539 81.81651 252.514605 82.032558 252.730654 
C 82.248607 252.946703 82.541673 253.068095 82.847213 253.068095 
z
" style="stroke:#000000;stroke-width:0.886227;"/>
    <path clip-path="url(#p1291a7fb71)" d="M 148.507234 216.108095 
C 148.812773 216.108095 149.105839 215.986703 149.321888 215.770654 
C 149.537937 215.554605 149.659329 215.261539 149.659329 214.956 
C 149.659329 214.650461 149.537937 214.357395 149.321888 214.141346 
C 149.105839 213.925297 148.812773 213.803905 148.507234 213.803905 
C 148.201695 213.803905 147.908629 213.925297 147.69258 214.141346 
C 147.476531 214.357395 147.355139 214.650461 147.355139 214.956 
C 147.355139 215.261539 147.476531 215.554605 147.69258 215.770654 
C 147.908629 215.986703 148.201695 216.108095 148.507234 216.108095 
z
" style="stroke:#000000;stroke-width:0.886227;"/>
    <path clip-path="url(#p1291a7fb71)" d="M 142.072188 142.188095 
C 142.377728 142.188095 142.670794 142.066703 142.886843 141.850654 
C 143.102891 141.634605 143.224283 141.341539 143.224283 141.036 
C 143.224283 140.730461 143.102891 140.437395 142.886843 140.221346 
C 142.670794 140.005297 142.377728 139.883905 142.072188 139.883905 
C 141.766649 139.883905 141.473583 140.005297 141.257534 140.221346 
C 141.041485 140.437395 140.920093 140.730461 140.920093 141.036 
C 140.920093 141.341539 141.041485 141.634605 141.257534 141.850654 
C 141.473583 142.066703 141.766649 142.188095 142.072188 142.188095 
z
" style="fill:#e69f00;stroke:#e69f00;stroke-width:0.886227;"/>
    <path clip-path="url(#p1291a7fb71)" d="M 169.048944 179.148095 
C 169.354484 179.148095 169.64755 179.026703 169.863599 178.810654 
C 170.079647 178.594605 170.201039 178.301539 170.201039 177.996 
C 170.201039 177.690461 170.079647 177.397395 169.863599 177.181346 
C 169.64755 176.965297 169.354484 176.843905 169.048944 176.843905 
C 168.743405 176.843905 168.450339 176.965297 168.23429 177.181346 
C 168.018241 177.397395 167.896849 177.690461 167.896849 177.996 
C 167.896849 178.301539 168.018241 178.594605 168.23429 178.810654 
C 168.450339 179.026703 168.743405 179.148095 169.048944 179.148095 
z
" style="fill:#e69f00;stroke:#e69f00;stroke-width:0.886227;"/>
    <path clip-path="url(#p1291a7fb71)" d="M 165.63274 68.268095 
C 165.938279 68.268095 166.231346 68.146703 166.447394 67.930654 
C 166.663443 67.714605 166.784835 67.421539 166.784835 67.116 
C 166.784835 66.810461 166.663443 66.517395 166.447394 66.301346 
C 166.231346 66.085297 165.938279 65.963905 165.63274 65.963905 
C 165.327201 65.963905 165.034135 66.085297 164.818086 66.301346 
C 164.602037 66.517395 164.480645 66.810461 164.480645 67.116 
C 164.480645 67.421539 164.602037 67.714605 164.818086 67.930654 
C 165.034135 68.146703 165.327201 68.268095 165.63274 68.268095 
z
" style="fill:#e69f00;stroke:#e69f00;stroke-width:0.886227;"/>
    <path clip-path="url(#p1291a7fb71)" d="M 168.468304 290.028095 
C 168.773843 290.028095 169.06691 289.906703 169.282958 289.690654 
C 169.499007 289.474605 169.620399 289.181539 169.620399 288.876 
C 169.620399 288.570461 169.499007 288.277395 169.282958 288.061346 
C 169.06691 287.845297 168.773843 287.723905 168.468304 287.723905 
C 168.162765 287.723905 167.869699 287.845297 167.65365 288.061346 
C 167.437601 288.277395 167.316209 288.570461 167.316209 288.876 
C 167.316209 289.181539 167.437601 289.474605 167.65365 289.690654 
C 167.869699 289.906703 168.162765 290.028095 168.468304 290.028095 
z
" style="fill:#e69f00;stroke:#e69f00;stroke-width:0.886227;"/>
    <path clip-path="url(#p1291a7fb71)" d="M 157.528486 105.228095 
C 157.834025 105.228095 158.127092 105.106703 158.34314 104.890654 
C 158.559189 104.674605 158.680581 104.381539 158.680581 104.076 
C 158.680581 103.770461 158.559189 103.477395 158.34314 103.261346 
C 158.127092 103.045297 157.834025 102.923905 157.528486 102.923905 
C 157.222947 102.923905 156.929881 103.045297 156.713832 103.261346 
C 156.497783 103.477395 156.376391 103.770461 156.376391 104.076 
C 156.376391 104.381539 156.497783 104.674605 156.713832 104.890654 
C 156.929881 105.106703 157.222947 105.228095 157.528486 105.228095 
z
" style="fill:#e69f00;stroke:#e69f00;stroke-width:0.886227;"/>
    <path clip-path="url(#p1291a7fb71)" d="M 90.879512 253.068095 
C 91.185051 253.068095 91.478118 252.946703 91.694166 252.730654 
C 91.910215 252.514605 92.031607 252.221539 92.031607 251.916 
C 92.031607 251.610461 91.910215 251.317395 91.694166 251.101346 
C 91.478118 250.885297 91.185051 250.763905 90.879512 250.763905 
C 90.573973 250.763905 90.280907 250.885297 90.064858 251.101346 
C 89.848809 251.317395 89.727417 251.610461 89.727417 251.916 
C 89.727417 252.221539 89.848809 252.514605 90.064858 252.730654 
C 90.280907 252.946703 90.573973 253.068095 90.879512 253.068095 
z
" style="fill:#e69f00;stroke:#e69f00;stroke-width:0.886227;"/>
    <path clip-path="url(#p1291a7fb71)" d="M 139.234416 216.108095 
C 139.539955 216.108095 139.833021 215.986703 140.04907 215.770654 
C 140.265119 215.554605 140.386511 215.261539 140.386511 214.956 
C 140.386511 214.650461 140.265119 214.357395 140.04907 214.141346 
C 139.833021 213.925297 139.539955 213.803905 139.234416 213.803905 
C 138.928877 213.803905 138.635811 213.925297 138.419762 214.141346 
C 138.203713 214.357395 138.082321 214.650461 138.082321 214.956 
C 138.082321 215.261539 138.203713 215.554605 138.419762 215.770654 
C 138.635811 215.986703 138.928877 216.108095 139.234416 216.108095 
z
" style="fill:#e69f00;stroke:#e69f00;stroke-width:0.886227;"/>
   </g>
   <g id="LineCollection_1">
    <path clip-path="url(#p1291a7fb71)" d="M 168.148244 292.572 
L 168.148244 285.18 
" style="fill:none;stroke:#000000;stroke-width:0.886227;"/>
    <path clip-path="url(#p1291a7fb71)" d="M 176.880504 292.572 
L 176.880504 285.18 
" style="fill:none;stroke:#000000;stroke-width:0.886227;"/>
    <path clip-path="url(#p1291a7fb71)" d="M 168.148244 288.876 
L 176.880504 288.876 
" style="fill:none;stroke:#000000;stroke-width:0.886227;"/>
   </g>
   <g id="LineCollection_2">
    <path clip-path="url(#p1291a7fb71)" d="M 164.20164 292.572 
L 164.20164 285.18 
" style="fill:none;stroke:#e69f00;stroke-width:0.886227;"/>
    <path clip-path="url(#p1291a7fb71)" d="M 172.734968 292.572 
L 172.734968 285.18 
" style="fill:none;stroke:#e69f00;stroke-width:0.886227;"/>
    <path clip-path="url(#p1291a7fb71)" d="M 164.20164 288.876 
L 172.734968 288.876 
" style="fill:none;stroke:#e69f00;stroke-width:0.886227;"/>
   </g>
   <g id="LineCollection_3">
    <path clip-path="url(#p1291a7fb71)" d="M 77.331369 255.612 
L 77.331369 248.22 
" style="fill:none;stroke:#000000;stroke-width:0.886227;"/>
    <path clip-path="url(#p1291a7fb71)" d="M 88.363056 255.612 
L 88.363056 248.22 
" style="fill:none;stroke:#000000;stroke-width:0.886227;"/>
    <path clip-path="url(#p1291a7fb71)" d="M 77.331369 251.916 
L 88.363056 251.916 
" style="fill:none;stroke:#000000;stroke-width:0.886227;"/>
   </g>
   <g id="LineCollection_4">
    <path clip-path="url(#p1291a7fb71)" d="M 87.142001 255.612 
L 87.142001 248.22 
" style="fill:none;stroke:#e69f00;stroke-width:0.886227;"/>
    <path clip-path="url(#p1291a7fb71)" d="M 94.617023 255.612 
L 94.617023 248.22 
" style="fill:none;stroke:#e69f00;stroke-width:0.886227;"/>
    <path clip-path="url(#p1291a7fb71)" d="M 87.142001 251.916 
L 94.617023 251.916 
" style="fill:none;stroke:#e69f00;stroke-width:0.886227;"/>
   </g>
   <g id="LineCollection_5">
    <path clip-path="url(#p1291a7fb71)" d="M 144.421943 218.652 
L 144.421943 211.26 
" style="fill:none;stroke:#000000;stroke-width:0.886227;"/>
    <path clip-path="url(#p1291a7fb71)" d="M 152.592525 218.652 
L 152.592525 211.26 
" style="fill:none;stroke:#000000;stroke-width:0.886227;"/>
    <path clip-path="url(#p1291a7fb71)" d="M 144.421943 214.956 
L 152.592525 214.956 
" style="fill:none;stroke:#000000;stroke-width:0.886227;"/>
   </g>
   <g id="LineCollection_6">
    <path clip-path="url(#p1291a7fb71)" d="M 135.701226 218.652 
L 135.701226 211.26 
" style="fill:none;stroke:#e69f00;stroke-width:0.886227;"/>
    <path clip-path="url(#p1291a7fb71)" d="M 142.767606 218.652 
L 142.767606 211.26 
" style="fill:none;stroke:#e69f00;stroke-width:0.886227;"/>
    <path clip-path="url(#p1291a7fb71)" d="M 135.701226 214.956 
L 142.767606 214.956 
" style="fill:none;stroke:#e69f00;stroke-width:0.886227;"/>
   </g>
   <g id="LineCollection_7">
    <path clip-path="url(#p1291a7fb71)" d="M 168.871381 181.692 
L 168.871381 174.3 
" style="fill:none;stroke:#000000;stroke-width:0.886227;"/>
    <path clip-path="url(#p1291a7fb71)" d="M 175.651033 181.692 
L 175.651033 174.3 
" style="fill:none;stroke:#000000;stroke-width:0.886227;"/>
    <path clip-path="url(#p1291a7fb71)" d="M 168.871381 177.996 
L 175.651033 177.996 
" style="fill:none;stroke:#000000;stroke-width:0.886227;"/>
   </g>
   <g id="LineCollection_8">
    <path clip-path="url(#p1291a7fb71)" d="M 166.507195 181.692 
L 166.507195 174.3 
" style="fill:none;stroke:#e69f00;stroke-width:0.886227;"/>
    <path clip-path="url(#p1291a7fb71)" d="M 171.590694 181.692 
L 171.590694 174.3 
" style="fill:none;stroke:#e69f00;stroke-width:0.886227;"/>
    <path clip-path="url(#p1291a7fb71)" d="M 166.507195 177.996 
L 171.590694 177.996 
" style="fill:none;stroke:#e69f00;stroke-width:0.886227;"/>
   </g>
   <g id="LineCollection_9">
    <path clip-path="url(#p1291a7fb71)" d="M 143.578656 144.732 
L 143.578656 137.34 
" style="fill:none;stroke:#000000;stroke-width:0.886227;"/>
    <path clip-path="url(#p1291a7fb71)" d="M 150.444759 144.732 
L 150.444759 137.34 
" style="fill:none;stroke:#000000;stroke-width:0.886227;"/>
    <path clip-path="url(#p1291a7fb71)" d="M 143.578656 141.036 
L 150.444759 141.036 
" style="fill:none;stroke:#000000;stroke-width:0.886227;"/>
   </g>
   <g id="LineCollection_10">
    <path clip-path="url(#p1291a7fb71)" d="M 139.464592 144.732 
L 139.464592 137.34 
" style="fill:none;stroke:#e69f00;stroke-width:0.886227;"/>
    <path clip-path="url(#p1291a7fb71)" d="M 144.679785 144.732 
L 144.679785 137.34 
" style="fill:none;stroke:#e69f00;stroke-width:0.886227;"/>
    <path clip-path="url(#p1291a7fb71)" d="M 139.464592 141.036 
L 144.679785 141.036 
" style="fill:none;stroke:#e69f00;stroke-width:0.886227;"/>
   </g>
   <g id="LineCollection_11">
    <path clip-path="url(#p1291a7fb71)" d="M 154.1661 107.772 
L 154.1661 100.38 
" style="fill:none;stroke:#000000;stroke-width:0.886227;"/>
    <path clip-path="url(#p1291a7fb71)" d="M 159.904593 107.772 
L 159.904593 100.38 
" style="fill:none;stroke:#000000;stroke-width:0.886227;"/>
    <path clip-path="url(#p1291a7fb71)" d="M 154.1661 104.076 
L 159.904593 104.076 
" style="fill:none;stroke:#000000;stroke-width:0.886227;"/>
   </g>
   <g id="LineCollection_12">
    <path clip-path="url(#p1291a7fb71)" d="M 155.437392 107.772 
L 155.437392 100.38 
" style="fill:none;stroke:#e69f00;stroke-width:0.886227;"/>
    <path clip-path="url(#p1291a7fb71)" d="M 159.61958 107.772 
L 159.61958 100.38 
" style="fill:none;stroke:#e69f00;stroke-width:0.886227;"/>
    <path clip-path="url(#p1291a7fb71)" d="M 155.437392 104.076 
L 159.61958 104.076 
" style="fill:none;stroke:#e69f00;stroke-width:0.886227;"/>
   </g>
   <g id="LineCollection_13">
    <path clip-path="url(#p1291a7fb71)" d="M 166.013194 70.812 
L 166.013194 63.42 
" style="fill:none;stroke:#000000;stroke-width:0.886227;"/>
    <path clip-path="url(#p1291a7fb71)" d="M 170.825435 70.812 
L 170.825435 63.42 
" style="fill:none;stroke:#000000;stroke-width:0.886227;"/>
    <path clip-path="url(#p1291a7fb71)" d="M 166.013194 67.116 
L 170.825435 67.116 
" style="fill:none;stroke:#000000;stroke-width:0.886227;"/>
   </g>
   <g id="LineCollection_14">
    <path clip-path="url(#p1291a7fb71)" d="M 163.58865 70.812 
L 163.58865 63.42 
" style="fill:none;stroke:#e69f00;stroke-width:0.886227;"/>
    <path clip-path="url(#p1291a7fb71)" d="M 167.67683 70.812 
L 167.67683 63.42 
" style="fill:none;stroke:#e69f00;stroke-width:0.886227;"/>
    <path clip-path="url(#p1291a7fb71)" d="M 163.58865 67.116 
L 167.67683 67.116 
" style="fill:none;stroke:#e69f00;stroke-width:0.886227;"/>
   </g>
   <g id="patch_3">
    <path d="M 72.073188 44.94 
L 187.753187 44.94 
L 187.753187 30.64 
L 72.073188 30.64 
z
" style="fill:#d9d9d9;"/>
   </g>
   <g id="LineCollection_15">
    <path clip-path="url(#p1291a7fb71)" d="M 105.816367 311.052 
L 105.816367 44.94 
" style="fill:none;stroke:#ff0000;stroke-dasharray:3.27904,1.417963;stroke-dashoffset:0;stroke-width:0.886227;"/>
   </g>
   <g id="text_12">
    <!-- EggNog -->
    <defs>
     <path d="M 9.8125 72.90625 
L 55.90625 72.90625 
L 55.90625 64.59375 
L 19.671875 64.59375 
L 19.671875 43.015625 
L 54.390625 43.015625 
L 54.390625 34.71875 
L 19.671875 34.71875 
L 19.671875 8.296875 
L 56.78125 8.296875 
L 56.78125 0 
L 9.8125 0 
z
" id="DejaVuSans-69"/>
     <path d="M 9.8125 72.90625 
L 23.09375 72.90625 
L 55.421875 11.921875 
L 55.421875 72.90625 
L 64.984375 72.90625 
L 64.984375 0 
L 51.703125 0 
L 19.390625 60.984375 
L 19.390625 0 
L 9.8125 0 
z
" id="DejaVuSans-78"/>
    </defs>
    <g style="fill:#1a1a1a;" transform="translate(112.769 40.21825)scale(0.088 -0.088)">
     <use xlink:href="#DejaVuSans-69"/>
     <use x="63.183594" xlink:href="#DejaVuSans-103"/>
     <use x="126.660156" xlink:href="#DejaVuSans-103"/>
     <use x="190.136719" xlink:href="#DejaVuSans-78"/>
     <use x="264.941406" xlink:href="#DejaVuSans-111"/>
     <use x="326.123047" xlink:href="#DejaVuSans-103"/>
    </g>
   </g>
   <g id="patch_4">
    <path d="M 185.9985 23.44 
L 303.747875 23.44 
L 303.747875 7.2 
L 185.9985 7.2 
z
" style="fill:#ffffff;"/>
   </g>
   <g id="patch_5">
    <path clip-path="url(#pb7aff695dd)" d="M 186.1985 23.24 
L 202.0385 23.24 
L 202.0385 7.4 
L 186.1985 7.4 
z
" style="fill:#f2f2f2;"/>
   </g>
   <g id="line2d_23">
    <path clip-path="url(#pb7aff695dd)" d="M 194.1185 15.32 
" style="fill:none;stroke:#0173b2;stroke-linecap:round;stroke-width:1.2;"/>
    <defs>
     <path d="M 0 1.152095 
C 0.305539 1.152095 0.598605 1.030703 0.814654 0.814654 
C 1.030703 0.598605 1.152095 0.305539 1.152095 0 
C 1.152095 -0.305539 1.030703 -0.598605 0.814654 -0.814654 
C 0.598605 -1.030703 0.305539 -1.152095 0 -1.152095 
C -0.305539 -1.152095 -0.598605 -1.030703 -0.814654 -0.814654 
C -1.030703 -0.598605 -1.152095 -0.305539 -1.152095 0 
C -1.152095 0.305539 -1.030703 0.598605 -0.814654 0.814654 
C -0.598605 1.030703 -0.305539 1.152095 0 1.152095 
z
" id="m0753ca579d" style="stroke:#000000;stroke-width:0.886227;"/>
    </defs>
    <g clip-path="url(#pb7aff695dd)">
     <use style="stroke:#000000;stroke-width:0.886227;" x="194.1185" xlink:href="#m0753ca579d" y="15.32"/>
    </g>
   </g>
   <g id="line2d_24">
    <path clip-path="url(#pb7aff695dd)" d="M 186.1985 15.32 
L 202.0385 15.32 
" style="fill:none;stroke:#000000;stroke-width:0.886227;"/>
   </g>
   <g id="text_13">
    <!-- CV-test -->
    <defs>
     <path d="M 64.40625 67.28125 
L 64.40625 56.890625 
Q 59.421875 61.53125 53.78125 63.8125 
Q 48.140625 66.109375 41.796875 66.109375 
Q 29.296875 66.109375 22.65625 58.46875 
Q 16.015625 50.828125 16.015625 36.375 
Q 16.015625 21.96875 22.65625 14.328125 
Q 29.296875 6.6875 41.796875 6.6875 
Q 48.140625 6.6875 53.78125 8.984375 
Q 59.421875 11.28125 64.40625 15.921875 
L 64.40625 5.609375 
Q 59.234375 2.09375 53.4375 0.328125 
Q 47.65625 -1.421875 41.21875 -1.421875 
Q 24.65625 -1.421875 15.125 8.703125 
Q 5.609375 18.84375 5.609375 36.375 
Q 5.609375 53.953125 15.125 64.078125 
Q 24.65625 74.21875 41.21875 74.21875 
Q 47.75 74.21875 53.53125 72.484375 
Q 59.328125 70.75 64.40625 67.28125 
z
" id="DejaVuSans-67"/>
     <path d="M 4.890625 31.390625 
L 31.203125 31.390625 
L 31.203125 23.390625 
L 4.890625 23.390625 
z
" id="DejaVuSans-45"/>
    </defs>
    <g transform="translate(205.0385 17.74825)scale(0.088 -0.088)">
     <use xlink:href="#DejaVuSans-67"/>
     <use x="69.824219" xlink:href="#DejaVuSans-86"/>
     <use x="132.357422" xlink:href="#DejaVuSans-45"/>
     <use x="168.441406" xlink:href="#DejaVuSans-116"/>
     <use x="207.650391" xlink:href="#DejaVuSans-101"/>
     <use x="269.173828" xlink:href="#DejaVuSans-115"/>
     <use x="321.273438" xlink:href="#DejaVuSans-116"/>
    </g>
   </g>
   <g id="patch_6">
    <path clip-path="url(#pe83237c0f2)" d="M 241.75975 23.24 
L 257.59975 23.24 
L 257.59975 7.4 
L 241.75975 7.4 
z
" style="fill:#f2f2f2;"/>
   </g>
   <g id="line2d_25">
    <path clip-path="url(#pe83237c0f2)" d="M 249.67975 15.32 
" style="fill:none;stroke:#0173b2;stroke-linecap:round;stroke-width:1.2;"/>
    <defs>
     <path d="M 0 1.152095 
C 0.305539 1.152095 0.598605 1.030703 0.814654 0.814654 
C 1.030703 0.598605 1.152095 0.305539 1.152095 0 
C 1.152095 -0.305539 1.030703 -0.598605 0.814654 -0.814654 
C 0.598605 -1.030703 0.305539 -1.152095 0 -1.152095 
C -0.305539 -1.152095 -0.598605 -1.030703 -0.814654 -0.814654 
C -1.030703 -0.598605 -1.152095 -0.305539 -1.152095 0 
C -1.152095 0.305539 -1.030703 0.598605 -0.814654 0.814654 
C -0.598605 1.030703 -0.305539 1.152095 0 1.152095 
z
" id="m6a90d9d189" style="stroke:#e69f00;stroke-width:0.886227;"/>
    </defs>
    <g clip-path="url(#pe83237c0f2)">
     <use style="fill:#e69f00;stroke:#e69f00;stroke-width:0.886227;" x="249.67975" xlink:href="#m6a90d9d189" y="15.32"/>
    </g>
   </g>
   <g id="line2d_26">
    <path clip-path="url(#pe83237c0f2)" d="M 241.75975 15.32 
L 257.59975 15.32 
" style="fill:none;stroke:#e69f00;stroke-width:0.886227;"/>
   </g>
   <g id="text_14">
    <!-- RSSS-test -->
    <defs>
     <path d="M 44.390625 34.1875 
Q 47.5625 33.109375 50.5625 29.59375 
Q 53.5625 26.078125 56.59375 19.921875 
L 66.609375 0 
L 56 0 
L 46.6875 18.703125 
Q 43.0625 26.03125 39.671875 28.421875 
Q 36.28125 30.8125 30.421875 30.8125 
L 19.671875 30.8125 
L 19.671875 0 
L 9.8125 0 
L 9.8125 72.90625 
L 32.078125 72.90625 
Q 44.578125 72.90625 50.734375 67.671875 
Q 56.890625 62.453125 56.890625 51.90625 
Q 56.890625 45.015625 53.6875 40.46875 
Q 50.484375 35.9375 44.390625 34.1875 
z
M 19.671875 64.796875 
L 19.671875 38.921875 
L 32.078125 38.921875 
Q 39.203125 38.921875 42.84375 42.21875 
Q 46.484375 45.515625 46.484375 51.90625 
Q 46.484375 58.296875 42.84375 61.546875 
Q 39.203125 64.796875 32.078125 64.796875 
z
" id="DejaVuSans-82"/>
     <path d="M 53.515625 70.515625 
L 53.515625 60.890625 
Q 47.90625 63.578125 42.921875 64.890625 
Q 37.9375 66.21875 33.296875 66.21875 
Q 25.25 66.21875 20.875 63.09375 
Q 16.5 59.96875 16.5 54.203125 
Q 16.5 49.359375 19.40625 46.890625 
Q 22.3125 44.4375 30.421875 42.921875 
L 36.375 41.703125 
Q 47.40625 39.59375 52.65625 34.296875 
Q 57.90625 29 57.90625 20.125 
Q 57.90625 9.515625 50.796875 4.046875 
Q 43.703125 -1.421875 29.984375 -1.421875 
Q 24.8125 -1.421875 18.96875 -0.25 
Q 13.140625 0.921875 6.890625 3.21875 
L 6.890625 13.375 
Q 12.890625 10.015625 18.65625 8.296875 
Q 24.421875 6.59375 29.984375 6.59375 
Q 38.421875 6.59375 43.015625 9.90625 
Q 47.609375 13.234375 47.609375 19.390625 
Q 47.609375 24.75 44.3125 27.78125 
Q 41.015625 30.8125 33.5 32.328125 
L 27.484375 33.5 
Q 16.453125 35.6875 11.515625 40.375 
Q 6.59375 45.0625 6.59375 53.421875 
Q 6.59375 63.09375 13.40625 68.65625 
Q 20.21875 74.21875 32.171875 74.21875 
Q 37.3125 74.21875 42.625 73.28125 
Q 47.953125 72.359375 53.515625 70.515625 
z
" id="DejaVuSans-83"/>
    </defs>
    <g transform="translate(260.59975 17.74825)scale(0.088 -0.088)">
     <use xlink:href="#DejaVuSans-82"/>
     <use x="69.482422" xlink:href="#DejaVuSans-83"/>
     <use x="132.958984" xlink:href="#DejaVuSans-83"/>
     <use x="196.435547" xlink:href="#DejaVuSans-83"/>
     <use x="259.912109" xlink:href="#DejaVuSans-45"/>
     <use x="295.996094" xlink:href="#DejaVuSans-116"/>
     <use x="335.205078" xlink:href="#DejaVuSans-101"/>
     <use x="396.728516" xlink:href="#DejaVuSans-115"/>
     <use x="448.828125" xlink:href="#DejaVuSans-116"/>
    </g>
   </g>
  </g>
  <g id="axes_2">
   <g id="patch_7">
    <path d="M 192.793187 311.052 
L 308.473187 311.052 
L 308.473187 44.94 
L 192.793187 44.94 
z
" style="fill:#ebebeb;"/>
   </g>
   <g id="matplotlib.axis_3">
    <g id="xtick_6">
     <g id="line2d_27">
      <path clip-path="url(#pd57e291619)" d="M 226.536367 311.052 
L 226.536367 44.94 
" style="fill:none;stroke:#ffffff;stroke-linecap:round;"/>
     </g>
     <g id="line2d_28">
      <path d="M 226.536367 311.052 
" style="fill:none;stroke:#333333;stroke-linecap:round;stroke-width:1.2;"/>
      <g>
       <use style="fill:#333333;stroke:#333333;" x="226.536367" xlink:href="#m659760a856" y="311.052"/>
      </g>
     </g>
     <g id="text_15">
      <!-- 0.5 -->
      <g style="fill:#4d4d4d;" transform="translate(221.0298 330.534002)rotate(-30)scale(0.1 -0.1)">
       <use xlink:href="#DejaVuSans-48"/>
       <use x="63.623047" xlink:href="#DejaVuSans-46"/>
       <use x="95.410156" xlink:href="#DejaVuSans-53"/>
      </g>
     </g>
    </g>
    <g id="xtick_7">
     <g id="line2d_29">
      <path clip-path="url(#pd57e291619)" d="M 259.678234 311.052 
L 259.678234 44.94 
" style="fill:none;stroke:#ffffff;stroke-linecap:round;"/>
     </g>
     <g id="line2d_30">
      <path d="M 259.678234 311.052 
" style="fill:none;stroke:#333333;stroke-linecap:round;stroke-width:1.2;"/>
      <g>
       <use style="fill:#333333;stroke:#333333;" x="259.678234" xlink:href="#m659760a856" y="311.052"/>
      </g>
     </g>
     <g id="text_16">
      <!-- 0.7 -->
      <g style="fill:#4d4d4d;" transform="translate(254.171666 330.534002)rotate(-30)scale(0.1 -0.1)">
       <use xlink:href="#DejaVuSans-48"/>
       <use x="63.623047" xlink:href="#DejaVuSans-46"/>
       <use x="95.410156" xlink:href="#DejaVuSans-55"/>
      </g>
     </g>
    </g>
    <g id="xtick_8">
     <g id="line2d_31">
      <path clip-path="url(#pd57e291619)" d="M 292.8201 311.052 
L 292.8201 44.94 
" style="fill:none;stroke:#ffffff;stroke-linecap:round;"/>
     </g>
     <g id="line2d_32">
      <path d="M 292.8201 311.052 
" style="fill:none;stroke:#333333;stroke-linecap:round;stroke-width:1.2;"/>
      <g>
       <use style="fill:#333333;stroke:#333333;" x="292.8201" xlink:href="#m659760a856" y="311.052"/>
      </g>
     </g>
     <g id="text_17">
      <!-- 0.9 -->
      <g style="fill:#4d4d4d;" transform="translate(287.313533 330.534002)rotate(-30)scale(0.1 -0.1)">
       <use xlink:href="#DejaVuSans-48"/>
       <use x="63.623047" xlink:href="#DejaVuSans-46"/>
       <use x="95.410156" xlink:href="#DejaVuSans-57"/>
      </g>
     </g>
    </g>
    <g id="xtick_9">
     <g id="line2d_33">
      <path clip-path="url(#pd57e291619)" d="M 243.107301 311.052 
L 243.107301 44.94 
" style="fill:none;stroke:#ffffff;stroke-linecap:round;stroke-width:0.5;"/>
     </g>
    </g>
    <g id="xtick_10">
     <g id="line2d_34">
      <path clip-path="url(#pd57e291619)" d="M 276.249167 311.052 
L 276.249167 44.94 
" style="fill:none;stroke:#ffffff;stroke-linecap:round;stroke-width:0.5;"/>
     </g>
    </g>
   </g>
   <g id="matplotlib.axis_4">
    <g id="ytick_8">
     <g id="line2d_35">
      <path clip-path="url(#pd57e291619)" d="M 192.793187 288.876 
L 308.473187 288.876 
" style="fill:none;stroke:#ffffff;stroke-linecap:round;"/>
     </g>
    </g>
    <g id="ytick_9">
     <g id="line2d_36">
      <path clip-path="url(#pd57e291619)" d="M 192.793187 251.916 
L 308.473187 251.916 
" style="fill:none;stroke:#ffffff;stroke-linecap:round;"/>
     </g>
    </g>
    <g id="ytick_10">
     <g id="line2d_37">
      <path clip-path="url(#pd57e291619)" d="M 192.793187 214.956 
L 308.473187 214.956 
" style="fill:none;stroke:#ffffff;stroke-linecap:round;"/>
     </g>
    </g>
    <g id="ytick_11">
     <g id="line2d_38">
      <path clip-path="url(#pd57e291619)" d="M 192.793187 177.996 
L 308.473187 177.996 
" style="fill:none;stroke:#ffffff;stroke-linecap:round;"/>
     </g>
    </g>
    <g id="ytick_12">
     <g id="line2d_39">
      <path clip-path="url(#pd57e291619)" d="M 192.793187 141.036 
L 308.473187 141.036 
" style="fill:none;stroke:#ffffff;stroke-linecap:round;"/>
     </g>
    </g>
    <g id="ytick_13">
     <g id="line2d_40">
      <path clip-path="url(#pd57e291619)" d="M 192.793187 104.076 
L 308.473187 104.076 
" style="fill:none;stroke:#ffffff;stroke-linecap:round;"/>
     </g>
    </g>
    <g id="ytick_14">
     <g id="line2d_41">
      <path clip-path="url(#pd57e291619)" d="M 192.793187 67.116 
L 308.473187 67.116 
" style="fill:none;stroke:#ffffff;stroke-linecap:round;"/>
     </g>
    </g>
   </g>
   <g id="PathCollection_2">
    <path clip-path="url(#pd57e291619)" d="M 267.472096 142.188095 
C 267.777635 142.188095 268.070701 142.066703 268.28675 141.850654 
C 268.502799 141.634605 268.624191 141.341539 268.624191 141.036 
C 268.624191 140.730461 268.502799 140.437395 268.28675 140.221346 
C 268.070701 140.005297 267.777635 139.883905 267.472096 139.883905 
C 267.166557 139.883905 266.873491 140.005297 266.657442 140.221346 
C 266.441393 140.437395 266.320001 140.730461 266.320001 141.036 
C 266.320001 141.341539 266.441393 141.634605 266.657442 141.850654 
C 266.873491 142.066703 267.166557 142.188095 267.472096 142.188095 
z
" style="stroke:#000000;stroke-width:0.886227;"/>
    <path clip-path="url(#pd57e291619)" d="M 297.16997 179.148095 
C 297.475509 179.148095 297.768576 179.026703 297.984625 178.810654 
C 298.200673 178.594605 298.322065 178.301539 298.322065 177.996 
C 298.322065 177.690461 298.200673 177.397395 297.984625 177.181346 
C 297.768576 176.965297 297.475509 176.843905 297.16997 176.843905 
C 296.864431 176.843905 296.571365 176.965297 296.355316 177.181346 
C 296.139267 177.397395 296.017875 177.690461 296.017875 177.996 
C 296.017875 178.301539 296.139267 178.594605 296.355316 178.810654 
C 296.571365 179.026703 296.864431 179.148095 297.16997 179.148095 
z
" style="stroke:#000000;stroke-width:0.886227;"/>
    <path clip-path="url(#pd57e291619)" d="M 280.957416 68.268095 
C 281.262956 68.268095 281.556022 68.146703 281.772071 67.930654 
C 281.988119 67.714605 282.109511 67.421539 282.109511 67.116 
C 282.109511 66.810461 281.988119 66.517395 281.772071 66.301346 
C 281.556022 66.085297 281.262956 65.963905 280.957416 65.963905 
C 280.651877 65.963905 280.358811 66.085297 280.142762 66.301346 
C 279.926713 66.517395 279.805321 66.810461 279.805321 67.116 
C 279.805321 67.421539 279.926713 67.714605 280.142762 67.930654 
C 280.358811 68.146703 280.651877 68.268095 280.957416 68.268095 
z
" style="stroke:#000000;stroke-width:0.886227;"/>
    <path clip-path="url(#pd57e291619)" d="M 270.61505 290.028095 
C 270.920589 290.028095 271.213655 289.906703 271.429704 289.690654 
C 271.645753 289.474605 271.767145 289.181539 271.767145 288.876 
C 271.767145 288.570461 271.645753 288.277395 271.429704 288.061346 
C 271.213655 287.845297 270.920589 287.723905 270.61505 287.723905 
C 270.309511 287.723905 270.016444 287.845297 269.800396 288.061346 
C 269.584347 288.277395 269.462955 288.570461 269.462955 288.876 
C 269.462955 289.181539 269.584347 289.474605 269.800396 289.690654 
C 270.016444 289.906703 270.309511 290.028095 270.61505 290.028095 
z
" style="stroke:#000000;stroke-width:0.886227;"/>
    <path clip-path="url(#pd57e291619)" d="M 267.35314 105.228095 
C 267.65868 105.228095 267.951746 105.106703 268.167795 104.890654 
C 268.383843 104.674605 268.505235 104.381539 268.505235 104.076 
C 268.505235 103.770461 268.383843 103.477395 268.167795 103.261346 
C 267.951746 103.045297 267.65868 102.923905 267.35314 102.923905 
C 267.047601 102.923905 266.754535 103.045297 266.538486 103.261346 
C 266.322437 103.477395 266.201045 103.770461 266.201045 104.076 
C 266.201045 104.381539 266.322437 104.674605 266.538486 104.890654 
C 266.754535 105.106703 267.047601 105.228095 267.35314 105.228095 
z
" style="stroke:#000000;stroke-width:0.886227;"/>
    <path clip-path="url(#pd57e291619)" d="M 206.97346 253.068095 
C 207.278999 253.068095 207.572065 252.946703 207.788114 252.730654 
C 208.004163 252.514605 208.125555 252.221539 208.125555 251.916 
C 208.125555 251.610461 208.004163 251.317395 207.788114 251.101346 
C 207.572065 250.885297 207.278999 250.763905 206.97346 250.763905 
C 206.667921 250.763905 206.374855 250.885297 206.158806 251.101346 
C 205.942757 251.317395 205.821365 251.610461 205.821365 251.916 
C 205.821365 252.221539 205.942757 252.514605 206.158806 252.730654 
C 206.374855 252.946703 206.667921 253.068095 206.97346 253.068095 
z
" style="stroke:#000000;stroke-width:0.886227;"/>
    <path clip-path="url(#pd57e291619)" d="M 270.628859 216.108095 
C 270.934398 216.108095 271.227464 215.986703 271.443513 215.770654 
C 271.659562 215.554605 271.780954 215.261539 271.780954 214.956 
C 271.780954 214.650461 271.659562 214.357395 271.443513 214.141346 
C 271.227464 213.925297 270.934398 213.803905 270.628859 213.803905 
C 270.32332 213.803905 270.030254 213.925297 269.814205 214.141346 
C 269.598156 214.357395 269.476764 214.650461 269.476764 214.956 
C 269.476764 215.261539 269.598156 215.554605 269.814205 215.770654 
C 270.030254 215.986703 270.32332 216.108095 270.628859 216.108095 
z
" style="stroke:#000000;stroke-width:0.886227;"/>
    <path clip-path="url(#pd57e291619)" d="M 259.982034 142.188095 
C 260.287573 142.188095 260.58064 142.066703 260.796688 141.850654 
C 261.012737 141.634605 261.134129 141.341539 261.134129 141.036 
C 261.134129 140.730461 261.012737 140.437395 260.796688 140.221346 
C 260.58064 140.005297 260.287573 139.883905 259.982034 139.883905 
C 259.676495 139.883905 259.383429 140.005297 259.16738 140.221346 
C 258.951331 140.437395 258.829939 140.730461 258.829939 141.036 
C 258.829939 141.341539 258.951331 141.634605 259.16738 141.850654 
C 259.383429 142.066703 259.676495 142.188095 259.982034 142.188095 
z
" style="fill:#e69f00;stroke:#e69f00;stroke-width:0.886227;"/>
    <path clip-path="url(#pd57e291619)" d="M 295.910711 179.148095 
C 296.21625 179.148095 296.509316 179.026703 296.725365 178.810654 
C 296.941414 178.594605 297.062806 178.301539 297.062806 177.996 
C 297.062806 177.690461 296.941414 177.397395 296.725365 177.181346 
C 296.509316 176.965297 296.21625 176.843905 295.910711 176.843905 
C 295.605172 176.843905 295.312106 176.965297 295.096057 177.181346 
C 294.880008 177.397395 294.758616 177.690461 294.758616 177.996 
C 294.758616 178.301539 294.880008 178.594605 295.096057 178.810654 
C 295.312106 179.026703 295.605172 179.148095 295.910711 179.148095 
z
" style="fill:#e69f00;stroke:#e69f00;stroke-width:0.886227;"/>
    <path clip-path="url(#pd57e291619)" d="M 277.06765 68.268095 
C 277.37319 68.268095 277.666256 68.146703 277.882305 67.930654 
C 278.098353 67.714605 278.219745 67.421539 278.219745 67.116 
C 278.219745 66.810461 278.098353 66.517395 277.882305 66.301346 
C 277.666256 66.085297 277.37319 65.963905 277.06765 65.963905 
C 276.762111 65.963905 276.469045 66.085297 276.252996 66.301346 
C 276.036947 66.517395 275.915555 66.810461 275.915555 67.116 
C 275.915555 67.421539 276.036947 67.714605 276.252996 67.930654 
C 276.469045 68.146703 276.762111 68.268095 277.06765 68.268095 
z
" style="fill:#e69f00;stroke:#e69f00;stroke-width:0.886227;"/>
    <path clip-path="url(#pd57e291619)" d="M 270.61505 290.028095 
C 270.920589 290.028095 271.213655 289.906703 271.429704 289.690654 
C 271.645753 289.474605 271.767145 289.181539 271.767145 288.876 
C 271.767145 288.570461 271.645753 288.277395 271.429704 288.061346 
C 271.213655 287.845297 270.920589 287.723905 270.61505 287.723905 
C 270.309511 287.723905 270.016444 287.845297 269.800396 288.061346 
C 269.584347 288.277395 269.462955 288.570461 269.462955 288.876 
C 269.462955 289.181539 269.584347 289.474605 269.800396 289.690654 
C 270.016444 289.906703 270.309511 290.028095 270.61505 290.028095 
z
" style="fill:#e69f00;stroke:#e69f00;stroke-width:0.886227;"/>
    <path clip-path="url(#pd57e291619)" d="M 267.26574 105.228095 
C 267.571279 105.228095 267.864345 105.106703 268.080394 104.890654 
C 268.296443 104.674605 268.417835 104.381539 268.417835 104.076 
C 268.417835 103.770461 268.296443 103.477395 268.080394 103.261346 
C 267.864345 103.045297 267.571279 102.923905 267.26574 102.923905 
C 266.960201 102.923905 266.667135 103.045297 266.451086 103.261346 
C 266.235037 103.477395 266.113645 103.770461 266.113645 104.076 
C 266.113645 104.381539 266.235037 104.674605 266.451086 104.890654 
C 266.667135 105.106703 266.960201 105.228095 267.26574 105.228095 
z
" style="fill:#e69f00;stroke:#e69f00;stroke-width:0.886227;"/>
    <path clip-path="url(#pd57e291619)" d="M 217.606475 253.068095 
C 217.912015 253.068095 218.205081 252.946703 218.42113 252.730654 
C 218.637178 252.514605 218.75857 252.221539 218.75857 251.916 
C 218.75857 251.610461 218.637178 251.317395 218.42113 251.101346 
C 218.205081 250.885297 217.912015 250.763905 217.606475 250.763905 
C 217.300936 250.763905 217.00787 250.885297 216.791821 251.101346 
C 216.575772 251.317395 216.45438 251.610461 216.45438 251.916 
C 216.45438 252.221539 216.575772 252.514605 216.791821 252.730654 
C 217.00787 252.946703 217.300936 253.068095 217.606475 253.068095 
z
" style="fill:#e69f00;stroke:#e69f00;stroke-width:0.886227;"/>
    <path clip-path="url(#pd57e291619)" d="M 264.87309 216.108095 
C 265.178629 216.108095 265.471695 215.986703 265.687744 215.770654 
C 265.903793 215.554605 266.025185 215.261539 266.025185 214.956 
C 266.025185 214.650461 265.903793 214.357395 265.687744 214.141346 
C 265.471695 213.925297 265.178629 213.803905 264.87309 213.803905 
C 264.567551 213.803905 264.274485 213.925297 264.058436 214.141346 
C 263.842387 214.357395 263.720995 214.650461 263.720995 214.956 
C 263.720995 215.261539 263.842387 215.554605 264.058436 215.770654 
C 264.274485 215.986703 264.567551 216.108095 264.87309 216.108095 
z
" style="fill:#e69f00;stroke:#e69f00;stroke-width:0.886227;"/>
   </g>
   <g id="LineCollection_16">
    <path clip-path="url(#pd57e291619)" d="M 264.735467 292.572 
L 264.735467 285.18 
" style="fill:none;stroke:#000000;stroke-width:0.886227;"/>
    <path clip-path="url(#pd57e291619)" d="M 276.494633 292.572 
L 276.494633 285.18 
" style="fill:none;stroke:#000000;stroke-width:0.886227;"/>
    <path clip-path="url(#pd57e291619)" d="M 264.735467 288.876 
L 276.494633 288.876 
" style="fill:none;stroke:#000000;stroke-width:0.886227;"/>
   </g>
   <g id="LineCollection_17">
    <path clip-path="url(#pd57e291619)" d="M 266.965403 292.572 
L 266.965403 285.18 
" style="fill:none;stroke:#e69f00;stroke-width:0.886227;"/>
    <path clip-path="url(#pd57e291619)" d="M 274.264697 292.572 
L 274.264697 285.18 
" style="fill:none;stroke:#e69f00;stroke-width:0.886227;"/>
    <path clip-path="url(#pd57e291619)" d="M 266.965403 288.876 
L 274.264697 288.876 
" style="fill:none;stroke:#e69f00;stroke-width:0.886227;"/>
   </g>
   <g id="LineCollection_18">
    <path clip-path="url(#pd57e291619)" d="M 201.096214 255.612 
L 201.096214 248.22 
" style="fill:none;stroke:#000000;stroke-width:0.886227;"/>
    <path clip-path="url(#pd57e291619)" d="M 212.850706 255.612 
L 212.850706 248.22 
" style="fill:none;stroke:#000000;stroke-width:0.886227;"/>
    <path clip-path="url(#pd57e291619)" d="M 201.096214 251.916 
L 212.850706 251.916 
" style="fill:none;stroke:#000000;stroke-width:0.886227;"/>
   </g>
   <g id="LineCollection_19">
    <path clip-path="url(#pd57e291619)" d="M 213.913445 255.612 
L 213.913445 248.22 
" style="fill:none;stroke:#e69f00;stroke-width:0.886227;"/>
    <path clip-path="url(#pd57e291619)" d="M 221.299506 255.612 
L 221.299506 248.22 
" style="fill:none;stroke:#e69f00;stroke-width:0.886227;"/>
    <path clip-path="url(#pd57e291619)" d="M 213.913445 251.916 
L 221.299506 251.916 
" style="fill:none;stroke:#e69f00;stroke-width:0.886227;"/>
   </g>
   <g id="LineCollection_20">
    <path clip-path="url(#pd57e291619)" d="M 266.534848 218.652 
L 266.534848 211.26 
" style="fill:none;stroke:#000000;stroke-width:0.886227;"/>
    <path clip-path="url(#pd57e291619)" d="M 274.72287 218.652 
L 274.72287 211.26 
" style="fill:none;stroke:#000000;stroke-width:0.886227;"/>
    <path clip-path="url(#pd57e291619)" d="M 266.534848 214.956 
L 274.72287 214.956 
" style="fill:none;stroke:#000000;stroke-width:0.886227;"/>
   </g>
   <g id="LineCollection_21">
    <path clip-path="url(#pd57e291619)" d="M 262.072004 218.652 
L 262.072004 211.26 
" style="fill:none;stroke:#e69f00;stroke-width:0.886227;"/>
    <path clip-path="url(#pd57e291619)" d="M 267.674176 218.652 
L 267.674176 211.26 
" style="fill:none;stroke:#e69f00;stroke-width:0.886227;"/>
    <path clip-path="url(#pd57e291619)" d="M 262.072004 214.956 
L 267.674176 214.956 
" style="fill:none;stroke:#e69f00;stroke-width:0.886227;"/>
   </g>
   <g id="LineCollection_22">
    <path clip-path="url(#pd57e291619)" d="M 294.683165 181.692 
L 294.683165 174.3 
" style="fill:none;stroke:#000000;stroke-width:0.886227;"/>
    <path clip-path="url(#pd57e291619)" d="M 299.656776 181.692 
L 299.656776 174.3 
" style="fill:none;stroke:#000000;stroke-width:0.886227;"/>
    <path clip-path="url(#pd57e291619)" d="M 294.683165 177.996 
L 299.656776 177.996 
" style="fill:none;stroke:#000000;stroke-width:0.886227;"/>
   </g>
   <g id="LineCollection_23">
    <path clip-path="url(#pd57e291619)" d="M 294.060044 181.692 
L 294.060044 174.3 
" style="fill:none;stroke:#e69f00;stroke-width:0.886227;"/>
    <path clip-path="url(#pd57e291619)" d="M 297.761378 181.692 
L 297.761378 174.3 
" style="fill:none;stroke:#e69f00;stroke-width:0.886227;"/>
    <path clip-path="url(#pd57e291619)" d="M 294.060044 177.996 
L 297.761378 177.996 
" style="fill:none;stroke:#e69f00;stroke-width:0.886227;"/>
   </g>
   <g id="LineCollection_24">
    <path clip-path="url(#pd57e291619)" d="M 263.941737 144.732 
L 263.941737 137.34 
" style="fill:none;stroke:#000000;stroke-width:0.886227;"/>
    <path clip-path="url(#pd57e291619)" d="M 271.002455 144.732 
L 271.002455 137.34 
" style="fill:none;stroke:#000000;stroke-width:0.886227;"/>
    <path clip-path="url(#pd57e291619)" d="M 263.941737 141.036 
L 271.002455 141.036 
" style="fill:none;stroke:#000000;stroke-width:0.886227;"/>
   </g>
   <g id="LineCollection_25">
    <path clip-path="url(#pd57e291619)" d="M 257.186016 144.732 
L 257.186016 137.34 
" style="fill:none;stroke:#e69f00;stroke-width:0.886227;"/>
    <path clip-path="url(#pd57e291619)" d="M 262.778052 144.732 
L 262.778052 137.34 
" style="fill:none;stroke:#e69f00;stroke-width:0.886227;"/>
    <path clip-path="url(#pd57e291619)" d="M 257.186016 141.036 
L 262.778052 141.036 
" style="fill:none;stroke:#e69f00;stroke-width:0.886227;"/>
   </g>
   <g id="LineCollection_26">
    <path clip-path="url(#pd57e291619)" d="M 264.336147 107.772 
L 264.336147 100.38 
" style="fill:none;stroke:#000000;stroke-width:0.886227;"/>
    <path clip-path="url(#pd57e291619)" d="M 270.370134 107.772 
L 270.370134 100.38 
" style="fill:none;stroke:#000000;stroke-width:0.886227;"/>
    <path clip-path="url(#pd57e291619)" d="M 264.336147 104.076 
L 270.370134 104.076 
" style="fill:none;stroke:#000000;stroke-width:0.886227;"/>
   </g>
   <g id="LineCollection_27">
    <path clip-path="url(#pd57e291619)" d="M 265.202483 107.772 
L 265.202483 100.38 
" style="fill:none;stroke:#e69f00;stroke-width:0.886227;"/>
    <path clip-path="url(#pd57e291619)" d="M 269.328997 107.772 
L 269.328997 100.38 
" style="fill:none;stroke:#e69f00;stroke-width:0.886227;"/>
    <path clip-path="url(#pd57e291619)" d="M 265.202483 104.076 
L 269.328997 104.076 
" style="fill:none;stroke:#e69f00;stroke-width:0.886227;"/>
   </g>
   <g id="LineCollection_28">
    <path clip-path="url(#pd57e291619)" d="M 278.360463 70.812 
L 278.360463 63.42 
" style="fill:none;stroke:#000000;stroke-width:0.886227;"/>
    <path clip-path="url(#pd57e291619)" d="M 283.55437 70.812 
L 283.55437 63.42 
" style="fill:none;stroke:#000000;stroke-width:0.886227;"/>
    <path clip-path="url(#pd57e291619)" d="M 278.360463 67.116 
L 283.55437 67.116 
" style="fill:none;stroke:#000000;stroke-width:0.886227;"/>
   </g>
   <g id="LineCollection_29">
    <path clip-path="url(#pd57e291619)" d="M 274.83178 70.812 
L 274.83178 63.42 
" style="fill:none;stroke:#e69f00;stroke-width:0.886227;"/>
    <path clip-path="url(#pd57e291619)" d="M 279.303521 70.812 
L 279.303521 63.42 
" style="fill:none;stroke:#e69f00;stroke-width:0.886227;"/>
    <path clip-path="url(#pd57e291619)" d="M 274.83178 67.116 
L 279.303521 67.116 
" style="fill:none;stroke:#e69f00;stroke-width:0.886227;"/>
   </g>
   <g id="patch_8">
    <path d="M 192.793187 44.94 
L 308.473187 44.94 
L 308.473187 30.64 
L 192.793187 30.64 
z
" style="fill:#d9d9d9;"/>
   </g>
   <g id="LineCollection_30">
    <path clip-path="url(#pd57e291619)" d="M 226.536367 311.052 
L 226.536367 44.94 
" style="fill:none;stroke:#ff0000;stroke-dasharray:3.27904,1.417963;stroke-dashoffset:0;stroke-width:0.886227;"/>
   </g>
   <g id="text_18">
    <!-- Kegg -->
    <defs>
     <path d="M 9.8125 72.90625 
L 19.671875 72.90625 
L 19.671875 42.09375 
L 52.390625 72.90625 
L 65.09375 72.90625 
L 28.90625 38.921875 
L 67.671875 0 
L 54.6875 0 
L 19.671875 35.109375 
L 19.671875 0 
L 9.8125 0 
z
" id="DejaVuSans-75"/>
    </defs>
    <g style="fill:#1a1a1a;" transform="translate(239.67375 40.21825)scale(0.088 -0.088)">
     <use xlink:href="#DejaVuSans-75"/>
     <use x="60.576172" xlink:href="#DejaVuSans-101"/>
     <use x="122.099609" xlink:href="#DejaVuSans-103"/>
     <use x="185.576172" xlink:href="#DejaVuSans-103"/>
    </g>
   </g>
  </g>
  <g id="axes_3">
   <g id="patch_9">
    <path d="M 313.513188 311.052 
L 429.193187 311.052 
L 429.193187 44.94 
L 313.513188 44.94 
z
" style="fill:#ebebeb;"/>
   </g>
   <g id="matplotlib.axis_5">
    <g id="xtick_11">
     <g id="line2d_42">
      <path clip-path="url(#pad4cd5812f)" d="M 347.256367 311.052 
L 347.256367 44.94 
" style="fill:none;stroke:#ffffff;stroke-linecap:round;"/>
     </g>
     <g id="line2d_43">
      <path d="M 347.256367 311.052 
" style="fill:none;stroke:#333333;stroke-linecap:round;stroke-width:1.2;"/>
      <g>
       <use style="fill:#333333;stroke:#333333;" x="347.256367" xlink:href="#m659760a856" y="311.052"/>
      </g>
     </g>
     <g id="text_19">
      <!-- 0.5 -->
      <g style="fill:#4d4d4d;" transform="translate(341.7498 330.534002)rotate(-30)scale(0.1 -0.1)">
       <use xlink:href="#DejaVuSans-48"/>
       <use x="63.623047" xlink:href="#DejaVuSans-46"/>
       <use x="95.410156" xlink:href="#DejaVuSans-53"/>
      </g>
     </g>
    </g>
    <g id="xtick_12">
     <g id="line2d_44">
      <path clip-path="url(#pad4cd5812f)" d="M 380.398234 311.052 
L 380.398234 44.94 
" style="fill:none;stroke:#ffffff;stroke-linecap:round;"/>
     </g>
     <g id="line2d_45">
      <path d="M 380.398234 311.052 
" style="fill:none;stroke:#333333;stroke-linecap:round;stroke-width:1.2;"/>
      <g>
       <use style="fill:#333333;stroke:#333333;" x="380.398234" xlink:href="#m659760a856" y="311.052"/>
      </g>
     </g>
     <g id="text_20">
      <!-- 0.7 -->
      <g style="fill:#4d4d4d;" transform="translate(374.891666 330.534002)rotate(-30)scale(0.1 -0.1)">
       <use xlink:href="#DejaVuSans-48"/>
       <use x="63.623047" xlink:href="#DejaVuSans-46"/>
       <use x="95.410156" xlink:href="#DejaVuSans-55"/>
      </g>
     </g>
    </g>
    <g id="xtick_13">
     <g id="line2d_46">
      <path clip-path="url(#pad4cd5812f)" d="M 413.5401 311.052 
L 413.5401 44.94 
" style="fill:none;stroke:#ffffff;stroke-linecap:round;"/>
     </g>
     <g id="line2d_47">
      <path d="M 413.5401 311.052 
" style="fill:none;stroke:#333333;stroke-linecap:round;stroke-width:1.2;"/>
      <g>
       <use style="fill:#333333;stroke:#333333;" x="413.5401" xlink:href="#m659760a856" y="311.052"/>
      </g>
     </g>
     <g id="text_21">
      <!-- 0.9 -->
      <g style="fill:#4d4d4d;" transform="translate(408.033533 330.534002)rotate(-30)scale(0.1 -0.1)">
       <use xlink:href="#DejaVuSans-48"/>
       <use x="63.623047" xlink:href="#DejaVuSans-46"/>
       <use x="95.410156" xlink:href="#DejaVuSans-57"/>
      </g>
     </g>
    </g>
    <g id="xtick_14">
     <g id="line2d_48">
      <path clip-path="url(#pad4cd5812f)" d="M 363.827301 311.052 
L 363.827301 44.94 
" style="fill:none;stroke:#ffffff;stroke-linecap:round;stroke-width:0.5;"/>
     </g>
    </g>
    <g id="xtick_15">
     <g id="line2d_49">
      <path clip-path="url(#pad4cd5812f)" d="M 396.969167 311.052 
L 396.969167 44.94 
" style="fill:none;stroke:#ffffff;stroke-linecap:round;stroke-width:0.5;"/>
     </g>
    </g>
    <g id="text_22">
     <!-- AUROC Estimate -->
     <defs>
      <path d="M 34.1875 63.1875 
L 20.796875 26.90625 
L 47.609375 26.90625 
z
M 28.609375 72.90625 
L 39.796875 72.90625 
L 67.578125 0 
L 57.328125 0 
L 50.6875 18.703125 
L 17.828125 18.703125 
L 11.1875 0 
L 0.78125 0 
z
" id="DejaVuSans-65"/>
      <path d="M 8.6875 72.90625 
L 18.609375 72.90625 
L 18.609375 28.609375 
Q 18.609375 16.890625 22.84375 11.734375 
Q 27.09375 6.59375 36.625 6.59375 
Q 46.09375 6.59375 50.34375 11.734375 
Q 54.59375 16.890625 54.59375 28.609375 
L 54.59375 72.90625 
L 64.5 72.90625 
L 64.5 27.390625 
Q 64.5 13.140625 57.4375 5.859375 
Q 50.390625 -1.421875 36.625 -1.421875 
Q 22.796875 -1.421875 15.734375 5.859375 
Q 8.6875 13.140625 8.6875 27.390625 
z
" id="DejaVuSans-85"/>
      <path d="M 39.40625 66.21875 
Q 28.65625 66.21875 22.328125 58.203125 
Q 16.015625 50.203125 16.015625 36.375 
Q 16.015625 22.609375 22.328125 14.59375 
Q 28.65625 6.59375 39.40625 6.59375 
Q 50.140625 6.59375 56.421875 14.59375 
Q 62.703125 22.609375 62.703125 36.375 
Q 62.703125 50.203125 56.421875 58.203125 
Q 50.140625 66.21875 39.40625 66.21875 
z
M 39.40625 74.21875 
Q 54.734375 74.21875 63.90625 63.9375 
Q 73.09375 53.65625 73.09375 36.375 
Q 73.09375 19.140625 63.90625 8.859375 
Q 54.734375 -1.421875 39.40625 -1.421875 
Q 24.03125 -1.421875 14.8125 8.828125 
Q 5.609375 19.09375 5.609375 36.375 
Q 5.609375 53.65625 14.8125 63.9375 
Q 24.03125 74.21875 39.40625 74.21875 
z
" id="DejaVuSans-79"/>
      <path id="DejaVuSans-32"/>
     </defs>
     <g transform="translate(199.053031 345.093346)scale(0.11 -0.11)">
      <use xlink:href="#DejaVuSans-65"/>
      <use x="68.408203" xlink:href="#DejaVuSans-85"/>
      <use x="141.601562" xlink:href="#DejaVuSans-82"/>
      <use x="211.083984" xlink:href="#DejaVuSans-79"/>
      <use x="289.794922" xlink:href="#DejaVuSans-67"/>
      <use x="359.619141" xlink:href="#DejaVuSans-32"/>
      <use x="391.40625" xlink:href="#DejaVuSans-69"/>
      <use x="454.589844" xlink:href="#DejaVuSans-115"/>
      <use x="506.689453" xlink:href="#DejaVuSans-116"/>
      <use x="545.898438" xlink:href="#DejaVuSans-105"/>
      <use x="573.681641" xlink:href="#DejaVuSans-109"/>
      <use x="671.09375" xlink:href="#DejaVuSans-97"/>
      <use x="732.373047" xlink:href="#DejaVuSans-116"/>
      <use x="771.582031" xlink:href="#DejaVuSans-101"/>
     </g>
    </g>
   </g>
   <g id="matplotlib.axis_6">
    <g id="ytick_15">
     <g id="line2d_50">
      <path clip-path="url(#pad4cd5812f)" d="M 313.513188 288.876 
L 429.193187 288.876 
" style="fill:none;stroke:#ffffff;stroke-linecap:round;"/>
     </g>
    </g>
    <g id="ytick_16">
     <g id="line2d_51">
      <path clip-path="url(#pad4cd5812f)" d="M 313.513188 251.916 
L 429.193187 251.916 
" style="fill:none;stroke:#ffffff;stroke-linecap:round;"/>
     </g>
    </g>
    <g id="ytick_17">
     <g id="line2d_52">
      <path clip-path="url(#pad4cd5812f)" d="M 313.513188 214.956 
L 429.193187 214.956 
" style="fill:none;stroke:#ffffff;stroke-linecap:round;"/>
     </g>
    </g>
    <g id="ytick_18">
     <g id="line2d_53">
      <path clip-path="url(#pad4cd5812f)" d="M 313.513188 177.996 
L 429.193187 177.996 
" style="fill:none;stroke:#ffffff;stroke-linecap:round;"/>
     </g>
    </g>
    <g id="ytick_19">
     <g id="line2d_54">
      <path clip-path="url(#pad4cd5812f)" d="M 313.513188 141.036 
L 429.193187 141.036 
" style="fill:none;stroke:#ffffff;stroke-linecap:round;"/>
     </g>
    </g>
    <g id="ytick_20">
     <g id="line2d_55">
      <path clip-path="url(#pad4cd5812f)" d="M 313.513188 104.076 
L 429.193187 104.076 
" style="fill:none;stroke:#ffffff;stroke-linecap:round;"/>
     </g>
    </g>
    <g id="ytick_21">
     <g id="line2d_56">
      <path clip-path="url(#pad4cd5812f)" d="M 313.513188 67.116 
L 429.193187 67.116 
" style="fill:none;stroke:#ffffff;stroke-linecap:round;"/>
     </g>
    </g>
   </g>
   <g id="PathCollection_3">
    <path clip-path="url(#pad4cd5812f)" d="M 386.761472 142.188095 
C 387.067011 142.188095 387.360078 142.066703 387.576126 141.850654 
C 387.792175 141.634605 387.913567 141.341539 387.913567 141.036 
C 387.913567 140.730461 387.792175 140.437395 387.576126 140.221346 
C 387.360078 140.005297 387.067011 139.883905 386.761472 139.883905 
C 386.455933 139.883905 386.162867 140.005297 385.946818 140.221346 
C 385.730769 140.437395 385.609377 140.730461 385.609377 141.036 
C 385.609377 141.341539 385.730769 141.634605 385.946818 141.850654 
C 386.162867 142.066703 386.455933 142.188095 386.761472 142.188095 
z
" style="stroke:#000000;stroke-width:0.886227;"/>
    <path clip-path="url(#pad4cd5812f)" d="M 415.059103 179.148095 
C 415.364642 179.148095 415.657708 179.026703 415.873757 178.810654 
C 416.089806 178.594605 416.211198 178.301539 416.211198 177.996 
C 416.211198 177.690461 416.089806 177.397395 415.873757 177.181346 
C 415.657708 176.965297 415.364642 176.843905 415.059103 176.843905 
C 414.753563 176.843905 414.460497 176.965297 414.244448 177.181346 
C 414.0284 177.397395 413.907008 177.690461 413.907008 177.996 
C 413.907008 178.301539 414.0284 178.594605 414.244448 178.810654 
C 414.460497 179.026703 414.753563 179.148095 415.059103 179.148095 
z
" style="stroke:#000000;stroke-width:0.886227;"/>
    <path clip-path="url(#pad4cd5812f)" d="M 417.978743 68.268095 
C 418.284282 68.268095 418.577349 68.146703 418.793397 67.930654 
C 419.009446 67.714605 419.130838 67.421539 419.130838 67.116 
C 419.130838 66.810461 419.009446 66.517395 418.793397 66.301346 
C 418.577349 66.085297 418.284282 65.963905 417.978743 65.963905 
C 417.673204 65.963905 417.380138 66.085297 417.164089 66.301346 
C 416.94804 66.517395 416.826648 66.810461 416.826648 67.116 
C 416.826648 67.421539 416.94804 67.714605 417.164089 67.930654 
C 417.380138 68.146703 417.673204 68.268095 417.978743 68.268095 
z
" style="stroke:#000000;stroke-width:0.886227;"/>
    <path clip-path="url(#pad4cd5812f)" d="M 421.494148 290.028095 
C 421.799687 290.028095 422.092754 289.906703 422.308802 289.690654 
C 422.524851 289.474605 422.646243 289.181539 422.646243 288.876 
C 422.646243 288.570461 422.524851 288.277395 422.308802 288.061346 
C 422.092754 287.845297 421.799687 287.723905 421.494148 287.723905 
C 421.188609 287.723905 420.895543 287.845297 420.679494 288.061346 
C 420.463445 288.277395 420.342053 288.570461 420.342053 288.876 
C 420.342053 289.181539 420.463445 289.474605 420.679494 289.690654 
C 420.895543 289.906703 421.188609 290.028095 421.494148 290.028095 
z
" style="stroke:#000000;stroke-width:0.886227;"/>
    <path clip-path="url(#pad4cd5812f)" d="M 406.124608 105.228095 
C 406.430147 105.228095 406.723213 105.106703 406.939262 104.890654 
C 407.155311 104.674605 407.276703 104.381539 407.276703 104.076 
C 407.276703 103.770461 407.155311 103.477395 406.939262 103.261346 
C 406.723213 103.045297 406.430147 102.923905 406.124608 102.923905 
C 405.819069 102.923905 405.526002 103.045297 405.309954 103.261346 
C 405.093905 103.477395 404.972513 103.770461 404.972513 104.076 
C 404.972513 104.381539 405.093905 104.674605 405.309954 104.890654 
C 405.526002 105.106703 405.819069 105.228095 406.124608 105.228095 
z
" style="stroke:#000000;stroke-width:0.886227;"/>
    <path clip-path="url(#pad4cd5812f)" d="M 345.967517 253.068095 
C 346.273056 253.068095 346.566122 252.946703 346.782171 252.730654 
C 346.99822 252.514605 347.119612 252.221539 347.119612 251.916 
C 347.119612 251.610461 346.99822 251.317395 346.782171 251.101346 
C 346.566122 250.885297 346.273056 250.763905 345.967517 250.763905 
C 345.661978 250.763905 345.368912 250.885297 345.152863 251.101346 
C 344.936814 251.317395 344.815422 251.610461 344.815422 251.916 
C 344.815422 252.221539 344.936814 252.514605 345.152863 252.730654 
C 345.368912 252.946703 345.661978 253.068095 345.967517 253.068095 
z
" style="stroke:#000000;stroke-width:0.886227;"/>
    <path clip-path="url(#pad4cd5812f)" d="M 392.370733 216.108095 
C 392.676272 216.108095 392.969338 215.986703 393.185387 215.770654 
C 393.401436 215.554605 393.522828 215.261539 393.522828 214.956 
C 393.522828 214.650461 393.401436 214.357395 393.185387 214.141346 
C 392.969338 213.925297 392.676272 213.803905 392.370733 213.803905 
C 392.065194 213.803905 391.772128 213.925297 391.556079 214.141346 
C 391.34003 214.357395 391.218638 214.650461 391.218638 214.956 
C 391.218638 215.261539 391.34003 215.554605 391.556079 215.770654 
C 391.772128 215.986703 392.065194 216.108095 392.370733 216.108095 
z
" style="stroke:#000000;stroke-width:0.886227;"/>
    <path clip-path="url(#pad4cd5812f)" d="M 384.057648 142.188095 
C 384.363187 142.188095 384.656254 142.066703 384.872302 141.850654 
C 385.088351 141.634605 385.209743 141.341539 385.209743 141.036 
C 385.209743 140.730461 385.088351 140.437395 384.872302 140.221346 
C 384.656254 140.005297 384.363187 139.883905 384.057648 139.883905 
C 383.752109 139.883905 383.459043 140.005297 383.242994 140.221346 
C 383.026945 140.437395 382.905553 140.730461 382.905553 141.036 
C 382.905553 141.341539 383.026945 141.634605 383.242994 141.850654 
C 383.459043 142.066703 383.752109 142.188095 384.057648 142.188095 
z
" style="fill:#e69f00;stroke:#e69f00;stroke-width:0.886227;"/>
    <path clip-path="url(#pad4cd5812f)" d="M 413.303373 179.148095 
C 413.608912 179.148095 413.901978 179.026703 414.118027 178.810654 
C 414.334076 178.594605 414.455468 178.301539 414.455468 177.996 
C 414.455468 177.690461 414.334076 177.397395 414.118027 177.181346 
C 413.901978 176.965297 413.608912 176.843905 413.303373 176.843905 
C 412.997834 176.843905 412.704767 176.965297 412.488719 177.181346 
C 412.27267 177.397395 412.151278 177.690461 412.151278 177.996 
C 412.151278 178.301539 412.27267 178.594605 412.488719 178.810654 
C 412.704767 179.026703 412.997834 179.148095 413.303373 179.148095 
z
" style="fill:#e69f00;stroke:#e69f00;stroke-width:0.886227;"/>
    <path clip-path="url(#pad4cd5812f)" d="M 413.332125 68.268095 
C 413.637664 68.268095 413.93073 68.146703 414.146779 67.930654 
C 414.362828 67.714605 414.48422 67.421539 414.48422 67.116 
C 414.48422 66.810461 414.362828 66.517395 414.146779 66.301346 
C 413.93073 66.085297 413.637664 65.963905 413.332125 65.963905 
C 413.026586 65.963905 412.73352 66.085297 412.517471 66.301346 
C 412.301422 66.517395 412.18003 66.810461 412.18003 67.116 
C 412.18003 67.421539 412.301422 67.714605 412.517471 67.930654 
C 412.73352 68.146703 413.026586 68.268095 413.332125 68.268095 
z
" style="fill:#e69f00;stroke:#e69f00;stroke-width:0.886227;"/>
    <path clip-path="url(#pad4cd5812f)" d="M 421.659858 290.028095 
C 421.965397 290.028095 422.258463 289.906703 422.474512 289.690654 
C 422.690561 289.474605 422.811953 289.181539 422.811953 288.876 
C 422.811953 288.570461 422.690561 288.277395 422.474512 288.061346 
C 422.258463 287.845297 421.965397 287.723905 421.659858 287.723905 
C 421.354318 287.723905 421.061252 287.845297 420.845203 288.061346 
C 420.629155 288.277395 420.507763 288.570461 420.507763 288.876 
C 420.507763 289.181539 420.629155 289.474605 420.845203 289.690654 
C 421.061252 289.906703 421.354318 290.028095 421.659858 290.028095 
z
" style="fill:#e69f00;stroke:#e69f00;stroke-width:0.886227;"/>
    <path clip-path="url(#pad4cd5812f)" d="M 404.408075 105.228095 
C 404.713614 105.228095 405.006681 105.106703 405.222729 104.890654 
C 405.438778 104.674605 405.56017 104.381539 405.56017 104.076 
C 405.56017 103.770461 405.438778 103.477395 405.222729 103.261346 
C 405.006681 103.045297 404.713614 102.923905 404.408075 102.923905 
C 404.102536 102.923905 403.80947 103.045297 403.593421 103.261346 
C 403.377372 103.477395 403.25598 103.770461 403.25598 104.076 
C 403.25598 104.381539 403.377372 104.674605 403.593421 104.890654 
C 403.80947 105.106703 404.102536 105.228095 404.408075 105.228095 
z
" style="fill:#e69f00;stroke:#e69f00;stroke-width:0.886227;"/>
    <path clip-path="url(#pad4cd5812f)" d="M 345.956009 253.068095 
C 346.261549 253.068095 346.554615 252.946703 346.770664 252.730654 
C 346.986712 252.514605 347.108104 252.221539 347.108104 251.916 
C 347.108104 251.610461 346.986712 251.317395 346.770664 251.101346 
C 346.554615 250.885297 346.261549 250.763905 345.956009 250.763905 
C 345.65047 250.763905 345.357404 250.885297 345.141355 251.101346 
C 344.925306 251.317395 344.803914 251.610461 344.803914 251.916 
C 344.803914 252.221539 344.925306 252.514605 345.141355 252.730654 
C 345.357404 252.946703 345.65047 253.068095 345.956009 253.068095 
z
" style="fill:#e69f00;stroke:#e69f00;stroke-width:0.886227;"/>
    <path clip-path="url(#pad4cd5812f)" d="M 390.077763 216.108095 
C 390.383302 216.108095 390.676368 215.986703 390.892417 215.770654 
C 391.108466 215.554605 391.229858 215.261539 391.229858 214.956 
C 391.229858 214.650461 391.108466 214.357395 390.892417 214.141346 
C 390.676368 213.925297 390.383302 213.803905 390.077763 213.803905 
C 389.772224 213.803905 389.479158 213.925297 389.263109 214.141346 
C 389.04706 214.357395 388.925668 214.650461 388.925668 214.956 
C 388.925668 215.261539 389.04706 215.554605 389.263109 215.770654 
C 389.479158 215.986703 389.772224 216.108095 390.077763 216.108095 
z
" style="fill:#e69f00;stroke:#e69f00;stroke-width:0.886227;"/>
   </g>
   <g id="LineCollection_31">
    <path clip-path="url(#pad4cd5812f)" d="M 419.053291 292.572 
L 419.053291 285.18 
" style="fill:none;stroke:#000000;stroke-width:0.886227;"/>
    <path clip-path="url(#pad4cd5812f)" d="M 423.935006 292.572 
L 423.935006 285.18 
" style="fill:none;stroke:#000000;stroke-width:0.886227;"/>
    <path clip-path="url(#pad4cd5812f)" d="M 419.053291 288.876 
L 423.935006 288.876 
" style="fill:none;stroke:#000000;stroke-width:0.886227;"/>
   </g>
   <g id="LineCollection_32">
    <path clip-path="url(#pad4cd5812f)" d="M 420.102585 292.572 
L 420.102585 285.18 
" style="fill:none;stroke:#e69f00;stroke-width:0.886227;"/>
    <path clip-path="url(#pad4cd5812f)" d="M 423.21713 292.572 
L 423.21713 285.18 
" style="fill:none;stroke:#e69f00;stroke-width:0.886227;"/>
    <path clip-path="url(#pad4cd5812f)" d="M 420.102585 288.876 
L 423.21713 288.876 
" style="fill:none;stroke:#e69f00;stroke-width:0.886227;"/>
   </g>
   <g id="LineCollection_33">
    <path clip-path="url(#pad4cd5812f)" d="M 340.344924 255.612 
L 340.344924 248.22 
" style="fill:none;stroke:#000000;stroke-width:0.886227;"/>
    <path clip-path="url(#pad4cd5812f)" d="M 351.59011 255.612 
L 351.59011 248.22 
" style="fill:none;stroke:#000000;stroke-width:0.886227;"/>
    <path clip-path="url(#pad4cd5812f)" d="M 340.344924 251.916 
L 351.59011 251.916 
" style="fill:none;stroke:#000000;stroke-width:0.886227;"/>
   </g>
   <g id="LineCollection_34">
    <path clip-path="url(#pad4cd5812f)" d="M 341.660742 255.612 
L 341.660742 248.22 
" style="fill:none;stroke:#e69f00;stroke-width:0.886227;"/>
    <path clip-path="url(#pad4cd5812f)" d="M 350.251277 255.612 
L 350.251277 248.22 
" style="fill:none;stroke:#e69f00;stroke-width:0.886227;"/>
    <path clip-path="url(#pad4cd5812f)" d="M 341.660742 251.916 
L 350.251277 251.916 
" style="fill:none;stroke:#e69f00;stroke-width:0.886227;"/>
   </g>
   <g id="LineCollection_35">
    <path clip-path="url(#pad4cd5812f)" d="M 388.337853 218.652 
L 388.337853 211.26 
" style="fill:none;stroke:#000000;stroke-width:0.886227;"/>
    <path clip-path="url(#pad4cd5812f)" d="M 396.403613 218.652 
L 396.403613 211.26 
" style="fill:none;stroke:#000000;stroke-width:0.886227;"/>
    <path clip-path="url(#pad4cd5812f)" d="M 388.337853 214.956 
L 396.403613 214.956 
" style="fill:none;stroke:#000000;stroke-width:0.886227;"/>
   </g>
   <g id="LineCollection_36">
    <path clip-path="url(#pad4cd5812f)" d="M 387.370289 218.652 
L 387.370289 211.26 
" style="fill:none;stroke:#e69f00;stroke-width:0.886227;"/>
    <path clip-path="url(#pad4cd5812f)" d="M 392.785237 218.652 
L 392.785237 211.26 
" style="fill:none;stroke:#e69f00;stroke-width:0.886227;"/>
    <path clip-path="url(#pad4cd5812f)" d="M 387.370289 214.956 
L 392.785237 214.956 
" style="fill:none;stroke:#e69f00;stroke-width:0.886227;"/>
   </g>
   <g id="LineCollection_37">
    <path clip-path="url(#pad4cd5812f)" d="M 411.854964 181.692 
L 411.854964 174.3 
" style="fill:none;stroke:#000000;stroke-width:0.886227;"/>
    <path clip-path="url(#pad4cd5812f)" d="M 418.263241 181.692 
L 418.263241 174.3 
" style="fill:none;stroke:#000000;stroke-width:0.886227;"/>
    <path clip-path="url(#pad4cd5812f)" d="M 411.854964 177.996 
L 418.263241 177.996 
" style="fill:none;stroke:#000000;stroke-width:0.886227;"/>
   </g>
   <g id="LineCollection_38">
    <path clip-path="url(#pad4cd5812f)" d="M 411.286343 181.692 
L 411.286343 174.3 
" style="fill:none;stroke:#e69f00;stroke-width:0.886227;"/>
    <path clip-path="url(#pad4cd5812f)" d="M 415.320403 181.692 
L 415.320403 174.3 
" style="fill:none;stroke:#e69f00;stroke-width:0.886227;"/>
    <path clip-path="url(#pad4cd5812f)" d="M 411.286343 177.996 
L 415.320403 177.996 
" style="fill:none;stroke:#e69f00;stroke-width:0.886227;"/>
   </g>
   <g id="LineCollection_39">
    <path clip-path="url(#pad4cd5812f)" d="M 383.24395 144.732 
L 383.24395 137.34 
" style="fill:none;stroke:#000000;stroke-width:0.886227;"/>
    <path clip-path="url(#pad4cd5812f)" d="M 390.278994 144.732 
L 390.278994 137.34 
" style="fill:none;stroke:#000000;stroke-width:0.886227;"/>
    <path clip-path="url(#pad4cd5812f)" d="M 383.24395 141.036 
L 390.278994 141.036 
" style="fill:none;stroke:#000000;stroke-width:0.886227;"/>
   </g>
   <g id="LineCollection_40">
    <path clip-path="url(#pad4cd5812f)" d="M 381.348238 144.732 
L 381.348238 137.34 
" style="fill:none;stroke:#e69f00;stroke-width:0.886227;"/>
    <path clip-path="url(#pad4cd5812f)" d="M 386.767058 144.732 
L 386.767058 137.34 
" style="fill:none;stroke:#e69f00;stroke-width:0.886227;"/>
    <path clip-path="url(#pad4cd5812f)" d="M 381.348238 141.036 
L 386.767058 141.036 
" style="fill:none;stroke:#e69f00;stroke-width:0.886227;"/>
   </g>
   <g id="LineCollection_41">
    <path clip-path="url(#pad4cd5812f)" d="M 403.624053 107.772 
L 403.624053 100.38 
" style="fill:none;stroke:#000000;stroke-width:0.886227;"/>
    <path clip-path="url(#pad4cd5812f)" d="M 408.625163 107.772 
L 408.625163 100.38 
" style="fill:none;stroke:#000000;stroke-width:0.886227;"/>
    <path clip-path="url(#pad4cd5812f)" d="M 403.624053 104.076 
L 408.625163 104.076 
" style="fill:none;stroke:#000000;stroke-width:0.886227;"/>
   </g>
   <g id="LineCollection_42">
    <path clip-path="url(#pad4cd5812f)" d="M 402.282989 107.772 
L 402.282989 100.38 
" style="fill:none;stroke:#e69f00;stroke-width:0.886227;"/>
    <path clip-path="url(#pad4cd5812f)" d="M 406.533161 107.772 
L 406.533161 100.38 
" style="fill:none;stroke:#e69f00;stroke-width:0.886227;"/>
    <path clip-path="url(#pad4cd5812f)" d="M 402.282989 104.076 
L 406.533161 104.076 
" style="fill:none;stroke:#e69f00;stroke-width:0.886227;"/>
   </g>
   <g id="LineCollection_43">
    <path clip-path="url(#pad4cd5812f)" d="M 416.407375 70.812 
L 416.407375 63.42 
" style="fill:none;stroke:#000000;stroke-width:0.886227;"/>
    <path clip-path="url(#pad4cd5812f)" d="M 419.550111 70.812 
L 419.550111 63.42 
" style="fill:none;stroke:#000000;stroke-width:0.886227;"/>
    <path clip-path="url(#pad4cd5812f)" d="M 416.407375 67.116 
L 419.550111 67.116 
" style="fill:none;stroke:#000000;stroke-width:0.886227;"/>
   </g>
   <g id="LineCollection_44">
    <path clip-path="url(#pad4cd5812f)" d="M 411.735734 70.812 
L 411.735734 63.42 
" style="fill:none;stroke:#e69f00;stroke-width:0.886227;"/>
    <path clip-path="url(#pad4cd5812f)" d="M 414.928516 70.812 
L 414.928516 63.42 
" style="fill:none;stroke:#e69f00;stroke-width:0.886227;"/>
    <path clip-path="url(#pad4cd5812f)" d="M 411.735734 67.116 
L 414.928516 67.116 
" style="fill:none;stroke:#e69f00;stroke-width:0.886227;"/>
   </g>
   <g id="patch_10">
    <path d="M 313.513188 44.94 
L 429.193187 44.94 
L 429.193187 30.64 
L 313.513188 30.64 
z
" style="fill:#d9d9d9;"/>
   </g>
   <g id="LineCollection_45">
    <path clip-path="url(#pad4cd5812f)" d="M 347.256367 311.052 
L 347.256367 44.94 
" style="fill:none;stroke:#ff0000;stroke-dasharray:3.27904,1.417963;stroke-dashoffset:0;stroke-width:0.886227;"/>
   </g>
   <g id="text_23">
    <!-- Taxonomic -->
    <defs>
     <path d="M 54.890625 54.6875 
L 35.109375 28.078125 
L 55.90625 0 
L 45.3125 0 
L 29.390625 21.484375 
L 13.484375 0 
L 2.875 0 
L 24.125 28.609375 
L 4.6875 54.6875 
L 15.28125 54.6875 
L 29.78125 35.203125 
L 44.28125 54.6875 
z
" id="DejaVuSans-120"/>
    </defs>
    <g style="fill:#1a1a1a;" transform="translate(348.128062 40.21825)scale(0.088 -0.088)">
     <use xlink:href="#DejaVuSans-84"/>
     <use x="44.583984" xlink:href="#DejaVuSans-97"/>
     <use x="105.863281" xlink:href="#DejaVuSans-120"/>
     <use x="161.917969" xlink:href="#DejaVuSans-111"/>
     <use x="223.099609" xlink:href="#DejaVuSans-110"/>
     <use x="286.478516" xlink:href="#DejaVuSans-111"/>
     <use x="347.660156" xlink:href="#DejaVuSans-109"/>
     <use x="445.072266" xlink:href="#DejaVuSans-105"/>
     <use x="472.855469" xlink:href="#DejaVuSans-99"/>
    </g>
   </g>
  </g>
 </g>
 <defs>
  <clipPath id="p1291a7fb71">
   <rect height="266.112" width="115.68" x="72.073188" y="44.94"/>
  </clipPath>
  <clipPath id="pb7aff695dd">
   <path d="M 186.1985 23.24 
L 186.1985 7.4 
L 202.0385 7.4 
L 202.0385 23.24 
"/>
  </clipPath>
  <clipPath id="pe83237c0f2">
   <path d="M 241.75975 23.24 
L 241.75975 7.4 
L 257.59975 7.4 
L 257.59975 23.24 
"/>
  </clipPath>
  <clipPath id="pd57e291619">
   <rect height="266.112" width="115.68" x="192.793187" y="44.94"/>
  </clipPath>
  <clipPath id="pad4cd5812f">
   <rect height="266.112" width="115.68" x="313.513188" y="44.94"/>
  </clipPath>
 </defs>
</svg>
