<?xml version="1.0" encoding="utf-8" standalone="no"?>
<!DOCTYPE svg PUBLIC "-//W3C//DTD SVG 1.1//EN"
  "http://www.w3.org/Graphics/SVG/1.1/DTD/svg11.dtd">
<!-- Created with matplotlib (https://matplotlib.org/) -->
<svg height="354.581002pt" version="1.1" viewBox="0 0 436.393187 354.581002" width="436.393187pt" xmlns="http://www.w3.org/2000/svg" xmlns:xlink="http://www.w3.org/1999/xlink">
 <defs>
  <style type="text/css">
*{stroke-linecap:butt;stroke-linejoin:round;}
  </style>
 </defs>
 <g id="figure_1">
  <g id="patch_1">
   <path d="M -0 354.581002 
L 436.393187 354.581002 
L 436.393187 -0 
L -0 -0 
z
" style="fill:#ffffff;stroke:#ffffff;stroke-linejoin:miter;"/>
  </g>
  <g id="axes_1">
   <g id="patch_2">
    <path d="M 72.073188 311.052 
L 187.753187 311.052 
L 187.753187 44.94 
L 72.073188 44.94 
z
" style="fill:#ebebeb;"/>
   </g>
   <g id="matplotlib.axis_1">
    <g id="xtick_1">
     <g id="line2d_1">
      <path clip-path="url(#ped4a103fdd)" d="M 115.343442 311.052 
L 115.343442 44.94 
" style="fill:none;stroke:#ffffff;"/>
     </g>
     <g id="line2d_2">
      <path d="M 115.343442 311.052 
" style="fill:none;stroke:#333333;stroke-width:1.2;"/>
      <defs>
       <path d="M 0 0 
L 0 2.75 
" id="mc2203b2654" style="stroke:#333333;"/>
      </defs>
      <g>
       <use style="fill:#333333;stroke:#333333;" x="115.343442" xlink:href="#mc2203b2654" y="311.052"/>
      </g>
     </g>
     <g id="text_1">
      <!-- 0.4 -->
      <defs>
       <path d="M 31.78125 66.40625 
Q 24.171875 66.40625 20.328125 58.90625 
Q 16.5 51.421875 16.5 36.375 
Q 16.5 21.390625 20.328125 13.890625 
Q 24.171875 6.390625 31.78125 6.390625 
Q 39.453125 6.390625 43.28125 13.890625 
Q 47.125 21.390625 47.125 36.375 
Q 47.125 51.421875 43.28125 58.90625 
Q 39.453125 66.40625 31.78125 66.40625 
z
M 31.78125 74.21875 
Q 44.046875 74.21875 50.515625 64.515625 
Q 56.984375 54.828125 56.984375 36.375 
Q 56.984375 17.96875 50.515625 8.265625 
Q 44.046875 -1.421875 31.78125 -1.421875 
Q 19.53125 -1.421875 13.0625 8.265625 
Q 6.59375 17.96875 6.59375 36.375 
Q 6.59375 54.828125 13.0625 64.515625 
Q 19.53125 74.21875 31.78125 74.21875 
z
" id="DejaVuSans-48"/>
       <path d="M 10.6875 12.40625 
L 21 12.40625 
L 21 0 
L 10.6875 0 
z
" id="DejaVuSans-46"/>
       <path d="M 37.796875 64.3125 
L 12.890625 25.390625 
L 37.796875 25.390625 
z
M 35.203125 72.90625 
L 47.609375 72.90625 
L 47.609375 25.390625 
L 58.015625 25.390625 
L 58.015625 17.1875 
L 47.609375 17.1875 
L 47.609375 0 
L 37.796875 0 
L 37.796875 17.1875 
L 4.890625 17.1875 
L 4.890625 26.703125 
z
" id="DejaVuSans-52"/>
      </defs>
      <g style="fill:#4d4d4d;" transform="translate(109.836874 330.534002)rotate(-30)scale(0.1 -0.1)">
       <use xlink:href="#DejaVuSans-48"/>
       <use x="63.623047" xlink:href="#DejaVuSans-46"/>
       <use x="95.410156" xlink:href="#DejaVuSans-52"/>
      </g>
     </g>
    </g>
    <g id="xtick_2">
     <g id="line2d_3">
      <path clip-path="url(#ped4a103fdd)" d="M 156.979432 311.052 
L 156.979432 44.94 
" style="fill:none;stroke:#ffffff;"/>
     </g>
     <g id="line2d_4">
      <path d="M 156.979432 311.052 
" style="fill:none;stroke:#333333;stroke-width:1.2;"/>
      <g>
       <use style="fill:#333333;stroke:#333333;" x="156.979432" xlink:href="#mc2203b2654" y="311.052"/>
      </g>
     </g>
     <g id="text_2">
      <!-- 0.7 -->
      <defs>
       <path d="M 8.203125 72.90625 
L 55.078125 72.90625 
L 55.078125 68.703125 
L 28.609375 0 
L 18.3125 0 
L 43.21875 64.59375 
L 8.203125 64.59375 
z
" id="DejaVuSans-55"/>
      </defs>
      <g style="fill:#4d4d4d;" transform="translate(151.472864 330.534002)rotate(-30)scale(0.1 -0.1)">
       <use xlink:href="#DejaVuSans-48"/>
       <use x="63.623047" xlink:href="#DejaVuSans-46"/>
       <use x="95.410156" xlink:href="#DejaVuSans-55"/>
      </g>
     </g>
    </g>
    <g id="xtick_3">
     <g id="line2d_5">
      <path clip-path="url(#ped4a103fdd)" d="M 136.161437 311.052 
L 136.161437 44.94 
" style="fill:none;stroke:#ffffff;stroke-width:0.5;"/>
     </g>
    </g>
   </g>
   <g id="matplotlib.axis_2">
    <g id="ytick_1">
     <g id="line2d_6">
      <path clip-path="url(#ped4a103fdd)" d="M 72.073188 288.876 
L 187.753187 288.876 
" style="fill:none;stroke:#ffffff;"/>
     </g>
     <g id="line2d_7">
      <path d="M 72.073188 288.876 
" style="fill:none;stroke:#333333;stroke-width:1.2;"/>
      <defs>
       <path d="M 0 0 
L -2.75 0 
" id="m954462c541" style="stroke:#333333;"/>
      </defs>
      <g>
       <use style="fill:#333333;stroke:#333333;" x="72.073188" xlink:href="#m954462c541" y="288.876"/>
      </g>
     </g>
     <g id="text_3">
      <!-- Feng -->
      <defs>
       <path d="M 9.8125 72.90625 
L 51.703125 72.90625 
L 51.703125 64.59375 
L 19.671875 64.59375 
L 19.671875 43.109375 
L 48.578125 43.109375 
L 48.578125 34.8125 
L 19.671875 34.8125 
L 19.671875 0 
L 9.8125 0 
z
" id="DejaVuSans-70"/>
       <path d="M 56.203125 29.59375 
L 56.203125 25.203125 
L 14.890625 25.203125 
Q 15.484375 15.921875 20.484375 11.0625 
Q 25.484375 6.203125 34.421875 6.203125 
Q 39.59375 6.203125 44.453125 7.46875 
Q 49.3125 8.734375 54.109375 11.28125 
L 54.109375 2.78125 
Q 49.265625 0.734375 44.1875 -0.34375 
Q 39.109375 -1.421875 33.890625 -1.421875 
Q 20.796875 -1.421875 13.15625 6.1875 
Q 5.515625 13.8125 5.515625 26.8125 
Q 5.515625 40.234375 12.765625 48.109375 
Q 20.015625 56 32.328125 56 
Q 43.359375 56 49.78125 48.890625 
Q 56.203125 41.796875 56.203125 29.59375 
z
M 47.21875 32.234375 
Q 47.125 39.59375 43.09375 43.984375 
Q 39.0625 48.390625 32.421875 48.390625 
Q 24.90625 48.390625 20.390625 44.140625 
Q 15.875 39.890625 15.1875 32.171875 
z
" id="DejaVuSans-101"/>
       <path d="M 54.890625 33.015625 
L 54.890625 0 
L 45.90625 0 
L 45.90625 32.71875 
Q 45.90625 40.484375 42.875 44.328125 
Q 39.84375 48.1875 33.796875 48.1875 
Q 26.515625 48.1875 22.3125 43.546875 
Q 18.109375 38.921875 18.109375 30.90625 
L 18.109375 0 
L 9.078125 0 
L 9.078125 54.6875 
L 18.109375 54.6875 
L 18.109375 46.1875 
Q 21.34375 51.125 25.703125 53.5625 
Q 30.078125 56 35.796875 56 
Q 45.21875 56 50.046875 50.171875 
Q 54.890625 44.34375 54.890625 33.015625 
z
" id="DejaVuSans-110"/>
       <path d="M 45.40625 27.984375 
Q 45.40625 37.75 41.375 43.109375 
Q 37.359375 48.484375 30.078125 48.484375 
Q 22.859375 48.484375 18.828125 43.109375 
Q 14.796875 37.75 14.796875 27.984375 
Q 14.796875 18.265625 18.828125 12.890625 
Q 22.859375 7.515625 30.078125 7.515625 
Q 37.359375 7.515625 41.375 12.890625 
Q 45.40625 18.265625 45.40625 27.984375 
z
M 54.390625 6.78125 
Q 54.390625 -7.171875 48.1875 -13.984375 
Q 42 -20.796875 29.203125 -20.796875 
Q 24.46875 -20.796875 20.265625 -20.09375 
Q 16.0625 -19.390625 12.109375 -17.921875 
L 12.109375 -9.1875 
Q 16.0625 -11.328125 19.921875 -12.34375 
Q 23.78125 -13.375 27.78125 -13.375 
Q 36.625 -13.375 41.015625 -8.765625 
Q 45.40625 -4.15625 45.40625 5.171875 
L 45.40625 9.625 
Q 42.625 4.78125 38.28125 2.390625 
Q 33.9375 0 27.875 0 
Q 17.828125 0 11.671875 7.65625 
Q 5.515625 15.328125 5.515625 27.984375 
Q 5.515625 40.671875 11.671875 48.328125 
Q 17.828125 56 27.875 56 
Q 33.9375 56 38.28125 53.609375 
Q 42.625 51.21875 45.40625 46.390625 
L 45.40625 54.6875 
L 54.390625 54.6875 
z
" id="DejaVuSans-103"/>
      </defs>
      <g style="fill:#4d4d4d;" transform="translate(45.967438 287.380206)scale(0.088 -0.088)">
       <use xlink:href="#DejaVuSans-70"/>
       <use x="52.019531" xlink:href="#DejaVuSans-101"/>
       <use x="113.542969" xlink:href="#DejaVuSans-110"/>
       <use x="176.921875" xlink:href="#DejaVuSans-103"/>
      </g>
      <!-- n = 132 -->
      <defs>
       <path id="DejaVuSans-32"/>
       <path d="M 10.59375 45.40625 
L 73.1875 45.40625 
L 73.1875 37.203125 
L 10.59375 37.203125 
z
M 10.59375 25.484375 
L 73.1875 25.484375 
L 73.1875 17.1875 
L 10.59375 17.1875 
z
" id="DejaVuSans-61"/>
       <path d="M 12.40625 8.296875 
L 28.515625 8.296875 
L 28.515625 63.921875 
L 10.984375 60.40625 
L 10.984375 69.390625 
L 28.421875 72.90625 
L 38.28125 72.90625 
L 38.28125 8.296875 
L 54.390625 8.296875 
L 54.390625 0 
L 12.40625 0 
z
" id="DejaVuSans-49"/>
       <path d="M 40.578125 39.3125 
Q 47.65625 37.796875 51.625 33 
Q 55.609375 28.21875 55.609375 21.1875 
Q 55.609375 10.40625 48.1875 4.484375 
Q 40.765625 -1.421875 27.09375 -1.421875 
Q 22.515625 -1.421875 17.65625 -0.515625 
Q 12.796875 0.390625 7.625 2.203125 
L 7.625 11.71875 
Q 11.71875 9.328125 16.59375 8.109375 
Q 21.484375 6.890625 26.8125 6.890625 
Q 36.078125 6.890625 40.9375 10.546875 
Q 45.796875 14.203125 45.796875 21.1875 
Q 45.796875 27.640625 41.28125 31.265625 
Q 36.765625 34.90625 28.71875 34.90625 
L 20.21875 34.90625 
L 20.21875 43.015625 
L 29.109375 43.015625 
Q 36.375 43.015625 40.234375 45.921875 
Q 44.09375 48.828125 44.09375 54.296875 
Q 44.09375 59.90625 40.109375 62.90625 
Q 36.140625 65.921875 28.71875 65.921875 
Q 24.65625 65.921875 20.015625 65.03125 
Q 15.375 64.15625 9.8125 62.3125 
L 9.8125 71.09375 
Q 15.4375 72.65625 20.34375 73.4375 
Q 25.25 74.21875 29.59375 74.21875 
Q 40.828125 74.21875 47.359375 69.109375 
Q 53.90625 64.015625 53.90625 55.328125 
Q 53.90625 49.265625 50.4375 45.09375 
Q 46.96875 40.921875 40.578125 39.3125 
z
" id="DejaVuSans-51"/>
       <path d="M 19.1875 8.296875 
L 53.609375 8.296875 
L 53.609375 0 
L 7.328125 0 
L 7.328125 8.296875 
Q 12.9375 14.109375 22.625 23.890625 
Q 32.328125 33.6875 34.8125 36.53125 
Q 39.546875 41.84375 41.421875 45.53125 
Q 43.3125 49.21875 43.3125 52.78125 
Q 43.3125 58.59375 39.234375 62.25 
Q 35.15625 65.921875 28.609375 65.921875 
Q 23.96875 65.921875 18.8125 64.3125 
Q 13.671875 62.703125 7.8125 59.421875 
L 7.8125 69.390625 
Q 13.765625 71.78125 18.9375 73 
Q 24.125 74.21875 28.421875 74.21875 
Q 39.75 74.21875 46.484375 68.546875 
Q 53.21875 62.890625 53.21875 53.421875 
Q 53.21875 48.921875 51.53125 44.890625 
Q 49.859375 40.875 45.40625 35.40625 
Q 44.1875 33.984375 37.640625 27.21875 
Q 31.109375 20.453125 19.1875 8.296875 
z
" id="DejaVuSans-50"/>
      </defs>
      <g style="fill:#4d4d4d;" transform="translate(31.781562 295.228294)scale(0.088 -0.088)">
       <use xlink:href="#DejaVuSans-110"/>
       <use x="63.378906" xlink:href="#DejaVuSans-32"/>
       <use x="95.166016" xlink:href="#DejaVuSans-61"/>
       <use x="178.955078" xlink:href="#DejaVuSans-32"/>
       <use x="210.742188" xlink:href="#DejaVuSans-49"/>
       <use x="274.365234" xlink:href="#DejaVuSans-51"/>
       <use x="337.988281" xlink:href="#DejaVuSans-50"/>
      </g>
     </g>
    </g>
    <g id="ytick_2">
     <g id="line2d_8">
      <path clip-path="url(#ped4a103fdd)" d="M 72.073188 251.916 
L 187.753187 251.916 
" style="fill:none;stroke:#ffffff;"/>
     </g>
     <g id="line2d_9">
      <path d="M 72.073188 251.916 
" style="fill:none;stroke:#333333;stroke-width:1.2;"/>
      <g>
       <use style="fill:#333333;stroke:#333333;" x="72.073188" xlink:href="#m954462c541" y="251.916"/>
      </g>
     </g>
     <g id="text_4">
      <!-- Hannigan -->
      <defs>
       <path d="M 9.8125 72.90625 
L 19.671875 72.90625 
L 19.671875 43.015625 
L 55.515625 43.015625 
L 55.515625 72.90625 
L 65.375 72.90625 
L 65.375 0 
L 55.515625 0 
L 55.515625 34.71875 
L 19.671875 34.71875 
L 19.671875 0 
L 9.8125 0 
z
" id="DejaVuSans-72"/>
       <path d="M 34.28125 27.484375 
Q 23.390625 27.484375 19.1875 25 
Q 14.984375 22.515625 14.984375 16.5 
Q 14.984375 11.71875 18.140625 8.90625 
Q 21.296875 6.109375 26.703125 6.109375 
Q 34.1875 6.109375 38.703125 11.40625 
Q 43.21875 16.703125 43.21875 25.484375 
L 43.21875 27.484375 
z
M 52.203125 31.203125 
L 52.203125 0 
L 43.21875 0 
L 43.21875 8.296875 
Q 40.140625 3.328125 35.546875 0.953125 
Q 30.953125 -1.421875 24.3125 -1.421875 
Q 15.921875 -1.421875 10.953125 3.296875 
Q 6 8.015625 6 15.921875 
Q 6 25.140625 12.171875 29.828125 
Q 18.359375 34.515625 30.609375 34.515625 
L 43.21875 34.515625 
L 43.21875 35.40625 
Q 43.21875 41.609375 39.140625 45 
Q 35.0625 48.390625 27.6875 48.390625 
Q 23 48.390625 18.546875 47.265625 
Q 14.109375 46.140625 10.015625 43.890625 
L 10.015625 52.203125 
Q 14.9375 54.109375 19.578125 55.046875 
Q 24.21875 56 28.609375 56 
Q 40.484375 56 46.34375 49.84375 
Q 52.203125 43.703125 52.203125 31.203125 
z
" id="DejaVuSans-97"/>
       <path d="M 9.421875 54.6875 
L 18.40625 54.6875 
L 18.40625 0 
L 9.421875 0 
z
M 9.421875 75.984375 
L 18.40625 75.984375 
L 18.40625 64.59375 
L 9.421875 64.59375 
z
" id="DejaVuSans-105"/>
      </defs>
      <g style="fill:#4d4d4d;" transform="translate(24.957437 250.420206)scale(0.088 -0.088)">
       <use xlink:href="#DejaVuSans-72"/>
       <use x="75.195312" xlink:href="#DejaVuSans-97"/>
       <use x="136.474609" xlink:href="#DejaVuSans-110"/>
       <use x="199.853516" xlink:href="#DejaVuSans-110"/>
       <use x="263.232422" xlink:href="#DejaVuSans-105"/>
       <use x="291.015625" xlink:href="#DejaVuSans-103"/>
       <use x="354.492188" xlink:href="#DejaVuSans-97"/>
       <use x="415.771484" xlink:href="#DejaVuSans-110"/>
      </g>
      <!-- n = 82 -->
      <defs>
       <path d="M 31.78125 34.625 
Q 24.75 34.625 20.71875 30.859375 
Q 16.703125 27.09375 16.703125 20.515625 
Q 16.703125 13.921875 20.71875 10.15625 
Q 24.75 6.390625 31.78125 6.390625 
Q 38.8125 6.390625 42.859375 10.171875 
Q 46.921875 13.96875 46.921875 20.515625 
Q 46.921875 27.09375 42.890625 30.859375 
Q 38.875 34.625 31.78125 34.625 
z
M 21.921875 38.8125 
Q 15.578125 40.375 12.03125 44.71875 
Q 8.5 49.078125 8.5 55.328125 
Q 8.5 64.0625 14.71875 69.140625 
Q 20.953125 74.21875 31.78125 74.21875 
Q 42.671875 74.21875 48.875 69.140625 
Q 55.078125 64.0625 55.078125 55.328125 
Q 55.078125 49.078125 51.53125 44.71875 
Q 48 40.375 41.703125 38.8125 
Q 48.828125 37.15625 52.796875 32.3125 
Q 56.78125 27.484375 56.78125 20.515625 
Q 56.78125 9.90625 50.3125 4.234375 
Q 43.84375 -1.421875 31.78125 -1.421875 
Q 19.734375 -1.421875 13.25 4.234375 
Q 6.78125 9.90625 6.78125 20.515625 
Q 6.78125 27.484375 10.78125 32.3125 
Q 14.796875 37.15625 21.921875 38.8125 
z
M 18.3125 54.390625 
Q 18.3125 48.734375 21.84375 45.5625 
Q 25.390625 42.390625 31.78125 42.390625 
Q 38.140625 42.390625 41.71875 45.5625 
Q 45.3125 48.734375 45.3125 54.390625 
Q 45.3125 60.0625 41.71875 63.234375 
Q 38.140625 66.40625 31.78125 66.40625 
Q 25.390625 66.40625 21.84375 63.234375 
Q 18.3125 60.0625 18.3125 54.390625 
z
" id="DejaVuSans-56"/>
      </defs>
      <g style="fill:#4d4d4d;" transform="translate(37.380562 258.268294)scale(0.088 -0.088)">
       <use xlink:href="#DejaVuSans-110"/>
       <use x="63.378906" xlink:href="#DejaVuSans-32"/>
       <use x="95.166016" xlink:href="#DejaVuSans-61"/>
       <use x="178.955078" xlink:href="#DejaVuSans-32"/>
       <use x="210.742188" xlink:href="#DejaVuSans-56"/>
       <use x="274.365234" xlink:href="#DejaVuSans-50"/>
      </g>
     </g>
    </g>
    <g id="ytick_3">
     <g id="line2d_10">
      <path clip-path="url(#ped4a103fdd)" d="M 72.073188 214.956 
L 187.753187 214.956 
" style="fill:none;stroke:#ffffff;"/>
     </g>
     <g id="line2d_11">
      <path d="M 72.073188 214.956 
" style="fill:none;stroke:#333333;stroke-width:1.2;"/>
      <g>
       <use style="fill:#333333;stroke:#333333;" x="72.073188" xlink:href="#m954462c541" y="214.956"/>
      </g>
     </g>
     <g id="text_5">
      <!-- Thomas0 -->
      <defs>
       <path d="M -0.296875 72.90625 
L 61.375 72.90625 
L 61.375 64.59375 
L 35.5 64.59375 
L 35.5 0 
L 25.59375 0 
L 25.59375 64.59375 
L -0.296875 64.59375 
z
" id="DejaVuSans-84"/>
       <path d="M 54.890625 33.015625 
L 54.890625 0 
L 45.90625 0 
L 45.90625 32.71875 
Q 45.90625 40.484375 42.875 44.328125 
Q 39.84375 48.1875 33.796875 48.1875 
Q 26.515625 48.1875 22.3125 43.546875 
Q 18.109375 38.921875 18.109375 30.90625 
L 18.109375 0 
L 9.078125 0 
L 9.078125 75.984375 
L 18.109375 75.984375 
L 18.109375 46.1875 
Q 21.34375 51.125 25.703125 53.5625 
Q 30.078125 56 35.796875 56 
Q 45.21875 56 50.046875 50.171875 
Q 54.890625 44.34375 54.890625 33.015625 
z
" id="DejaVuSans-104"/>
       <path d="M 30.609375 48.390625 
Q 23.390625 48.390625 19.1875 42.75 
Q 14.984375 37.109375 14.984375 27.296875 
Q 14.984375 17.484375 19.15625 11.84375 
Q 23.34375 6.203125 30.609375 6.203125 
Q 37.796875 6.203125 41.984375 11.859375 
Q 46.1875 17.53125 46.1875 27.296875 
Q 46.1875 37.015625 41.984375 42.703125 
Q 37.796875 48.390625 30.609375 48.390625 
z
M 30.609375 56 
Q 42.328125 56 49.015625 48.375 
Q 55.71875 40.765625 55.71875 27.296875 
Q 55.71875 13.875 49.015625 6.21875 
Q 42.328125 -1.421875 30.609375 -1.421875 
Q 18.84375 -1.421875 12.171875 6.21875 
Q 5.515625 13.875 5.515625 27.296875 
Q 5.515625 40.765625 12.171875 48.375 
Q 18.84375 56 30.609375 56 
z
" id="DejaVuSans-111"/>
       <path d="M 52 44.1875 
Q 55.375 50.25 60.0625 53.125 
Q 64.75 56 71.09375 56 
Q 79.640625 56 84.28125 50.015625 
Q 88.921875 44.046875 88.921875 33.015625 
L 88.921875 0 
L 79.890625 0 
L 79.890625 32.71875 
Q 79.890625 40.578125 77.09375 44.375 
Q 74.3125 48.1875 68.609375 48.1875 
Q 61.625 48.1875 57.5625 43.546875 
Q 53.515625 38.921875 53.515625 30.90625 
L 53.515625 0 
L 44.484375 0 
L 44.484375 32.71875 
Q 44.484375 40.625 41.703125 44.40625 
Q 38.921875 48.1875 33.109375 48.1875 
Q 26.21875 48.1875 22.15625 43.53125 
Q 18.109375 38.875 18.109375 30.90625 
L 18.109375 0 
L 9.078125 0 
L 9.078125 54.6875 
L 18.109375 54.6875 
L 18.109375 46.1875 
Q 21.1875 51.21875 25.484375 53.609375 
Q 29.78125 56 35.6875 56 
Q 41.65625 56 45.828125 52.96875 
Q 50 49.953125 52 44.1875 
z
" id="DejaVuSans-109"/>
       <path d="M 44.28125 53.078125 
L 44.28125 44.578125 
Q 40.484375 46.53125 36.375 47.5 
Q 32.28125 48.484375 27.875 48.484375 
Q 21.1875 48.484375 17.84375 46.4375 
Q 14.5 44.390625 14.5 40.28125 
Q 14.5 37.15625 16.890625 35.375 
Q 19.28125 33.59375 26.515625 31.984375 
L 29.59375 31.296875 
Q 39.15625 29.25 43.1875 25.515625 
Q 47.21875 21.78125 47.21875 15.09375 
Q 47.21875 7.46875 41.1875 3.015625 
Q 35.15625 -1.421875 24.609375 -1.421875 
Q 20.21875 -1.421875 15.453125 -0.5625 
Q 10.6875 0.296875 5.421875 2 
L 5.421875 11.28125 
Q 10.40625 8.6875 15.234375 7.390625 
Q 20.0625 6.109375 24.8125 6.109375 
Q 31.15625 6.109375 34.5625 8.28125 
Q 37.984375 10.453125 37.984375 14.40625 
Q 37.984375 18.0625 35.515625 20.015625 
Q 33.0625 21.96875 24.703125 23.78125 
L 21.578125 24.515625 
Q 13.234375 26.265625 9.515625 29.90625 
Q 5.8125 33.546875 5.8125 39.890625 
Q 5.8125 47.609375 11.28125 51.796875 
Q 16.75 56 26.8125 56 
Q 31.78125 56 36.171875 55.265625 
Q 40.578125 54.546875 44.28125 53.078125 
z
" id="DejaVuSans-115"/>
      </defs>
      <g style="fill:#4d4d4d;" transform="translate(26.639062 213.460206)scale(0.088 -0.088)">
       <use xlink:href="#DejaVuSans-84"/>
       <use x="61.083984" xlink:href="#DejaVuSans-104"/>
       <use x="124.462891" xlink:href="#DejaVuSans-111"/>
       <use x="185.644531" xlink:href="#DejaVuSans-109"/>
       <use x="283.056641" xlink:href="#DejaVuSans-97"/>
       <use x="344.335938" xlink:href="#DejaVuSans-115"/>
       <use x="396.435547" xlink:href="#DejaVuSans-48"/>
      </g>
      <!-- n = 124 -->
      <g style="fill:#4d4d4d;" transform="translate(31.781562 221.308294)scale(0.088 -0.088)">
       <use xlink:href="#DejaVuSans-110"/>
       <use x="63.378906" xlink:href="#DejaVuSans-32"/>
       <use x="95.166016" xlink:href="#DejaVuSans-61"/>
       <use x="178.955078" xlink:href="#DejaVuSans-32"/>
       <use x="210.742188" xlink:href="#DejaVuSans-49"/>
       <use x="274.365234" xlink:href="#DejaVuSans-50"/>
       <use x="337.988281" xlink:href="#DejaVuSans-52"/>
      </g>
     </g>
    </g>
    <g id="ytick_4">
     <g id="line2d_12">
      <path clip-path="url(#ped4a103fdd)" d="M 72.073188 177.996 
L 187.753187 177.996 
" style="fill:none;stroke:#ffffff;"/>
     </g>
     <g id="line2d_13">
      <path d="M 72.073188 177.996 
" style="fill:none;stroke:#333333;stroke-width:1.2;"/>
      <g>
       <use style="fill:#333333;stroke:#333333;" x="72.073188" xlink:href="#m954462c541" y="177.996"/>
      </g>
     </g>
     <g id="text_6">
      <!-- Thomas1 -->
      <g style="fill:#4d4d4d;" transform="translate(26.639062 176.500206)scale(0.088 -0.088)">
       <use xlink:href="#DejaVuSans-84"/>
       <use x="61.083984" xlink:href="#DejaVuSans-104"/>
       <use x="124.462891" xlink:href="#DejaVuSans-111"/>
       <use x="185.644531" xlink:href="#DejaVuSans-109"/>
       <use x="283.056641" xlink:href="#DejaVuSans-97"/>
       <use x="344.335938" xlink:href="#DejaVuSans-115"/>
       <use x="396.435547" xlink:href="#DejaVuSans-49"/>
      </g>
      <!-- n = 82 -->
      <g style="fill:#4d4d4d;" transform="translate(37.380562 184.348294)scale(0.088 -0.088)">
       <use xlink:href="#DejaVuSans-110"/>
       <use x="63.378906" xlink:href="#DejaVuSans-32"/>
       <use x="95.166016" xlink:href="#DejaVuSans-61"/>
       <use x="178.955078" xlink:href="#DejaVuSans-32"/>
       <use x="210.742188" xlink:href="#DejaVuSans-56"/>
       <use x="274.365234" xlink:href="#DejaVuSans-50"/>
      </g>
     </g>
    </g>
    <g id="ytick_5">
     <g id="line2d_14">
      <path clip-path="url(#ped4a103fdd)" d="M 72.073188 141.036 
L 187.753187 141.036 
" style="fill:none;stroke:#ffffff;"/>
     </g>
     <g id="line2d_15">
      <path d="M 72.073188 141.036 
" style="fill:none;stroke:#333333;stroke-width:1.2;"/>
      <g>
       <use style="fill:#333333;stroke:#333333;" x="72.073188" xlink:href="#m954462c541" y="141.036"/>
      </g>
     </g>
     <g id="text_7">
      <!-- Vogtmann -->
      <defs>
       <path d="M 28.609375 0 
L 0.78125 72.90625 
L 11.078125 72.90625 
L 34.1875 11.53125 
L 57.328125 72.90625 
L 67.578125 72.90625 
L 39.796875 0 
z
" id="DejaVuSans-86"/>
       <path d="M 18.3125 70.21875 
L 18.3125 54.6875 
L 36.8125 54.6875 
L 36.8125 47.703125 
L 18.3125 47.703125 
L 18.3125 18.015625 
Q 18.3125 11.328125 20.140625 9.421875 
Q 21.96875 7.515625 27.59375 7.515625 
L 36.8125 7.515625 
L 36.8125 0 
L 27.59375 0 
Q 17.1875 0 13.234375 3.875 
Q 9.28125 7.765625 9.28125 18.015625 
L 9.28125 47.703125 
L 2.6875 47.703125 
L 2.6875 54.6875 
L 9.28125 54.6875 
L 9.28125 70.21875 
z
" id="DejaVuSans-116"/>
      </defs>
      <g style="fill:#4d4d4d;" transform="translate(22.245937 139.540206)scale(0.088 -0.088)">
       <use xlink:href="#DejaVuSans-86"/>
       <use x="60.658203" xlink:href="#DejaVuSans-111"/>
       <use x="121.839844" xlink:href="#DejaVuSans-103"/>
       <use x="185.316406" xlink:href="#DejaVuSans-116"/>
       <use x="224.525391" xlink:href="#DejaVuSans-109"/>
       <use x="321.9375" xlink:href="#DejaVuSans-97"/>
       <use x="383.216797" xlink:href="#DejaVuSans-110"/>
       <use x="446.595703" xlink:href="#DejaVuSans-110"/>
      </g>
      <!-- n = 104 -->
      <g style="fill:#4d4d4d;" transform="translate(31.781562 147.388294)scale(0.088 -0.088)">
       <use xlink:href="#DejaVuSans-110"/>
       <use x="63.378906" xlink:href="#DejaVuSans-32"/>
       <use x="95.166016" xlink:href="#DejaVuSans-61"/>
       <use x="178.955078" xlink:href="#DejaVuSans-32"/>
       <use x="210.742188" xlink:href="#DejaVuSans-49"/>
       <use x="274.365234" xlink:href="#DejaVuSans-48"/>
       <use x="337.988281" xlink:href="#DejaVuSans-52"/>
      </g>
     </g>
    </g>
    <g id="ytick_6">
     <g id="line2d_16">
      <path clip-path="url(#ped4a103fdd)" d="M 72.073188 104.076 
L 187.753187 104.076 
" style="fill:none;stroke:#ffffff;"/>
     </g>
     <g id="line2d_17">
      <path d="M 72.073188 104.076 
" style="fill:none;stroke:#333333;stroke-width:1.2;"/>
      <g>
       <use style="fill:#333333;stroke:#333333;" x="72.073188" xlink:href="#m954462c541" y="104.076"/>
      </g>
     </g>
     <g id="text_8">
      <!-- Yu -->
      <defs>
       <path d="M -0.203125 72.90625 
L 10.40625 72.90625 
L 30.609375 42.921875 
L 50.6875 72.90625 
L 61.28125 72.90625 
L 35.5 34.71875 
L 35.5 0 
L 25.59375 0 
L 25.59375 34.71875 
z
" id="DejaVuSans-89"/>
       <path d="M 8.5 21.578125 
L 8.5 54.6875 
L 17.484375 54.6875 
L 17.484375 21.921875 
Q 17.484375 14.15625 20.5 10.265625 
Q 23.53125 6.390625 29.59375 6.390625 
Q 36.859375 6.390625 41.078125 11.03125 
Q 45.3125 15.671875 45.3125 23.6875 
L 45.3125 54.6875 
L 54.296875 54.6875 
L 54.296875 0 
L 45.3125 0 
L 45.3125 8.40625 
Q 42.046875 3.421875 37.71875 1 
Q 33.40625 -1.421875 27.6875 -1.421875 
Q 18.265625 -1.421875 13.375 4.4375 
Q 8.5 10.296875 8.5 21.578125 
z
M 31.109375 56 
z
" id="DejaVuSans-117"/>
      </defs>
      <g style="fill:#4d4d4d;" transform="translate(57.183312 102.580206)scale(0.088 -0.088)">
       <use xlink:href="#DejaVuSans-89"/>
       <use x="49.583984" xlink:href="#DejaVuSans-117"/>
      </g>
      <!-- n = 128 -->
      <g style="fill:#4d4d4d;" transform="translate(31.781562 110.428294)scale(0.088 -0.088)">
       <use xlink:href="#DejaVuSans-110"/>
       <use x="63.378906" xlink:href="#DejaVuSans-32"/>
       <use x="95.166016" xlink:href="#DejaVuSans-61"/>
       <use x="178.955078" xlink:href="#DejaVuSans-32"/>
       <use x="210.742188" xlink:href="#DejaVuSans-49"/>
       <use x="274.365234" xlink:href="#DejaVuSans-50"/>
       <use x="337.988281" xlink:href="#DejaVuSans-56"/>
      </g>
     </g>
    </g>
    <g id="ytick_7">
     <g id="line2d_18">
      <path clip-path="url(#ped4a103fdd)" d="M 72.073188 67.116 
L 187.753187 67.116 
" style="fill:none;stroke:#ffffff;"/>
     </g>
     <g id="line2d_19">
      <path d="M 72.073188 67.116 
" style="fill:none;stroke:#333333;stroke-width:1.2;"/>
      <g>
       <use style="fill:#333333;stroke:#333333;" x="72.073188" xlink:href="#m954462c541" y="67.116"/>
      </g>
     </g>
     <g id="text_9">
      <!-- Zeller -->
      <defs>
       <path d="M 5.609375 72.90625 
L 62.890625 72.90625 
L 62.890625 65.375 
L 16.796875 8.296875 
L 64.015625 8.296875 
L 64.015625 0 
L 4.5 0 
L 4.5 7.515625 
L 50.59375 64.59375 
L 5.609375 64.59375 
z
" id="DejaVuSans-90"/>
       <path d="M 9.421875 75.984375 
L 18.40625 75.984375 
L 18.40625 0 
L 9.421875 0 
z
" id="DejaVuSans-108"/>
       <path d="M 41.109375 46.296875 
Q 39.59375 47.171875 37.8125 47.578125 
Q 36.03125 48 33.890625 48 
Q 26.265625 48 22.1875 43.046875 
Q 18.109375 38.09375 18.109375 28.8125 
L 18.109375 0 
L 9.078125 0 
L 9.078125 54.6875 
L 18.109375 54.6875 
L 18.109375 46.1875 
Q 20.953125 51.171875 25.484375 53.578125 
Q 30.03125 56 36.53125 56 
Q 37.453125 56 38.578125 55.875 
Q 39.703125 55.765625 41.0625 55.515625 
z
" id="DejaVuSans-114"/>
      </defs>
      <g style="fill:#4d4d4d;" transform="translate(41.758562 65.620206)scale(0.088 -0.088)">
       <use xlink:href="#DejaVuSans-90"/>
       <use x="68.505859" xlink:href="#DejaVuSans-101"/>
       <use x="130.029297" xlink:href="#DejaVuSans-108"/>
       <use x="157.8125" xlink:href="#DejaVuSans-108"/>
       <use x="185.595703" xlink:href="#DejaVuSans-101"/>
       <use x="247.119141" xlink:href="#DejaVuSans-114"/>
      </g>
      <!-- n = 199 -->
      <defs>
       <path d="M 10.984375 1.515625 
L 10.984375 10.5 
Q 14.703125 8.734375 18.5 7.8125 
Q 22.3125 6.890625 25.984375 6.890625 
Q 35.75 6.890625 40.890625 13.453125 
Q 46.046875 20.015625 46.78125 33.40625 
Q 43.953125 29.203125 39.59375 26.953125 
Q 35.25 24.703125 29.984375 24.703125 
Q 19.046875 24.703125 12.671875 31.3125 
Q 6.296875 37.9375 6.296875 49.421875 
Q 6.296875 60.640625 12.9375 67.421875 
Q 19.578125 74.21875 30.609375 74.21875 
Q 43.265625 74.21875 49.921875 64.515625 
Q 56.59375 54.828125 56.59375 36.375 
Q 56.59375 19.140625 48.40625 8.859375 
Q 40.234375 -1.421875 26.421875 -1.421875 
Q 22.703125 -1.421875 18.890625 -0.6875 
Q 15.09375 0.046875 10.984375 1.515625 
z
M 30.609375 32.421875 
Q 37.25 32.421875 41.125 36.953125 
Q 45.015625 41.5 45.015625 49.421875 
Q 45.015625 57.28125 41.125 61.84375 
Q 37.25 66.40625 30.609375 66.40625 
Q 23.96875 66.40625 20.09375 61.84375 
Q 16.21875 57.28125 16.21875 49.421875 
Q 16.21875 41.5 20.09375 36.953125 
Q 23.96875 32.421875 30.609375 32.421875 
z
" id="DejaVuSans-57"/>
      </defs>
      <g style="fill:#4d4d4d;" transform="translate(31.781562 73.468294)scale(0.088 -0.088)">
       <use xlink:href="#DejaVuSans-110"/>
       <use x="63.378906" xlink:href="#DejaVuSans-32"/>
       <use x="95.166016" xlink:href="#DejaVuSans-61"/>
       <use x="178.955078" xlink:href="#DejaVuSans-32"/>
       <use x="210.742188" xlink:href="#DejaVuSans-49"/>
       <use x="274.365234" xlink:href="#DejaVuSans-57"/>
       <use x="337.988281" xlink:href="#DejaVuSans-57"/>
      </g>
     </g>
    </g>
    <g id="text_10">
     <!-- Project -->
     <defs>
      <path d="M 19.671875 64.796875 
L 19.671875 37.40625 
L 32.078125 37.40625 
Q 38.96875 37.40625 42.71875 40.96875 
Q 46.484375 44.53125 46.484375 51.125 
Q 46.484375 57.671875 42.71875 61.234375 
Q 38.96875 64.796875 32.078125 64.796875 
z
M 9.8125 72.90625 
L 32.078125 72.90625 
Q 44.34375 72.90625 50.609375 67.359375 
Q 56.890625 61.8125 56.890625 51.125 
Q 56.890625 40.328125 50.609375 34.8125 
Q 44.34375 29.296875 32.078125 29.296875 
L 19.671875 29.296875 
L 19.671875 0 
L 9.8125 0 
z
" id="DejaVuSans-80"/>
      <path d="M 9.421875 54.6875 
L 18.40625 54.6875 
L 18.40625 -0.984375 
Q 18.40625 -11.421875 14.421875 -16.109375 
Q 10.453125 -20.796875 1.609375 -20.796875 
L -1.8125 -20.796875 
L -1.8125 -13.1875 
L 0.59375 -13.1875 
Q 5.71875 -13.1875 7.5625 -10.8125 
Q 9.421875 -8.453125 9.421875 -0.984375 
z
M 9.421875 75.984375 
L 18.40625 75.984375 
L 18.40625 64.59375 
L 9.421875 64.59375 
z
" id="DejaVuSans-106"/>
      <path d="M 48.78125 52.59375 
L 48.78125 44.1875 
Q 44.96875 46.296875 41.140625 47.34375 
Q 37.3125 48.390625 33.40625 48.390625 
Q 24.65625 48.390625 19.8125 42.84375 
Q 14.984375 37.3125 14.984375 27.296875 
Q 14.984375 17.28125 19.8125 11.734375 
Q 24.65625 6.203125 33.40625 6.203125 
Q 37.3125 6.203125 41.140625 7.25 
Q 44.96875 8.296875 48.78125 10.40625 
L 48.78125 2.09375 
Q 45.015625 0.34375 40.984375 -0.53125 
Q 36.96875 -1.421875 32.421875 -1.421875 
Q 20.0625 -1.421875 12.78125 6.34375 
Q 5.515625 14.109375 5.515625 27.296875 
Q 5.515625 40.671875 12.859375 48.328125 
Q 20.21875 56 33.015625 56 
Q 37.15625 56 41.109375 55.140625 
Q 45.0625 54.296875 48.78125 52.59375 
z
" id="DejaVuSans-99"/>
     </defs>
     <g transform="translate(15.558281 195.083156)rotate(-90)scale(0.11 -0.11)">
      <use xlink:href="#DejaVuSans-80"/>
      <use x="58.552734" xlink:href="#DejaVuSans-114"/>
      <use x="97.416016" xlink:href="#DejaVuSans-111"/>
      <use x="158.597656" xlink:href="#DejaVuSans-106"/>
      <use x="186.380859" xlink:href="#DejaVuSans-101"/>
      <use x="247.904297" xlink:href="#DejaVuSans-99"/>
      <use x="302.884766" xlink:href="#DejaVuSans-116"/>
     </g>
    </g>
   </g>
   <g id="PathCollection_1">
    <path clip-path="url(#ped4a103fdd)" d="M 152.897528 142.188095 
C 153.203067 142.188095 153.496133 142.066703 153.712182 141.850654 
C 153.928231 141.634605 154.049623 141.341539 154.049623 141.036 
C 154.049623 140.730461 153.928231 140.437395 153.712182 140.221346 
C 153.496133 140.005297 153.203067 139.883905 152.897528 139.883905 
C 152.591988 139.883905 152.298922 140.005297 152.082873 140.221346 
C 151.866825 140.437395 151.745433 140.730461 151.745433 141.036 
C 151.745433 141.341539 151.866825 141.634605 152.082873 141.850654 
C 152.298922 142.066703 152.591988 142.188095 152.897528 142.188095 
z
" style="stroke:#000000;stroke-width:0.886227;"/>
    <path clip-path="url(#ped4a103fdd)" d="M 169.410902 179.148095 
C 169.716441 179.148095 170.009507 179.026703 170.225556 178.810654 
C 170.441605 178.594605 170.562997 178.301539 170.562997 177.996 
C 170.562997 177.690461 170.441605 177.397395 170.225556 177.181346 
C 170.009507 176.965297 169.716441 176.843905 169.410902 176.843905 
C 169.105363 176.843905 168.812297 176.965297 168.596248 177.181346 
C 168.380199 177.397395 168.258807 177.690461 168.258807 177.996 
C 168.258807 178.301539 168.380199 178.594605 168.596248 178.810654 
C 168.812297 179.026703 169.105363 179.148095 169.410902 179.148095 
z
" style="stroke:#000000;stroke-width:0.886227;"/>
    <path clip-path="url(#ped4a103fdd)" d="M 167.69255 68.268095 
C 167.998089 68.268095 168.291155 68.146703 168.507204 67.930654 
C 168.723253 67.714605 168.844645 67.421539 168.844645 67.116 
C 168.844645 66.810461 168.723253 66.517395 168.507204 66.301346 
C 168.291155 66.085297 167.998089 65.963905 167.69255 65.963905 
C 167.387011 65.963905 167.093945 66.085297 166.877896 66.301346 
C 166.661847 66.517395 166.540455 66.810461 166.540455 67.116 
C 166.540455 67.421539 166.661847 67.714605 166.877896 67.930654 
C 167.093945 68.146703 167.387011 68.268095 167.69255 68.268095 
z
" style="stroke:#000000;stroke-width:0.886227;"/>
    <path clip-path="url(#ped4a103fdd)" d="M 162.244391 290.028095 
C 162.54993 290.028095 162.842997 289.906703 163.059045 289.690654 
C 163.275094 289.474605 163.396486 289.181539 163.396486 288.876 
C 163.396486 288.570461 163.275094 288.277395 163.059045 288.061346 
C 162.842997 287.845297 162.54993 287.723905 162.244391 287.723905 
C 161.938852 287.723905 161.645786 287.845297 161.429737 288.061346 
C 161.213688 288.277395 161.092296 288.570461 161.092296 288.876 
C 161.092296 289.181539 161.213688 289.474605 161.429737 289.690654 
C 161.645786 289.906703 161.938852 290.028095 162.244391 290.028095 
z
" style="stroke:#000000;stroke-width:0.886227;"/>
    <path clip-path="url(#ped4a103fdd)" d="M 166.852544 105.228095 
C 167.158083 105.228095 167.451149 105.106703 167.667198 104.890654 
C 167.883247 104.674605 168.004639 104.381539 168.004639 104.076 
C 168.004639 103.770461 167.883247 103.477395 167.667198 103.261346 
C 167.451149 103.045297 167.158083 102.923905 166.852544 102.923905 
C 166.547005 102.923905 166.253938 103.045297 166.03789 103.261346 
C 165.821841 103.477395 165.700449 103.770461 165.700449 104.076 
C 165.700449 104.381539 165.821841 104.674605 166.03789 104.890654 
C 166.253938 105.106703 166.547005 105.228095 166.852544 105.228095 
z
" style="stroke:#000000;stroke-width:0.886227;"/>
    <path clip-path="url(#ped4a103fdd)" d="M 132.164455 253.068095 
C 132.469994 253.068095 132.76306 252.946703 132.979109 252.730654 
C 133.195158 252.514605 133.31655 252.221539 133.31655 251.916 
C 133.31655 251.610461 133.195158 251.317395 132.979109 251.101346 
C 132.76306 250.885297 132.469994 250.763905 132.164455 250.763905 
C 131.858916 250.763905 131.565849 250.885297 131.349801 251.101346 
C 131.133752 251.317395 131.01236 251.610461 131.01236 251.916 
C 131.01236 252.221539 131.133752 252.514605 131.349801 252.730654 
C 131.565849 252.946703 131.858916 253.068095 132.164455 253.068095 
z
" style="stroke:#000000;stroke-width:0.886227;"/>
    <path clip-path="url(#ped4a103fdd)" d="M 155.129584 216.108095 
C 155.435123 216.108095 155.728189 215.986703 155.944238 215.770654 
C 156.160287 215.554605 156.281679 215.261539 156.281679 214.956 
C 156.281679 214.650461 156.160287 214.357395 155.944238 214.141346 
C 155.728189 213.925297 155.435123 213.803905 155.129584 213.803905 
C 154.824044 213.803905 154.530978 213.925297 154.314929 214.141346 
C 154.098881 214.357395 153.977489 214.650461 153.977489 214.956 
C 153.977489 215.261539 154.098881 215.554605 154.314929 215.770654 
C 154.530978 215.986703 154.824044 216.108095 155.129584 216.108095 
z
" style="stroke:#000000;stroke-width:0.886227;"/>
    <path clip-path="url(#ped4a103fdd)" d="M 116.597603 142.188095 
C 116.903142 142.188095 117.196208 142.066703 117.412257 141.850654 
C 117.628306 141.634605 117.749698 141.341539 117.749698 141.036 
C 117.749698 140.730461 117.628306 140.437395 117.412257 140.221346 
C 117.196208 140.005297 116.903142 139.883905 116.597603 139.883905 
C 116.292064 139.883905 115.998997 140.005297 115.782949 140.221346 
C 115.5669 140.437395 115.445508 140.730461 115.445508 141.036 
C 115.445508 141.341539 115.5669 141.634605 115.782949 141.850654 
C 115.998997 142.066703 116.292064 142.188095 116.597603 142.188095 
z
" style="fill:#e69f00;stroke:#e69f00;stroke-width:0.886227;"/>
    <path clip-path="url(#ped4a103fdd)" d="M 140.149929 179.148095 
C 140.455468 179.148095 140.748534 179.026703 140.964583 178.810654 
C 141.180632 178.594605 141.302024 178.301539 141.302024 177.996 
C 141.302024 177.690461 141.180632 177.397395 140.964583 177.181346 
C 140.748534 176.965297 140.455468 176.843905 140.149929 176.843905 
C 139.844389 176.843905 139.551323 176.965297 139.335274 177.181346 
C 139.119226 177.397395 138.997834 177.690461 138.997834 177.996 
C 138.997834 178.301539 139.119226 178.594605 139.335274 178.810654 
C 139.551323 179.026703 139.844389 179.148095 140.149929 179.148095 
z
" style="fill:#e69f00;stroke:#e69f00;stroke-width:0.886227;"/>
    <path clip-path="url(#ped4a103fdd)" d="M 139.878477 68.268095 
C 140.184016 68.268095 140.477082 68.146703 140.693131 67.930654 
C 140.90918 67.714605 141.030572 67.421539 141.030572 67.116 
C 141.030572 66.810461 140.90918 66.517395 140.693131 66.301346 
C 140.477082 66.085297 140.184016 65.963905 139.878477 65.963905 
C 139.572937 65.963905 139.279871 66.085297 139.063822 66.301346 
C 138.847774 66.517395 138.726382 66.810461 138.726382 67.116 
C 138.726382 67.421539 138.847774 67.714605 139.063822 67.930654 
C 139.279871 68.146703 139.572937 68.268095 139.878477 68.268095 
z
" style="fill:#e69f00;stroke:#e69f00;stroke-width:0.886227;"/>
    <path clip-path="url(#ped4a103fdd)" d="M 136.08975 290.028095 
C 136.395289 290.028095 136.688355 289.906703 136.904404 289.690654 
C 137.120453 289.474605 137.241845 289.181539 137.241845 288.876 
C 137.241845 288.570461 137.120453 288.277395 136.904404 288.061346 
C 136.688355 287.845297 136.395289 287.723905 136.08975 287.723905 
C 135.784211 287.723905 135.491144 287.845297 135.275096 288.061346 
C 135.059047 288.277395 134.937655 288.570461 134.937655 288.876 
C 134.937655 289.181539 135.059047 289.474605 135.275096 289.690654 
C 135.491144 289.906703 135.784211 290.028095 136.08975 290.028095 
z
" style="fill:#e69f00;stroke:#e69f00;stroke-width:0.886227;"/>
    <path clip-path="url(#ped4a103fdd)" d="M 138.605532 105.228095 
C 138.911071 105.228095 139.204137 105.106703 139.420186 104.890654 
C 139.636235 104.674605 139.757627 104.381539 139.757627 104.076 
C 139.757627 103.770461 139.636235 103.477395 139.420186 103.261346 
C 139.204137 103.045297 138.911071 102.923905 138.605532 102.923905 
C 138.299993 102.923905 138.006927 103.045297 137.790878 103.261346 
C 137.574829 103.477395 137.453437 103.770461 137.453437 104.076 
C 137.453437 104.381539 137.574829 104.674605 137.790878 104.890654 
C 138.006927 105.106703 138.299993 105.228095 138.605532 105.228095 
z
" style="fill:#e69f00;stroke:#e69f00;stroke-width:0.886227;"/>
    <path clip-path="url(#ped4a103fdd)" d="M 91.099776 253.068095 
C 91.405315 253.068095 91.698382 252.946703 91.91443 252.730654 
C 92.130479 252.514605 92.251871 252.221539 92.251871 251.916 
C 92.251871 251.610461 92.130479 251.317395 91.91443 251.101346 
C 91.698382 250.885297 91.405315 250.763905 91.099776 250.763905 
C 90.794237 250.763905 90.501171 250.885297 90.285122 251.101346 
C 90.069073 251.317395 89.947681 251.610461 89.947681 251.916 
C 89.947681 252.221539 90.069073 252.514605 90.285122 252.730654 
C 90.501171 252.946703 90.794237 253.068095 91.099776 253.068095 
z
" style="fill:#e69f00;stroke:#e69f00;stroke-width:0.886227;"/>
    <path clip-path="url(#ped4a103fdd)" d="M 118.045453 216.108095 
C 118.350992 216.108095 118.644059 215.986703 118.860107 215.770654 
C 119.076156 215.554605 119.197548 215.261539 119.197548 214.956 
C 119.197548 214.650461 119.076156 214.357395 118.860107 214.141346 
C 118.644059 213.925297 118.350992 213.803905 118.045453 213.803905 
C 117.739914 213.803905 117.446848 213.925297 117.230799 214.141346 
C 117.01475 214.357395 116.893358 214.650461 116.893358 214.956 
C 116.893358 215.261539 117.01475 215.554605 117.230799 215.770654 
C 117.446848 215.986703 117.739914 216.108095 118.045453 216.108095 
z
" style="fill:#e69f00;stroke:#e69f00;stroke-width:0.886227;"/>
   </g>
   <g id="LineCollection_1">
    <path clip-path="url(#ped4a103fdd)" d="M 160.952259 292.572 
L 160.952259 285.18 
" style="fill:none;stroke:#000000;stroke-width:0.886227;"/>
    <path clip-path="url(#ped4a103fdd)" d="M 163.536523 292.572 
L 163.536523 285.18 
" style="fill:none;stroke:#000000;stroke-width:0.886227;"/>
    <path clip-path="url(#ped4a103fdd)" d="M 160.952259 288.876 
L 163.536523 288.876 
" style="fill:none;stroke:#000000;stroke-width:0.886227;"/>
   </g>
   <g id="LineCollection_2">
    <path clip-path="url(#ped4a103fdd)" d="M 134.313185 292.572 
L 134.313185 285.18 
" style="fill:none;stroke:#e69f00;stroke-width:0.886227;"/>
    <path clip-path="url(#ped4a103fdd)" d="M 137.866315 292.572 
L 137.866315 285.18 
" style="fill:none;stroke:#e69f00;stroke-width:0.886227;"/>
    <path clip-path="url(#ped4a103fdd)" d="M 134.313185 288.876 
L 137.866315 288.876 
" style="fill:none;stroke:#e69f00;stroke-width:0.886227;"/>
   </g>
   <g id="LineCollection_3">
    <path clip-path="url(#ped4a103fdd)" d="M 130.963688 255.612 
L 130.963688 248.22 
" style="fill:none;stroke:#000000;stroke-width:0.886227;"/>
    <path clip-path="url(#ped4a103fdd)" d="M 133.365222 255.612 
L 133.365222 248.22 
" style="fill:none;stroke:#000000;stroke-width:0.886227;"/>
    <path clip-path="url(#ped4a103fdd)" d="M 130.963688 251.916 
L 133.365222 251.916 
" style="fill:none;stroke:#000000;stroke-width:0.886227;"/>
   </g>
   <g id="LineCollection_4">
    <path clip-path="url(#ped4a103fdd)" d="M 89.990502 255.612 
L 89.990502 248.22 
" style="fill:none;stroke:#e69f00;stroke-width:0.886227;"/>
    <path clip-path="url(#ped4a103fdd)" d="M 92.20905 255.612 
L 92.20905 248.22 
" style="fill:none;stroke:#e69f00;stroke-width:0.886227;"/>
    <path clip-path="url(#ped4a103fdd)" d="M 89.990502 251.916 
L 92.20905 251.916 
" style="fill:none;stroke:#e69f00;stroke-width:0.886227;"/>
   </g>
   <g id="LineCollection_5">
    <path clip-path="url(#ped4a103fdd)" d="M 154.36779 218.652 
L 154.36779 211.26 
" style="fill:none;stroke:#000000;stroke-width:0.886227;"/>
    <path clip-path="url(#ped4a103fdd)" d="M 155.891377 218.652 
L 155.891377 211.26 
" style="fill:none;stroke:#000000;stroke-width:0.886227;"/>
    <path clip-path="url(#ped4a103fdd)" d="M 154.36779 214.956 
L 155.891377 214.956 
" style="fill:none;stroke:#000000;stroke-width:0.886227;"/>
   </g>
   <g id="LineCollection_6">
    <path clip-path="url(#ped4a103fdd)" d="M 116.35462 218.652 
L 116.35462 211.26 
" style="fill:none;stroke:#e69f00;stroke-width:0.886227;"/>
    <path clip-path="url(#ped4a103fdd)" d="M 119.736286 218.652 
L 119.736286 211.26 
" style="fill:none;stroke:#e69f00;stroke-width:0.886227;"/>
    <path clip-path="url(#ped4a103fdd)" d="M 116.35462 214.956 
L 119.736286 214.956 
" style="fill:none;stroke:#e69f00;stroke-width:0.886227;"/>
   </g>
   <g id="LineCollection_7">
    <path clip-path="url(#ped4a103fdd)" d="M 168.772755 181.692 
L 168.772755 174.3 
" style="fill:none;stroke:#000000;stroke-width:0.886227;"/>
    <path clip-path="url(#ped4a103fdd)" d="M 170.049049 181.692 
L 170.049049 174.3 
" style="fill:none;stroke:#000000;stroke-width:0.886227;"/>
    <path clip-path="url(#ped4a103fdd)" d="M 168.772755 177.996 
L 170.049049 177.996 
" style="fill:none;stroke:#000000;stroke-width:0.886227;"/>
   </g>
   <g id="LineCollection_8">
    <path clip-path="url(#ped4a103fdd)" d="M 138.60352 181.692 
L 138.60352 174.3 
" style="fill:none;stroke:#e69f00;stroke-width:0.886227;"/>
    <path clip-path="url(#ped4a103fdd)" d="M 141.696337 181.692 
L 141.696337 174.3 
" style="fill:none;stroke:#e69f00;stroke-width:0.886227;"/>
    <path clip-path="url(#ped4a103fdd)" d="M 138.60352 177.996 
L 141.696337 177.996 
" style="fill:none;stroke:#e69f00;stroke-width:0.886227;"/>
   </g>
   <g id="LineCollection_9">
    <path clip-path="url(#ped4a103fdd)" d="M 152.240346 144.732 
L 152.240346 137.34 
" style="fill:none;stroke:#000000;stroke-width:0.886227;"/>
    <path clip-path="url(#ped4a103fdd)" d="M 153.554709 144.732 
L 153.554709 137.34 
" style="fill:none;stroke:#000000;stroke-width:0.886227;"/>
    <path clip-path="url(#ped4a103fdd)" d="M 152.240346 141.036 
L 153.554709 141.036 
" style="fill:none;stroke:#000000;stroke-width:0.886227;"/>
   </g>
   <g id="LineCollection_10">
    <path clip-path="url(#ped4a103fdd)" d="M 115.212276 144.732 
L 115.212276 137.34 
" style="fill:none;stroke:#e69f00;stroke-width:0.886227;"/>
    <path clip-path="url(#ped4a103fdd)" d="M 117.98293 144.732 
L 117.98293 137.34 
" style="fill:none;stroke:#e69f00;stroke-width:0.886227;"/>
    <path clip-path="url(#ped4a103fdd)" d="M 115.212276 141.036 
L 117.98293 141.036 
" style="fill:none;stroke:#e69f00;stroke-width:0.886227;"/>
   </g>
   <g id="LineCollection_11">
    <path clip-path="url(#ped4a103fdd)" d="M 166.372937 107.772 
L 166.372937 100.38 
" style="fill:none;stroke:#000000;stroke-width:0.886227;"/>
    <path clip-path="url(#ped4a103fdd)" d="M 167.33215 107.772 
L 167.33215 100.38 
" style="fill:none;stroke:#000000;stroke-width:0.886227;"/>
    <path clip-path="url(#ped4a103fdd)" d="M 166.372937 104.076 
L 167.33215 104.076 
" style="fill:none;stroke:#000000;stroke-width:0.886227;"/>
   </g>
   <g id="LineCollection_12">
    <path clip-path="url(#ped4a103fdd)" d="M 137.278565 107.772 
L 137.278565 100.38 
" style="fill:none;stroke:#e69f00;stroke-width:0.886227;"/>
    <path clip-path="url(#ped4a103fdd)" d="M 139.932499 107.772 
L 139.932499 100.38 
" style="fill:none;stroke:#e69f00;stroke-width:0.886227;"/>
    <path clip-path="url(#ped4a103fdd)" d="M 137.278565 104.076 
L 139.932499 104.076 
" style="fill:none;stroke:#e69f00;stroke-width:0.886227;"/>
   </g>
   <g id="LineCollection_13">
    <path clip-path="url(#ped4a103fdd)" d="M 167.123281 70.812 
L 167.123281 63.42 
" style="fill:none;stroke:#000000;stroke-width:0.886227;"/>
    <path clip-path="url(#ped4a103fdd)" d="M 168.261819 70.812 
L 168.261819 63.42 
" style="fill:none;stroke:#000000;stroke-width:0.886227;"/>
    <path clip-path="url(#ped4a103fdd)" d="M 167.123281 67.116 
L 168.261819 67.116 
" style="fill:none;stroke:#000000;stroke-width:0.886227;"/>
   </g>
   <g id="LineCollection_14">
    <path clip-path="url(#ped4a103fdd)" d="M 138.491516 70.812 
L 138.491516 63.42 
" style="fill:none;stroke:#e69f00;stroke-width:0.886227;"/>
    <path clip-path="url(#ped4a103fdd)" d="M 141.265438 70.812 
L 141.265438 63.42 
" style="fill:none;stroke:#e69f00;stroke-width:0.886227;"/>
    <path clip-path="url(#ped4a103fdd)" d="M 138.491516 67.116 
L 141.265438 67.116 
" style="fill:none;stroke:#e69f00;stroke-width:0.886227;"/>
   </g>
   <g id="patch_3">
    <path d="M 72.073188 44.94 
L 187.753187 44.94 
L 187.753187 30.64 
L 72.073188 30.64 
z
" style="fill:#d9d9d9;"/>
   </g>
   <g id="LineCollection_15">
    <path clip-path="url(#ped4a103fdd)" d="M 115.343442 311.052 
L 115.343442 44.94 
" style="fill:none;stroke:#d55e00;stroke-dasharray:3.27904,1.417963;stroke-dashoffset:0;stroke-width:0.886227;"/>
   </g>
   <g id="text_11">
    <!-- EggNog -->
    <defs>
     <path d="M 9.8125 72.90625 
L 55.90625 72.90625 
L 55.90625 64.59375 
L 19.671875 64.59375 
L 19.671875 43.015625 
L 54.390625 43.015625 
L 54.390625 34.71875 
L 19.671875 34.71875 
L 19.671875 8.296875 
L 56.78125 8.296875 
L 56.78125 0 
L 9.8125 0 
z
" id="DejaVuSans-69"/>
     <path d="M 9.8125 72.90625 
L 23.09375 72.90625 
L 55.421875 11.921875 
L 55.421875 72.90625 
L 64.984375 72.90625 
L 64.984375 0 
L 51.703125 0 
L 19.390625 60.984375 
L 19.390625 0 
L 9.8125 0 
z
" id="DejaVuSans-78"/>
    </defs>
    <g style="fill:#1a1a1a;" transform="translate(112.769 40.21825)scale(0.088 -0.088)">
     <use xlink:href="#DejaVuSans-69"/>
     <use x="63.183594" xlink:href="#DejaVuSans-103"/>
     <use x="126.660156" xlink:href="#DejaVuSans-103"/>
     <use x="190.136719" xlink:href="#DejaVuSans-78"/>
     <use x="264.941406" xlink:href="#DejaVuSans-111"/>
     <use x="326.123047" xlink:href="#DejaVuSans-103"/>
    </g>
   </g>
   <g id="LineCollection_16">
    <path clip-path="url(#ped4a103fdd)" d="M 156.979432 311.052 
L 156.979432 44.94 
" style="fill:none;stroke:#0072b2;stroke-dasharray:3.27904,1.417963;stroke-dashoffset:0;stroke-width:0.886227;"/>
   </g>
   <g id="patch_4">
    <path d="M 185.9985 23.44 
L 303.747875 23.44 
L 303.747875 7.2 
L 185.9985 7.2 
z
" style="fill:#ffffff;"/>
   </g>
   <g id="patch_5">
    <path clip-path="url(#p3074d73e38)" d="M 186.1985 23.24 
L 202.0385 23.24 
L 202.0385 7.4 
L 186.1985 7.4 
z
" style="fill:#f2f2f2;"/>
   </g>
   <g id="line2d_20">
    <path clip-path="url(#p3074d73e38)" d="M 194.1185 15.32 
" style="fill:none;stroke:#0173b2;stroke-linecap:square;stroke-width:1.2;"/>
    <defs>
     <path d="M 0 1.152095 
C 0.305539 1.152095 0.598605 1.030703 0.814654 0.814654 
C 1.030703 0.598605 1.152095 0.305539 1.152095 0 
C 1.152095 -0.305539 1.030703 -0.598605 0.814654 -0.814654 
C 0.598605 -1.030703 0.305539 -1.152095 0 -1.152095 
C -0.305539 -1.152095 -0.598605 -1.030703 -0.814654 -0.814654 
C -1.030703 -0.598605 -1.152095 -0.305539 -1.152095 0 
C -1.152095 0.305539 -1.030703 0.598605 -0.814654 0.814654 
C -0.598605 1.030703 -0.305539 1.152095 0 1.152095 
z
" id="mff38903521" style="stroke:#000000;stroke-width:0.886227;"/>
    </defs>
    <g clip-path="url(#p3074d73e38)">
     <use style="stroke:#000000;stroke-width:0.886227;" x="194.1185" xlink:href="#mff38903521" y="15.32"/>
    </g>
   </g>
   <g id="line2d_21">
    <path clip-path="url(#p3074d73e38)" d="M 186.1985 15.32 
L 202.0385 15.32 
" style="fill:none;stroke:#000000;stroke-width:0.886227;"/>
   </g>
   <g id="text_12">
    <!-- CV-test -->
    <defs>
     <path d="M 64.40625 67.28125 
L 64.40625 56.890625 
Q 59.421875 61.53125 53.78125 63.8125 
Q 48.140625 66.109375 41.796875 66.109375 
Q 29.296875 66.109375 22.65625 58.46875 
Q 16.015625 50.828125 16.015625 36.375 
Q 16.015625 21.96875 22.65625 14.328125 
Q 29.296875 6.6875 41.796875 6.6875 
Q 48.140625 6.6875 53.78125 8.984375 
Q 59.421875 11.28125 64.40625 15.921875 
L 64.40625 5.609375 
Q 59.234375 2.09375 53.4375 0.328125 
Q 47.65625 -1.421875 41.21875 -1.421875 
Q 24.65625 -1.421875 15.125 8.703125 
Q 5.609375 18.84375 5.609375 36.375 
Q 5.609375 53.953125 15.125 64.078125 
Q 24.65625 74.21875 41.21875 74.21875 
Q 47.75 74.21875 53.53125 72.484375 
Q 59.328125 70.75 64.40625 67.28125 
z
" id="DejaVuSans-67"/>
     <path d="M 4.890625 31.390625 
L 31.203125 31.390625 
L 31.203125 23.390625 
L 4.890625 23.390625 
z
" id="DejaVuSans-45"/>
    </defs>
    <g transform="translate(205.0385 17.74825)scale(0.088 -0.088)">
     <use xlink:href="#DejaVuSans-67"/>
     <use x="69.824219" xlink:href="#DejaVuSans-86"/>
     <use x="132.357422" xlink:href="#DejaVuSans-45"/>
     <use x="168.441406" xlink:href="#DejaVuSans-116"/>
     <use x="207.650391" xlink:href="#DejaVuSans-101"/>
     <use x="269.173828" xlink:href="#DejaVuSans-115"/>
     <use x="321.273438" xlink:href="#DejaVuSans-116"/>
    </g>
   </g>
   <g id="patch_6">
    <path clip-path="url(#pbb0b100b53)" d="M 241.75975 23.24 
L 257.59975 23.24 
L 257.59975 7.4 
L 241.75975 7.4 
z
" style="fill:#f2f2f2;"/>
   </g>
   <g id="line2d_22">
    <path clip-path="url(#pbb0b100b53)" d="M 249.67975 15.32 
" style="fill:none;stroke:#0173b2;stroke-linecap:square;stroke-width:1.2;"/>
    <defs>
     <path d="M 0 1.152095 
C 0.305539 1.152095 0.598605 1.030703 0.814654 0.814654 
C 1.030703 0.598605 1.152095 0.305539 1.152095 0 
C 1.152095 -0.305539 1.030703 -0.598605 0.814654 -0.814654 
C 0.598605 -1.030703 0.305539 -1.152095 0 -1.152095 
C -0.305539 -1.152095 -0.598605 -1.030703 -0.814654 -0.814654 
C -1.030703 -0.598605 -1.152095 -0.305539 -1.152095 0 
C -1.152095 0.305539 -1.030703 0.598605 -0.814654 0.814654 
C -0.598605 1.030703 -0.305539 1.152095 0 1.152095 
z
" id="m524d4494e0" style="stroke:#e69f00;stroke-width:0.886227;"/>
    </defs>
    <g clip-path="url(#pbb0b100b53)">
     <use style="fill:#e69f00;stroke:#e69f00;stroke-width:0.886227;" x="249.67975" xlink:href="#m524d4494e0" y="15.32"/>
    </g>
   </g>
   <g id="line2d_23">
    <path clip-path="url(#pbb0b100b53)" d="M 241.75975 15.32 
L 257.59975 15.32 
" style="fill:none;stroke:#e69f00;stroke-width:0.886227;"/>
   </g>
   <g id="text_13">
    <!-- RSSS-test -->
    <defs>
     <path d="M 44.390625 34.1875 
Q 47.5625 33.109375 50.5625 29.59375 
Q 53.5625 26.078125 56.59375 19.921875 
L 66.609375 0 
L 56 0 
L 46.6875 18.703125 
Q 43.0625 26.03125 39.671875 28.421875 
Q 36.28125 30.8125 30.421875 30.8125 
L 19.671875 30.8125 
L 19.671875 0 
L 9.8125 0 
L 9.8125 72.90625 
L 32.078125 72.90625 
Q 44.578125 72.90625 50.734375 67.671875 
Q 56.890625 62.453125 56.890625 51.90625 
Q 56.890625 45.015625 53.6875 40.46875 
Q 50.484375 35.9375 44.390625 34.1875 
z
M 19.671875 64.796875 
L 19.671875 38.921875 
L 32.078125 38.921875 
Q 39.203125 38.921875 42.84375 42.21875 
Q 46.484375 45.515625 46.484375 51.90625 
Q 46.484375 58.296875 42.84375 61.546875 
Q 39.203125 64.796875 32.078125 64.796875 
z
" id="DejaVuSans-82"/>
     <path d="M 53.515625 70.515625 
L 53.515625 60.890625 
Q 47.90625 63.578125 42.921875 64.890625 
Q 37.9375 66.21875 33.296875 66.21875 
Q 25.25 66.21875 20.875 63.09375 
Q 16.5 59.96875 16.5 54.203125 
Q 16.5 49.359375 19.40625 46.890625 
Q 22.3125 44.4375 30.421875 42.921875 
L 36.375 41.703125 
Q 47.40625 39.59375 52.65625 34.296875 
Q 57.90625 29 57.90625 20.125 
Q 57.90625 9.515625 50.796875 4.046875 
Q 43.703125 -1.421875 29.984375 -1.421875 
Q 24.8125 -1.421875 18.96875 -0.25 
Q 13.140625 0.921875 6.890625 3.21875 
L 6.890625 13.375 
Q 12.890625 10.015625 18.65625 8.296875 
Q 24.421875 6.59375 29.984375 6.59375 
Q 38.421875 6.59375 43.015625 9.90625 
Q 47.609375 13.234375 47.609375 19.390625 
Q 47.609375 24.75 44.3125 27.78125 
Q 41.015625 30.8125 33.5 32.328125 
L 27.484375 33.5 
Q 16.453125 35.6875 11.515625 40.375 
Q 6.59375 45.0625 6.59375 53.421875 
Q 6.59375 63.09375 13.40625 68.65625 
Q 20.21875 74.21875 32.171875 74.21875 
Q 37.3125 74.21875 42.625 73.28125 
Q 47.953125 72.359375 53.515625 70.515625 
z
" id="DejaVuSans-83"/>
    </defs>
    <g transform="translate(260.59975 17.74825)scale(0.088 -0.088)">
     <use xlink:href="#DejaVuSans-82"/>
     <use x="69.482422" xlink:href="#DejaVuSans-83"/>
     <use x="132.958984" xlink:href="#DejaVuSans-83"/>
     <use x="196.435547" xlink:href="#DejaVuSans-83"/>
     <use x="259.912109" xlink:href="#DejaVuSans-45"/>
     <use x="295.996094" xlink:href="#DejaVuSans-116"/>
     <use x="335.205078" xlink:href="#DejaVuSans-101"/>
     <use x="396.728516" xlink:href="#DejaVuSans-115"/>
     <use x="448.828125" xlink:href="#DejaVuSans-116"/>
    </g>
   </g>
  </g>
  <g id="axes_2">
   <g id="patch_7">
    <path d="M 192.793187 311.052 
L 308.473187 311.052 
L 308.473187 44.94 
L 192.793187 44.94 
z
" style="fill:#ebebeb;"/>
   </g>
   <g id="matplotlib.axis_3">
    <g id="xtick_4">
     <g id="line2d_24">
      <path clip-path="url(#pfa868d21c2)" d="M 236.063442 311.052 
L 236.063442 44.94 
" style="fill:none;stroke:#ffffff;stroke-linecap:square;"/>
     </g>
     <g id="line2d_25">
      <path d="M 236.063442 311.052 
" style="fill:none;stroke:#333333;stroke-linecap:square;stroke-width:1.2;"/>
      <g>
       <use style="fill:#333333;stroke:#333333;" x="236.063442" xlink:href="#mc2203b2654" y="311.052"/>
      </g>
     </g>
     <g id="text_14">
      <!-- 0.4 -->
      <g style="fill:#4d4d4d;" transform="translate(230.556874 330.534002)rotate(-30)scale(0.1 -0.1)">
       <use xlink:href="#DejaVuSans-48"/>
       <use x="63.623047" xlink:href="#DejaVuSans-46"/>
       <use x="95.410156" xlink:href="#DejaVuSans-52"/>
      </g>
     </g>
    </g>
    <g id="xtick_5">
     <g id="line2d_26">
      <path clip-path="url(#pfa868d21c2)" d="M 277.699432 311.052 
L 277.699432 44.94 
" style="fill:none;stroke:#ffffff;stroke-linecap:square;"/>
     </g>
     <g id="line2d_27">
      <path d="M 277.699432 311.052 
" style="fill:none;stroke:#333333;stroke-linecap:square;stroke-width:1.2;"/>
      <g>
       <use style="fill:#333333;stroke:#333333;" x="277.699432" xlink:href="#mc2203b2654" y="311.052"/>
      </g>
     </g>
     <g id="text_15">
      <!-- 0.7 -->
      <g style="fill:#4d4d4d;" transform="translate(272.192864 330.534002)rotate(-30)scale(0.1 -0.1)">
       <use xlink:href="#DejaVuSans-48"/>
       <use x="63.623047" xlink:href="#DejaVuSans-46"/>
       <use x="95.410156" xlink:href="#DejaVuSans-55"/>
      </g>
     </g>
    </g>
    <g id="xtick_6">
     <g id="line2d_28">
      <path clip-path="url(#pfa868d21c2)" d="M 256.881437 311.052 
L 256.881437 44.94 
" style="fill:none;stroke:#ffffff;stroke-linecap:square;stroke-width:0.5;"/>
     </g>
    </g>
   </g>
   <g id="matplotlib.axis_4">
    <g id="ytick_8">
     <g id="line2d_29">
      <path clip-path="url(#pfa868d21c2)" d="M 192.793187 288.876 
L 308.473187 288.876 
" style="fill:none;stroke:#ffffff;stroke-linecap:square;"/>
     </g>
    </g>
    <g id="ytick_9">
     <g id="line2d_30">
      <path clip-path="url(#pfa868d21c2)" d="M 192.793187 251.916 
L 308.473187 251.916 
" style="fill:none;stroke:#ffffff;stroke-linecap:square;"/>
     </g>
    </g>
    <g id="ytick_10">
     <g id="line2d_31">
      <path clip-path="url(#pfa868d21c2)" d="M 192.793187 214.956 
L 308.473187 214.956 
" style="fill:none;stroke:#ffffff;stroke-linecap:square;"/>
     </g>
    </g>
    <g id="ytick_11">
     <g id="line2d_32">
      <path clip-path="url(#pfa868d21c2)" d="M 192.793187 177.996 
L 308.473187 177.996 
" style="fill:none;stroke:#ffffff;stroke-linecap:square;"/>
     </g>
    </g>
    <g id="ytick_12">
     <g id="line2d_33">
      <path clip-path="url(#pfa868d21c2)" d="M 192.793187 141.036 
L 308.473187 141.036 
" style="fill:none;stroke:#ffffff;stroke-linecap:square;"/>
     </g>
    </g>
    <g id="ytick_13">
     <g id="line2d_34">
      <path clip-path="url(#pfa868d21c2)" d="M 192.793187 104.076 
L 308.473187 104.076 
" style="fill:none;stroke:#ffffff;stroke-linecap:square;"/>
     </g>
    </g>
    <g id="ytick_14">
     <g id="line2d_35">
      <path clip-path="url(#pfa868d21c2)" d="M 192.793187 67.116 
L 308.473187 67.116 
" style="fill:none;stroke:#ffffff;stroke-linecap:square;"/>
     </g>
    </g>
   </g>
   <g id="PathCollection_2">
    <path clip-path="url(#pfa868d21c2)" d="M 265.465754 142.188095 
C 265.771293 142.188095 266.06436 142.066703 266.280408 141.850654 
C 266.496457 141.634605 266.617849 141.341539 266.617849 141.036 
C 266.617849 140.730461 266.496457 140.437395 266.280408 140.221346 
C 266.06436 140.005297 265.771293 139.883905 265.465754 139.883905 
C 265.160215 139.883905 264.867149 140.005297 264.6511 140.221346 
C 264.435051 140.437395 264.313659 140.730461 264.313659 141.036 
C 264.313659 141.341539 264.435051 141.634605 264.6511 141.850654 
C 264.867149 142.066703 265.160215 142.188095 265.465754 142.188095 
z
" style="stroke:#000000;stroke-width:0.886227;"/>
    <path clip-path="url(#pfa868d21c2)" d="M 301.742114 179.148095 
C 302.047653 179.148095 302.340719 179.026703 302.556768 178.810654 
C 302.772817 178.594605 302.894209 178.301539 302.894209 177.996 
C 302.894209 177.690461 302.772817 177.397395 302.556768 177.181346 
C 302.340719 176.965297 302.047653 176.843905 301.742114 176.843905 
C 301.436575 176.843905 301.143508 176.965297 300.92746 177.181346 
C 300.711411 177.397395 300.590019 177.690461 300.590019 177.996 
C 300.590019 178.301539 300.711411 178.594605 300.92746 178.810654 
C 301.143508 179.026703 301.436575 179.148095 301.742114 179.148095 
z
" style="stroke:#000000;stroke-width:0.886227;"/>
    <path clip-path="url(#pfa868d21c2)" d="M 288.933372 68.268095 
C 289.238911 68.268095 289.531978 68.146703 289.748026 67.930654 
C 289.964075 67.714605 290.085467 67.421539 290.085467 67.116 
C 290.085467 66.810461 289.964075 66.517395 289.748026 66.301346 
C 289.531978 66.085297 289.238911 65.963905 288.933372 65.963905 
C 288.627833 65.963905 288.334767 66.085297 288.118718 66.301346 
C 287.902669 66.517395 287.781277 66.810461 287.781277 67.116 
C 287.781277 67.421539 287.902669 67.714605 288.118718 67.930654 
C 288.334767 68.146703 288.627833 68.268095 288.933372 68.268095 
z
" style="stroke:#000000;stroke-width:0.886227;"/>
    <path clip-path="url(#pfa868d21c2)" d="M 279.376316 290.028095 
C 279.681855 290.028095 279.974921 289.906703 280.19097 289.690654 
C 280.407019 289.474605 280.528411 289.181539 280.528411 288.876 
C 280.528411 288.570461 280.407019 288.277395 280.19097 288.061346 
C 279.974921 287.845297 279.681855 287.723905 279.376316 287.723905 
C 279.070777 287.723905 278.777711 287.845297 278.561662 288.061346 
C 278.345613 288.277395 278.224221 288.570461 278.224221 288.876 
C 278.224221 289.181539 278.345613 289.474605 278.561662 289.690654 
C 278.777711 289.906703 279.070777 290.028095 279.376316 290.028095 
z
" style="stroke:#000000;stroke-width:0.886227;"/>
    <path clip-path="url(#pfa868d21c2)" d="M 302.764059 105.228095 
C 303.069598 105.228095 303.362664 105.106703 303.578713 104.890654 
C 303.794762 104.674605 303.916154 104.381539 303.916154 104.076 
C 303.916154 103.770461 303.794762 103.477395 303.578713 103.261346 
C 303.362664 103.045297 303.069598 102.923905 302.764059 102.923905 
C 302.45852 102.923905 302.165453 103.045297 301.949405 103.261346 
C 301.733356 103.477395 301.611964 103.770461 301.611964 104.076 
C 301.611964 104.381539 301.733356 104.674605 301.949405 104.890654 
C 302.165453 105.106703 302.45852 105.228095 302.764059 105.228095 
z
" style="stroke:#000000;stroke-width:0.886227;"/>
    <path clip-path="url(#pfa868d21c2)" d="M 231.870805 253.068095 
C 232.176344 253.068095 232.46941 252.946703 232.685459 252.730654 
C 232.901508 252.514605 233.0229 252.221539 233.0229 251.916 
C 233.0229 251.610461 232.901508 251.317395 232.685459 251.101346 
C 232.46941 250.885297 232.176344 250.763905 231.870805 250.763905 
C 231.565266 250.763905 231.272199 250.885297 231.056151 251.101346 
C 230.840102 251.317395 230.71871 251.610461 230.71871 251.916 
C 230.71871 252.221539 230.840102 252.514605 231.056151 252.730654 
C 231.272199 252.946703 231.565266 253.068095 231.870805 253.068095 
z
" style="stroke:#000000;stroke-width:0.886227;"/>
    <path clip-path="url(#pfa868d21c2)" d="M 279.104814 216.108095 
C 279.410353 216.108095 279.703419 215.986703 279.919468 215.770654 
C 280.135517 215.554605 280.256909 215.261539 280.256909 214.956 
C 280.256909 214.650461 280.135517 214.357395 279.919468 214.141346 
C 279.703419 213.925297 279.410353 213.803905 279.104814 213.803905 
C 278.799275 213.803905 278.506209 213.925297 278.29016 214.141346 
C 278.074111 214.357395 277.952719 214.650461 277.952719 214.956 
C 277.952719 215.261539 278.074111 215.554605 278.29016 215.770654 
C 278.506209 215.986703 278.799275 216.108095 279.104814 216.108095 
z
" style="stroke:#000000;stroke-width:0.886227;"/>
    <path clip-path="url(#pfa868d21c2)" d="M 230.971908 142.188095 
C 231.277447 142.188095 231.570513 142.066703 231.786562 141.850654 
C 232.002611 141.634605 232.124003 141.341539 232.124003 141.036 
C 232.124003 140.730461 232.002611 140.437395 231.786562 140.221346 
C 231.570513 140.005297 231.277447 139.883905 230.971908 139.883905 
C 230.666369 139.883905 230.373302 140.005297 230.157254 140.221346 
C 229.941205 140.437395 229.819813 140.730461 229.819813 141.036 
C 229.819813 141.341539 229.941205 141.634605 230.157254 141.850654 
C 230.373302 142.066703 230.666369 142.188095 230.971908 142.188095 
z
" style="fill:#e69f00;stroke:#e69f00;stroke-width:0.886227;"/>
    <path clip-path="url(#pfa868d21c2)" d="M 276.751561 179.148095 
C 277.0571 179.148095 277.350166 179.026703 277.566215 178.810654 
C 277.782264 178.594605 277.903656 178.301539 277.903656 177.996 
C 277.903656 177.690461 277.782264 177.397395 277.566215 177.181346 
C 277.350166 176.965297 277.0571 176.843905 276.751561 176.843905 
C 276.446022 176.843905 276.152955 176.965297 275.936906 177.181346 
C 275.720858 177.397395 275.599466 177.690461 275.599466 177.996 
C 275.599466 178.301539 275.720858 178.594605 275.936906 178.810654 
C 276.152955 179.026703 276.446022 179.148095 276.751561 179.148095 
z
" style="fill:#e69f00;stroke:#e69f00;stroke-width:0.886227;"/>
    <path clip-path="url(#pfa868d21c2)" d="M 261.404268 68.268095 
C 261.709807 68.268095 262.002873 68.146703 262.218922 67.930654 
C 262.434971 67.714605 262.556363 67.421539 262.556363 67.116 
C 262.556363 66.810461 262.434971 66.517395 262.218922 66.301346 
C 262.002873 66.085297 261.709807 65.963905 261.404268 65.963905 
C 261.098729 65.963905 260.805663 66.085297 260.589614 66.301346 
C 260.373565 66.517395 260.252173 66.810461 260.252173 67.116 
C 260.252173 67.421539 260.373565 67.714605 260.589614 67.930654 
C 260.805663 68.146703 261.098729 68.268095 261.404268 68.268095 
z
" style="fill:#e69f00;stroke:#e69f00;stroke-width:0.886227;"/>
    <path clip-path="url(#pfa868d21c2)" d="M 248.661677 290.028095 
C 248.967216 290.028095 249.260282 289.906703 249.476331 289.690654 
C 249.69238 289.474605 249.813772 289.181539 249.813772 288.876 
C 249.813772 288.570461 249.69238 288.277395 249.476331 288.061346 
C 249.260282 287.845297 248.967216 287.723905 248.661677 287.723905 
C 248.356138 287.723905 248.063072 287.845297 247.847023 288.061346 
C 247.630974 288.277395 247.509582 288.570461 247.509582 288.876 
C 247.509582 289.181539 247.630974 289.474605 247.847023 289.690654 
C 248.063072 289.906703 248.356138 290.028095 248.661677 290.028095 
z
" style="fill:#e69f00;stroke:#e69f00;stroke-width:0.886227;"/>
    <path clip-path="url(#pfa868d21c2)" d="M 287.621803 105.228095 
C 287.927342 105.228095 288.220408 105.106703 288.436457 104.890654 
C 288.652506 104.674605 288.773898 104.381539 288.773898 104.076 
C 288.773898 103.770461 288.652506 103.477395 288.436457 103.261346 
C 288.220408 103.045297 287.927342 102.923905 287.621803 102.923905 
C 287.316264 102.923905 287.023198 103.045297 286.807149 103.261346 
C 286.5911 103.477395 286.469708 103.770461 286.469708 104.076 
C 286.469708 104.381539 286.5911 104.674605 286.807149 104.890654 
C 287.023198 105.106703 287.316264 105.228095 287.621803 105.228095 
z
" style="fill:#e69f00;stroke:#e69f00;stroke-width:0.886227;"/>
    <path clip-path="url(#pfa868d21c2)" d="M 199.143163 253.068095 
C 199.448702 253.068095 199.741768 252.946703 199.957817 252.730654 
C 200.173866 252.514605 200.295258 252.221539 200.295258 251.916 
C 200.295258 251.610461 200.173866 251.317395 199.957817 251.101346 
C 199.741768 250.885297 199.448702 250.763905 199.143163 250.763905 
C 198.837624 250.763905 198.544558 250.885297 198.328509 251.101346 
C 198.11246 251.317395 197.991068 251.610461 197.991068 251.916 
C 197.991068 252.221539 198.11246 252.514605 198.328509 252.730654 
C 198.544558 252.946703 198.837624 253.068095 199.143163 253.068095 
z
" style="fill:#e69f00;stroke:#e69f00;stroke-width:0.886227;"/>
    <path clip-path="url(#pfa868d21c2)" d="M 244.73009 216.108095 
C 245.035629 216.108095 245.328696 215.986703 245.544744 215.770654 
C 245.760793 215.554605 245.882185 215.261539 245.882185 214.956 
C 245.882185 214.650461 245.760793 214.357395 245.544744 214.141346 
C 245.328696 213.925297 245.035629 213.803905 244.73009 213.803905 
C 244.424551 213.803905 244.131485 213.925297 243.915436 214.141346 
C 243.699387 214.357395 243.577995 214.650461 243.577995 214.956 
C 243.577995 215.261539 243.699387 215.554605 243.915436 215.770654 
C 244.131485 215.986703 244.424551 216.108095 244.73009 216.108095 
z
" style="fill:#e69f00;stroke:#e69f00;stroke-width:0.886227;"/>
   </g>
   <g id="LineCollection_17">
    <path clip-path="url(#pfa868d21c2)" d="M 278.205972 292.572 
L 278.205972 285.18 
" style="fill:none;stroke:#000000;stroke-width:0.886227;"/>
    <path clip-path="url(#pfa868d21c2)" d="M 280.54666 292.572 
L 280.54666 285.18 
" style="fill:none;stroke:#000000;stroke-width:0.886227;"/>
    <path clip-path="url(#pfa868d21c2)" d="M 278.205972 288.876 
L 280.54666 288.876 
" style="fill:none;stroke:#000000;stroke-width:0.886227;"/>
   </g>
   <g id="LineCollection_18">
    <path clip-path="url(#pfa868d21c2)" d="M 246.161591 292.572 
L 246.161591 285.18 
" style="fill:none;stroke:#e69f00;stroke-width:0.886227;"/>
    <path clip-path="url(#pfa868d21c2)" d="M 251.161763 292.572 
L 251.161763 285.18 
" style="fill:none;stroke:#e69f00;stroke-width:0.886227;"/>
    <path clip-path="url(#pfa868d21c2)" d="M 246.161591 288.876 
L 251.161763 288.876 
" style="fill:none;stroke:#e69f00;stroke-width:0.886227;"/>
   </g>
   <g id="LineCollection_19">
    <path clip-path="url(#pfa868d21c2)" d="M 230.159309 255.612 
L 230.159309 248.22 
" style="fill:none;stroke:#000000;stroke-width:0.886227;"/>
    <path clip-path="url(#pfa868d21c2)" d="M 233.5823 255.612 
L 233.5823 248.22 
" style="fill:none;stroke:#000000;stroke-width:0.886227;"/>
    <path clip-path="url(#pfa868d21c2)" d="M 230.159309 251.916 
L 233.5823 251.916 
" style="fill:none;stroke:#000000;stroke-width:0.886227;"/>
   </g>
   <g id="LineCollection_20">
    <path clip-path="url(#pfa868d21c2)" d="M 198.051369 255.612 
L 198.051369 248.22 
" style="fill:none;stroke:#e69f00;stroke-width:0.886227;"/>
    <path clip-path="url(#pfa868d21c2)" d="M 200.234957 255.612 
L 200.234957 248.22 
" style="fill:none;stroke:#e69f00;stroke-width:0.886227;"/>
    <path clip-path="url(#pfa868d21c2)" d="M 198.051369 251.916 
L 200.234957 251.916 
" style="fill:none;stroke:#e69f00;stroke-width:0.886227;"/>
   </g>
   <g id="LineCollection_21">
    <path clip-path="url(#pfa868d21c2)" d="M 278.013826 218.652 
L 278.013826 211.26 
" style="fill:none;stroke:#000000;stroke-width:0.886227;"/>
    <path clip-path="url(#pfa868d21c2)" d="M 280.195802 218.652 
L 280.195802 211.26 
" style="fill:none;stroke:#000000;stroke-width:0.886227;"/>
    <path clip-path="url(#pfa868d21c2)" d="M 278.013826 214.956 
L 280.195802 214.956 
" style="fill:none;stroke:#000000;stroke-width:0.886227;"/>
   </g>
   <g id="LineCollection_22">
    <path clip-path="url(#pfa868d21c2)" d="M 241.218199 218.652 
L 241.218199 211.26 
" style="fill:none;stroke:#e69f00;stroke-width:0.886227;"/>
    <path clip-path="url(#pfa868d21c2)" d="M 248.241982 218.652 
L 248.241982 211.26 
" style="fill:none;stroke:#e69f00;stroke-width:0.886227;"/>
    <path clip-path="url(#pfa868d21c2)" d="M 241.218199 214.956 
L 248.241982 214.956 
" style="fill:none;stroke:#e69f00;stroke-width:0.886227;"/>
   </g>
   <g id="LineCollection_23">
    <path clip-path="url(#pfa868d21c2)" d="M 301.242837 181.692 
L 301.242837 174.3 
" style="fill:none;stroke:#000000;stroke-width:0.886227;"/>
    <path clip-path="url(#pfa868d21c2)" d="M 302.241391 181.692 
L 302.241391 174.3 
" style="fill:none;stroke:#000000;stroke-width:0.886227;"/>
    <path clip-path="url(#pfa868d21c2)" d="M 301.242837 177.996 
L 302.241391 177.996 
" style="fill:none;stroke:#000000;stroke-width:0.886227;"/>
   </g>
   <g id="LineCollection_24">
    <path clip-path="url(#pfa868d21c2)" d="M 273.108505 181.692 
L 273.108505 174.3 
" style="fill:none;stroke:#e69f00;stroke-width:0.886227;"/>
    <path clip-path="url(#pfa868d21c2)" d="M 280.394616 181.692 
L 280.394616 174.3 
" style="fill:none;stroke:#e69f00;stroke-width:0.886227;"/>
    <path clip-path="url(#pfa868d21c2)" d="M 273.108505 177.996 
L 280.394616 177.996 
" style="fill:none;stroke:#e69f00;stroke-width:0.886227;"/>
   </g>
   <g id="LineCollection_25">
    <path clip-path="url(#pfa868d21c2)" d="M 264.448738 144.732 
L 264.448738 137.34 
" style="fill:none;stroke:#000000;stroke-width:0.886227;"/>
    <path clip-path="url(#pfa868d21c2)" d="M 266.482771 144.732 
L 266.482771 137.34 
" style="fill:none;stroke:#000000;stroke-width:0.886227;"/>
    <path clip-path="url(#pfa868d21c2)" d="M 264.448738 141.036 
L 266.482771 141.036 
" style="fill:none;stroke:#000000;stroke-width:0.886227;"/>
   </g>
   <g id="LineCollection_26">
    <path clip-path="url(#pfa868d21c2)" d="M 229.188846 144.732 
L 229.188846 137.34 
" style="fill:none;stroke:#e69f00;stroke-width:0.886227;"/>
    <path clip-path="url(#pfa868d21c2)" d="M 232.75497 144.732 
L 232.75497 137.34 
" style="fill:none;stroke:#e69f00;stroke-width:0.886227;"/>
    <path clip-path="url(#pfa868d21c2)" d="M 229.188846 141.036 
L 232.75497 141.036 
" style="fill:none;stroke:#e69f00;stroke-width:0.886227;"/>
   </g>
   <g id="LineCollection_27">
    <path clip-path="url(#pfa868d21c2)" d="M 302.313112 107.772 
L 302.313112 100.38 
" style="fill:none;stroke:#000000;stroke-width:0.886227;"/>
    <path clip-path="url(#pfa868d21c2)" d="M 303.215006 107.772 
L 303.215006 100.38 
" style="fill:none;stroke:#000000;stroke-width:0.886227;"/>
    <path clip-path="url(#pfa868d21c2)" d="M 302.313112 104.076 
L 303.215006 104.076 
" style="fill:none;stroke:#000000;stroke-width:0.886227;"/>
   </g>
   <g id="LineCollection_28">
    <path clip-path="url(#pfa868d21c2)" d="M 286.124098 107.772 
L 286.124098 100.38 
" style="fill:none;stroke:#e69f00;stroke-width:0.886227;"/>
    <path clip-path="url(#pfa868d21c2)" d="M 289.119508 107.772 
L 289.119508 100.38 
" style="fill:none;stroke:#e69f00;stroke-width:0.886227;"/>
    <path clip-path="url(#pfa868d21c2)" d="M 286.124098 104.076 
L 289.119508 104.076 
" style="fill:none;stroke:#e69f00;stroke-width:0.886227;"/>
   </g>
   <g id="LineCollection_29">
    <path clip-path="url(#pfa868d21c2)" d="M 288.128676 70.812 
L 288.128676 63.42 
" style="fill:none;stroke:#000000;stroke-width:0.886227;"/>
    <path clip-path="url(#pfa868d21c2)" d="M 289.738068 70.812 
L 289.738068 63.42 
" style="fill:none;stroke:#000000;stroke-width:0.886227;"/>
    <path clip-path="url(#pfa868d21c2)" d="M 288.128676 67.116 
L 289.738068 67.116 
" style="fill:none;stroke:#000000;stroke-width:0.886227;"/>
   </g>
   <g id="LineCollection_30">
    <path clip-path="url(#pfa868d21c2)" d="M 259.101845 70.812 
L 259.101845 63.42 
" style="fill:none;stroke:#e69f00;stroke-width:0.886227;"/>
    <path clip-path="url(#pfa868d21c2)" d="M 263.706691 70.812 
L 263.706691 63.42 
" style="fill:none;stroke:#e69f00;stroke-width:0.886227;"/>
    <path clip-path="url(#pfa868d21c2)" d="M 259.101845 67.116 
L 263.706691 67.116 
" style="fill:none;stroke:#e69f00;stroke-width:0.886227;"/>
   </g>
   <g id="patch_8">
    <path d="M 192.793187 44.94 
L 308.473187 44.94 
L 308.473187 30.64 
L 192.793187 30.64 
z
" style="fill:#d9d9d9;"/>
   </g>
   <g id="LineCollection_31">
    <path clip-path="url(#pfa868d21c2)" d="M 236.063442 311.052 
L 236.063442 44.94 
" style="fill:none;stroke:#d55e00;stroke-dasharray:3.27904,1.417963;stroke-dashoffset:0;stroke-width:0.886227;"/>
   </g>
   <g id="text_16">
    <!-- Kegg -->
    <defs>
     <path d="M 9.8125 72.90625 
L 19.671875 72.90625 
L 19.671875 42.09375 
L 52.390625 72.90625 
L 65.09375 72.90625 
L 28.90625 38.921875 
L 67.671875 0 
L 54.6875 0 
L 19.671875 35.109375 
L 19.671875 0 
L 9.8125 0 
z
" id="DejaVuSans-75"/>
    </defs>
    <g style="fill:#1a1a1a;" transform="translate(239.67375 40.21825)scale(0.088 -0.088)">
     <use xlink:href="#DejaVuSans-75"/>
     <use x="60.576172" xlink:href="#DejaVuSans-101"/>
     <use x="122.099609" xlink:href="#DejaVuSans-103"/>
     <use x="185.576172" xlink:href="#DejaVuSans-103"/>
    </g>
   </g>
   <g id="LineCollection_32">
    <path clip-path="url(#pfa868d21c2)" d="M 277.699432 311.052 
L 277.699432 44.94 
" style="fill:none;stroke:#0072b2;stroke-dasharray:3.27904,1.417963;stroke-dashoffset:0;stroke-width:0.886227;"/>
   </g>
  </g>
  <g id="axes_3">
   <g id="patch_9">
    <path d="M 313.513188 311.052 
L 429.193187 311.052 
L 429.193187 44.94 
L 313.513188 44.94 
z
" style="fill:#ebebeb;"/>
   </g>
   <g id="matplotlib.axis_5">
    <g id="xtick_7">
     <g id="line2d_36">
      <path clip-path="url(#p5e2aca1e29)" d="M 356.783442 311.052 
L 356.783442 44.94 
" style="fill:none;stroke:#ffffff;stroke-linecap:square;"/>
     </g>
     <g id="line2d_37">
      <path d="M 356.783442 311.052 
" style="fill:none;stroke:#333333;stroke-linecap:square;stroke-width:1.2;"/>
      <g>
       <use style="fill:#333333;stroke:#333333;" x="356.783442" xlink:href="#mc2203b2654" y="311.052"/>
      </g>
     </g>
     <g id="text_17">
      <!-- 0.4 -->
      <g style="fill:#4d4d4d;" transform="translate(351.276874 330.534002)rotate(-30)scale(0.1 -0.1)">
       <use xlink:href="#DejaVuSans-48"/>
       <use x="63.623047" xlink:href="#DejaVuSans-46"/>
       <use x="95.410156" xlink:href="#DejaVuSans-52"/>
      </g>
     </g>
    </g>
    <g id="xtick_8">
     <g id="line2d_38">
      <path clip-path="url(#p5e2aca1e29)" d="M 398.419432 311.052 
L 398.419432 44.94 
" style="fill:none;stroke:#ffffff;stroke-linecap:square;"/>
     </g>
     <g id="line2d_39">
      <path d="M 398.419432 311.052 
" style="fill:none;stroke:#333333;stroke-linecap:square;stroke-width:1.2;"/>
      <g>
       <use style="fill:#333333;stroke:#333333;" x="398.419432" xlink:href="#mc2203b2654" y="311.052"/>
      </g>
     </g>
     <g id="text_18">
      <!-- 0.7 -->
      <g style="fill:#4d4d4d;" transform="translate(392.912864 330.534002)rotate(-30)scale(0.1 -0.1)">
       <use xlink:href="#DejaVuSans-48"/>
       <use x="63.623047" xlink:href="#DejaVuSans-46"/>
       <use x="95.410156" xlink:href="#DejaVuSans-55"/>
      </g>
     </g>
    </g>
    <g id="xtick_9">
     <g id="line2d_40">
      <path clip-path="url(#p5e2aca1e29)" d="M 377.601437 311.052 
L 377.601437 44.94 
" style="fill:none;stroke:#ffffff;stroke-linecap:square;stroke-width:0.5;"/>
     </g>
    </g>
    <g id="text_19">
     <!-- Stability Estimate -->
     <defs>
      <path d="M 48.6875 27.296875 
Q 48.6875 37.203125 44.609375 42.84375 
Q 40.53125 48.484375 33.40625 48.484375 
Q 26.265625 48.484375 22.1875 42.84375 
Q 18.109375 37.203125 18.109375 27.296875 
Q 18.109375 17.390625 22.1875 11.75 
Q 26.265625 6.109375 33.40625 6.109375 
Q 40.53125 6.109375 44.609375 11.75 
Q 48.6875 17.390625 48.6875 27.296875 
z
M 18.109375 46.390625 
Q 20.953125 51.265625 25.265625 53.625 
Q 29.59375 56 35.59375 56 
Q 45.5625 56 51.78125 48.09375 
Q 58.015625 40.1875 58.015625 27.296875 
Q 58.015625 14.40625 51.78125 6.484375 
Q 45.5625 -1.421875 35.59375 -1.421875 
Q 29.59375 -1.421875 25.265625 0.953125 
Q 20.953125 3.328125 18.109375 8.203125 
L 18.109375 0 
L 9.078125 0 
L 9.078125 75.984375 
L 18.109375 75.984375 
z
" id="DejaVuSans-98"/>
      <path d="M 32.171875 -5.078125 
Q 28.375 -14.84375 24.75 -17.8125 
Q 21.140625 -20.796875 15.09375 -20.796875 
L 7.90625 -20.796875 
L 7.90625 -13.28125 
L 13.1875 -13.28125 
Q 16.890625 -13.28125 18.9375 -11.515625 
Q 21 -9.765625 23.484375 -3.21875 
L 25.09375 0.875 
L 2.984375 54.6875 
L 12.5 54.6875 
L 29.59375 11.921875 
L 46.6875 54.6875 
L 56.203125 54.6875 
z
" id="DejaVuSans-121"/>
     </defs>
     <g transform="translate(196.327094 345.093346)scale(0.11 -0.11)">
      <use xlink:href="#DejaVuSans-83"/>
      <use x="63.476562" xlink:href="#DejaVuSans-116"/>
      <use x="102.685547" xlink:href="#DejaVuSans-97"/>
      <use x="163.964844" xlink:href="#DejaVuSans-98"/>
      <use x="227.441406" xlink:href="#DejaVuSans-105"/>
      <use x="255.224609" xlink:href="#DejaVuSans-108"/>
      <use x="283.007812" xlink:href="#DejaVuSans-105"/>
      <use x="310.791016" xlink:href="#DejaVuSans-116"/>
      <use x="350" xlink:href="#DejaVuSans-121"/>
      <use x="409.179688" xlink:href="#DejaVuSans-32"/>
      <use x="440.966797" xlink:href="#DejaVuSans-69"/>
      <use x="504.150391" xlink:href="#DejaVuSans-115"/>
      <use x="556.25" xlink:href="#DejaVuSans-116"/>
      <use x="595.458984" xlink:href="#DejaVuSans-105"/>
      <use x="623.242188" xlink:href="#DejaVuSans-109"/>
      <use x="720.654297" xlink:href="#DejaVuSans-97"/>
      <use x="781.933594" xlink:href="#DejaVuSans-116"/>
      <use x="821.142578" xlink:href="#DejaVuSans-101"/>
     </g>
    </g>
   </g>
   <g id="matplotlib.axis_6">
    <g id="ytick_15">
     <g id="line2d_41">
      <path clip-path="url(#p5e2aca1e29)" d="M 313.513188 288.876 
L 429.193187 288.876 
" style="fill:none;stroke:#ffffff;stroke-linecap:square;"/>
     </g>
    </g>
    <g id="ytick_16">
     <g id="line2d_42">
      <path clip-path="url(#p5e2aca1e29)" d="M 313.513188 251.916 
L 429.193187 251.916 
" style="fill:none;stroke:#ffffff;stroke-linecap:square;"/>
     </g>
    </g>
    <g id="ytick_17">
     <g id="line2d_43">
      <path clip-path="url(#p5e2aca1e29)" d="M 313.513188 214.956 
L 429.193187 214.956 
" style="fill:none;stroke:#ffffff;stroke-linecap:square;"/>
     </g>
    </g>
    <g id="ytick_18">
     <g id="line2d_44">
      <path clip-path="url(#p5e2aca1e29)" d="M 313.513188 177.996 
L 429.193187 177.996 
" style="fill:none;stroke:#ffffff;stroke-linecap:square;"/>
     </g>
    </g>
    <g id="ytick_19">
     <g id="line2d_45">
      <path clip-path="url(#p5e2aca1e29)" d="M 313.513188 141.036 
L 429.193187 141.036 
" style="fill:none;stroke:#ffffff;stroke-linecap:square;"/>
     </g>
    </g>
    <g id="ytick_20">
     <g id="line2d_46">
      <path clip-path="url(#p5e2aca1e29)" d="M 313.513188 104.076 
L 429.193187 104.076 
" style="fill:none;stroke:#ffffff;stroke-linecap:square;"/>
     </g>
    </g>
    <g id="ytick_21">
     <g id="line2d_47">
      <path clip-path="url(#p5e2aca1e29)" d="M 313.513188 67.116 
L 429.193187 67.116 
" style="fill:none;stroke:#ffffff;stroke-linecap:square;"/>
     </g>
    </g>
   </g>
   <g id="PathCollection_3">
    <path clip-path="url(#p5e2aca1e29)" d="M 390.841105 142.188095 
C 391.146644 142.188095 391.43971 142.066703 391.655759 141.850654 
C 391.871808 141.634605 391.9932 141.341539 391.9932 141.036 
C 391.9932 140.730461 391.871808 140.437395 391.655759 140.221346 
C 391.43971 140.005297 391.146644 139.883905 390.841105 139.883905 
C 390.535566 139.883905 390.2425 140.005297 390.026451 140.221346 
C 389.810402 140.437395 389.68901 140.730461 389.68901 141.036 
C 389.68901 141.341539 389.810402 141.634605 390.026451 141.850654 
C 390.2425 142.066703 390.535566 142.188095 390.841105 142.188095 
z
" style="stroke:#000000;stroke-width:0.886227;"/>
    <path clip-path="url(#p5e2aca1e29)" d="M 399.746651 179.148095 
C 400.05219 179.148095 400.345256 179.026703 400.561305 178.810654 
C 400.777354 178.594605 400.898746 178.301539 400.898746 177.996 
C 400.898746 177.690461 400.777354 177.397395 400.561305 177.181346 
C 400.345256 176.965297 400.05219 176.843905 399.746651 176.843905 
C 399.441111 176.843905 399.148045 176.965297 398.931996 177.181346 
C 398.715948 177.397395 398.594556 177.690461 398.594556 177.996 
C 398.594556 178.301539 398.715948 178.594605 398.931996 178.810654 
C 399.148045 179.026703 399.441111 179.148095 399.746651 179.148095 
z
" style="stroke:#000000;stroke-width:0.886227;"/>
    <path clip-path="url(#p5e2aca1e29)" d="M 410.668838 68.268095 
C 410.974377 68.268095 411.267443 68.146703 411.483492 67.930654 
C 411.699541 67.714605 411.820933 67.421539 411.820933 67.116 
C 411.820933 66.810461 411.699541 66.517395 411.483492 66.301346 
C 411.267443 66.085297 410.974377 65.963905 410.668838 65.963905 
C 410.363299 65.963905 410.070232 66.085297 409.854184 66.301346 
C 409.638135 66.517395 409.516743 66.810461 409.516743 67.116 
C 409.516743 67.421539 409.638135 67.714605 409.854184 67.930654 
C 410.070232 68.146703 410.363299 68.268095 410.668838 68.268095 
z
" style="stroke:#000000;stroke-width:0.886227;"/>
    <path clip-path="url(#p5e2aca1e29)" d="M 405.586458 290.028095 
C 405.891997 290.028095 406.185064 289.906703 406.401112 289.690654 
C 406.617161 289.474605 406.738553 289.181539 406.738553 288.876 
C 406.738553 288.570461 406.617161 288.277395 406.401112 288.061346 
C 406.185064 287.845297 405.891997 287.723905 405.586458 287.723905 
C 405.280919 287.723905 404.987853 287.845297 404.771804 288.061346 
C 404.555755 288.277395 404.434363 288.570461 404.434363 288.876 
C 404.434363 289.181539 404.555755 289.474605 404.771804 289.690654 
C 404.987853 289.906703 405.280919 290.028095 405.586458 290.028095 
z
" style="stroke:#000000;stroke-width:0.886227;"/>
    <path clip-path="url(#p5e2aca1e29)" d="M 401.755372 105.228095 
C 402.060911 105.228095 402.353977 105.106703 402.570026 104.890654 
C 402.786075 104.674605 402.907467 104.381539 402.907467 104.076 
C 402.907467 103.770461 402.786075 103.477395 402.570026 103.261346 
C 402.353977 103.045297 402.060911 102.923905 401.755372 102.923905 
C 401.449833 102.923905 401.156767 103.045297 400.940718 103.261346 
C 400.724669 103.477395 400.603277 103.770461 400.603277 104.076 
C 400.603277 104.381539 400.724669 104.674605 400.940718 104.890654 
C 401.156767 105.106703 401.449833 105.228095 401.755372 105.228095 
z
" style="stroke:#000000;stroke-width:0.886227;"/>
    <path clip-path="url(#p5e2aca1e29)" d="M 370.033931 253.068095 
C 370.33947 253.068095 370.632536 252.946703 370.848585 252.730654 
C 371.064634 252.514605 371.186026 252.221539 371.186026 251.916 
C 371.186026 251.610461 371.064634 251.317395 370.848585 251.101346 
C 370.632536 250.885297 370.33947 250.763905 370.033931 250.763905 
C 369.728391 250.763905 369.435325 250.885297 369.219276 251.101346 
C 369.003228 251.317395 368.881836 251.610461 368.881836 251.916 
C 368.881836 252.221539 369.003228 252.514605 369.219276 252.730654 
C 369.435325 252.946703 369.728391 253.068095 370.033931 253.068095 
z
" style="stroke:#000000;stroke-width:0.886227;"/>
    <path clip-path="url(#p5e2aca1e29)" d="M 399.176432 216.108095 
C 399.481971 216.108095 399.775037 215.986703 399.991086 215.770654 
C 400.207135 215.554605 400.328527 215.261539 400.328527 214.956 
C 400.328527 214.650461 400.207135 214.357395 399.991086 214.141346 
C 399.775037 213.925297 399.481971 213.803905 399.176432 213.803905 
C 398.870893 213.803905 398.577827 213.925297 398.361778 214.141346 
C 398.145729 214.357395 398.024337 214.650461 398.024337 214.956 
C 398.024337 215.261539 398.145729 215.554605 398.361778 215.770654 
C 398.577827 215.986703 398.870893 216.108095 399.176432 216.108095 
z
" style="stroke:#000000;stroke-width:0.886227;"/>
    <path clip-path="url(#p5e2aca1e29)" d="M 356.182515 142.188095 
C 356.488054 142.188095 356.781121 142.066703 356.997169 141.850654 
C 357.213218 141.634605 357.33461 141.341539 357.33461 141.036 
C 357.33461 140.730461 357.213218 140.437395 356.997169 140.221346 
C 356.781121 140.005297 356.488054 139.883905 356.182515 139.883905 
C 355.876976 139.883905 355.58391 140.005297 355.367861 140.221346 
C 355.151812 140.437395 355.03042 140.730461 355.03042 141.036 
C 355.03042 141.341539 355.151812 141.634605 355.367861 141.850654 
C 355.58391 142.066703 355.876976 142.188095 356.182515 142.188095 
z
" style="fill:#e69f00;stroke:#e69f00;stroke-width:0.886227;"/>
    <path clip-path="url(#p5e2aca1e29)" d="M 371.998656 179.148095 
C 372.304195 179.148095 372.597261 179.026703 372.81331 178.810654 
C 373.029359 178.594605 373.150751 178.301539 373.150751 177.996 
C 373.150751 177.690461 373.029359 177.397395 372.81331 177.181346 
C 372.597261 176.965297 372.304195 176.843905 371.998656 176.843905 
C 371.693117 176.843905 371.400051 176.965297 371.184002 177.181346 
C 370.967953 177.397395 370.846561 177.690461 370.846561 177.996 
C 370.846561 178.301539 370.967953 178.594605 371.184002 178.810654 
C 371.400051 179.026703 371.693117 179.148095 371.998656 179.148095 
z
" style="fill:#e69f00;stroke:#e69f00;stroke-width:0.886227;"/>
    <path clip-path="url(#p5e2aca1e29)" d="M 386.015972 68.268095 
C 386.321511 68.268095 386.614577 68.146703 386.830626 67.930654 
C 387.046675 67.714605 387.168067 67.421539 387.168067 67.116 
C 387.168067 66.810461 387.046675 66.517395 386.830626 66.301346 
C 386.614577 66.085297 386.321511 65.963905 386.015972 65.963905 
C 385.710433 65.963905 385.417366 66.085297 385.201318 66.301346 
C 384.985269 66.517395 384.863877 66.810461 384.863877 67.116 
C 384.863877 67.421539 384.985269 67.714605 385.201318 67.930654 
C 385.417366 68.146703 385.710433 68.268095 386.015972 68.268095 
z
" style="fill:#e69f00;stroke:#e69f00;stroke-width:0.886227;"/>
    <path clip-path="url(#p5e2aca1e29)" d="M 377.839648 290.028095 
C 378.145187 290.028095 378.438254 289.906703 378.654302 289.690654 
C 378.870351 289.474605 378.991743 289.181539 378.991743 288.876 
C 378.991743 288.570461 378.870351 288.277395 378.654302 288.061346 
C 378.438254 287.845297 378.145187 287.723905 377.839648 287.723905 
C 377.534109 287.723905 377.241043 287.845297 377.024994 288.061346 
C 376.808945 288.277395 376.687553 288.570461 376.687553 288.876 
C 376.687553 289.181539 376.808945 289.474605 377.024994 289.690654 
C 377.241043 289.906703 377.534109 290.028095 377.839648 290.028095 
z
" style="fill:#e69f00;stroke:#e69f00;stroke-width:0.886227;"/>
    <path clip-path="url(#p5e2aca1e29)" d="M 378.067723 105.228095 
C 378.373262 105.228095 378.666328 105.106703 378.882377 104.890654 
C 379.098426 104.674605 379.219818 104.381539 379.219818 104.076 
C 379.219818 103.770461 379.098426 103.477395 378.882377 103.261346 
C 378.666328 103.045297 378.373262 102.923905 378.067723 102.923905 
C 377.762184 102.923905 377.469117 103.045297 377.253069 103.261346 
C 377.03702 103.477395 376.915628 103.770461 376.915628 104.076 
C 376.915628 104.381539 377.03702 104.674605 377.253069 104.890654 
C 377.469117 105.106703 377.762184 105.228095 378.067723 105.228095 
z
" style="fill:#e69f00;stroke:#e69f00;stroke-width:0.886227;"/>
    <path clip-path="url(#p5e2aca1e29)" d="M 335.597385 253.068095 
C 335.902924 253.068095 336.19599 252.946703 336.412039 252.730654 
C 336.628088 252.514605 336.74948 252.221539 336.74948 251.916 
C 336.74948 251.610461 336.628088 251.317395 336.412039 251.101346 
C 336.19599 250.885297 335.902924 250.763905 335.597385 250.763905 
C 335.291845 250.763905 334.998779 250.885297 334.78273 251.101346 
C 334.566682 251.317395 334.44529 251.610461 334.44529 251.916 
C 334.44529 252.221539 334.566682 252.514605 334.78273 252.730654 
C 334.998779 252.946703 335.291845 253.068095 335.597385 253.068095 
z
" style="fill:#e69f00;stroke:#e69f00;stroke-width:0.886227;"/>
    <path clip-path="url(#p5e2aca1e29)" d="M 362.956833 216.108095 
C 363.262372 216.108095 363.555438 215.986703 363.771487 215.770654 
C 363.987536 215.554605 364.108928 215.261539 364.108928 214.956 
C 364.108928 214.650461 363.987536 214.357395 363.771487 214.141346 
C 363.555438 213.925297 363.262372 213.803905 362.956833 213.803905 
C 362.651294 213.803905 362.358227 213.925297 362.142179 214.141346 
C 361.92613 214.357395 361.804738 214.650461 361.804738 214.956 
C 361.804738 215.261539 361.92613 215.554605 362.142179 215.770654 
C 362.358227 215.986703 362.651294 216.108095 362.956833 216.108095 
z
" style="fill:#e69f00;stroke:#e69f00;stroke-width:0.886227;"/>
   </g>
   <g id="LineCollection_33">
    <path clip-path="url(#p5e2aca1e29)" d="M 404.618244 292.572 
L 404.618244 285.18 
" style="fill:none;stroke:#000000;stroke-width:0.886227;"/>
    <path clip-path="url(#p5e2aca1e29)" d="M 406.554672 292.572 
L 406.554672 285.18 
" style="fill:none;stroke:#000000;stroke-width:0.886227;"/>
    <path clip-path="url(#p5e2aca1e29)" d="M 404.618244 288.876 
L 406.554672 288.876 
" style="fill:none;stroke:#000000;stroke-width:0.886227;"/>
   </g>
   <g id="LineCollection_34">
    <path clip-path="url(#p5e2aca1e29)" d="M 376.664054 292.572 
L 376.664054 285.18 
" style="fill:none;stroke:#e69f00;stroke-width:0.886227;"/>
    <path clip-path="url(#p5e2aca1e29)" d="M 379.015243 292.572 
L 379.015243 285.18 
" style="fill:none;stroke:#e69f00;stroke-width:0.886227;"/>
    <path clip-path="url(#p5e2aca1e29)" d="M 376.664054 288.876 
L 379.015243 288.876 
" style="fill:none;stroke:#e69f00;stroke-width:0.886227;"/>
   </g>
   <g id="LineCollection_35">
    <path clip-path="url(#p5e2aca1e29)" d="M 367.559264 255.612 
L 367.559264 248.22 
" style="fill:none;stroke:#000000;stroke-width:0.886227;"/>
    <path clip-path="url(#p5e2aca1e29)" d="M 372.508597 255.612 
L 372.508597 248.22 
" style="fill:none;stroke:#000000;stroke-width:0.886227;"/>
    <path clip-path="url(#p5e2aca1e29)" d="M 367.559264 251.916 
L 372.508597 251.916 
" style="fill:none;stroke:#000000;stroke-width:0.886227;"/>
   </g>
   <g id="LineCollection_36">
    <path clip-path="url(#p5e2aca1e29)" d="M 332.216346 255.612 
L 332.216346 248.22 
" style="fill:none;stroke:#e69f00;stroke-width:0.886227;"/>
    <path clip-path="url(#p5e2aca1e29)" d="M 338.978423 255.612 
L 338.978423 248.22 
" style="fill:none;stroke:#e69f00;stroke-width:0.886227;"/>
    <path clip-path="url(#p5e2aca1e29)" d="M 332.216346 251.916 
L 338.978423 251.916 
" style="fill:none;stroke:#e69f00;stroke-width:0.886227;"/>
   </g>
   <g id="LineCollection_37">
    <path clip-path="url(#p5e2aca1e29)" d="M 398.390693 218.652 
L 398.390693 211.26 
" style="fill:none;stroke:#000000;stroke-width:0.886227;"/>
    <path clip-path="url(#p5e2aca1e29)" d="M 399.962171 218.652 
L 399.962171 211.26 
" style="fill:none;stroke:#000000;stroke-width:0.886227;"/>
    <path clip-path="url(#p5e2aca1e29)" d="M 398.390693 214.956 
L 399.962171 214.956 
" style="fill:none;stroke:#000000;stroke-width:0.886227;"/>
   </g>
   <g id="LineCollection_38">
    <path clip-path="url(#p5e2aca1e29)" d="M 361.156061 218.652 
L 361.156061 211.26 
" style="fill:none;stroke:#e69f00;stroke-width:0.886227;"/>
    <path clip-path="url(#p5e2aca1e29)" d="M 364.757605 218.652 
L 364.757605 211.26 
" style="fill:none;stroke:#e69f00;stroke-width:0.886227;"/>
    <path clip-path="url(#p5e2aca1e29)" d="M 361.156061 214.956 
L 364.757605 214.956 
" style="fill:none;stroke:#e69f00;stroke-width:0.886227;"/>
   </g>
   <g id="LineCollection_39">
    <path clip-path="url(#p5e2aca1e29)" d="M 399.103844 181.692 
L 399.103844 174.3 
" style="fill:none;stroke:#000000;stroke-width:0.886227;"/>
    <path clip-path="url(#p5e2aca1e29)" d="M 400.389457 181.692 
L 400.389457 174.3 
" style="fill:none;stroke:#000000;stroke-width:0.886227;"/>
    <path clip-path="url(#p5e2aca1e29)" d="M 399.103844 177.996 
L 400.389457 177.996 
" style="fill:none;stroke:#000000;stroke-width:0.886227;"/>
   </g>
   <g id="LineCollection_40">
    <path clip-path="url(#p5e2aca1e29)" d="M 370.774932 181.692 
L 370.774932 174.3 
" style="fill:none;stroke:#e69f00;stroke-width:0.886227;"/>
    <path clip-path="url(#p5e2aca1e29)" d="M 373.22238 181.692 
L 373.22238 174.3 
" style="fill:none;stroke:#e69f00;stroke-width:0.886227;"/>
    <path clip-path="url(#p5e2aca1e29)" d="M 370.774932 177.996 
L 373.22238 177.996 
" style="fill:none;stroke:#e69f00;stroke-width:0.886227;"/>
   </g>
   <g id="LineCollection_41">
    <path clip-path="url(#p5e2aca1e29)" d="M 390.009128 144.732 
L 390.009128 137.34 
" style="fill:none;stroke:#000000;stroke-width:0.886227;"/>
    <path clip-path="url(#p5e2aca1e29)" d="M 391.673082 144.732 
L 391.673082 137.34 
" style="fill:none;stroke:#000000;stroke-width:0.886227;"/>
    <path clip-path="url(#p5e2aca1e29)" d="M 390.009128 141.036 
L 391.673082 141.036 
" style="fill:none;stroke:#000000;stroke-width:0.886227;"/>
   </g>
   <g id="LineCollection_42">
    <path clip-path="url(#p5e2aca1e29)" d="M 354.606107 144.732 
L 354.606107 137.34 
" style="fill:none;stroke:#e69f00;stroke-width:0.886227;"/>
    <path clip-path="url(#p5e2aca1e29)" d="M 357.758923 144.732 
L 357.758923 137.34 
" style="fill:none;stroke:#e69f00;stroke-width:0.886227;"/>
    <path clip-path="url(#p5e2aca1e29)" d="M 354.606107 141.036 
L 357.758923 141.036 
" style="fill:none;stroke:#e69f00;stroke-width:0.886227;"/>
   </g>
   <g id="LineCollection_43">
    <path clip-path="url(#p5e2aca1e29)" d="M 401.071965 107.772 
L 401.071965 100.38 
" style="fill:none;stroke:#000000;stroke-width:0.886227;"/>
    <path clip-path="url(#p5e2aca1e29)" d="M 402.438779 107.772 
L 402.438779 100.38 
" style="fill:none;stroke:#000000;stroke-width:0.886227;"/>
    <path clip-path="url(#p5e2aca1e29)" d="M 401.071965 104.076 
L 402.438779 104.076 
" style="fill:none;stroke:#000000;stroke-width:0.886227;"/>
   </g>
   <g id="LineCollection_44">
    <path clip-path="url(#p5e2aca1e29)" d="M 376.746397 107.772 
L 376.746397 100.38 
" style="fill:none;stroke:#e69f00;stroke-width:0.886227;"/>
    <path clip-path="url(#p5e2aca1e29)" d="M 379.389048 107.772 
L 379.389048 100.38 
" style="fill:none;stroke:#e69f00;stroke-width:0.886227;"/>
    <path clip-path="url(#p5e2aca1e29)" d="M 376.746397 104.076 
L 379.389048 104.076 
" style="fill:none;stroke:#e69f00;stroke-width:0.886227;"/>
   </g>
   <g id="LineCollection_45">
    <path clip-path="url(#p5e2aca1e29)" d="M 410.207661 70.812 
L 410.207661 63.42 
" style="fill:none;stroke:#000000;stroke-width:0.886227;"/>
    <path clip-path="url(#p5e2aca1e29)" d="M 411.130015 70.812 
L 411.130015 63.42 
" style="fill:none;stroke:#000000;stroke-width:0.886227;"/>
    <path clip-path="url(#p5e2aca1e29)" d="M 410.207661 67.116 
L 411.130015 67.116 
" style="fill:none;stroke:#000000;stroke-width:0.886227;"/>
   </g>
   <g id="LineCollection_46">
    <path clip-path="url(#p5e2aca1e29)" d="M 384.9513 70.812 
L 384.9513 63.42 
" style="fill:none;stroke:#e69f00;stroke-width:0.886227;"/>
    <path clip-path="url(#p5e2aca1e29)" d="M 387.080644 70.812 
L 387.080644 63.42 
" style="fill:none;stroke:#e69f00;stroke-width:0.886227;"/>
    <path clip-path="url(#p5e2aca1e29)" d="M 384.9513 67.116 
L 387.080644 67.116 
" style="fill:none;stroke:#e69f00;stroke-width:0.886227;"/>
   </g>
   <g id="patch_10">
    <path d="M 313.513188 44.94 
L 429.193187 44.94 
L 429.193187 30.64 
L 313.513188 30.64 
z
" style="fill:#d9d9d9;"/>
   </g>
   <g id="LineCollection_47">
    <path clip-path="url(#p5e2aca1e29)" d="M 356.783442 311.052 
L 356.783442 44.94 
" style="fill:none;stroke:#d55e00;stroke-dasharray:3.27904,1.417963;stroke-dashoffset:0;stroke-width:0.886227;"/>
   </g>
   <g id="text_20">
    <!-- Taxonomic -->
    <defs>
     <path d="M 54.890625 54.6875 
L 35.109375 28.078125 
L 55.90625 0 
L 45.3125 0 
L 29.390625 21.484375 
L 13.484375 0 
L 2.875 0 
L 24.125 28.609375 
L 4.6875 54.6875 
L 15.28125 54.6875 
L 29.78125 35.203125 
L 44.28125 54.6875 
z
" id="DejaVuSans-120"/>
    </defs>
    <g style="fill:#1a1a1a;" transform="translate(348.128062 40.21825)scale(0.088 -0.088)">
     <use xlink:href="#DejaVuSans-84"/>
     <use x="44.583984" xlink:href="#DejaVuSans-97"/>
     <use x="105.863281" xlink:href="#DejaVuSans-120"/>
     <use x="161.917969" xlink:href="#DejaVuSans-111"/>
     <use x="223.099609" xlink:href="#DejaVuSans-110"/>
     <use x="286.478516" xlink:href="#DejaVuSans-111"/>
     <use x="347.660156" xlink:href="#DejaVuSans-109"/>
     <use x="445.072266" xlink:href="#DejaVuSans-105"/>
     <use x="472.855469" xlink:href="#DejaVuSans-99"/>
    </g>
   </g>
   <g id="LineCollection_48">
    <path clip-path="url(#p5e2aca1e29)" d="M 398.419432 311.052 
L 398.419432 44.94 
" style="fill:none;stroke:#0072b2;stroke-dasharray:3.27904,1.417963;stroke-dashoffset:0;stroke-width:0.886227;"/>
   </g>
  </g>
 </g>
 <defs>
  <clipPath id="ped4a103fdd">
   <rect height="266.112" width="115.68" x="72.073188" y="44.94"/>
  </clipPath>
  <clipPath id="p3074d73e38">
   <path d="M 186.1985 23.24 
L 186.1985 7.4 
L 202.0385 7.4 
L 202.0385 23.24 
"/>
  </clipPath>
  <clipPath id="pbb0b100b53">
   <path d="M 241.75975 23.24 
L 241.75975 7.4 
L 257.59975 7.4 
L 257.59975 23.24 
"/>
  </clipPath>
  <clipPath id="pfa868d21c2">
   <rect height="266.112" width="115.68" x="192.793187" y="44.94"/>
  </clipPath>
  <clipPath id="p5e2aca1e29">
   <rect height="266.112" width="115.68" x="313.513188" y="44.94"/>
  </clipPath>
 </defs>
</svg>
